G04 #@! TF.GenerationSoftware,KiCad,Pcbnew,7.99.0-4156-g4770532511*
G04 #@! TF.CreationDate,2024-01-07T23:02:07-05:00*
G04 #@! TF.ProjectId,emfi,656d6669-2e6b-4696-9361-645f70636258,0.1*
G04 #@! TF.SameCoordinates,Original*
G04 #@! TF.FileFunction,Copper,L2,Bot*
G04 #@! TF.FilePolarity,Positive*
%FSLAX46Y46*%
G04 Gerber Fmt 4.6, Leading zero omitted, Abs format (unit mm)*
G04 Created by KiCad (PCBNEW 7.99.0-4156-g4770532511) date 2024-01-07 23:02:07*
%MOMM*%
%LPD*%
G01*
G04 APERTURE LIST*
G04 Aperture macros list*
%AMRoundRect*
0 Rectangle with rounded corners*
0 $1 Rounding radius*
0 $2 $3 $4 $5 $6 $7 $8 $9 X,Y pos of 4 corners*
0 Add a 4 corners polygon primitive as box body*
4,1,4,$2,$3,$4,$5,$6,$7,$8,$9,$2,$3,0*
0 Add four circle primitives for the rounded corners*
1,1,$1+$1,$2,$3*
1,1,$1+$1,$4,$5*
1,1,$1+$1,$6,$7*
1,1,$1+$1,$8,$9*
0 Add four rect primitives between the rounded corners*
20,1,$1+$1,$2,$3,$4,$5,0*
20,1,$1+$1,$4,$5,$6,$7,0*
20,1,$1+$1,$6,$7,$8,$9,0*
20,1,$1+$1,$8,$9,$2,$3,0*%
G04 Aperture macros list end*
G04 #@! TA.AperFunction,ComponentPad*
%ADD10R,1.700000X1.700000*%
G04 #@! TD*
G04 #@! TA.AperFunction,ComponentPad*
%ADD11O,1.700000X1.700000*%
G04 #@! TD*
G04 #@! TA.AperFunction,ComponentPad*
%ADD12O,1.800000X1.150000*%
G04 #@! TD*
G04 #@! TA.AperFunction,ComponentPad*
%ADD13O,2.000000X1.450000*%
G04 #@! TD*
G04 #@! TA.AperFunction,SMDPad,CuDef*
%ADD14RoundRect,0.218750X-0.218750X-0.256250X0.218750X-0.256250X0.218750X0.256250X-0.218750X0.256250X0*%
G04 #@! TD*
G04 #@! TA.AperFunction,SMDPad,CuDef*
%ADD15RoundRect,0.218750X0.256250X-0.218750X0.256250X0.218750X-0.256250X0.218750X-0.256250X-0.218750X0*%
G04 #@! TD*
G04 #@! TA.AperFunction,SMDPad,CuDef*
%ADD16RoundRect,0.218750X-0.256250X0.218750X-0.256250X-0.218750X0.256250X-0.218750X0.256250X0.218750X0*%
G04 #@! TD*
G04 #@! TA.AperFunction,SMDPad,CuDef*
%ADD17RoundRect,0.218750X0.218750X0.256250X-0.218750X0.256250X-0.218750X-0.256250X0.218750X-0.256250X0*%
G04 #@! TD*
G04 #@! TA.AperFunction,SMDPad,CuDef*
%ADD18R,1.500000X2.000000*%
G04 #@! TD*
G04 #@! TA.AperFunction,SMDPad,CuDef*
%ADD19R,3.800000X2.000000*%
G04 #@! TD*
G04 #@! TA.AperFunction,SMDPad,CuDef*
%ADD20R,1.550000X0.600000*%
G04 #@! TD*
G04 #@! TA.AperFunction,ComponentPad*
%ADD21R,4.500000X2.500000*%
G04 #@! TD*
G04 #@! TA.AperFunction,ComponentPad*
%ADD22O,4.500000X2.500000*%
G04 #@! TD*
G04 #@! TA.AperFunction,ViaPad*
%ADD23C,0.800000*%
G04 #@! TD*
G04 #@! TA.AperFunction,Conductor*
%ADD24C,0.250000*%
G04 #@! TD*
G04 #@! TA.AperFunction,Conductor*
%ADD25C,1.000000*%
G04 #@! TD*
G04 #@! TA.AperFunction,Conductor*
%ADD26C,0.500000*%
G04 #@! TD*
G04 #@! TA.AperFunction,Conductor*
%ADD27C,0.700000*%
G04 #@! TD*
G04 APERTURE END LIST*
D10*
X93500000Y-37750000D03*
D11*
X90960000Y-37750000D03*
X88420000Y-37750000D03*
D10*
X55300000Y-56200000D03*
D11*
X55300000Y-53660000D03*
D12*
X44850000Y-51125000D03*
D13*
X48650000Y-51275000D03*
X48650000Y-58725000D03*
D12*
X44850000Y-58875000D03*
D14*
X76212500Y-59250000D03*
X77787500Y-59250000D03*
X72962500Y-59250000D03*
X74537500Y-59250000D03*
X65762500Y-51250000D03*
X67337500Y-51250000D03*
D15*
X61500000Y-56387500D03*
X61500000Y-54812500D03*
X63050000Y-56387500D03*
X63050000Y-54812500D03*
D16*
X66800000Y-39412500D03*
X66800000Y-40987500D03*
D17*
X67337500Y-48150000D03*
X65762500Y-48150000D03*
D15*
X67700000Y-56387500D03*
X67700000Y-54812500D03*
D17*
X67337500Y-49700000D03*
X65762500Y-49700000D03*
D16*
X61200000Y-49562500D03*
X61200000Y-51137500D03*
D15*
X66150000Y-56387500D03*
X66150000Y-54812500D03*
D16*
X59650000Y-49562500D03*
X59650000Y-51137500D03*
D17*
X61537500Y-53300000D03*
X59962500Y-53300000D03*
D15*
X164250000Y-41537500D03*
X164250000Y-39962500D03*
D18*
X77811079Y-56914277D03*
X75511079Y-56914277D03*
D19*
X75511079Y-50614277D03*
D18*
X73211079Y-56914277D03*
D20*
X157050000Y-37905000D03*
X157050000Y-36635000D03*
X157050000Y-35365000D03*
X157050000Y-34095000D03*
X162450000Y-34095000D03*
X162450000Y-35365000D03*
X162450000Y-36635000D03*
X162450000Y-37905000D03*
D16*
X71000000Y-38712500D03*
X71000000Y-40287500D03*
D21*
X160750000Y-41550000D03*
D22*
X160750000Y-47000000D03*
X160750000Y-52450000D03*
D23*
X44000000Y-45000000D03*
X44000000Y-49000000D03*
X44000000Y-48000000D03*
X44000000Y-47000000D03*
X44000000Y-46000000D03*
X44000000Y-33000000D03*
X44000000Y-32000000D03*
X44000000Y-31000000D03*
X44000000Y-30000000D03*
X45000000Y-29000000D03*
X46000000Y-29000000D03*
X47000000Y-29000000D03*
X48000000Y-29000000D03*
X49000000Y-29000000D03*
X50000000Y-29000000D03*
X51000000Y-29000000D03*
X52000000Y-29000000D03*
X53000000Y-29000000D03*
X60000000Y-29000000D03*
X56000000Y-29000000D03*
X62000000Y-29000000D03*
X58000000Y-29000000D03*
X55000000Y-29000000D03*
X59000000Y-29000000D03*
X54000000Y-29000000D03*
X61000000Y-29000000D03*
X57000000Y-29000000D03*
X78000000Y-29000000D03*
X75000000Y-29000000D03*
X68000000Y-29000000D03*
X64000000Y-29000000D03*
X79000000Y-29000000D03*
X70000000Y-29000000D03*
X66000000Y-29000000D03*
X63000000Y-29000000D03*
X67000000Y-29000000D03*
X72000000Y-29000000D03*
X76000000Y-29000000D03*
X69000000Y-29000000D03*
X71000000Y-29000000D03*
X73000000Y-29000000D03*
X74000000Y-29000000D03*
X65000000Y-29000000D03*
X77000000Y-29000000D03*
X84000000Y-29000000D03*
X92000000Y-29000000D03*
X87000000Y-29000000D03*
X91000000Y-29000000D03*
X93000000Y-29000000D03*
X90000000Y-29000000D03*
X80000000Y-29000000D03*
X86000000Y-29000000D03*
X95000000Y-29000000D03*
X88000000Y-29000000D03*
X89000000Y-29000000D03*
X96000000Y-29000000D03*
X81000000Y-29000000D03*
X94000000Y-29000000D03*
X83000000Y-29000000D03*
X85000000Y-29000000D03*
X82000000Y-29000000D03*
X100000000Y-29000000D03*
X99000000Y-29000000D03*
X112000000Y-29000000D03*
X101000000Y-29000000D03*
X98000000Y-29000000D03*
X107000000Y-29000000D03*
X105000000Y-29000000D03*
X109000000Y-29000000D03*
X119000000Y-29000000D03*
X110000000Y-29000000D03*
X118000000Y-29000000D03*
X103000000Y-29000000D03*
X108000000Y-29000000D03*
X97000000Y-29000000D03*
X111000000Y-29000000D03*
X104000000Y-29000000D03*
X116000000Y-29000000D03*
X106000000Y-29000000D03*
X113000000Y-29000000D03*
X117000000Y-29000000D03*
X121000000Y-29000000D03*
X114000000Y-29000000D03*
X115000000Y-29000000D03*
X102000000Y-29000000D03*
X120000000Y-29000000D03*
X140000000Y-29000000D03*
X132000000Y-29000000D03*
X141000000Y-29000000D03*
X124000000Y-29000000D03*
X145000000Y-29000000D03*
X142000000Y-29000000D03*
X126000000Y-29000000D03*
X123000000Y-29000000D03*
X146000000Y-29000000D03*
X122000000Y-29000000D03*
X135000000Y-29000000D03*
X125000000Y-29000000D03*
X138000000Y-29000000D03*
X136000000Y-29000000D03*
X133000000Y-29000000D03*
X144000000Y-29000000D03*
X130000000Y-29000000D03*
X129000000Y-29000000D03*
X134000000Y-29000000D03*
X128000000Y-29000000D03*
X131000000Y-29000000D03*
X139000000Y-29000000D03*
X137000000Y-29000000D03*
X127000000Y-29000000D03*
X143000000Y-29000000D03*
X158000000Y-29000000D03*
X157000000Y-29000000D03*
X151000000Y-29000000D03*
X147000000Y-29000000D03*
X149000000Y-29000000D03*
X150000000Y-29000000D03*
X155000000Y-29000000D03*
X154000000Y-29000000D03*
X153000000Y-29000000D03*
X156000000Y-29000000D03*
X148000000Y-29000000D03*
X152000000Y-29000000D03*
X159000000Y-29000000D03*
X160000000Y-29000000D03*
X161000000Y-29000000D03*
X162000000Y-29000000D03*
X163000000Y-29000000D03*
X164000000Y-29000000D03*
X164000000Y-65000000D03*
X163000000Y-65000000D03*
X162000000Y-65000000D03*
X161000000Y-65000000D03*
X160000000Y-65000000D03*
X158000000Y-65000000D03*
X159000000Y-65000000D03*
X157000000Y-65000000D03*
X155000000Y-65000000D03*
X152000000Y-65000000D03*
X156000000Y-65000000D03*
X153000000Y-65000000D03*
X154000000Y-65000000D03*
X150000000Y-65000000D03*
X147000000Y-65000000D03*
X148000000Y-65000000D03*
X151000000Y-65000000D03*
X146000000Y-65000000D03*
X149000000Y-65000000D03*
X145000000Y-65000000D03*
X143000000Y-65000000D03*
X142000000Y-65000000D03*
X141000000Y-65000000D03*
X140000000Y-65000000D03*
X144000000Y-65000000D03*
X128000000Y-65000000D03*
X126000000Y-65000000D03*
X125000000Y-65000000D03*
X133000000Y-65000000D03*
X130000000Y-65000000D03*
X138000000Y-65000000D03*
X131000000Y-65000000D03*
X135000000Y-65000000D03*
X139000000Y-65000000D03*
X134000000Y-65000000D03*
X136000000Y-65000000D03*
X124000000Y-65000000D03*
X129000000Y-65000000D03*
X127000000Y-65000000D03*
X132000000Y-65000000D03*
X137000000Y-65000000D03*
X116000000Y-65000000D03*
X110000000Y-65000000D03*
X108000000Y-65000000D03*
X109000000Y-65000000D03*
X122000000Y-65000000D03*
X121000000Y-65000000D03*
X117000000Y-65000000D03*
X119000000Y-65000000D03*
X112000000Y-65000000D03*
X115000000Y-65000000D03*
X111000000Y-65000000D03*
X120000000Y-65000000D03*
X114000000Y-65000000D03*
X113000000Y-65000000D03*
X123000000Y-65000000D03*
X118000000Y-65000000D03*
X105000000Y-65000000D03*
X94000000Y-65000000D03*
X95000000Y-65000000D03*
X97000000Y-65000000D03*
X104000000Y-65000000D03*
X96000000Y-65000000D03*
X103000000Y-65000000D03*
X93000000Y-65000000D03*
X106000000Y-65000000D03*
X92000000Y-65000000D03*
X102000000Y-65000000D03*
X100000000Y-65000000D03*
X99000000Y-65000000D03*
X98000000Y-65000000D03*
X101000000Y-65000000D03*
X107000000Y-65000000D03*
X91000000Y-65000000D03*
X76000000Y-65000000D03*
X86000000Y-65000000D03*
X88000000Y-65000000D03*
X89000000Y-65000000D03*
X81000000Y-65000000D03*
X84000000Y-65000000D03*
X83000000Y-65000000D03*
X82000000Y-65000000D03*
X85000000Y-65000000D03*
X80000000Y-65000000D03*
X87000000Y-65000000D03*
X90000000Y-65000000D03*
X78000000Y-65000000D03*
X79000000Y-65000000D03*
X77000000Y-65000000D03*
X68000000Y-65000000D03*
X66000000Y-65000000D03*
X69000000Y-65000000D03*
X73000000Y-65000000D03*
X72000000Y-65000000D03*
X60000000Y-65000000D03*
X67000000Y-65000000D03*
X75000000Y-65000000D03*
X70000000Y-65000000D03*
X62000000Y-65000000D03*
X63000000Y-65000000D03*
X61000000Y-65000000D03*
X65000000Y-65000000D03*
X71000000Y-65000000D03*
X74000000Y-65000000D03*
X64000000Y-65000000D03*
X49000000Y-65000000D03*
X53000000Y-65000000D03*
X57000000Y-65000000D03*
X51000000Y-65000000D03*
X52000000Y-65000000D03*
X50000000Y-65000000D03*
X55000000Y-65000000D03*
X58000000Y-65000000D03*
X59000000Y-65000000D03*
X54000000Y-65000000D03*
X45000000Y-65000000D03*
X48000000Y-65000000D03*
X47000000Y-65000000D03*
X56000000Y-65000000D03*
X46000000Y-65000000D03*
X44000000Y-64000000D03*
X44000000Y-63000000D03*
X44000000Y-62000000D03*
X44000000Y-61000000D03*
X165000000Y-29000000D03*
X166000000Y-29000000D03*
X167000000Y-29000000D03*
X168000000Y-29000000D03*
X169000000Y-29000000D03*
X170000000Y-30000000D03*
X171000000Y-31000000D03*
X172000000Y-32000000D03*
X173000000Y-33000000D03*
X174000000Y-34000000D03*
X174000000Y-46000000D03*
X174000000Y-47000000D03*
X174000000Y-48000000D03*
X174000000Y-60000000D03*
X173000000Y-61000000D03*
X172000000Y-62000000D03*
X171000000Y-63000000D03*
X170000000Y-64000000D03*
X169000000Y-65000000D03*
X168000000Y-65000000D03*
X167000000Y-65000000D03*
X166000000Y-65000000D03*
X165000000Y-65000000D03*
X84000000Y-41000000D03*
X84000000Y-43000000D03*
X84000000Y-45000000D03*
X84000000Y-47000000D03*
X84000000Y-49000000D03*
X84000000Y-51000000D03*
X84000000Y-53000000D03*
X84000000Y-63000000D03*
X84000000Y-59000000D03*
X84000000Y-57000000D03*
X55750000Y-42000000D03*
X64500000Y-42000000D03*
X63750000Y-49000000D03*
X63750000Y-53000000D03*
X67750000Y-53000000D03*
X63000000Y-60750000D03*
X66500000Y-60750000D03*
X156500000Y-53600000D03*
X156500000Y-40300000D03*
X76150000Y-48000000D03*
X52750000Y-48250000D03*
X84000000Y-33100010D03*
X71738990Y-45350000D03*
X50250000Y-56250000D03*
X73650000Y-45350000D03*
X84000000Y-30899990D03*
X53250000Y-36500000D03*
X68450000Y-50850000D03*
X94500000Y-58000000D03*
X114500000Y-56500000D03*
X167000000Y-51750000D03*
X167000000Y-56250000D03*
X87250000Y-32000000D03*
X59350000Y-54700000D03*
X167000000Y-37750000D03*
X167000000Y-42250000D03*
X71000000Y-37250000D03*
X85250000Y-37000000D03*
X53000000Y-44000000D03*
X74750000Y-48000000D03*
X76750000Y-54000000D03*
X68650000Y-48150000D03*
X57250000Y-36999952D03*
X59900000Y-48400000D03*
X68550000Y-57450000D03*
X66150000Y-57500000D03*
X62900000Y-57500000D03*
X60200000Y-57500000D03*
X64750000Y-38250000D03*
X61750000Y-42250000D03*
X66850000Y-38250000D03*
X68450000Y-49600000D03*
X60950000Y-48400000D03*
X59725000Y-46120484D03*
X54500000Y-46000000D03*
D24*
X65762500Y-48150000D02*
X65762500Y-49700000D01*
D25*
X161087500Y-52787500D02*
X160750000Y-52450000D01*
D26*
X52750000Y-48250000D02*
X52750000Y-53750000D01*
X78048579Y-59264277D02*
X78048579Y-57151777D01*
D24*
X61200000Y-51137500D02*
X59650000Y-51137500D01*
X61537500Y-54775000D02*
X61500000Y-54812500D01*
X61537500Y-53300000D02*
X61537500Y-51475000D01*
X61537500Y-51475000D02*
X61200000Y-51137500D01*
D26*
X52750000Y-53750000D02*
X50250000Y-56250000D01*
X78048579Y-57151777D02*
X77811079Y-56914277D01*
D27*
X76150000Y-48000000D02*
X76150000Y-47850000D01*
D24*
X61537500Y-53300000D02*
X61537500Y-54775000D01*
X65762500Y-49700000D02*
X62637500Y-49700000D01*
X67700000Y-54812500D02*
X61500000Y-54812500D01*
D27*
X76150000Y-47850000D02*
X73650000Y-45350000D01*
D24*
X73650000Y-45500000D02*
X73650000Y-45350000D01*
X62637500Y-49700000D02*
X61200000Y-51137500D01*
D27*
X73650000Y-45350000D02*
X71738990Y-45350000D01*
D24*
X67337500Y-51250000D02*
X68050000Y-51250000D01*
X68050000Y-51250000D02*
X68450000Y-50850000D01*
X94500000Y-58000000D02*
X113000000Y-58000000D01*
X113000000Y-58000000D02*
X114500000Y-56500000D01*
D25*
X167000000Y-56250000D02*
X167000000Y-51750000D01*
X153885000Y-36635000D02*
X149250000Y-32000000D01*
D26*
X157050000Y-36635000D02*
X153885000Y-36635000D01*
D25*
X149250000Y-32000000D02*
X87250000Y-32000000D01*
D24*
X59350000Y-53912500D02*
X59962500Y-53300000D01*
X59350000Y-54700000D02*
X59350000Y-53912500D01*
D25*
X164250000Y-41537500D02*
X160762500Y-41537500D01*
X160762500Y-41537500D02*
X160750000Y-41550000D01*
X167000000Y-42250000D02*
X167000000Y-37750000D01*
X162450000Y-37905000D02*
X157050000Y-37905000D01*
X93655000Y-37905000D02*
X93500000Y-37750000D01*
X158300000Y-37905000D02*
X93655000Y-37905000D01*
D24*
X85250000Y-37000000D02*
X71250000Y-37000000D01*
X71000000Y-38712500D02*
X71000000Y-37250000D01*
X71250000Y-37000000D02*
X71000000Y-37250000D01*
D25*
X73250000Y-53750000D02*
X71000000Y-51500000D01*
X57500000Y-44000000D02*
X53000000Y-44000000D01*
D24*
X72962500Y-59250000D02*
X72962500Y-57162856D01*
D25*
X73250000Y-56875356D02*
X73211079Y-56914277D01*
X74250000Y-47500000D02*
X74750000Y-48000000D01*
X73250000Y-53750000D02*
X73250000Y-56875356D01*
X71000000Y-47500000D02*
X67500000Y-44000000D01*
X71000000Y-51500000D02*
X71000000Y-47500000D01*
D24*
X72962500Y-57162856D02*
X73211079Y-56914277D01*
D25*
X67500000Y-44000000D02*
X57500000Y-44000000D01*
X71000000Y-47500000D02*
X74250000Y-47500000D01*
X78750000Y-54000000D02*
X76750000Y-54000000D01*
X88420000Y-37750000D02*
X85170000Y-41000000D01*
X83250000Y-55750000D02*
X80500000Y-55750000D01*
X80500000Y-55750000D02*
X78750000Y-54000000D01*
X85170000Y-41000000D02*
X85170000Y-53830000D01*
X85170000Y-53830000D02*
X83250000Y-55750000D01*
D24*
X60200000Y-57500000D02*
X60387500Y-57500000D01*
D26*
X75511079Y-56914277D02*
X75511079Y-58548579D01*
X66200000Y-57450000D02*
X66150000Y-57500000D01*
D24*
X57250000Y-37750000D02*
X57250000Y-37565637D01*
D26*
X76212500Y-60037500D02*
X75750000Y-60500000D01*
D24*
X68550000Y-57450000D02*
X68550000Y-57237500D01*
D26*
X75511079Y-55414277D02*
X75511079Y-50614277D01*
D24*
X61750000Y-42250000D02*
X57250000Y-37750000D01*
X55250000Y-53460000D02*
X55460000Y-53250000D01*
D26*
X60509325Y-47224990D02*
X66412490Y-47224990D01*
D24*
X64750000Y-39250000D02*
X61750000Y-42250000D01*
D26*
X75511079Y-56914277D02*
X75511079Y-55414277D01*
X66412490Y-47224990D02*
X67337500Y-48150000D01*
X59900000Y-48400000D02*
X59900000Y-49312500D01*
D24*
X59900000Y-49312500D02*
X59650000Y-49562500D01*
D26*
X62900000Y-57500000D02*
X60200000Y-57500000D01*
X66150000Y-57500000D02*
X62900000Y-57500000D01*
D24*
X66150000Y-57500000D02*
X66150000Y-56400000D01*
X55460000Y-53250000D02*
X55962500Y-53250000D01*
X62900000Y-57500000D02*
X62900000Y-56537500D01*
D26*
X58500000Y-50712500D02*
X59650000Y-49562500D01*
D24*
X60200000Y-57500000D02*
X60200000Y-57200000D01*
D26*
X71600000Y-60500000D02*
X68550000Y-57450000D01*
D24*
X62900000Y-56537500D02*
X63050000Y-56387500D01*
D26*
X58500000Y-55500000D02*
X58500000Y-50712500D01*
X59900000Y-47834315D02*
X60509325Y-47224990D01*
X60200000Y-57200000D02*
X58500000Y-55500000D01*
X68550000Y-57450000D02*
X66200000Y-57450000D01*
D24*
X57250000Y-37565637D02*
X57250000Y-36999952D01*
D26*
X59900000Y-48400000D02*
X59900000Y-47834315D01*
X76212500Y-59250000D02*
X76212500Y-60037500D01*
D24*
X68650000Y-48150000D02*
X67337500Y-48150000D01*
X64750000Y-38250000D02*
X64750000Y-39250000D01*
X55962500Y-53250000D02*
X58500000Y-50712500D01*
X60387500Y-57500000D02*
X61500000Y-56387500D01*
D26*
X75750000Y-60500000D02*
X71600000Y-60500000D01*
D24*
X68550000Y-57237500D02*
X67700000Y-56387500D01*
D26*
X75511079Y-58548579D02*
X76212500Y-59250000D01*
D24*
X66850000Y-39362500D02*
X66800000Y-39412500D01*
X66850000Y-38250000D02*
X66850000Y-39362500D01*
X68450000Y-49700000D02*
X67337500Y-49700000D01*
X60950000Y-48400000D02*
X60950000Y-49312500D01*
X60950000Y-49312500D02*
X61200000Y-49562500D01*
D25*
X162450000Y-36635000D02*
X164225000Y-36635000D01*
X162925000Y-35365000D02*
X162450000Y-35365000D01*
X164250000Y-36690000D02*
X162925000Y-35365000D01*
X164225000Y-36635000D02*
X164225000Y-39937490D01*
D24*
X54620484Y-46120484D02*
X54500000Y-46000000D01*
X59725000Y-46120484D02*
X54620484Y-46120484D01*
G04 #@! TA.AperFunction,Conductor*
G36*
X169934133Y-28219407D02*
G01*
X169945946Y-28229496D01*
X175270504Y-33554054D01*
X175298281Y-33608571D01*
X175299500Y-33624058D01*
X175299500Y-36140500D01*
X175280593Y-36198691D01*
X175231093Y-36234655D01*
X175200500Y-36239500D01*
X169187196Y-36239500D01*
X169129005Y-36220593D01*
X169095732Y-36178387D01*
X169080038Y-36140500D01*
X169076465Y-36131873D01*
X169076464Y-36131871D01*
X169076461Y-36131866D01*
X169040299Y-36077747D01*
X169005276Y-36025331D01*
X168914669Y-35934724D01*
X168872226Y-35906365D01*
X168808133Y-35863538D01*
X168808125Y-35863534D01*
X168689747Y-35814500D01*
X168689745Y-35814499D01*
X168689744Y-35814499D01*
X168564069Y-35789500D01*
X168435931Y-35789500D01*
X168435930Y-35789500D01*
X168373093Y-35801999D01*
X168310256Y-35814499D01*
X168310255Y-35814499D01*
X168310252Y-35814500D01*
X168191874Y-35863534D01*
X168191866Y-35863538D01*
X168085331Y-35934724D01*
X168085327Y-35934727D01*
X167994727Y-36025327D01*
X167994724Y-36025331D01*
X167923538Y-36131866D01*
X167923534Y-36131874D01*
X167874500Y-36250252D01*
X167874499Y-36250255D01*
X167874499Y-36250256D01*
X167849500Y-36375931D01*
X167849500Y-36504069D01*
X167872760Y-36621003D01*
X167874499Y-36629742D01*
X167874500Y-36629747D01*
X167923534Y-36748125D01*
X167923538Y-36748133D01*
X167966365Y-36812226D01*
X167994724Y-36854669D01*
X168085331Y-36945276D01*
X168165055Y-36998546D01*
X168191871Y-37016464D01*
X168191872Y-37016464D01*
X168191873Y-37016465D01*
X168238386Y-37035731D01*
X168284910Y-37075465D01*
X168299500Y-37127194D01*
X168299500Y-42872804D01*
X168280593Y-42930995D01*
X168238387Y-42964268D01*
X168191871Y-42983535D01*
X168191866Y-42983538D01*
X168085331Y-43054724D01*
X168085327Y-43054727D01*
X167994727Y-43145327D01*
X167994724Y-43145331D01*
X167923538Y-43251866D01*
X167923534Y-43251874D01*
X167874500Y-43370252D01*
X167874499Y-43370257D01*
X167849500Y-43495930D01*
X167849500Y-43624069D01*
X167874499Y-43749742D01*
X167874500Y-43749747D01*
X167923534Y-43868125D01*
X167923538Y-43868133D01*
X167965548Y-43931004D01*
X167994724Y-43974669D01*
X168085331Y-44065276D01*
X168148848Y-44107717D01*
X168191866Y-44136461D01*
X168191870Y-44136463D01*
X168191873Y-44136465D01*
X168310256Y-44185501D01*
X168435931Y-44210500D01*
X168435932Y-44210500D01*
X168564068Y-44210500D01*
X168564069Y-44210500D01*
X168689744Y-44185501D01*
X168808127Y-44136465D01*
X168914669Y-44065276D01*
X169005276Y-43974669D01*
X169076465Y-43868127D01*
X169095732Y-43821613D01*
X169135470Y-43775088D01*
X169187196Y-43760500D01*
X175200500Y-43760500D01*
X175258691Y-43779407D01*
X175294655Y-43828907D01*
X175299500Y-43859500D01*
X175299500Y-50140500D01*
X175280593Y-50198691D01*
X175231093Y-50234655D01*
X175200500Y-50239500D01*
X169187196Y-50239500D01*
X169129005Y-50220593D01*
X169095732Y-50178387D01*
X169076464Y-50131871D01*
X169076461Y-50131866D01*
X169044006Y-50083294D01*
X169005276Y-50025331D01*
X168914669Y-49934724D01*
X168866948Y-49902838D01*
X168808133Y-49863538D01*
X168808125Y-49863534D01*
X168689747Y-49814500D01*
X168689745Y-49814499D01*
X168689744Y-49814499D01*
X168564069Y-49789500D01*
X168435931Y-49789500D01*
X168435930Y-49789500D01*
X168373093Y-49801999D01*
X168310256Y-49814499D01*
X168310255Y-49814499D01*
X168310252Y-49814500D01*
X168191874Y-49863534D01*
X168191866Y-49863538D01*
X168085331Y-49934724D01*
X168085327Y-49934727D01*
X167994727Y-50025327D01*
X167994724Y-50025331D01*
X167923538Y-50131866D01*
X167923534Y-50131874D01*
X167874500Y-50250252D01*
X167874499Y-50250257D01*
X167849758Y-50374636D01*
X167849500Y-50375931D01*
X167849500Y-50504069D01*
X167865356Y-50583782D01*
X167874499Y-50629742D01*
X167874500Y-50629747D01*
X167923534Y-50748125D01*
X167923538Y-50748133D01*
X167966365Y-50812226D01*
X167994724Y-50854669D01*
X168085331Y-50945276D01*
X168161243Y-50995999D01*
X168191871Y-51016464D01*
X168191872Y-51016464D01*
X168191873Y-51016465D01*
X168238386Y-51035731D01*
X168284910Y-51075465D01*
X168299500Y-51127194D01*
X168299500Y-56872804D01*
X168280593Y-56930995D01*
X168238387Y-56964268D01*
X168191871Y-56983535D01*
X168191866Y-56983538D01*
X168085331Y-57054724D01*
X168085327Y-57054727D01*
X167994727Y-57145327D01*
X167994724Y-57145331D01*
X167923538Y-57251866D01*
X167923534Y-57251874D01*
X167874500Y-57370252D01*
X167874499Y-57370255D01*
X167874499Y-57370256D01*
X167849500Y-57495931D01*
X167849500Y-57624069D01*
X167870888Y-57731593D01*
X167874499Y-57749742D01*
X167874500Y-57749747D01*
X167923534Y-57868125D01*
X167923538Y-57868133D01*
X167961090Y-57924332D01*
X167994724Y-57974669D01*
X168085331Y-58065276D01*
X168137299Y-58100000D01*
X168191866Y-58136461D01*
X168191870Y-58136463D01*
X168191873Y-58136465D01*
X168310256Y-58185501D01*
X168435931Y-58210500D01*
X168435932Y-58210500D01*
X168564068Y-58210500D01*
X168564069Y-58210500D01*
X168689744Y-58185501D01*
X168808127Y-58136465D01*
X168914669Y-58065276D01*
X169005276Y-57974669D01*
X169076465Y-57868127D01*
X169095732Y-57821613D01*
X169135470Y-57775088D01*
X169187196Y-57760500D01*
X175200500Y-57760500D01*
X175258691Y-57779407D01*
X175294655Y-57828907D01*
X175299500Y-57859500D01*
X175299500Y-60375942D01*
X175280593Y-60434133D01*
X175270504Y-60445946D01*
X169945946Y-65770504D01*
X169891429Y-65798281D01*
X169875942Y-65799500D01*
X44124058Y-65799500D01*
X44065867Y-65780593D01*
X44054054Y-65770504D01*
X43229496Y-64945946D01*
X43201719Y-64891429D01*
X43200500Y-64875942D01*
X43200500Y-58620999D01*
X43791356Y-58620999D01*
X43791357Y-58621000D01*
X44419600Y-58621000D01*
X44369225Y-58641866D01*
X44291866Y-58719225D01*
X44250000Y-58820299D01*
X44250000Y-58929701D01*
X44291866Y-59030775D01*
X44369225Y-59108134D01*
X44419600Y-59129000D01*
X43791357Y-59129000D01*
X43838202Y-59242097D01*
X43923015Y-59369030D01*
X44030969Y-59476984D01*
X44157902Y-59561797D01*
X44298940Y-59620216D01*
X44448666Y-59649999D01*
X44448670Y-59650000D01*
X44595999Y-59650000D01*
X44596000Y-59649999D01*
X44596000Y-59150000D01*
X45104000Y-59150000D01*
X45104000Y-59649999D01*
X45104001Y-59650000D01*
X45251330Y-59650000D01*
X45251333Y-59649999D01*
X45401058Y-59620216D01*
X45401060Y-59620216D01*
X45542097Y-59561797D01*
X45669030Y-59476984D01*
X45776984Y-59369030D01*
X45861797Y-59242097D01*
X45908643Y-59129000D01*
X45280400Y-59129000D01*
X45330775Y-59108134D01*
X45408134Y-59030775D01*
X45450000Y-58929701D01*
X45450000Y-58820299D01*
X45408134Y-58719225D01*
X45330775Y-58641866D01*
X45280400Y-58621000D01*
X45908643Y-58621000D01*
X45908643Y-58620999D01*
X45861797Y-58507902D01*
X45776984Y-58380969D01*
X45669030Y-58273015D01*
X45542097Y-58188202D01*
X45401059Y-58129783D01*
X45251333Y-58100000D01*
X45104001Y-58100000D01*
X45104000Y-58100001D01*
X45104000Y-58600000D01*
X44596000Y-58600000D01*
X44596000Y-58100001D01*
X44595999Y-58100000D01*
X44448666Y-58100000D01*
X44298941Y-58129783D01*
X44298939Y-58129783D01*
X44157902Y-58188202D01*
X44030969Y-58273015D01*
X43923015Y-58380969D01*
X43838202Y-58507902D01*
X43791356Y-58620999D01*
X43200500Y-58620999D01*
X43200500Y-57564069D01*
X46949500Y-57564069D01*
X46971224Y-57673281D01*
X46974499Y-57689742D01*
X46974500Y-57689747D01*
X47023534Y-57808125D01*
X47023538Y-57808133D01*
X47041856Y-57835547D01*
X47094724Y-57914669D01*
X47185331Y-58005276D01*
X47229879Y-58035042D01*
X47291866Y-58076461D01*
X47291870Y-58076463D01*
X47291873Y-58076465D01*
X47410256Y-58125501D01*
X47488370Y-58141039D01*
X47541753Y-58170936D01*
X47567369Y-58226501D01*
X47556855Y-58282238D01*
X47557136Y-58282355D01*
X47556579Y-58283697D01*
X47556374Y-58284789D01*
X47555278Y-58286839D01*
X47485547Y-58455183D01*
X47482401Y-58471000D01*
X48030900Y-58471000D01*
X47978963Y-58560956D01*
X47950000Y-58669048D01*
X47950000Y-58780952D01*
X47978963Y-58889044D01*
X48030900Y-58979000D01*
X47482402Y-58979000D01*
X47485547Y-58994816D01*
X47555274Y-59163150D01*
X47555278Y-59163159D01*
X47656505Y-59314652D01*
X47656508Y-59314656D01*
X47785343Y-59443491D01*
X47785347Y-59443494D01*
X47936840Y-59544721D01*
X47936852Y-59544727D01*
X48105186Y-59614452D01*
X48283892Y-59649999D01*
X48283896Y-59650000D01*
X48395999Y-59650000D01*
X48396000Y-59649999D01*
X48396000Y-59150000D01*
X48904000Y-59150000D01*
X48904000Y-59649999D01*
X48904001Y-59650000D01*
X49016104Y-59650000D01*
X49016107Y-59649999D01*
X49194812Y-59614452D01*
X49194814Y-59614452D01*
X49363147Y-59544727D01*
X49363159Y-59544721D01*
X49514652Y-59443494D01*
X49514656Y-59443491D01*
X49643491Y-59314656D01*
X49643494Y-59314652D01*
X49744721Y-59163159D01*
X49744725Y-59163150D01*
X49814452Y-58994816D01*
X49817598Y-58979000D01*
X49269100Y-58979000D01*
X49321037Y-58889044D01*
X49350000Y-58780952D01*
X49350000Y-58669048D01*
X49321037Y-58560956D01*
X49269100Y-58471000D01*
X49817598Y-58471000D01*
X49814452Y-58455183D01*
X49744725Y-58286849D01*
X49744721Y-58286840D01*
X49643494Y-58135347D01*
X49643491Y-58135343D01*
X49514656Y-58006508D01*
X49514652Y-58006505D01*
X49363159Y-57905278D01*
X49363147Y-57905272D01*
X49194813Y-57835547D01*
X49016107Y-57800000D01*
X48904001Y-57800000D01*
X48904000Y-57800001D01*
X48904000Y-58300000D01*
X48396000Y-58300000D01*
X48396000Y-57800001D01*
X48395999Y-57800000D01*
X48324202Y-57800000D01*
X48266011Y-57781093D01*
X48230047Y-57731593D01*
X48227104Y-57681686D01*
X48232062Y-57656762D01*
X48250500Y-57564069D01*
X48250500Y-57435931D01*
X48225501Y-57310256D01*
X48176465Y-57191873D01*
X48176463Y-57191870D01*
X48176461Y-57191866D01*
X48133938Y-57128227D01*
X48105276Y-57085331D01*
X48089691Y-57069746D01*
X54249500Y-57069746D01*
X54249501Y-57069758D01*
X54261132Y-57128227D01*
X54261134Y-57128233D01*
X54305445Y-57194548D01*
X54305448Y-57194552D01*
X54371769Y-57238867D01*
X54416231Y-57247711D01*
X54430241Y-57250498D01*
X54430246Y-57250498D01*
X54430252Y-57250500D01*
X54430253Y-57250500D01*
X56169747Y-57250500D01*
X56169748Y-57250500D01*
X56228231Y-57238867D01*
X56294552Y-57194552D01*
X56338867Y-57128231D01*
X56350500Y-57069748D01*
X56350500Y-55330252D01*
X56338867Y-55271769D01*
X56294552Y-55205448D01*
X56294548Y-55205445D01*
X56228233Y-55161134D01*
X56228231Y-55161133D01*
X56228228Y-55161132D01*
X56228227Y-55161132D01*
X56169758Y-55149501D01*
X56169748Y-55149500D01*
X54430252Y-55149500D01*
X54430251Y-55149500D01*
X54430241Y-55149501D01*
X54371772Y-55161132D01*
X54371766Y-55161134D01*
X54305451Y-55205445D01*
X54305445Y-55205451D01*
X54261134Y-55271766D01*
X54261132Y-55271772D01*
X54249501Y-55330241D01*
X54249500Y-55330253D01*
X54249500Y-57069746D01*
X48089691Y-57069746D01*
X48014669Y-56994724D01*
X47969088Y-56964268D01*
X47908133Y-56923538D01*
X47908125Y-56923534D01*
X47789747Y-56874500D01*
X47789745Y-56874499D01*
X47789744Y-56874499D01*
X47664069Y-56849500D01*
X47535931Y-56849500D01*
X47535930Y-56849500D01*
X47488761Y-56858883D01*
X47410256Y-56874499D01*
X47410255Y-56874499D01*
X47410252Y-56874500D01*
X47291874Y-56923534D01*
X47291866Y-56923538D01*
X47185331Y-56994724D01*
X47185327Y-56994727D01*
X47094727Y-57085327D01*
X47094724Y-57085331D01*
X47023538Y-57191866D01*
X47023534Y-57191874D01*
X46974500Y-57310252D01*
X46974499Y-57310255D01*
X46974499Y-57310256D01*
X46962565Y-57370252D01*
X46953673Y-57414955D01*
X46949500Y-57435931D01*
X46949500Y-57564069D01*
X43200500Y-57564069D01*
X43200500Y-52564069D01*
X46949500Y-52564069D01*
X46973509Y-52684768D01*
X46974499Y-52689742D01*
X46974500Y-52689747D01*
X47023534Y-52808125D01*
X47023538Y-52808133D01*
X47066365Y-52872226D01*
X47094724Y-52914669D01*
X47185331Y-53005276D01*
X47226169Y-53032563D01*
X47291866Y-53076461D01*
X47291870Y-53076463D01*
X47291873Y-53076465D01*
X47410256Y-53125501D01*
X47535931Y-53150500D01*
X47535932Y-53150500D01*
X47664068Y-53150500D01*
X47664069Y-53150500D01*
X47789744Y-53125501D01*
X47908127Y-53076465D01*
X48014669Y-53005276D01*
X48105276Y-52914669D01*
X48176465Y-52808127D01*
X48225501Y-52689744D01*
X48250500Y-52564069D01*
X48250500Y-52435931D01*
X48227104Y-52318314D01*
X48234296Y-52257553D01*
X48275828Y-52212623D01*
X48324202Y-52200000D01*
X48395999Y-52200000D01*
X48396000Y-52199999D01*
X48396000Y-51700000D01*
X48904000Y-51700000D01*
X48904000Y-52199999D01*
X48904001Y-52200000D01*
X49016104Y-52200000D01*
X49016107Y-52199999D01*
X49194812Y-52164452D01*
X49194814Y-52164452D01*
X49363147Y-52094727D01*
X49363159Y-52094721D01*
X49514652Y-51993494D01*
X49514656Y-51993491D01*
X49643491Y-51864656D01*
X49643494Y-51864652D01*
X49744721Y-51713159D01*
X49744725Y-51713150D01*
X49814452Y-51544816D01*
X49817598Y-51529000D01*
X49269100Y-51529000D01*
X49321037Y-51439044D01*
X49350000Y-51330952D01*
X49350000Y-51219048D01*
X49321037Y-51110956D01*
X49269100Y-51021000D01*
X49817598Y-51021000D01*
X49814452Y-51005183D01*
X49744725Y-50836849D01*
X49744721Y-50836840D01*
X49643494Y-50685347D01*
X49643491Y-50685343D01*
X49514656Y-50556508D01*
X49514652Y-50556505D01*
X49363159Y-50455278D01*
X49363147Y-50455272D01*
X49194813Y-50385547D01*
X49016107Y-50350000D01*
X48904001Y-50350000D01*
X48904000Y-50350001D01*
X48904000Y-50850000D01*
X48396000Y-50850000D01*
X48396000Y-50350001D01*
X48395999Y-50350000D01*
X48283892Y-50350000D01*
X48105187Y-50385547D01*
X48105185Y-50385547D01*
X47936852Y-50455272D01*
X47936840Y-50455278D01*
X47785347Y-50556505D01*
X47785343Y-50556508D01*
X47656508Y-50685343D01*
X47656505Y-50685347D01*
X47555278Y-50836840D01*
X47555274Y-50836849D01*
X47485547Y-51005183D01*
X47482401Y-51021000D01*
X48030900Y-51021000D01*
X47978963Y-51110956D01*
X47950000Y-51219048D01*
X47950000Y-51330952D01*
X47978963Y-51439044D01*
X48030900Y-51529000D01*
X47482402Y-51529000D01*
X47485547Y-51544816D01*
X47555276Y-51713155D01*
X47556371Y-51715204D01*
X47556557Y-51716247D01*
X47557136Y-51717645D01*
X47556829Y-51717772D01*
X47567120Y-51775438D01*
X47540411Y-51830486D01*
X47488371Y-51858959D01*
X47410265Y-51874496D01*
X47410252Y-51874500D01*
X47291874Y-51923534D01*
X47291866Y-51923538D01*
X47185331Y-51994724D01*
X47185327Y-51994727D01*
X47094727Y-52085327D01*
X47094724Y-52085331D01*
X47023538Y-52191866D01*
X47023534Y-52191874D01*
X46974500Y-52310252D01*
X46974499Y-52310257D01*
X46949501Y-52435928D01*
X46949500Y-52435931D01*
X46949500Y-52564069D01*
X43200500Y-52564069D01*
X43200500Y-50870999D01*
X43791356Y-50870999D01*
X43791357Y-50871000D01*
X44419600Y-50871000D01*
X44369225Y-50891866D01*
X44291866Y-50969225D01*
X44250000Y-51070299D01*
X44250000Y-51179701D01*
X44291866Y-51280775D01*
X44369225Y-51358134D01*
X44419600Y-51379000D01*
X43791357Y-51379000D01*
X43838202Y-51492097D01*
X43923015Y-51619030D01*
X44030969Y-51726984D01*
X44157902Y-51811797D01*
X44298940Y-51870216D01*
X44448666Y-51899999D01*
X44448670Y-51900000D01*
X44595999Y-51900000D01*
X44596000Y-51899999D01*
X44596000Y-51400000D01*
X45104000Y-51400000D01*
X45104000Y-51899999D01*
X45104001Y-51900000D01*
X45251330Y-51900000D01*
X45251333Y-51899999D01*
X45401058Y-51870216D01*
X45401060Y-51870216D01*
X45542097Y-51811797D01*
X45669030Y-51726984D01*
X45776984Y-51619030D01*
X45861797Y-51492097D01*
X45908643Y-51379000D01*
X45280400Y-51379000D01*
X45330775Y-51358134D01*
X45408134Y-51280775D01*
X45450000Y-51179701D01*
X45450000Y-51070299D01*
X45408134Y-50969225D01*
X45330775Y-50891866D01*
X45280400Y-50871000D01*
X45908643Y-50871000D01*
X45908643Y-50870999D01*
X45861797Y-50757902D01*
X45776984Y-50630969D01*
X45669030Y-50523015D01*
X45542097Y-50438202D01*
X45401059Y-50379783D01*
X45251333Y-50350000D01*
X45104001Y-50350000D01*
X45104000Y-50350001D01*
X45104000Y-50850000D01*
X44596000Y-50850000D01*
X44596000Y-50350001D01*
X44595999Y-50350000D01*
X44448666Y-50350000D01*
X44298941Y-50379783D01*
X44298939Y-50379783D01*
X44157902Y-50438202D01*
X44030969Y-50523015D01*
X43923015Y-50630969D01*
X43838202Y-50757902D01*
X43791356Y-50870999D01*
X43200500Y-50870999D01*
X43200500Y-46000000D01*
X53894318Y-46000000D01*
X53914955Y-46156758D01*
X53914957Y-46156766D01*
X53975462Y-46302838D01*
X53975462Y-46302839D01*
X54067914Y-46423325D01*
X54071718Y-46428282D01*
X54071722Y-46428285D01*
X54071723Y-46428286D01*
X54091161Y-46443201D01*
X54197159Y-46524536D01*
X54197160Y-46524536D01*
X54197161Y-46524537D01*
X54255643Y-46548761D01*
X54343238Y-46585044D01*
X54460809Y-46600522D01*
X54499999Y-46605682D01*
X54500000Y-46605682D01*
X54500001Y-46605682D01*
X54531352Y-46601554D01*
X54656762Y-46585044D01*
X54802841Y-46524536D01*
X54878551Y-46466442D01*
X54936227Y-46446018D01*
X54938818Y-46445984D01*
X59169030Y-46445984D01*
X59227221Y-46464891D01*
X59247570Y-46484715D01*
X59296718Y-46548766D01*
X59422159Y-46645020D01*
X59422160Y-46645020D01*
X59422161Y-46645021D01*
X59459154Y-46660344D01*
X59568238Y-46705528D01*
X59685809Y-46721006D01*
X59724999Y-46726166D01*
X59725000Y-46726166D01*
X59725001Y-46726166D01*
X59756352Y-46722038D01*
X59881762Y-46705528D01*
X60027841Y-46645020D01*
X60153282Y-46548766D01*
X60249536Y-46423325D01*
X60310044Y-46277246D01*
X60330682Y-46120484D01*
X60310044Y-45963722D01*
X60249537Y-45817645D01*
X60249537Y-45817644D01*
X60153286Y-45692207D01*
X60153285Y-45692206D01*
X60153282Y-45692202D01*
X60153277Y-45692198D01*
X60153276Y-45692197D01*
X60027838Y-45595946D01*
X59881766Y-45535441D01*
X59881758Y-45535439D01*
X59725001Y-45514802D01*
X59724999Y-45514802D01*
X59568241Y-45535439D01*
X59568233Y-45535441D01*
X59422161Y-45595946D01*
X59422160Y-45595946D01*
X59296723Y-45692197D01*
X59296714Y-45692206D01*
X59247572Y-45756251D01*
X59197148Y-45790907D01*
X59169030Y-45794984D01*
X55131207Y-45794984D01*
X55073016Y-45776077D01*
X55039743Y-45733871D01*
X55037399Y-45728213D01*
X55024536Y-45697159D01*
X54928282Y-45571718D01*
X54928277Y-45571714D01*
X54928276Y-45571713D01*
X54802838Y-45475462D01*
X54656766Y-45414957D01*
X54656758Y-45414955D01*
X54500001Y-45394318D01*
X54499999Y-45394318D01*
X54343241Y-45414955D01*
X54343233Y-45414957D01*
X54197161Y-45475462D01*
X54197160Y-45475462D01*
X54071723Y-45571713D01*
X54071713Y-45571723D01*
X53975462Y-45697160D01*
X53975462Y-45697161D01*
X53914957Y-45843233D01*
X53914955Y-45843241D01*
X53894318Y-45999999D01*
X53894318Y-46000000D01*
X43200500Y-46000000D01*
X43200500Y-44068995D01*
X52299500Y-44068995D01*
X52326420Y-44204327D01*
X52326420Y-44204329D01*
X52379222Y-44331806D01*
X52379228Y-44331817D01*
X52455885Y-44446541D01*
X52553458Y-44544114D01*
X52668182Y-44620771D01*
X52668193Y-44620777D01*
X52715283Y-44640282D01*
X52795672Y-44673580D01*
X52931007Y-44700500D01*
X57431007Y-44700500D01*
X67168835Y-44700500D01*
X67227026Y-44719407D01*
X67238839Y-44729496D01*
X70270504Y-47761160D01*
X70298281Y-47815677D01*
X70299500Y-47831164D01*
X70299500Y-51568996D01*
X70326420Y-51704327D01*
X70326420Y-51704329D01*
X70379223Y-51831808D01*
X70441825Y-51925500D01*
X70455886Y-51946543D01*
X72520505Y-54011162D01*
X72548281Y-54065677D01*
X72549500Y-54081164D01*
X72549500Y-55614777D01*
X72530593Y-55672968D01*
X72481093Y-55708932D01*
X72450500Y-55713777D01*
X72441331Y-55713777D01*
X72441330Y-55713777D01*
X72441320Y-55713778D01*
X72382851Y-55725409D01*
X72382845Y-55725411D01*
X72316530Y-55769722D01*
X72316524Y-55769728D01*
X72272213Y-55836043D01*
X72272211Y-55836049D01*
X72260580Y-55894518D01*
X72260579Y-55894530D01*
X72260579Y-57934023D01*
X72260580Y-57934035D01*
X72272211Y-57992504D01*
X72272213Y-57992510D01*
X72311241Y-58050918D01*
X72316527Y-58058829D01*
X72382848Y-58103144D01*
X72427310Y-58111988D01*
X72441320Y-58114775D01*
X72441325Y-58114775D01*
X72441331Y-58114777D01*
X72538000Y-58114777D01*
X72596191Y-58133684D01*
X72632155Y-58183184D01*
X72637000Y-58213777D01*
X72637000Y-58516939D01*
X72618093Y-58575130D01*
X72582946Y-58605148D01*
X72494250Y-58650341D01*
X72400341Y-58744250D01*
X72340050Y-58862576D01*
X72340049Y-58862580D01*
X72324500Y-58960751D01*
X72324500Y-59539248D01*
X72340049Y-59637419D01*
X72340050Y-59637423D01*
X72398243Y-59751631D01*
X72400342Y-59755751D01*
X72494249Y-59849658D01*
X72511999Y-59858702D01*
X72519043Y-59862291D01*
X72562307Y-59905555D01*
X72571878Y-59965988D01*
X72544100Y-60020504D01*
X72489583Y-60048281D01*
X72474097Y-60049500D01*
X71827611Y-60049500D01*
X71769420Y-60030593D01*
X71757607Y-60020504D01*
X69174680Y-57437577D01*
X69146903Y-57383060D01*
X69146531Y-57380495D01*
X69145183Y-57370257D01*
X69135044Y-57293238D01*
X69129049Y-57278764D01*
X69074537Y-57147161D01*
X69074537Y-57147160D01*
X68978286Y-57021723D01*
X68978285Y-57021722D01*
X68978282Y-57021718D01*
X68978277Y-57021714D01*
X68978276Y-57021713D01*
X68903411Y-56964268D01*
X68852841Y-56925464D01*
X68852840Y-56925463D01*
X68852838Y-56925462D01*
X68706762Y-56864956D01*
X68706763Y-56864956D01*
X68660641Y-56858883D01*
X68605416Y-56832540D01*
X68603561Y-56830734D01*
X68404496Y-56631669D01*
X68376719Y-56577152D01*
X68375500Y-56561665D01*
X68375500Y-56135751D01*
X68370491Y-56104130D01*
X68359951Y-56037580D01*
X68299658Y-55919249D01*
X68205751Y-55825342D01*
X68201631Y-55823243D01*
X68087423Y-55765050D01*
X68087420Y-55765049D01*
X68062876Y-55761161D01*
X67989249Y-55749500D01*
X67989246Y-55749500D01*
X67410754Y-55749500D01*
X67410751Y-55749500D01*
X67312580Y-55765049D01*
X67312576Y-55765050D01*
X67194250Y-55825341D01*
X67100341Y-55919250D01*
X67040050Y-56037576D01*
X67040049Y-56037580D01*
X67024500Y-56135751D01*
X67024500Y-56639248D01*
X67040049Y-56737419D01*
X67040050Y-56737423D01*
X67068936Y-56794114D01*
X67098842Y-56852808D01*
X67100242Y-56855554D01*
X67109814Y-56915986D01*
X67082037Y-56970503D01*
X67027521Y-56998281D01*
X67012033Y-56999500D01*
X66837967Y-56999500D01*
X66779776Y-56980593D01*
X66743812Y-56931093D01*
X66743812Y-56869907D01*
X66749758Y-56855554D01*
X66750297Y-56854497D01*
X66809951Y-56737420D01*
X66825500Y-56639246D01*
X66825500Y-56135754D01*
X66809951Y-56037580D01*
X66749658Y-55919249D01*
X66655751Y-55825342D01*
X66651631Y-55823243D01*
X66537423Y-55765050D01*
X66537420Y-55765049D01*
X66512876Y-55761161D01*
X66439249Y-55749500D01*
X66439246Y-55749500D01*
X65860754Y-55749500D01*
X65860751Y-55749500D01*
X65762580Y-55765049D01*
X65762576Y-55765050D01*
X65644250Y-55825341D01*
X65550341Y-55919250D01*
X65490050Y-56037576D01*
X65490049Y-56037580D01*
X65474500Y-56135751D01*
X65474500Y-56639248D01*
X65490049Y-56737419D01*
X65490050Y-56737423D01*
X65518936Y-56794114D01*
X65550342Y-56855751D01*
X65575089Y-56880498D01*
X65602865Y-56935013D01*
X65593294Y-56995445D01*
X65550029Y-57038710D01*
X65505084Y-57049500D01*
X63694916Y-57049500D01*
X63636725Y-57030593D01*
X63600761Y-56981093D01*
X63600761Y-56919907D01*
X63624910Y-56880498D01*
X63649658Y-56855751D01*
X63709951Y-56737420D01*
X63725500Y-56639246D01*
X63725500Y-56135754D01*
X63709951Y-56037580D01*
X63649658Y-55919249D01*
X63555751Y-55825342D01*
X63551631Y-55823243D01*
X63437423Y-55765050D01*
X63437420Y-55765049D01*
X63412876Y-55761161D01*
X63339249Y-55749500D01*
X63339246Y-55749500D01*
X62760754Y-55749500D01*
X62760751Y-55749500D01*
X62662580Y-55765049D01*
X62662576Y-55765050D01*
X62544250Y-55825341D01*
X62450341Y-55919250D01*
X62390050Y-56037576D01*
X62390049Y-56037580D01*
X62374500Y-56135751D01*
X62374500Y-56639248D01*
X62390049Y-56737419D01*
X62390050Y-56737423D01*
X62418936Y-56794114D01*
X62450342Y-56855751D01*
X62475089Y-56880498D01*
X62502865Y-56935013D01*
X62493294Y-56995445D01*
X62450029Y-57038710D01*
X62405084Y-57049500D01*
X62144916Y-57049500D01*
X62086725Y-57030593D01*
X62050761Y-56981093D01*
X62050761Y-56919907D01*
X62074910Y-56880498D01*
X62099658Y-56855751D01*
X62159951Y-56737420D01*
X62175500Y-56639246D01*
X62175500Y-56135754D01*
X62159951Y-56037580D01*
X62099658Y-55919249D01*
X62005751Y-55825342D01*
X62001631Y-55823243D01*
X61887423Y-55765050D01*
X61887420Y-55765049D01*
X61862876Y-55761161D01*
X61789249Y-55749500D01*
X61789246Y-55749500D01*
X61210754Y-55749500D01*
X61210751Y-55749500D01*
X61112580Y-55765049D01*
X61112576Y-55765050D01*
X60994250Y-55825341D01*
X60900341Y-55919250D01*
X60840050Y-56037576D01*
X60840049Y-56037580D01*
X60824500Y-56135751D01*
X60824500Y-56561665D01*
X60805593Y-56619856D01*
X60795504Y-56631669D01*
X60602142Y-56825031D01*
X60547625Y-56852808D01*
X60487193Y-56843237D01*
X60462134Y-56825031D01*
X59082389Y-55445286D01*
X59054612Y-55390769D01*
X59064183Y-55330337D01*
X59107448Y-55287072D01*
X59167880Y-55277501D01*
X59190274Y-55283816D01*
X59193238Y-55285044D01*
X59310809Y-55300522D01*
X59349999Y-55305682D01*
X59350000Y-55305682D01*
X59350001Y-55305682D01*
X59381352Y-55301554D01*
X59506762Y-55285044D01*
X59652841Y-55224536D01*
X59778282Y-55128282D01*
X59825689Y-55066500D01*
X60825364Y-55066500D01*
X60840531Y-55162263D01*
X60840531Y-55162265D01*
X60900751Y-55280452D01*
X60994547Y-55374248D01*
X61112735Y-55434468D01*
X61210790Y-55449999D01*
X61245999Y-55449999D01*
X61246000Y-55449998D01*
X61754000Y-55449998D01*
X61754001Y-55449999D01*
X61789209Y-55449999D01*
X61887262Y-55434468D01*
X62005452Y-55374248D01*
X62099248Y-55280452D01*
X62159468Y-55162263D01*
X62174637Y-55066500D01*
X62375363Y-55066500D01*
X62390531Y-55162263D01*
X62390531Y-55162265D01*
X62450751Y-55280452D01*
X62544547Y-55374248D01*
X62662735Y-55434468D01*
X62760790Y-55449999D01*
X62795999Y-55449999D01*
X62796000Y-55449998D01*
X63304000Y-55449998D01*
X63304001Y-55449999D01*
X63339209Y-55449999D01*
X63437262Y-55434468D01*
X63555452Y-55374248D01*
X63649248Y-55280452D01*
X63709468Y-55162264D01*
X63724636Y-55066500D01*
X65475364Y-55066500D01*
X65490531Y-55162263D01*
X65490531Y-55162265D01*
X65550751Y-55280452D01*
X65644547Y-55374248D01*
X65762735Y-55434468D01*
X65860790Y-55449999D01*
X65895999Y-55449999D01*
X65896000Y-55449998D01*
X66404000Y-55449998D01*
X66404001Y-55449999D01*
X66439209Y-55449999D01*
X66537262Y-55434468D01*
X66655452Y-55374248D01*
X66749248Y-55280452D01*
X66809468Y-55162263D01*
X66824637Y-55066500D01*
X67025363Y-55066500D01*
X67040531Y-55162263D01*
X67040531Y-55162265D01*
X67100751Y-55280452D01*
X67194547Y-55374248D01*
X67312735Y-55434468D01*
X67410790Y-55449999D01*
X67445999Y-55449999D01*
X67446000Y-55449998D01*
X67954000Y-55449998D01*
X67954001Y-55449999D01*
X67989209Y-55449999D01*
X68087262Y-55434468D01*
X68205452Y-55374248D01*
X68299248Y-55280452D01*
X68359468Y-55162264D01*
X68374636Y-55066500D01*
X67954001Y-55066500D01*
X67954000Y-55066501D01*
X67954000Y-55449998D01*
X67446000Y-55449998D01*
X67446000Y-55066501D01*
X67445999Y-55066500D01*
X67025363Y-55066500D01*
X66824637Y-55066500D01*
X66404001Y-55066500D01*
X66404000Y-55066501D01*
X66404000Y-55449998D01*
X65896000Y-55449998D01*
X65896000Y-55066501D01*
X65895999Y-55066500D01*
X65475364Y-55066500D01*
X63724636Y-55066500D01*
X63304001Y-55066500D01*
X63304000Y-55066501D01*
X63304000Y-55449998D01*
X62796000Y-55449998D01*
X62796000Y-55066501D01*
X62795999Y-55066500D01*
X62375363Y-55066500D01*
X62174637Y-55066500D01*
X61754001Y-55066500D01*
X61754000Y-55066501D01*
X61754000Y-55449998D01*
X61246000Y-55449998D01*
X61246000Y-55066501D01*
X61245999Y-55066500D01*
X60825364Y-55066500D01*
X59825689Y-55066500D01*
X59874536Y-55002841D01*
X59935044Y-54856762D01*
X59955682Y-54700000D01*
X59937053Y-54558500D01*
X60825363Y-54558500D01*
X61245999Y-54558500D01*
X61246000Y-54558499D01*
X61754000Y-54558499D01*
X61754001Y-54558500D01*
X62174636Y-54558500D01*
X62375362Y-54558500D01*
X62795999Y-54558500D01*
X62796000Y-54558499D01*
X63304000Y-54558499D01*
X63304001Y-54558500D01*
X63724636Y-54558500D01*
X65475363Y-54558500D01*
X65895999Y-54558500D01*
X65896000Y-54558499D01*
X66404000Y-54558499D01*
X66404001Y-54558500D01*
X66824636Y-54558500D01*
X67025362Y-54558500D01*
X67445999Y-54558500D01*
X67446000Y-54558499D01*
X67954000Y-54558499D01*
X67954001Y-54558500D01*
X68374636Y-54558500D01*
X68374636Y-54558499D01*
X68359468Y-54462736D01*
X68359468Y-54462734D01*
X68299248Y-54344547D01*
X68205452Y-54250751D01*
X68087264Y-54190531D01*
X67989209Y-54175000D01*
X67954001Y-54175000D01*
X67954000Y-54175001D01*
X67954000Y-54558499D01*
X67446000Y-54558499D01*
X67446000Y-54175000D01*
X67410791Y-54175000D01*
X67312737Y-54190531D01*
X67194547Y-54250751D01*
X67100751Y-54344547D01*
X67040531Y-54462736D01*
X67025362Y-54558500D01*
X66824636Y-54558500D01*
X66824635Y-54558499D01*
X66809468Y-54462736D01*
X66809468Y-54462734D01*
X66749248Y-54344547D01*
X66655452Y-54250751D01*
X66537264Y-54190531D01*
X66439209Y-54175000D01*
X66404001Y-54175000D01*
X66404000Y-54175001D01*
X66404000Y-54558499D01*
X65896000Y-54558499D01*
X65896000Y-54175000D01*
X65860791Y-54175000D01*
X65762737Y-54190531D01*
X65644547Y-54250751D01*
X65550751Y-54344547D01*
X65490531Y-54462735D01*
X65475363Y-54558499D01*
X65475363Y-54558500D01*
X63724636Y-54558500D01*
X63724636Y-54558499D01*
X63709468Y-54462736D01*
X63709468Y-54462734D01*
X63649248Y-54344547D01*
X63555452Y-54250751D01*
X63437264Y-54190531D01*
X63339209Y-54175000D01*
X63304001Y-54175000D01*
X63304000Y-54175001D01*
X63304000Y-54558499D01*
X62796000Y-54558499D01*
X62796000Y-54175000D01*
X62760791Y-54175000D01*
X62662737Y-54190531D01*
X62544547Y-54250751D01*
X62450751Y-54344547D01*
X62390531Y-54462736D01*
X62375362Y-54558500D01*
X62174636Y-54558500D01*
X62174635Y-54558499D01*
X62159468Y-54462736D01*
X62159468Y-54462734D01*
X62099248Y-54344547D01*
X62005452Y-54250751D01*
X61887264Y-54190531D01*
X61789209Y-54175000D01*
X61784356Y-54175000D01*
X61771991Y-54170982D01*
X61757746Y-54175000D01*
X61754001Y-54175000D01*
X61754000Y-54175001D01*
X61754000Y-54558499D01*
X61246000Y-54558499D01*
X61246000Y-54175000D01*
X61210791Y-54175000D01*
X61112737Y-54190531D01*
X60994547Y-54250751D01*
X60900751Y-54344547D01*
X60840531Y-54462735D01*
X60825363Y-54558499D01*
X60825363Y-54558500D01*
X59937053Y-54558500D01*
X59935044Y-54543238D01*
X59901698Y-54462734D01*
X59874537Y-54397161D01*
X59874537Y-54397160D01*
X59778281Y-54271717D01*
X59714232Y-54222570D01*
X59679577Y-54172145D01*
X59675500Y-54144028D01*
X59675500Y-54088333D01*
X59694407Y-54030142D01*
X59704499Y-54018327D01*
X59718333Y-54004494D01*
X59772851Y-53976718D01*
X59788334Y-53975500D01*
X60214249Y-53975500D01*
X60242803Y-53970976D01*
X60312420Y-53959951D01*
X60430751Y-53899658D01*
X60524658Y-53805751D01*
X60584951Y-53687420D01*
X60599333Y-53596615D01*
X60600500Y-53589248D01*
X60600500Y-53589209D01*
X60900001Y-53589209D01*
X60915531Y-53687262D01*
X60975751Y-53805452D01*
X61069547Y-53899248D01*
X61187735Y-53959468D01*
X61283499Y-53974636D01*
X61283500Y-53974635D01*
X61791500Y-53974635D01*
X61887258Y-53959470D01*
X61887261Y-53959469D01*
X62005452Y-53899248D01*
X62099248Y-53805452D01*
X62159468Y-53687264D01*
X62175000Y-53589208D01*
X62175000Y-53554001D01*
X62174999Y-53554000D01*
X61791501Y-53554000D01*
X61791500Y-53554001D01*
X61791500Y-53974635D01*
X61283500Y-53974635D01*
X61283500Y-53554001D01*
X61283499Y-53554000D01*
X60900002Y-53554000D01*
X60900001Y-53554001D01*
X60900001Y-53589209D01*
X60600500Y-53589209D01*
X60600500Y-53045999D01*
X60900000Y-53045999D01*
X60900001Y-53046000D01*
X61283499Y-53046000D01*
X61283500Y-53045999D01*
X61283500Y-52625364D01*
X61283499Y-52625363D01*
X61791500Y-52625363D01*
X61791500Y-53045999D01*
X61791501Y-53046000D01*
X62174998Y-53046000D01*
X62174999Y-53045999D01*
X62174999Y-53010790D01*
X62159468Y-52912737D01*
X62099248Y-52794547D01*
X62005452Y-52700751D01*
X61887264Y-52640531D01*
X61791500Y-52625363D01*
X61283499Y-52625363D01*
X61187736Y-52640531D01*
X61187734Y-52640531D01*
X61069547Y-52700751D01*
X60975751Y-52794547D01*
X60915531Y-52912735D01*
X60900000Y-53010791D01*
X60900000Y-53045999D01*
X60600500Y-53045999D01*
X60600500Y-53010751D01*
X60595491Y-52979130D01*
X60584951Y-52912580D01*
X60524658Y-52794249D01*
X60430751Y-52700342D01*
X60409957Y-52689747D01*
X60312423Y-52640050D01*
X60312420Y-52640049D01*
X60287876Y-52636161D01*
X60214249Y-52624500D01*
X60214246Y-52624500D01*
X59710754Y-52624500D01*
X59710751Y-52624500D01*
X59612580Y-52640049D01*
X59612576Y-52640050D01*
X59494250Y-52700341D01*
X59400341Y-52794250D01*
X59340050Y-52912576D01*
X59340049Y-52912580D01*
X59324500Y-53010751D01*
X59324500Y-53436665D01*
X59305593Y-53494856D01*
X59295504Y-53506669D01*
X59119504Y-53682669D01*
X59064987Y-53710446D01*
X59004555Y-53700875D01*
X58961290Y-53657610D01*
X58950500Y-53612665D01*
X58950500Y-51744209D01*
X58969407Y-51686018D01*
X59018907Y-51650054D01*
X59080093Y-51650054D01*
X59119504Y-51674205D01*
X59144547Y-51699248D01*
X59262735Y-51759468D01*
X59360790Y-51774999D01*
X59395999Y-51774999D01*
X59396000Y-51774998D01*
X59904000Y-51774998D01*
X59904001Y-51774999D01*
X59939209Y-51774999D01*
X60037262Y-51759468D01*
X60155452Y-51699248D01*
X60249248Y-51605452D01*
X60309468Y-51487263D01*
X60324637Y-51391500D01*
X60525363Y-51391500D01*
X60540531Y-51487263D01*
X60540531Y-51487265D01*
X60600751Y-51605452D01*
X60694547Y-51699248D01*
X60812735Y-51759468D01*
X60910790Y-51774999D01*
X60945999Y-51774999D01*
X60946000Y-51774998D01*
X61454000Y-51774998D01*
X61454001Y-51774999D01*
X61489209Y-51774999D01*
X61587262Y-51759468D01*
X61705452Y-51699248D01*
X61799248Y-51605452D01*
X61833001Y-51539209D01*
X65125001Y-51539209D01*
X65140531Y-51637262D01*
X65200751Y-51755452D01*
X65294547Y-51849248D01*
X65412735Y-51909468D01*
X65508499Y-51924636D01*
X65508500Y-51924635D01*
X66016500Y-51924635D01*
X66112258Y-51909470D01*
X66112261Y-51909469D01*
X66230452Y-51849248D01*
X66324248Y-51755452D01*
X66384468Y-51637264D01*
X66399994Y-51539248D01*
X66699500Y-51539248D01*
X66715049Y-51637419D01*
X66715050Y-51637423D01*
X66760684Y-51726984D01*
X66775342Y-51755751D01*
X66869249Y-51849658D01*
X66987580Y-51909951D01*
X67054130Y-51920491D01*
X67085751Y-51925500D01*
X67085754Y-51925500D01*
X67589249Y-51925500D01*
X67617803Y-51920976D01*
X67687420Y-51909951D01*
X67805751Y-51849658D01*
X67899658Y-51755751D01*
X67953514Y-51650054D01*
X67963489Y-51630477D01*
X67966488Y-51632005D01*
X67993815Y-51594402D01*
X68051998Y-51575500D01*
X68092851Y-51575500D01*
X68092853Y-51575500D01*
X68175639Y-51553318D01*
X68175641Y-51553316D01*
X68175643Y-51553316D01*
X68249857Y-51510468D01*
X68249857Y-51510467D01*
X68249862Y-51510465D01*
X68287034Y-51473292D01*
X68341547Y-51445515D01*
X68369953Y-51445143D01*
X68450000Y-51455682D01*
X68606762Y-51435044D01*
X68752841Y-51374536D01*
X68878282Y-51278282D01*
X68974536Y-51152841D01*
X69035044Y-51006762D01*
X69055682Y-50850000D01*
X69053949Y-50836840D01*
X69047485Y-50787736D01*
X69035044Y-50693238D01*
X69035042Y-50693233D01*
X68974537Y-50547161D01*
X68974537Y-50547160D01*
X68878286Y-50421723D01*
X68878285Y-50421722D01*
X68878282Y-50421718D01*
X68878277Y-50421714D01*
X68878276Y-50421713D01*
X68752838Y-50325462D01*
X68731114Y-50316464D01*
X68684588Y-50276728D01*
X68670304Y-50217233D01*
X68693718Y-50160705D01*
X68731114Y-50133536D01*
X68752546Y-50124658D01*
X68752841Y-50124536D01*
X68878282Y-50028282D01*
X68974536Y-49902841D01*
X69035044Y-49756762D01*
X69055682Y-49600000D01*
X69035044Y-49443238D01*
X69021589Y-49410754D01*
X68974537Y-49297161D01*
X68974537Y-49297160D01*
X68878286Y-49171723D01*
X68878285Y-49171722D01*
X68878282Y-49171718D01*
X68878277Y-49171714D01*
X68878276Y-49171713D01*
X68777322Y-49094249D01*
X68752841Y-49075464D01*
X68752840Y-49075463D01*
X68752838Y-49075462D01*
X68606766Y-49014957D01*
X68606758Y-49014955D01*
X68450001Y-48994318D01*
X68449999Y-48994318D01*
X68293241Y-49014955D01*
X68293233Y-49014957D01*
X68147161Y-49075462D01*
X68147160Y-49075462D01*
X68021715Y-49171719D01*
X68019420Y-49174015D01*
X68017349Y-49175069D01*
X68016570Y-49175668D01*
X68016459Y-49175523D01*
X67964902Y-49201788D01*
X67904471Y-49192212D01*
X67879421Y-49174012D01*
X67805751Y-49100342D01*
X67780104Y-49087274D01*
X67687423Y-49040050D01*
X67687420Y-49040049D01*
X67662876Y-49036161D01*
X67589249Y-49024500D01*
X67589246Y-49024500D01*
X67085754Y-49024500D01*
X67085751Y-49024500D01*
X66987580Y-49040049D01*
X66987576Y-49040050D01*
X66869250Y-49100341D01*
X66775341Y-49194250D01*
X66715050Y-49312576D01*
X66715049Y-49312580D01*
X66699500Y-49410751D01*
X66699500Y-49989248D01*
X66715049Y-50087419D01*
X66715050Y-50087423D01*
X66761399Y-50178387D01*
X66775342Y-50205751D01*
X66869249Y-50299658D01*
X66987580Y-50359951D01*
X67054130Y-50370491D01*
X67085751Y-50375500D01*
X67085754Y-50375500D01*
X67589249Y-50375500D01*
X67617803Y-50370976D01*
X67687420Y-50359951D01*
X67805751Y-50299658D01*
X67899658Y-50205751D01*
X67936454Y-50133536D01*
X67944935Y-50116891D01*
X67988199Y-50073626D01*
X68048631Y-50064055D01*
X68093411Y-50083294D01*
X68147159Y-50124536D01*
X68158672Y-50129304D01*
X68168886Y-50133536D01*
X68215412Y-50173273D01*
X68229695Y-50232768D01*
X68206280Y-50289296D01*
X68168886Y-50316464D01*
X68147160Y-50325463D01*
X68021723Y-50421713D01*
X68021713Y-50421723D01*
X67925463Y-50547160D01*
X67910294Y-50583782D01*
X67870557Y-50630307D01*
X67811062Y-50644591D01*
X67773884Y-50634105D01*
X67767729Y-50630969D01*
X67726529Y-50609976D01*
X67687423Y-50590050D01*
X67687420Y-50590049D01*
X67662876Y-50586161D01*
X67589249Y-50574500D01*
X67589246Y-50574500D01*
X67085754Y-50574500D01*
X67085751Y-50574500D01*
X66987580Y-50590049D01*
X66987576Y-50590050D01*
X66869250Y-50650341D01*
X66775341Y-50744250D01*
X66715050Y-50862576D01*
X66715049Y-50862580D01*
X66699500Y-50960751D01*
X66699500Y-51539248D01*
X66399994Y-51539248D01*
X66400000Y-51539208D01*
X66400000Y-51504001D01*
X66399999Y-51504000D01*
X66016501Y-51504000D01*
X66016500Y-51504001D01*
X66016500Y-51924635D01*
X65508500Y-51924635D01*
X65508500Y-51504001D01*
X65508499Y-51504000D01*
X65125002Y-51504000D01*
X65125001Y-51504001D01*
X65125001Y-51539209D01*
X61833001Y-51539209D01*
X61859468Y-51487264D01*
X61874636Y-51391500D01*
X61454001Y-51391500D01*
X61454000Y-51391501D01*
X61454000Y-51774998D01*
X60946000Y-51774998D01*
X60946000Y-51391501D01*
X60945999Y-51391500D01*
X60525363Y-51391500D01*
X60324637Y-51391500D01*
X59904001Y-51391500D01*
X59904000Y-51391501D01*
X59904000Y-51774998D01*
X59396000Y-51774998D01*
X59396000Y-50995999D01*
X65125000Y-50995999D01*
X65125001Y-50996000D01*
X65508499Y-50996000D01*
X65508500Y-50995999D01*
X65508500Y-50575364D01*
X65508499Y-50575363D01*
X65412736Y-50590531D01*
X65412734Y-50590531D01*
X65294547Y-50650751D01*
X65200751Y-50744547D01*
X65140531Y-50862735D01*
X65125000Y-50960791D01*
X65125000Y-50995999D01*
X59396000Y-50995999D01*
X59396000Y-50883499D01*
X59904000Y-50883499D01*
X59904001Y-50883500D01*
X60324636Y-50883500D01*
X60525362Y-50883500D01*
X60945999Y-50883500D01*
X60946000Y-50883499D01*
X61454000Y-50883499D01*
X61454001Y-50883500D01*
X61874636Y-50883500D01*
X61874636Y-50883499D01*
X61859468Y-50787736D01*
X61859468Y-50787734D01*
X61799248Y-50669547D01*
X61705452Y-50575751D01*
X61704689Y-50575362D01*
X66016500Y-50575362D01*
X66016500Y-50995999D01*
X66016501Y-50996000D01*
X66399998Y-50996000D01*
X66399999Y-50995999D01*
X66399999Y-50960790D01*
X66384468Y-50862737D01*
X66324248Y-50744547D01*
X66230452Y-50650751D01*
X66112263Y-50590531D01*
X66016500Y-50575362D01*
X61704689Y-50575362D01*
X61587264Y-50515531D01*
X61489209Y-50500000D01*
X61454001Y-50500000D01*
X61454000Y-50500001D01*
X61454000Y-50883499D01*
X60946000Y-50883499D01*
X60946000Y-50500000D01*
X60910791Y-50500000D01*
X60812737Y-50515531D01*
X60694547Y-50575751D01*
X60600751Y-50669547D01*
X60540531Y-50787736D01*
X60525362Y-50883500D01*
X60324636Y-50883500D01*
X60324635Y-50883499D01*
X60309468Y-50787736D01*
X60309468Y-50787734D01*
X60249248Y-50669547D01*
X60155452Y-50575751D01*
X60037264Y-50515531D01*
X59939209Y-50500000D01*
X59904001Y-50500000D01*
X59904000Y-50500001D01*
X59904000Y-50883499D01*
X59396000Y-50883499D01*
X59396000Y-50494609D01*
X59414907Y-50436418D01*
X59424987Y-50424616D01*
X59620108Y-50229496D01*
X59674624Y-50201719D01*
X59690111Y-50200500D01*
X59939249Y-50200500D01*
X59967803Y-50195976D01*
X60037420Y-50184951D01*
X60155751Y-50124658D01*
X60249658Y-50030751D01*
X60309951Y-49912420D01*
X60325500Y-49814246D01*
X60325500Y-49478143D01*
X60328873Y-49452520D01*
X60329873Y-49448788D01*
X60363198Y-49397473D01*
X60420319Y-49375547D01*
X60479420Y-49391383D01*
X60517925Y-49438933D01*
X60524500Y-49474411D01*
X60524500Y-49814248D01*
X60540049Y-49912419D01*
X60540050Y-49912423D01*
X60579175Y-49989209D01*
X60600342Y-50030751D01*
X60694249Y-50124658D01*
X60812580Y-50184951D01*
X60879130Y-50195491D01*
X60910751Y-50200500D01*
X60910754Y-50200500D01*
X61489249Y-50200500D01*
X61517803Y-50195976D01*
X61587420Y-50184951D01*
X61705751Y-50124658D01*
X61799658Y-50030751D01*
X61820825Y-49989209D01*
X65125001Y-49989209D01*
X65140531Y-50087262D01*
X65200751Y-50205452D01*
X65294547Y-50299248D01*
X65412735Y-50359468D01*
X65508499Y-50374636D01*
X65508500Y-50374635D01*
X65508500Y-50374633D01*
X66016500Y-50374633D01*
X66112262Y-50359469D01*
X66230452Y-50299248D01*
X66324248Y-50205452D01*
X66384468Y-50087264D01*
X66400000Y-49989208D01*
X66400000Y-49954001D01*
X66399999Y-49954000D01*
X66016501Y-49954000D01*
X66016500Y-49954001D01*
X66016500Y-50374633D01*
X65508500Y-50374633D01*
X65508500Y-49954001D01*
X65508499Y-49954000D01*
X65125002Y-49954000D01*
X65125001Y-49954001D01*
X65125001Y-49989209D01*
X61820825Y-49989209D01*
X61859951Y-49912420D01*
X61875500Y-49814246D01*
X61875500Y-49445999D01*
X65125000Y-49445999D01*
X65125001Y-49446000D01*
X65508499Y-49446000D01*
X65508500Y-49445999D01*
X65508500Y-49025364D01*
X65508499Y-49025363D01*
X65412736Y-49040531D01*
X65412734Y-49040531D01*
X65294547Y-49100751D01*
X65200751Y-49194547D01*
X65140531Y-49312735D01*
X65125000Y-49410791D01*
X65125000Y-49445999D01*
X61875500Y-49445999D01*
X61875500Y-49310754D01*
X61859951Y-49212580D01*
X61799658Y-49094249D01*
X61730771Y-49025362D01*
X66016500Y-49025362D01*
X66016500Y-49445999D01*
X66016501Y-49446000D01*
X66399998Y-49446000D01*
X66399999Y-49445999D01*
X66399999Y-49410790D01*
X66384468Y-49312737D01*
X66324248Y-49194547D01*
X66230452Y-49100751D01*
X66112263Y-49040531D01*
X66016500Y-49025362D01*
X61730771Y-49025362D01*
X61705751Y-49000342D01*
X61618667Y-48955970D01*
X61587423Y-48940050D01*
X61587420Y-48940049D01*
X61575137Y-48938103D01*
X61488830Y-48924433D01*
X61434314Y-48896655D01*
X61406537Y-48842138D01*
X61416109Y-48781706D01*
X61425767Y-48766397D01*
X61474536Y-48702841D01*
X61535044Y-48556762D01*
X61550520Y-48439209D01*
X65125001Y-48439209D01*
X65140531Y-48537262D01*
X65200751Y-48655452D01*
X65294547Y-48749248D01*
X65412735Y-48809468D01*
X65508499Y-48824636D01*
X65508500Y-48824635D01*
X65508500Y-48824633D01*
X66016500Y-48824633D01*
X66112262Y-48809469D01*
X66230452Y-48749248D01*
X66324248Y-48655452D01*
X66384468Y-48537264D01*
X66400000Y-48439208D01*
X66400000Y-48404001D01*
X66399999Y-48404000D01*
X66016501Y-48404000D01*
X66016500Y-48404001D01*
X66016500Y-48824633D01*
X65508500Y-48824633D01*
X65508500Y-48404001D01*
X65508499Y-48404000D01*
X65125002Y-48404000D01*
X65125001Y-48404001D01*
X65125001Y-48439209D01*
X61550520Y-48439209D01*
X61555682Y-48400000D01*
X61535044Y-48243238D01*
X61506623Y-48174624D01*
X61474537Y-48097161D01*
X61474537Y-48097160D01*
X61378286Y-47971723D01*
X61378285Y-47971722D01*
X61378282Y-47971718D01*
X61378277Y-47971714D01*
X61378276Y-47971713D01*
X61252838Y-47875462D01*
X61229883Y-47865954D01*
X61183357Y-47826218D01*
X61169073Y-47766723D01*
X61192488Y-47710195D01*
X61244657Y-47678225D01*
X61267768Y-47675490D01*
X65038435Y-47675490D01*
X65096626Y-47694397D01*
X65132590Y-47743897D01*
X65136216Y-47789977D01*
X65125000Y-47860790D01*
X65125000Y-47895999D01*
X65125001Y-47896000D01*
X66405389Y-47896000D01*
X66463580Y-47914907D01*
X66475393Y-47924996D01*
X66670504Y-48120107D01*
X66698281Y-48174624D01*
X66699500Y-48190111D01*
X66699500Y-48439248D01*
X66715049Y-48537419D01*
X66715050Y-48537423D01*
X66735869Y-48578282D01*
X66775342Y-48655751D01*
X66869249Y-48749658D01*
X66987580Y-48809951D01*
X67054130Y-48820491D01*
X67085751Y-48825500D01*
X67085754Y-48825500D01*
X67589249Y-48825500D01*
X67617803Y-48820976D01*
X67687420Y-48809951D01*
X67805751Y-48749658D01*
X67899658Y-48655751D01*
X67956540Y-48544114D01*
X67963489Y-48530477D01*
X67966488Y-48532005D01*
X67993815Y-48494402D01*
X68051998Y-48475500D01*
X68094030Y-48475500D01*
X68152221Y-48494407D01*
X68172570Y-48514231D01*
X68221718Y-48578282D01*
X68347159Y-48674536D01*
X68347160Y-48674536D01*
X68347161Y-48674537D01*
X68412787Y-48701720D01*
X68493238Y-48735044D01*
X68601129Y-48749248D01*
X68649999Y-48755682D01*
X68650000Y-48755682D01*
X68650001Y-48755682D01*
X68698871Y-48749248D01*
X68806762Y-48735044D01*
X68952841Y-48674536D01*
X69078282Y-48578282D01*
X69174536Y-48452841D01*
X69235044Y-48306762D01*
X69255682Y-48150000D01*
X69235044Y-47993238D01*
X69174537Y-47847161D01*
X69174537Y-47847160D01*
X69078286Y-47721723D01*
X69078285Y-47721722D01*
X69078282Y-47721718D01*
X69078277Y-47721714D01*
X69078276Y-47721713D01*
X68952838Y-47625462D01*
X68806766Y-47564957D01*
X68806758Y-47564955D01*
X68650001Y-47544318D01*
X68649999Y-47544318D01*
X68493241Y-47564955D01*
X68493233Y-47564957D01*
X68347161Y-47625462D01*
X68347160Y-47625462D01*
X68221723Y-47721713D01*
X68221714Y-47721722D01*
X68172572Y-47785767D01*
X68122148Y-47820423D01*
X68094030Y-47824500D01*
X68051998Y-47824500D01*
X67993807Y-47805593D01*
X67966487Y-47767995D01*
X67963489Y-47769523D01*
X67925210Y-47694397D01*
X67899658Y-47644249D01*
X67805751Y-47550342D01*
X67793928Y-47544318D01*
X67687423Y-47490050D01*
X67687420Y-47490049D01*
X67662876Y-47486161D01*
X67589249Y-47474500D01*
X67589246Y-47474500D01*
X67340112Y-47474500D01*
X67281921Y-47455593D01*
X67270109Y-47445504D01*
X66689104Y-46864501D01*
X66689099Y-46864497D01*
X66586380Y-46805192D01*
X66586376Y-46805190D01*
X66562163Y-46798702D01*
X66562163Y-46798703D01*
X66471799Y-46774490D01*
X60450016Y-46774490D01*
X60404833Y-46786596D01*
X60359650Y-46798703D01*
X60359649Y-46798702D01*
X60335440Y-46805190D01*
X60335438Y-46805190D01*
X60335438Y-46805191D01*
X60298668Y-46826420D01*
X60232711Y-46864500D01*
X59539508Y-47557704D01*
X59539507Y-47557705D01*
X59480200Y-47660427D01*
X59480200Y-47660428D01*
X59480201Y-47660429D01*
X59451720Y-47766723D01*
X59449500Y-47775007D01*
X59449500Y-47967067D01*
X59430593Y-48025258D01*
X59429042Y-48027334D01*
X59375462Y-48097160D01*
X59375462Y-48097161D01*
X59314957Y-48243233D01*
X59314955Y-48243241D01*
X59294318Y-48399999D01*
X59294318Y-48400000D01*
X59314955Y-48556758D01*
X59314957Y-48556766D01*
X59375462Y-48702838D01*
X59375463Y-48702840D01*
X59375464Y-48702841D01*
X59411388Y-48749658D01*
X59424223Y-48766384D01*
X59444647Y-48824060D01*
X59427270Y-48882726D01*
X59378728Y-48919973D01*
X59361169Y-48924433D01*
X59262580Y-48940049D01*
X59262576Y-48940050D01*
X59144250Y-49000341D01*
X59050341Y-49094250D01*
X58990050Y-49212576D01*
X58990049Y-49212580D01*
X58974500Y-49310751D01*
X58974500Y-49559888D01*
X58955593Y-49618079D01*
X58945504Y-49629891D01*
X58139511Y-50435885D01*
X58139507Y-50435890D01*
X58080200Y-50538612D01*
X58080200Y-50538613D01*
X58080201Y-50538614D01*
X58050264Y-50650342D01*
X58049500Y-50653192D01*
X58049500Y-50661664D01*
X58030593Y-50719855D01*
X58020504Y-50731668D01*
X55992722Y-52759449D01*
X55938205Y-52787226D01*
X55877773Y-52777655D01*
X55876050Y-52776755D01*
X55703959Y-52684770D01*
X55703954Y-52684768D01*
X55505934Y-52624699D01*
X55505929Y-52624698D01*
X55300003Y-52604417D01*
X55299997Y-52604417D01*
X55094070Y-52624698D01*
X55094065Y-52624699D01*
X54896045Y-52684768D01*
X54713547Y-52782316D01*
X54553595Y-52913585D01*
X54553585Y-52913595D01*
X54422316Y-53073547D01*
X54324768Y-53256045D01*
X54264699Y-53454065D01*
X54264698Y-53454070D01*
X54244417Y-53659996D01*
X54244417Y-53660003D01*
X54264698Y-53865929D01*
X54264699Y-53865934D01*
X54324768Y-54063954D01*
X54422316Y-54246452D01*
X54553585Y-54406404D01*
X54553590Y-54406410D01*
X54553595Y-54406414D01*
X54713547Y-54537683D01*
X54713548Y-54537683D01*
X54713550Y-54537685D01*
X54896046Y-54635232D01*
X55022461Y-54673579D01*
X55094065Y-54695300D01*
X55094070Y-54695301D01*
X55299997Y-54715583D01*
X55300000Y-54715583D01*
X55300003Y-54715583D01*
X55505929Y-54695301D01*
X55505934Y-54695300D01*
X55703954Y-54635232D01*
X55886450Y-54537685D01*
X56046410Y-54406410D01*
X56177685Y-54246450D01*
X56275232Y-54063954D01*
X56335300Y-53865934D01*
X56335301Y-53865929D01*
X56355583Y-53660003D01*
X56355583Y-53659996D01*
X56335301Y-53454070D01*
X56335300Y-53454065D01*
X56325401Y-53421433D01*
X56326602Y-53360260D01*
X56350132Y-53322693D01*
X57880497Y-51792329D01*
X57935013Y-51764553D01*
X57995445Y-51774124D01*
X58038710Y-51817389D01*
X58049500Y-51862334D01*
X58049500Y-55559309D01*
X58072278Y-55644318D01*
X58072277Y-55644318D01*
X58080200Y-55673886D01*
X58080202Y-55673890D01*
X58139507Y-55776609D01*
X58139508Y-55776610D01*
X58139509Y-55776611D01*
X58139511Y-55776614D01*
X58924562Y-56561665D01*
X59594886Y-57231989D01*
X59622663Y-57286506D01*
X59616349Y-57339871D01*
X59614957Y-57343230D01*
X59614956Y-57343235D01*
X59594318Y-57499999D01*
X59594318Y-57500000D01*
X59614955Y-57656758D01*
X59614957Y-57656766D01*
X59675462Y-57802838D01*
X59675462Y-57802839D01*
X59771713Y-57928276D01*
X59771718Y-57928282D01*
X59897159Y-58024536D01*
X59897160Y-58024536D01*
X59897161Y-58024537D01*
X59979073Y-58058466D01*
X60043238Y-58085044D01*
X60156841Y-58100000D01*
X60199999Y-58105682D01*
X60200000Y-58105682D01*
X60200001Y-58105682D01*
X60231352Y-58101554D01*
X60356762Y-58085044D01*
X60502841Y-58024536D01*
X60572665Y-57970957D01*
X60630341Y-57950534D01*
X60632932Y-57950500D01*
X62467068Y-57950500D01*
X62525259Y-57969407D01*
X62527315Y-57970943D01*
X62597159Y-58024536D01*
X62597160Y-58024536D01*
X62597161Y-58024537D01*
X62679073Y-58058466D01*
X62743238Y-58085044D01*
X62856841Y-58100000D01*
X62899999Y-58105682D01*
X62900000Y-58105682D01*
X62900001Y-58105682D01*
X62931352Y-58101554D01*
X63056762Y-58085044D01*
X63202841Y-58024536D01*
X63272665Y-57970957D01*
X63330341Y-57950534D01*
X63332932Y-57950500D01*
X65717068Y-57950500D01*
X65775259Y-57969407D01*
X65777315Y-57970943D01*
X65847159Y-58024536D01*
X65847160Y-58024536D01*
X65847161Y-58024537D01*
X65929073Y-58058466D01*
X65993238Y-58085044D01*
X66106841Y-58100000D01*
X66149999Y-58105682D01*
X66150000Y-58105682D01*
X66150001Y-58105682D01*
X66181352Y-58101554D01*
X66306762Y-58085044D01*
X66452841Y-58024536D01*
X66578282Y-57928282D01*
X66578281Y-57928282D01*
X66583430Y-57924332D01*
X66584490Y-57925713D01*
X66631584Y-57901719D01*
X66647071Y-57900500D01*
X68117068Y-57900500D01*
X68175259Y-57919407D01*
X68177315Y-57920943D01*
X68247159Y-57974536D01*
X68247160Y-57974536D01*
X68247161Y-57974537D01*
X68290547Y-57992508D01*
X68393238Y-58035044D01*
X68480496Y-58046531D01*
X68535720Y-58072872D01*
X68537577Y-58074680D01*
X71323386Y-60860489D01*
X71382696Y-60894731D01*
X71426114Y-60919799D01*
X71540691Y-60950500D01*
X71540693Y-60950500D01*
X75809309Y-60950500D01*
X75899669Y-60926287D01*
X75899672Y-60926287D01*
X75912903Y-60922741D01*
X75923887Y-60919799D01*
X76026614Y-60860489D01*
X76572990Y-60314114D01*
X76632299Y-60211387D01*
X76638787Y-60187172D01*
X76638787Y-60187169D01*
X76663000Y-60096809D01*
X76663000Y-59908416D01*
X76681907Y-59850225D01*
X76691990Y-59838418D01*
X76774658Y-59755751D01*
X76834951Y-59637420D01*
X76850500Y-59539246D01*
X76850500Y-59539209D01*
X77150001Y-59539209D01*
X77165531Y-59637262D01*
X77225751Y-59755452D01*
X77319547Y-59849248D01*
X77437735Y-59909468D01*
X77533499Y-59924636D01*
X77533500Y-59924635D01*
X78041500Y-59924635D01*
X78137258Y-59909470D01*
X78137261Y-59909469D01*
X78255452Y-59849248D01*
X78349248Y-59755452D01*
X78409468Y-59637264D01*
X78425000Y-59539208D01*
X78425000Y-59504001D01*
X78424999Y-59504000D01*
X78041501Y-59504000D01*
X78041500Y-59504001D01*
X78041500Y-59924635D01*
X77533500Y-59924635D01*
X77533500Y-59504001D01*
X77533499Y-59504000D01*
X77150002Y-59504000D01*
X77150001Y-59504001D01*
X77150001Y-59539209D01*
X76850500Y-59539209D01*
X76850500Y-58995999D01*
X77150000Y-58995999D01*
X77150001Y-58996000D01*
X77533499Y-58996000D01*
X77533500Y-58995999D01*
X77533500Y-58575364D01*
X77533499Y-58575363D01*
X78041500Y-58575363D01*
X78041500Y-58995999D01*
X78041501Y-58996000D01*
X78424998Y-58996000D01*
X78424999Y-58995999D01*
X78424999Y-58960790D01*
X78409468Y-58862737D01*
X78349248Y-58744547D01*
X78255452Y-58650751D01*
X78137264Y-58590531D01*
X78041500Y-58575363D01*
X77533499Y-58575363D01*
X77437736Y-58590531D01*
X77437734Y-58590531D01*
X77319547Y-58650751D01*
X77225751Y-58744547D01*
X77165531Y-58862735D01*
X77150000Y-58960791D01*
X77150000Y-58995999D01*
X76850500Y-58995999D01*
X76850500Y-58960754D01*
X76834951Y-58862580D01*
X76774658Y-58744249D01*
X76680751Y-58650342D01*
X76664116Y-58641866D01*
X76562423Y-58590050D01*
X76562420Y-58590049D01*
X76530807Y-58585042D01*
X76464249Y-58574500D01*
X76464246Y-58574500D01*
X76215111Y-58574500D01*
X76156920Y-58555593D01*
X76145107Y-58545504D01*
X75990575Y-58390972D01*
X75962798Y-58336455D01*
X75961579Y-58320968D01*
X75961579Y-58213777D01*
X75980486Y-58155586D01*
X76029986Y-58119622D01*
X76060579Y-58114777D01*
X76280826Y-58114777D01*
X76280827Y-58114777D01*
X76339310Y-58103144D01*
X76405631Y-58058829D01*
X76449946Y-57992508D01*
X76461579Y-57934025D01*
X76461579Y-57933977D01*
X76861079Y-57933977D01*
X76872682Y-57992313D01*
X76916885Y-58058466D01*
X76916889Y-58058470D01*
X76983042Y-58102673D01*
X77041378Y-58114276D01*
X77041382Y-58114277D01*
X77557078Y-58114277D01*
X77557079Y-58114276D01*
X78065079Y-58114276D01*
X78065080Y-58114277D01*
X78580776Y-58114277D01*
X78580779Y-58114276D01*
X78639115Y-58102673D01*
X78705268Y-58058470D01*
X78705272Y-58058466D01*
X78744339Y-58000000D01*
X93894318Y-58000000D01*
X93914955Y-58156758D01*
X93914957Y-58156766D01*
X93975462Y-58302838D01*
X93975462Y-58302839D01*
X94038442Y-58384916D01*
X94071718Y-58428282D01*
X94197159Y-58524536D01*
X94197160Y-58524536D01*
X94197161Y-58524537D01*
X94319866Y-58575363D01*
X94343238Y-58585044D01*
X94456841Y-58600000D01*
X94499999Y-58605682D01*
X94500000Y-58605682D01*
X94500001Y-58605682D01*
X94543159Y-58600000D01*
X94656762Y-58585044D01*
X94802841Y-58524536D01*
X94928282Y-58428282D01*
X94977428Y-58364232D01*
X95027852Y-58329577D01*
X95055970Y-58325500D01*
X113042851Y-58325500D01*
X113042853Y-58325500D01*
X113125639Y-58303318D01*
X113125641Y-58303316D01*
X113125643Y-58303316D01*
X113199857Y-58260468D01*
X113199857Y-58260467D01*
X113199862Y-58260465D01*
X114337035Y-57123290D01*
X114391550Y-57095515D01*
X114419953Y-57095143D01*
X114500000Y-57105682D01*
X114656762Y-57085044D01*
X114802841Y-57024536D01*
X114928282Y-56928282D01*
X115024536Y-56802841D01*
X115085044Y-56656762D01*
X115105682Y-56500000D01*
X115085044Y-56343238D01*
X115075002Y-56318995D01*
X166299500Y-56318995D01*
X166304323Y-56343241D01*
X166325658Y-56450499D01*
X166326420Y-56454327D01*
X166326420Y-56454329D01*
X166379222Y-56581806D01*
X166379228Y-56581817D01*
X166455885Y-56696541D01*
X166553458Y-56794114D01*
X166668182Y-56870771D01*
X166668193Y-56870777D01*
X166715283Y-56890282D01*
X166795672Y-56923580D01*
X166931007Y-56950500D01*
X166931008Y-56950500D01*
X167068992Y-56950500D01*
X167068993Y-56950500D01*
X167204328Y-56923580D01*
X167331811Y-56870775D01*
X167446542Y-56794114D01*
X167544114Y-56696542D01*
X167620775Y-56581811D01*
X167673580Y-56454328D01*
X167700500Y-56318993D01*
X167700500Y-51681007D01*
X167673580Y-51545672D01*
X167631940Y-51445143D01*
X167620777Y-51418193D01*
X167620771Y-51418182D01*
X167544114Y-51303458D01*
X167446541Y-51205885D01*
X167331817Y-51129228D01*
X167331806Y-51129222D01*
X167204328Y-51076420D01*
X167068995Y-51049500D01*
X167068993Y-51049500D01*
X166931007Y-51049500D01*
X166931004Y-51049500D01*
X166795672Y-51076420D01*
X166795670Y-51076420D01*
X166668193Y-51129222D01*
X166668182Y-51129228D01*
X166553458Y-51205885D01*
X166455885Y-51303458D01*
X166379228Y-51418182D01*
X166379222Y-51418193D01*
X166326420Y-51545670D01*
X166326420Y-51545672D01*
X166299500Y-51681004D01*
X166299500Y-56318995D01*
X115075002Y-56318995D01*
X115024537Y-56197161D01*
X115024537Y-56197160D01*
X114928286Y-56071723D01*
X114928285Y-56071722D01*
X114928282Y-56071718D01*
X114928277Y-56071714D01*
X114928276Y-56071713D01*
X114802838Y-55975462D01*
X114656766Y-55914957D01*
X114656758Y-55914955D01*
X114500001Y-55894318D01*
X114499999Y-55894318D01*
X114343241Y-55914955D01*
X114343233Y-55914957D01*
X114197161Y-55975462D01*
X114197160Y-55975462D01*
X114071723Y-56071713D01*
X114071713Y-56071723D01*
X113975462Y-56197160D01*
X113975462Y-56197161D01*
X113914957Y-56343233D01*
X113914955Y-56343241D01*
X113894318Y-56499999D01*
X113894318Y-56500000D01*
X113904855Y-56580039D01*
X113893705Y-56640200D01*
X113876706Y-56662965D01*
X112894169Y-57645504D01*
X112839652Y-57673281D01*
X112824165Y-57674500D01*
X95055970Y-57674500D01*
X94997779Y-57655593D01*
X94977428Y-57635767D01*
X94928285Y-57571722D01*
X94928282Y-57571718D01*
X94928277Y-57571714D01*
X94928276Y-57571713D01*
X94802838Y-57475462D01*
X94656766Y-57414957D01*
X94656758Y-57414955D01*
X94500001Y-57394318D01*
X94499999Y-57394318D01*
X94343241Y-57414955D01*
X94343233Y-57414957D01*
X94197161Y-57475462D01*
X94197160Y-57475462D01*
X94071723Y-57571713D01*
X94071713Y-57571723D01*
X93975462Y-57697160D01*
X93975462Y-57697161D01*
X93914957Y-57843233D01*
X93914955Y-57843241D01*
X93894318Y-57999999D01*
X93894318Y-58000000D01*
X78744339Y-58000000D01*
X78749475Y-57992313D01*
X78761078Y-57933977D01*
X78761079Y-57933974D01*
X78761079Y-57168278D01*
X78761078Y-57168277D01*
X78065080Y-57168277D01*
X78065079Y-57168278D01*
X78065079Y-58114276D01*
X77557079Y-58114276D01*
X77557079Y-57168278D01*
X77557078Y-57168277D01*
X76861080Y-57168277D01*
X76861079Y-57168278D01*
X76861079Y-57933977D01*
X76461579Y-57933977D01*
X76461579Y-56660276D01*
X76861079Y-56660276D01*
X76861080Y-56660277D01*
X77557078Y-56660277D01*
X77557079Y-56660276D01*
X78065079Y-56660276D01*
X78065080Y-56660277D01*
X78761078Y-56660277D01*
X78761079Y-56660276D01*
X78761079Y-55894579D01*
X78761078Y-55894576D01*
X78749475Y-55836240D01*
X78705272Y-55770087D01*
X78705268Y-55770083D01*
X78639115Y-55725880D01*
X78580779Y-55714277D01*
X78065080Y-55714277D01*
X78065079Y-55714278D01*
X78065079Y-56660276D01*
X77557079Y-56660276D01*
X77557079Y-55714278D01*
X77557078Y-55714277D01*
X77041378Y-55714277D01*
X76983042Y-55725880D01*
X76916889Y-55770083D01*
X76916885Y-55770087D01*
X76872682Y-55836240D01*
X76861079Y-55894576D01*
X76861079Y-56660276D01*
X76461579Y-56660276D01*
X76461579Y-55894529D01*
X76449946Y-55836046D01*
X76405631Y-55769725D01*
X76405627Y-55769722D01*
X76339312Y-55725411D01*
X76339310Y-55725410D01*
X76339307Y-55725409D01*
X76339306Y-55725409D01*
X76280837Y-55713778D01*
X76280827Y-55713777D01*
X76280826Y-55713777D01*
X76060579Y-55713777D01*
X76002388Y-55694870D01*
X75966424Y-55645370D01*
X75961579Y-55614777D01*
X75961579Y-54407270D01*
X75980486Y-54349079D01*
X76029986Y-54313115D01*
X76091172Y-54313115D01*
X76140672Y-54349079D01*
X76142893Y-54352266D01*
X76205886Y-54446542D01*
X76205889Y-54446545D01*
X76303458Y-54544114D01*
X76418182Y-54620771D01*
X76418193Y-54620777D01*
X76453089Y-54635231D01*
X76545672Y-54673580D01*
X76681007Y-54700500D01*
X78418835Y-54700500D01*
X78477026Y-54719407D01*
X78488839Y-54729496D01*
X80053457Y-56294114D01*
X80168189Y-56370775D01*
X80295672Y-56423580D01*
X80431006Y-56450500D01*
X80431007Y-56450500D01*
X83318993Y-56450500D01*
X83318994Y-56450500D01*
X83454328Y-56423580D01*
X83581811Y-56370775D01*
X83696543Y-56294114D01*
X85714114Y-54276543D01*
X85790775Y-54161811D01*
X85843580Y-54034328D01*
X85870500Y-53898994D01*
X85870500Y-53761006D01*
X85870500Y-52704000D01*
X158322154Y-52704000D01*
X158335702Y-52789538D01*
X158406232Y-53006607D01*
X158509847Y-53209963D01*
X158644001Y-53394610D01*
X158805389Y-53555998D01*
X158990036Y-53690152D01*
X159193392Y-53793767D01*
X159410461Y-53864297D01*
X159635880Y-53900000D01*
X160495999Y-53900000D01*
X160496000Y-53899999D01*
X160496000Y-53156583D01*
X160531233Y-53171178D01*
X160676131Y-53200000D01*
X160823869Y-53200000D01*
X160968767Y-53171178D01*
X161004000Y-53156583D01*
X161004000Y-53899999D01*
X161004001Y-53900000D01*
X161864120Y-53900000D01*
X162089538Y-53864297D01*
X162306607Y-53793767D01*
X162509963Y-53690152D01*
X162694610Y-53555998D01*
X162855998Y-53394610D01*
X162990152Y-53209963D01*
X163093767Y-53006607D01*
X163164297Y-52789538D01*
X163177845Y-52704000D01*
X161456584Y-52704000D01*
X161471178Y-52668767D01*
X161500000Y-52523869D01*
X161500000Y-52376131D01*
X161471178Y-52231233D01*
X161456584Y-52196000D01*
X163177845Y-52196000D01*
X163177845Y-52195999D01*
X163164297Y-52110461D01*
X163093767Y-51893392D01*
X162990152Y-51690036D01*
X162855998Y-51505389D01*
X162694610Y-51344001D01*
X162509963Y-51209847D01*
X162306607Y-51106232D01*
X162089538Y-51035702D01*
X161864120Y-51000000D01*
X161004001Y-51000000D01*
X161004000Y-51000001D01*
X161004000Y-51743416D01*
X160968767Y-51728822D01*
X160823869Y-51700000D01*
X160676131Y-51700000D01*
X160531233Y-51728822D01*
X160496000Y-51743416D01*
X160496000Y-51000001D01*
X160495999Y-51000000D01*
X159635880Y-51000000D01*
X159410461Y-51035702D01*
X159193392Y-51106232D01*
X158990036Y-51209847D01*
X158805389Y-51344001D01*
X158644001Y-51505389D01*
X158509847Y-51690036D01*
X158406232Y-51893392D01*
X158335702Y-52110461D01*
X158322154Y-52195999D01*
X158322155Y-52196000D01*
X160043416Y-52196000D01*
X160028822Y-52231233D01*
X160000000Y-52376131D01*
X160000000Y-52523869D01*
X160028822Y-52668767D01*
X160043416Y-52704000D01*
X158322154Y-52704000D01*
X85870500Y-52704000D01*
X85870500Y-47114160D01*
X158299500Y-47114160D01*
X158335214Y-47339655D01*
X158405769Y-47556799D01*
X158509420Y-47760227D01*
X158509424Y-47760233D01*
X158643616Y-47944931D01*
X158643618Y-47944933D01*
X158643621Y-47944937D01*
X158805063Y-48106379D01*
X158805066Y-48106381D01*
X158805068Y-48106383D01*
X158989766Y-48240575D01*
X158989772Y-48240579D01*
X159193201Y-48344231D01*
X159410340Y-48414784D01*
X159410341Y-48414784D01*
X159410344Y-48414785D01*
X159635840Y-48450500D01*
X159635843Y-48450500D01*
X161864160Y-48450500D01*
X162089655Y-48414785D01*
X162089656Y-48414784D01*
X162089660Y-48414784D01*
X162306799Y-48344231D01*
X162510228Y-48240579D01*
X162694937Y-48106379D01*
X162856379Y-47944937D01*
X162990579Y-47760228D01*
X163094231Y-47556799D01*
X163164784Y-47339660D01*
X163200500Y-47114157D01*
X163200500Y-46885843D01*
X163200500Y-46885839D01*
X163164785Y-46660344D01*
X163164784Y-46660340D01*
X163094231Y-46443201D01*
X162990579Y-46239772D01*
X162930271Y-46156766D01*
X162856383Y-46055068D01*
X162856381Y-46055066D01*
X162856379Y-46055063D01*
X162694937Y-45893621D01*
X162694933Y-45893618D01*
X162694931Y-45893616D01*
X162510233Y-45759424D01*
X162510227Y-45759420D01*
X162306799Y-45655769D01*
X162089655Y-45585214D01*
X161864160Y-45549500D01*
X161864157Y-45549500D01*
X159635843Y-45549500D01*
X159635840Y-45549500D01*
X159410344Y-45585214D01*
X159193200Y-45655769D01*
X158989772Y-45759420D01*
X158989766Y-45759424D01*
X158805068Y-45893616D01*
X158643616Y-46055068D01*
X158509424Y-46239766D01*
X158509420Y-46239772D01*
X158405769Y-46443200D01*
X158335214Y-46660344D01*
X158299500Y-46885839D01*
X158299500Y-47114160D01*
X85870500Y-47114160D01*
X85870500Y-42819746D01*
X158299500Y-42819746D01*
X158299501Y-42819758D01*
X158311132Y-42878227D01*
X158311134Y-42878233D01*
X158346389Y-42930995D01*
X158355448Y-42944552D01*
X158421769Y-42988867D01*
X158466231Y-42997711D01*
X158480241Y-43000498D01*
X158480246Y-43000498D01*
X158480252Y-43000500D01*
X158480253Y-43000500D01*
X163019747Y-43000500D01*
X163019748Y-43000500D01*
X163078231Y-42988867D01*
X163144552Y-42944552D01*
X163188867Y-42878231D01*
X163200500Y-42819748D01*
X163200500Y-42337000D01*
X163206350Y-42318995D01*
X166299500Y-42318995D01*
X166326420Y-42454327D01*
X166326420Y-42454329D01*
X166379222Y-42581806D01*
X166379228Y-42581817D01*
X166455885Y-42696541D01*
X166553458Y-42794114D01*
X166668182Y-42870771D01*
X166668193Y-42870777D01*
X166686189Y-42878231D01*
X166795672Y-42923580D01*
X166931007Y-42950500D01*
X166931008Y-42950500D01*
X167068992Y-42950500D01*
X167068993Y-42950500D01*
X167204328Y-42923580D01*
X167331811Y-42870775D01*
X167446542Y-42794114D01*
X167544114Y-42696542D01*
X167620775Y-42581811D01*
X167673580Y-42454328D01*
X167700500Y-42318993D01*
X167700500Y-37681007D01*
X167673580Y-37545672D01*
X167638279Y-37460448D01*
X167620777Y-37418193D01*
X167620771Y-37418182D01*
X167544114Y-37303458D01*
X167446541Y-37205885D01*
X167331817Y-37129228D01*
X167331806Y-37129222D01*
X167204328Y-37076420D01*
X167068995Y-37049500D01*
X167068993Y-37049500D01*
X166931007Y-37049500D01*
X166931004Y-37049500D01*
X166795672Y-37076420D01*
X166795670Y-37076420D01*
X166668193Y-37129222D01*
X166668182Y-37129228D01*
X166553458Y-37205885D01*
X166455885Y-37303458D01*
X166379228Y-37418182D01*
X166379222Y-37418193D01*
X166326420Y-37545670D01*
X166326420Y-37545672D01*
X166299500Y-37681004D01*
X166299500Y-42318995D01*
X163206350Y-42318995D01*
X163219407Y-42278809D01*
X163268907Y-42242845D01*
X163299500Y-42238000D01*
X164318992Y-42238000D01*
X164318993Y-42238000D01*
X164454328Y-42211080D01*
X164530008Y-42179731D01*
X164552402Y-42173415D01*
X164637420Y-42159951D01*
X164755751Y-42099658D01*
X164849658Y-42005751D01*
X164909951Y-41887420D01*
X164925500Y-41789246D01*
X164925500Y-41741927D01*
X164927402Y-41722613D01*
X164946479Y-41626706D01*
X164950500Y-41606493D01*
X164950500Y-41468507D01*
X164927402Y-41352385D01*
X164925500Y-41333071D01*
X164925500Y-41285751D01*
X164918491Y-41241500D01*
X164909951Y-41187580D01*
X164849658Y-41069249D01*
X164755751Y-40975342D01*
X164637420Y-40915049D01*
X164637421Y-40915049D01*
X164552405Y-40901584D01*
X164530007Y-40895267D01*
X164454328Y-40863920D01*
X164318995Y-40837000D01*
X164318993Y-40837000D01*
X163299500Y-40837000D01*
X163241309Y-40818093D01*
X163205345Y-40768593D01*
X163200500Y-40738000D01*
X163200500Y-40280253D01*
X163200498Y-40280241D01*
X163197711Y-40266231D01*
X163188867Y-40221769D01*
X163144552Y-40155448D01*
X163144548Y-40155445D01*
X163078233Y-40111134D01*
X163078231Y-40111133D01*
X163078228Y-40111132D01*
X163078227Y-40111132D01*
X163019758Y-40099501D01*
X163019748Y-40099500D01*
X158480252Y-40099500D01*
X158480251Y-40099500D01*
X158480241Y-40099501D01*
X158421772Y-40111132D01*
X158421766Y-40111134D01*
X158355451Y-40155445D01*
X158355445Y-40155451D01*
X158311134Y-40221766D01*
X158311132Y-40221772D01*
X158299501Y-40280241D01*
X158299500Y-40280253D01*
X158299500Y-42819746D01*
X85870500Y-42819746D01*
X85870500Y-41331164D01*
X85889407Y-41272973D01*
X85899490Y-41261166D01*
X88327787Y-38832868D01*
X88382302Y-38805093D01*
X88407493Y-38804351D01*
X88420000Y-38805583D01*
X88420002Y-38805583D01*
X88625929Y-38785301D01*
X88625934Y-38785300D01*
X88661537Y-38774500D01*
X88823954Y-38725232D01*
X89006450Y-38627685D01*
X89166410Y-38496410D01*
X89297685Y-38336450D01*
X89395232Y-38153954D01*
X89455300Y-37955934D01*
X89455301Y-37955929D01*
X89475583Y-37750003D01*
X89904417Y-37750003D01*
X89924698Y-37955929D01*
X89924699Y-37955934D01*
X89984768Y-38153954D01*
X90082316Y-38336452D01*
X90184328Y-38460754D01*
X90213590Y-38496410D01*
X90213595Y-38496414D01*
X90373547Y-38627683D01*
X90373548Y-38627683D01*
X90373550Y-38627685D01*
X90556046Y-38725232D01*
X90693997Y-38767078D01*
X90754065Y-38785300D01*
X90754070Y-38785301D01*
X90959997Y-38805583D01*
X90960000Y-38805583D01*
X90960003Y-38805583D01*
X91165929Y-38785301D01*
X91165934Y-38785300D01*
X91201537Y-38774500D01*
X91363954Y-38725232D01*
X91546450Y-38627685D01*
X91706410Y-38496410D01*
X91837685Y-38336450D01*
X91935232Y-38153954D01*
X91995300Y-37955934D01*
X91995301Y-37955929D01*
X92015583Y-37750003D01*
X92015583Y-37749996D01*
X91995301Y-37544070D01*
X91995300Y-37544065D01*
X91960179Y-37428286D01*
X91935232Y-37346046D01*
X91837685Y-37163550D01*
X91832114Y-37156762D01*
X91706414Y-37003595D01*
X91706410Y-37003590D01*
X91646908Y-36954758D01*
X91546452Y-36872316D01*
X91363954Y-36774768D01*
X91165934Y-36714699D01*
X91165929Y-36714698D01*
X90960003Y-36694417D01*
X90959997Y-36694417D01*
X90754070Y-36714698D01*
X90754065Y-36714699D01*
X90556045Y-36774768D01*
X90373547Y-36872316D01*
X90213595Y-37003585D01*
X90213585Y-37003595D01*
X90082316Y-37163547D01*
X89984768Y-37346045D01*
X89924699Y-37544065D01*
X89924698Y-37544070D01*
X89904417Y-37749996D01*
X89904417Y-37750003D01*
X89475583Y-37750003D01*
X89475583Y-37749996D01*
X89455301Y-37544070D01*
X89455300Y-37544065D01*
X89420179Y-37428286D01*
X89395232Y-37346046D01*
X89297685Y-37163550D01*
X89292114Y-37156762D01*
X89166414Y-37003595D01*
X89166410Y-37003590D01*
X89106908Y-36954758D01*
X89006452Y-36872316D01*
X88823954Y-36774768D01*
X88625934Y-36714699D01*
X88625929Y-36714698D01*
X88420003Y-36694417D01*
X88419997Y-36694417D01*
X88214070Y-36714698D01*
X88214065Y-36714699D01*
X88016045Y-36774768D01*
X87833547Y-36872316D01*
X87673595Y-37003585D01*
X87673585Y-37003595D01*
X87542316Y-37163547D01*
X87444768Y-37346045D01*
X87384699Y-37544065D01*
X87384698Y-37544070D01*
X87364417Y-37749996D01*
X87364417Y-37750005D01*
X87365648Y-37762506D01*
X87352535Y-37822270D01*
X87337129Y-37842212D01*
X84625883Y-40553460D01*
X84549223Y-40668191D01*
X84496420Y-40795670D01*
X84496420Y-40795672D01*
X84482845Y-40863919D01*
X84469500Y-40931006D01*
X84469500Y-53498835D01*
X84450593Y-53557026D01*
X84440504Y-53568839D01*
X82988839Y-55020504D01*
X82934322Y-55048281D01*
X82918835Y-55049500D01*
X80831165Y-55049500D01*
X80772974Y-55030593D01*
X80761161Y-55020504D01*
X79987107Y-54246450D01*
X79196543Y-53455886D01*
X79193825Y-53454070D01*
X79081808Y-53379223D01*
X78954328Y-53326420D01*
X78818996Y-53299500D01*
X78818994Y-53299500D01*
X78818993Y-53299500D01*
X76681007Y-53299500D01*
X76681004Y-53299500D01*
X76545672Y-53326420D01*
X76545670Y-53326420D01*
X76418193Y-53379222D01*
X76418182Y-53379228D01*
X76303458Y-53455885D01*
X76205885Y-53553458D01*
X76142894Y-53647731D01*
X76094844Y-53685610D01*
X76033705Y-53688012D01*
X75982832Y-53654019D01*
X75961655Y-53596615D01*
X75961579Y-53592729D01*
X75961579Y-51913777D01*
X75980486Y-51855586D01*
X76029986Y-51819622D01*
X76060579Y-51814777D01*
X77430826Y-51814777D01*
X77430827Y-51814777D01*
X77489310Y-51803144D01*
X77555631Y-51758829D01*
X77599946Y-51692508D01*
X77611579Y-51634025D01*
X77611579Y-49594529D01*
X77599946Y-49536046D01*
X77555631Y-49469725D01*
X77548723Y-49465109D01*
X77489312Y-49425411D01*
X77489310Y-49425410D01*
X77489307Y-49425409D01*
X77489306Y-49425409D01*
X77430837Y-49413778D01*
X77430827Y-49413777D01*
X73591331Y-49413777D01*
X73591330Y-49413777D01*
X73591320Y-49413778D01*
X73532851Y-49425409D01*
X73532845Y-49425411D01*
X73466530Y-49469722D01*
X73466524Y-49469728D01*
X73422213Y-49536043D01*
X73422211Y-49536049D01*
X73410580Y-49594518D01*
X73410579Y-49594530D01*
X73410579Y-51634023D01*
X73410580Y-51634035D01*
X73422211Y-51692504D01*
X73422213Y-51692510D01*
X73464469Y-51755749D01*
X73466527Y-51758829D01*
X73532848Y-51803144D01*
X73576350Y-51811797D01*
X73591320Y-51814775D01*
X73591325Y-51814775D01*
X73591331Y-51814777D01*
X74961579Y-51814777D01*
X75019770Y-51833684D01*
X75055734Y-51883184D01*
X75060579Y-51913777D01*
X75060579Y-55614777D01*
X75041672Y-55672968D01*
X74992172Y-55708932D01*
X74961579Y-55713777D01*
X74741331Y-55713777D01*
X74741330Y-55713777D01*
X74741320Y-55713778D01*
X74682851Y-55725409D01*
X74682845Y-55725411D01*
X74616530Y-55769722D01*
X74616524Y-55769728D01*
X74572213Y-55836043D01*
X74572211Y-55836049D01*
X74560580Y-55894518D01*
X74560579Y-55894530D01*
X74560579Y-57934023D01*
X74560580Y-57934035D01*
X74572211Y-57992504D01*
X74572213Y-57992510D01*
X74611241Y-58050918D01*
X74616527Y-58058829D01*
X74682848Y-58103144D01*
X74727310Y-58111988D01*
X74741320Y-58114775D01*
X74741325Y-58114775D01*
X74741331Y-58114777D01*
X74961579Y-58114777D01*
X75019770Y-58133684D01*
X75055734Y-58183184D01*
X75060579Y-58213777D01*
X75060579Y-58517286D01*
X75041672Y-58575477D01*
X74992172Y-58611441D01*
X74930986Y-58611441D01*
X74916634Y-58605496D01*
X74887264Y-58590531D01*
X74791500Y-58575363D01*
X74791500Y-58995999D01*
X74791501Y-58996000D01*
X75174998Y-58996000D01*
X75178192Y-58992806D01*
X75232708Y-58965027D01*
X75293141Y-58974598D01*
X75318200Y-58992804D01*
X75545503Y-59220106D01*
X75573281Y-59274623D01*
X75574500Y-59290110D01*
X75574500Y-59539248D01*
X75590049Y-59637419D01*
X75590050Y-59637423D01*
X75648243Y-59751631D01*
X75650342Y-59755751D01*
X75683741Y-59789150D01*
X75711517Y-59843665D01*
X75701946Y-59904097D01*
X75683740Y-59929155D01*
X75592394Y-60020503D01*
X75537878Y-60048281D01*
X75522390Y-60049500D01*
X75024802Y-60049500D01*
X74966611Y-60030593D01*
X74930647Y-59981093D01*
X74930647Y-59919907D01*
X74966611Y-59870407D01*
X74979857Y-59862290D01*
X75005452Y-59849248D01*
X75099248Y-59755452D01*
X75159468Y-59637264D01*
X75175000Y-59539208D01*
X75175000Y-59504001D01*
X75174999Y-59504000D01*
X73900002Y-59504000D01*
X73900001Y-59504001D01*
X73900001Y-59539209D01*
X73915531Y-59637262D01*
X73975751Y-59755452D01*
X74069547Y-59849248D01*
X74095143Y-59862290D01*
X74138408Y-59905555D01*
X74147979Y-59965987D01*
X74120201Y-60020504D01*
X74065685Y-60048281D01*
X74050198Y-60049500D01*
X73450903Y-60049500D01*
X73392712Y-60030593D01*
X73356748Y-59981093D01*
X73356748Y-59919907D01*
X73392712Y-59870407D01*
X73405957Y-59862291D01*
X73405959Y-59862290D01*
X73430751Y-59849658D01*
X73524658Y-59755751D01*
X73584951Y-59637420D01*
X73600500Y-59539246D01*
X73600500Y-58995999D01*
X73900000Y-58995999D01*
X73900001Y-58996000D01*
X74283499Y-58996000D01*
X74283500Y-58995999D01*
X74283500Y-58575364D01*
X74283499Y-58575363D01*
X74187736Y-58590531D01*
X74187734Y-58590531D01*
X74069547Y-58650751D01*
X73975751Y-58744547D01*
X73915531Y-58862735D01*
X73900000Y-58960791D01*
X73900000Y-58995999D01*
X73600500Y-58995999D01*
X73600500Y-58960754D01*
X73584951Y-58862580D01*
X73524658Y-58744249D01*
X73430751Y-58650342D01*
X73414116Y-58641866D01*
X73342054Y-58605148D01*
X73298790Y-58561883D01*
X73288000Y-58516939D01*
X73288000Y-58213777D01*
X73306907Y-58155586D01*
X73356407Y-58119622D01*
X73387000Y-58114777D01*
X73980826Y-58114777D01*
X73980827Y-58114777D01*
X74039310Y-58103144D01*
X74105631Y-58058829D01*
X74149946Y-57992508D01*
X74161579Y-57934025D01*
X74161579Y-55894529D01*
X74149946Y-55836046D01*
X74105631Y-55769725D01*
X74105627Y-55769722D01*
X74039312Y-55725411D01*
X74039311Y-55725410D01*
X74039310Y-55725410D01*
X74032399Y-55724035D01*
X74030181Y-55723594D01*
X73976799Y-55693695D01*
X73951186Y-55638129D01*
X73950500Y-55626497D01*
X73950500Y-53681008D01*
X73950499Y-53681004D01*
X73946321Y-53660000D01*
X73923580Y-53545672D01*
X73886389Y-53455885D01*
X73870777Y-53418193D01*
X73870770Y-53418180D01*
X73842345Y-53375641D01*
X73842344Y-53375639D01*
X73794116Y-53303460D01*
X73794114Y-53303457D01*
X71729496Y-51238839D01*
X71701719Y-51184322D01*
X71700500Y-51168835D01*
X71700500Y-48299500D01*
X71719407Y-48241309D01*
X71768907Y-48205345D01*
X71799500Y-48200500D01*
X73918835Y-48200500D01*
X73977026Y-48219407D01*
X73988838Y-48229496D01*
X74159342Y-48399999D01*
X74303457Y-48544114D01*
X74418189Y-48620775D01*
X74545672Y-48673580D01*
X74681006Y-48700500D01*
X74681007Y-48700500D01*
X74818993Y-48700500D01*
X74818994Y-48700500D01*
X74954329Y-48673580D01*
X75081811Y-48620775D01*
X75196543Y-48544114D01*
X75294114Y-48446543D01*
X75370775Y-48331811D01*
X75423580Y-48204329D01*
X75450500Y-48068994D01*
X75450500Y-47931006D01*
X75423580Y-47795672D01*
X75370775Y-47668189D01*
X75294114Y-47553457D01*
X74696543Y-46955886D01*
X74581811Y-46879225D01*
X74581810Y-46879224D01*
X74581808Y-46879223D01*
X74454328Y-46826420D01*
X74318996Y-46799500D01*
X74318994Y-46799500D01*
X74318993Y-46799500D01*
X71331164Y-46799500D01*
X71272973Y-46780593D01*
X71261160Y-46770504D01*
X69884974Y-45394318D01*
X67946543Y-43455886D01*
X67831811Y-43379225D01*
X67831810Y-43379224D01*
X67831808Y-43379223D01*
X67704328Y-43326420D01*
X67568996Y-43299500D01*
X67568994Y-43299500D01*
X67568993Y-43299500D01*
X57568993Y-43299500D01*
X52931007Y-43299500D01*
X52931004Y-43299500D01*
X52795672Y-43326420D01*
X52795670Y-43326420D01*
X52668193Y-43379222D01*
X52668182Y-43379228D01*
X52553458Y-43455885D01*
X52455885Y-43553458D01*
X52379228Y-43668182D01*
X52379222Y-43668193D01*
X52326420Y-43795670D01*
X52326420Y-43795672D01*
X52299500Y-43931004D01*
X52299500Y-44068995D01*
X43200500Y-44068995D01*
X43200500Y-42859500D01*
X43219407Y-42801309D01*
X43268907Y-42765345D01*
X43299500Y-42760500D01*
X49362804Y-42760500D01*
X49420995Y-42779407D01*
X49454268Y-42821613D01*
X49473535Y-42868128D01*
X49473538Y-42868133D01*
X49510587Y-42923579D01*
X49544724Y-42974669D01*
X49635331Y-43065276D01*
X49698848Y-43107717D01*
X49741866Y-43136461D01*
X49741870Y-43136463D01*
X49741873Y-43136465D01*
X49860256Y-43185501D01*
X49985931Y-43210500D01*
X49985932Y-43210500D01*
X50114068Y-43210500D01*
X50114069Y-43210500D01*
X50239744Y-43185501D01*
X50358127Y-43136465D01*
X50464669Y-43065276D01*
X50555276Y-42974669D01*
X50626465Y-42868127D01*
X50675501Y-42749744D01*
X50700500Y-42624069D01*
X50700500Y-42495931D01*
X50675501Y-42370256D01*
X50626465Y-42251873D01*
X50626463Y-42251870D01*
X50626461Y-42251866D01*
X50578262Y-42179732D01*
X50555276Y-42145331D01*
X50464669Y-42054724D01*
X50391373Y-42005749D01*
X50358133Y-41983538D01*
X50358128Y-41983535D01*
X50311613Y-41964268D01*
X50265088Y-41924530D01*
X50250500Y-41872804D01*
X50250500Y-36999952D01*
X56644318Y-36999952D01*
X56664955Y-37156710D01*
X56664957Y-37156718D01*
X56725462Y-37302790D01*
X56725462Y-37302791D01*
X56814010Y-37418189D01*
X56821718Y-37428234D01*
X56863700Y-37460448D01*
X56885767Y-37477380D01*
X56920423Y-37527804D01*
X56924500Y-37555922D01*
X56924500Y-37707147D01*
X56924500Y-37792853D01*
X56944062Y-37865863D01*
X56946683Y-37875643D01*
X56989531Y-37949857D01*
X56989532Y-37949858D01*
X56989533Y-37949859D01*
X56989535Y-37949862D01*
X59073172Y-40033499D01*
X61126706Y-42087033D01*
X61154483Y-42141550D01*
X61154855Y-42169959D01*
X61144318Y-42249999D01*
X61144318Y-42250000D01*
X61164955Y-42406758D01*
X61164957Y-42406766D01*
X61225462Y-42552838D01*
X61225462Y-42552839D01*
X61247693Y-42581811D01*
X61321718Y-42678282D01*
X61447159Y-42774536D01*
X61447160Y-42774536D01*
X61447161Y-42774537D01*
X61556305Y-42819746D01*
X61593238Y-42835044D01*
X61710809Y-42850522D01*
X61749999Y-42855682D01*
X61750000Y-42855682D01*
X61750001Y-42855682D01*
X61781352Y-42851554D01*
X61906762Y-42835044D01*
X62052841Y-42774536D01*
X62178282Y-42678282D01*
X62274536Y-42552841D01*
X62335044Y-42406762D01*
X62355682Y-42250000D01*
X62345143Y-42169956D01*
X62356292Y-42109799D01*
X62373289Y-42087035D01*
X63218825Y-41241500D01*
X66125364Y-41241500D01*
X66140531Y-41337263D01*
X66140531Y-41337265D01*
X66200751Y-41455452D01*
X66294547Y-41549248D01*
X66412735Y-41609468D01*
X66510790Y-41624999D01*
X66545999Y-41624999D01*
X66546000Y-41624998D01*
X67054000Y-41624998D01*
X67054001Y-41624999D01*
X67089209Y-41624999D01*
X67187262Y-41609468D01*
X67305452Y-41549248D01*
X67399248Y-41455452D01*
X67459468Y-41337264D01*
X67474636Y-41241500D01*
X67054001Y-41241500D01*
X67054000Y-41241501D01*
X67054000Y-41624998D01*
X66546000Y-41624998D01*
X66546000Y-41241501D01*
X66545999Y-41241500D01*
X66125364Y-41241500D01*
X63218825Y-41241500D01*
X63726825Y-40733500D01*
X66125363Y-40733500D01*
X66545999Y-40733500D01*
X66546000Y-40733499D01*
X67054000Y-40733499D01*
X67054001Y-40733500D01*
X67474636Y-40733500D01*
X67474636Y-40733499D01*
X67459468Y-40637736D01*
X67459468Y-40637734D01*
X67410434Y-40541500D01*
X70325364Y-40541500D01*
X70340531Y-40637263D01*
X70340531Y-40637265D01*
X70400751Y-40755452D01*
X70494547Y-40849248D01*
X70612735Y-40909468D01*
X70710790Y-40924999D01*
X70745999Y-40924999D01*
X70746000Y-40924998D01*
X71254000Y-40924998D01*
X71254001Y-40924999D01*
X71289209Y-40924999D01*
X71387262Y-40909468D01*
X71505452Y-40849248D01*
X71599248Y-40755452D01*
X71659468Y-40637264D01*
X71674636Y-40541500D01*
X71254001Y-40541500D01*
X71254000Y-40541501D01*
X71254000Y-40924998D01*
X70746000Y-40924998D01*
X70746000Y-40541501D01*
X70745999Y-40541500D01*
X70325364Y-40541500D01*
X67410434Y-40541500D01*
X67399248Y-40519547D01*
X67305452Y-40425751D01*
X67187264Y-40365531D01*
X67089209Y-40350000D01*
X67054001Y-40350000D01*
X67054000Y-40350001D01*
X67054000Y-40733499D01*
X66546000Y-40733499D01*
X66546000Y-40350000D01*
X66510791Y-40350000D01*
X66412737Y-40365531D01*
X66294547Y-40425751D01*
X66200751Y-40519547D01*
X66140531Y-40637735D01*
X66125363Y-40733499D01*
X66125363Y-40733500D01*
X63726825Y-40733500D01*
X64796077Y-39664248D01*
X66124500Y-39664248D01*
X66140049Y-39762419D01*
X66140050Y-39762423D01*
X66169157Y-39819547D01*
X66200342Y-39880751D01*
X66294249Y-39974658D01*
X66412580Y-40034951D01*
X66479130Y-40045491D01*
X66510751Y-40050500D01*
X66510754Y-40050500D01*
X67089249Y-40050500D01*
X67117803Y-40045976D01*
X67187420Y-40034951D01*
X67190268Y-40033500D01*
X70325363Y-40033500D01*
X70745999Y-40033500D01*
X70746000Y-40033499D01*
X71254000Y-40033499D01*
X71254001Y-40033500D01*
X71674636Y-40033500D01*
X71674636Y-40033499D01*
X71659468Y-39937736D01*
X71659468Y-39937734D01*
X71599248Y-39819547D01*
X71505452Y-39725751D01*
X71387264Y-39665531D01*
X71289209Y-39650000D01*
X71254001Y-39650000D01*
X71254000Y-39650001D01*
X71254000Y-40033499D01*
X70746000Y-40033499D01*
X70746000Y-39650000D01*
X70710791Y-39650000D01*
X70612737Y-39665531D01*
X70494547Y-39725751D01*
X70400751Y-39819547D01*
X70340531Y-39937735D01*
X70325363Y-40033499D01*
X70325363Y-40033500D01*
X67190268Y-40033500D01*
X67305751Y-39974658D01*
X67399658Y-39880751D01*
X67459951Y-39762420D01*
X67472160Y-39685328D01*
X67475500Y-39664248D01*
X67475500Y-39160751D01*
X67468281Y-39115173D01*
X67459951Y-39062580D01*
X67459869Y-39062420D01*
X67409848Y-38964248D01*
X70324500Y-38964248D01*
X70340049Y-39062419D01*
X70340050Y-39062423D01*
X70346033Y-39074165D01*
X70400342Y-39180751D01*
X70494249Y-39274658D01*
X70612580Y-39334951D01*
X70679130Y-39345491D01*
X70710751Y-39350500D01*
X70710754Y-39350500D01*
X71289249Y-39350500D01*
X71317803Y-39345976D01*
X71387420Y-39334951D01*
X71505751Y-39274658D01*
X71599658Y-39180751D01*
X71659951Y-39062420D01*
X71675500Y-38964246D01*
X71675500Y-38460754D01*
X71673656Y-38449114D01*
X71666949Y-38406766D01*
X71659951Y-38362580D01*
X71599658Y-38244249D01*
X71505751Y-38150342D01*
X71393679Y-38093238D01*
X71380477Y-38086511D01*
X71382005Y-38083511D01*
X71344402Y-38056185D01*
X71325500Y-37998002D01*
X71325500Y-37805970D01*
X71344407Y-37747779D01*
X71364233Y-37727428D01*
X71366793Y-37725464D01*
X71428282Y-37678282D01*
X71524536Y-37552841D01*
X71585044Y-37406762D01*
X71585044Y-37406755D01*
X71586723Y-37400494D01*
X71589358Y-37401200D01*
X71610756Y-37356348D01*
X71664529Y-37327156D01*
X71682563Y-37325500D01*
X84694030Y-37325500D01*
X84752221Y-37344407D01*
X84772572Y-37364233D01*
X84821676Y-37428228D01*
X84821718Y-37428282D01*
X84947159Y-37524536D01*
X84947160Y-37524536D01*
X84947161Y-37524537D01*
X85015486Y-37552838D01*
X85093238Y-37585044D01*
X85210809Y-37600522D01*
X85249999Y-37605682D01*
X85250000Y-37605682D01*
X85250001Y-37605682D01*
X85281352Y-37601554D01*
X85406762Y-37585044D01*
X85552841Y-37524536D01*
X85678282Y-37428282D01*
X85774536Y-37302841D01*
X85835044Y-37156762D01*
X85855682Y-37000000D01*
X85835044Y-36843238D01*
X85835022Y-36843185D01*
X85774537Y-36697161D01*
X85774537Y-36697160D01*
X85678286Y-36571723D01*
X85678285Y-36571722D01*
X85678282Y-36571718D01*
X85678277Y-36571714D01*
X85678276Y-36571713D01*
X85566144Y-36485672D01*
X85552841Y-36475464D01*
X85552840Y-36475463D01*
X85552838Y-36475462D01*
X85406766Y-36414957D01*
X85406758Y-36414955D01*
X85250001Y-36394318D01*
X85249999Y-36394318D01*
X85093241Y-36414955D01*
X85093233Y-36414957D01*
X84947161Y-36475462D01*
X84947160Y-36475462D01*
X84821723Y-36571713D01*
X84821714Y-36571722D01*
X84772572Y-36635767D01*
X84722148Y-36670423D01*
X84694030Y-36674500D01*
X71200660Y-36674500D01*
X71200660Y-36672189D01*
X71161892Y-36667080D01*
X71156765Y-36664956D01*
X71000001Y-36644318D01*
X70999999Y-36644318D01*
X70843241Y-36664955D01*
X70843233Y-36664957D01*
X70697161Y-36725462D01*
X70697160Y-36725462D01*
X70571723Y-36821713D01*
X70571713Y-36821723D01*
X70475462Y-36947160D01*
X70475462Y-36947161D01*
X70414957Y-37093233D01*
X70414955Y-37093241D01*
X70394318Y-37249999D01*
X70394318Y-37250000D01*
X70414955Y-37406758D01*
X70414957Y-37406766D01*
X70475462Y-37552838D01*
X70475462Y-37552839D01*
X70561493Y-37664957D01*
X70571718Y-37678282D01*
X70633204Y-37725462D01*
X70635767Y-37727428D01*
X70670423Y-37777852D01*
X70674500Y-37805970D01*
X70674500Y-37998002D01*
X70655593Y-38056193D01*
X70617995Y-38083512D01*
X70619523Y-38086511D01*
X70494250Y-38150341D01*
X70400341Y-38244250D01*
X70340050Y-38362576D01*
X70340049Y-38362580D01*
X70324500Y-38460751D01*
X70324500Y-38964248D01*
X67409848Y-38964248D01*
X67409847Y-38964246D01*
X67399658Y-38944249D01*
X67305751Y-38850342D01*
X67305054Y-38849987D01*
X67294290Y-38844502D01*
X67251027Y-38801236D01*
X67241457Y-38740804D01*
X67269237Y-38686288D01*
X67277663Y-38678899D01*
X67278273Y-38678288D01*
X67278282Y-38678282D01*
X67374536Y-38552841D01*
X67435044Y-38406762D01*
X67455682Y-38250000D01*
X67435044Y-38093238D01*
X67431015Y-38083511D01*
X67374537Y-37947161D01*
X67374537Y-37947160D01*
X67278286Y-37821723D01*
X67278285Y-37821722D01*
X67278282Y-37821718D01*
X67278277Y-37821714D01*
X67278276Y-37821713D01*
X67194134Y-37757149D01*
X67152841Y-37725464D01*
X67152840Y-37725463D01*
X67152838Y-37725462D01*
X67006766Y-37664957D01*
X67006758Y-37664955D01*
X66850001Y-37644318D01*
X66849999Y-37644318D01*
X66693241Y-37664955D01*
X66693233Y-37664957D01*
X66547161Y-37725462D01*
X66547160Y-37725462D01*
X66421723Y-37821713D01*
X66421713Y-37821723D01*
X66325462Y-37947160D01*
X66325462Y-37947161D01*
X66264957Y-38093233D01*
X66264955Y-38093241D01*
X66244318Y-38249999D01*
X66244318Y-38250000D01*
X66264955Y-38406758D01*
X66264957Y-38406766D01*
X66325462Y-38552838D01*
X66325462Y-38552839D01*
X66408342Y-38660850D01*
X66428766Y-38718526D01*
X66411388Y-38777191D01*
X66374746Y-38809326D01*
X66294250Y-38850341D01*
X66200341Y-38944250D01*
X66140050Y-39062576D01*
X66140049Y-39062580D01*
X66124500Y-39160751D01*
X66124500Y-39664248D01*
X64796077Y-39664248D01*
X64949859Y-39510466D01*
X64949862Y-39510465D01*
X65010465Y-39449862D01*
X65039055Y-39400342D01*
X65053318Y-39375639D01*
X65075501Y-39292853D01*
X65075501Y-39207147D01*
X65075501Y-39201085D01*
X65075500Y-39201067D01*
X65075500Y-38805970D01*
X65094407Y-38747779D01*
X65114233Y-38727428D01*
X65117095Y-38725232D01*
X65178282Y-38678282D01*
X65274536Y-38552841D01*
X65335044Y-38406762D01*
X65355682Y-38250000D01*
X65335044Y-38093238D01*
X65331015Y-38083511D01*
X65274537Y-37947161D01*
X65274537Y-37947160D01*
X65178286Y-37821723D01*
X65178285Y-37821722D01*
X65178282Y-37821718D01*
X65178277Y-37821714D01*
X65178276Y-37821713D01*
X65094134Y-37757149D01*
X65052841Y-37725464D01*
X65052840Y-37725463D01*
X65052838Y-37725462D01*
X64906766Y-37664957D01*
X64906758Y-37664955D01*
X64750001Y-37644318D01*
X64749999Y-37644318D01*
X64593241Y-37664955D01*
X64593233Y-37664957D01*
X64447161Y-37725462D01*
X64447160Y-37725462D01*
X64321723Y-37821713D01*
X64321713Y-37821723D01*
X64225462Y-37947160D01*
X64225462Y-37947161D01*
X64164957Y-38093233D01*
X64164955Y-38093241D01*
X64144318Y-38249999D01*
X64144318Y-38250000D01*
X64164955Y-38406758D01*
X64164957Y-38406766D01*
X64225462Y-38552838D01*
X64225462Y-38552839D01*
X64321680Y-38678233D01*
X64321718Y-38678282D01*
X64382903Y-38725231D01*
X64385767Y-38727428D01*
X64420423Y-38777852D01*
X64424500Y-38805970D01*
X64424500Y-39074165D01*
X64405593Y-39132356D01*
X64395504Y-39144169D01*
X61912966Y-41626706D01*
X61858449Y-41654483D01*
X61830040Y-41654855D01*
X61750001Y-41644318D01*
X61749999Y-41644318D01*
X61669959Y-41654855D01*
X61609798Y-41643705D01*
X61587033Y-41626706D01*
X57604496Y-37644169D01*
X57576719Y-37589652D01*
X57575500Y-37574165D01*
X57575500Y-37555922D01*
X57594407Y-37497731D01*
X57614233Y-37477380D01*
X57678282Y-37428234D01*
X57774536Y-37302793D01*
X57835044Y-37156714D01*
X57855682Y-36999952D01*
X57835044Y-36843190D01*
X57786280Y-36725464D01*
X57774537Y-36697113D01*
X57774537Y-36697112D01*
X57678286Y-36571675D01*
X57678285Y-36571674D01*
X57678282Y-36571670D01*
X57678277Y-36571666D01*
X57678276Y-36571665D01*
X57558661Y-36479882D01*
X57552841Y-36475416D01*
X57552840Y-36475415D01*
X57552838Y-36475414D01*
X57406766Y-36414909D01*
X57406758Y-36414907D01*
X57250001Y-36394270D01*
X57249999Y-36394270D01*
X57093241Y-36414907D01*
X57093233Y-36414909D01*
X56947161Y-36475414D01*
X56947160Y-36475414D01*
X56821723Y-36571665D01*
X56821713Y-36571675D01*
X56725462Y-36697112D01*
X56725462Y-36697113D01*
X56664957Y-36843185D01*
X56664955Y-36843193D01*
X56644318Y-36999951D01*
X56644318Y-36999952D01*
X50250500Y-36999952D01*
X50250500Y-36127194D01*
X50269407Y-36069003D01*
X50311612Y-36035731D01*
X50358127Y-36016465D01*
X50464669Y-35945276D01*
X50555276Y-35854669D01*
X50626465Y-35748127D01*
X50675501Y-35629744D01*
X50700500Y-35504069D01*
X50700500Y-35375931D01*
X50675501Y-35250256D01*
X50626465Y-35131873D01*
X50626463Y-35131870D01*
X50626461Y-35131866D01*
X50568587Y-35045253D01*
X50555276Y-35025331D01*
X50464669Y-34934724D01*
X50422226Y-34906365D01*
X50358133Y-34863538D01*
X50358125Y-34863534D01*
X50239747Y-34814500D01*
X50239745Y-34814499D01*
X50239744Y-34814499D01*
X50114069Y-34789500D01*
X49985931Y-34789500D01*
X49985930Y-34789500D01*
X49923093Y-34801999D01*
X49860256Y-34814499D01*
X49860255Y-34814499D01*
X49860252Y-34814500D01*
X49741874Y-34863534D01*
X49741866Y-34863538D01*
X49635331Y-34934724D01*
X49635327Y-34934727D01*
X49544727Y-35025327D01*
X49544724Y-35025331D01*
X49473538Y-35131866D01*
X49473535Y-35131871D01*
X49454268Y-35178387D01*
X49414530Y-35224912D01*
X49362804Y-35239500D01*
X43299500Y-35239500D01*
X43241309Y-35220593D01*
X43205345Y-35171093D01*
X43200500Y-35140500D01*
X43200500Y-32068995D01*
X86549500Y-32068995D01*
X86576420Y-32204327D01*
X86576420Y-32204329D01*
X86629222Y-32331806D01*
X86629228Y-32331817D01*
X86705885Y-32446541D01*
X86803458Y-32544114D01*
X86918182Y-32620771D01*
X86918193Y-32620777D01*
X86965283Y-32640282D01*
X87045672Y-32673580D01*
X87181007Y-32700500D01*
X148918835Y-32700500D01*
X148977026Y-32719407D01*
X148988839Y-32729496D01*
X153294841Y-37035498D01*
X153322617Y-37090013D01*
X153313046Y-37150445D01*
X153269781Y-37193710D01*
X153224836Y-37204500D01*
X94649500Y-37204500D01*
X94591309Y-37185593D01*
X94555345Y-37136093D01*
X94550500Y-37105500D01*
X94550500Y-36880253D01*
X94550498Y-36880241D01*
X94543136Y-36843233D01*
X94538867Y-36821769D01*
X94494552Y-36755448D01*
X94449676Y-36725462D01*
X94428233Y-36711134D01*
X94428231Y-36711133D01*
X94428228Y-36711132D01*
X94428227Y-36711132D01*
X94369758Y-36699501D01*
X94369748Y-36699500D01*
X92630252Y-36699500D01*
X92630251Y-36699500D01*
X92630241Y-36699501D01*
X92571772Y-36711132D01*
X92571766Y-36711134D01*
X92505451Y-36755445D01*
X92505445Y-36755451D01*
X92461134Y-36821766D01*
X92461132Y-36821772D01*
X92449501Y-36880241D01*
X92449500Y-36880253D01*
X92449500Y-38619746D01*
X92449501Y-38619758D01*
X92461132Y-38678227D01*
X92461134Y-38678233D01*
X92505445Y-38744548D01*
X92505448Y-38744552D01*
X92571769Y-38788867D01*
X92616231Y-38797711D01*
X92630241Y-38800498D01*
X92630246Y-38800498D01*
X92630252Y-38800500D01*
X92630253Y-38800500D01*
X94369747Y-38800500D01*
X94369748Y-38800500D01*
X94428231Y-38788867D01*
X94494552Y-38744552D01*
X94538867Y-38678231D01*
X94538868Y-38678225D01*
X94542597Y-38669224D01*
X94545701Y-38670509D01*
X94567386Y-38631796D01*
X94622953Y-38606185D01*
X94634581Y-38605500D01*
X162518992Y-38605500D01*
X162518993Y-38605500D01*
X162654328Y-38578580D01*
X162781811Y-38525775D01*
X162896542Y-38449114D01*
X162911160Y-38434496D01*
X162965677Y-38406719D01*
X162981164Y-38405500D01*
X163244747Y-38405500D01*
X163244748Y-38405500D01*
X163303231Y-38393867D01*
X163369552Y-38349552D01*
X163369553Y-38349549D01*
X163370497Y-38348919D01*
X163429385Y-38332310D01*
X163486789Y-38353487D01*
X163520783Y-38404360D01*
X163524500Y-38431234D01*
X163524500Y-40006485D01*
X163551420Y-40141817D01*
X163551420Y-40141819D01*
X163566964Y-40179345D01*
X163573152Y-40210455D01*
X163574195Y-40210373D01*
X163574499Y-40214247D01*
X163590049Y-40312419D01*
X163590050Y-40312423D01*
X163647794Y-40425751D01*
X163650342Y-40430751D01*
X163744249Y-40524658D01*
X163862580Y-40584951D01*
X163929130Y-40595491D01*
X163960751Y-40600500D01*
X163960754Y-40600500D01*
X163975461Y-40600500D01*
X164013344Y-40608034D01*
X164020672Y-40611070D01*
X164156007Y-40637990D01*
X164156008Y-40637990D01*
X164293992Y-40637990D01*
X164293993Y-40637990D01*
X164429328Y-40611070D01*
X164436655Y-40608034D01*
X164474539Y-40600500D01*
X164539249Y-40600500D01*
X164567803Y-40595976D01*
X164637420Y-40584951D01*
X164755751Y-40524658D01*
X164849658Y-40430751D01*
X164909951Y-40312420D01*
X164924308Y-40221772D01*
X164925500Y-40214248D01*
X164925500Y-36894427D01*
X164927402Y-36875113D01*
X164938013Y-36821769D01*
X164950500Y-36758994D01*
X164950500Y-36621006D01*
X164923580Y-36485672D01*
X164870775Y-36358189D01*
X164870356Y-36357563D01*
X164861207Y-36340447D01*
X164845775Y-36303189D01*
X164845773Y-36303186D01*
X164845771Y-36303182D01*
X164810406Y-36250256D01*
X164769114Y-36188458D01*
X164671542Y-36090886D01*
X164651878Y-36077747D01*
X164589243Y-36035895D01*
X164574241Y-36023584D01*
X164030539Y-35479882D01*
X163371543Y-34820886D01*
X163361984Y-34814499D01*
X163279916Y-34759663D01*
X163242036Y-34711613D01*
X163239634Y-34650475D01*
X163273627Y-34599601D01*
X163297034Y-34585882D01*
X163303036Y-34583395D01*
X163369189Y-34539193D01*
X163369193Y-34539189D01*
X163413396Y-34473036D01*
X163424999Y-34414700D01*
X163425000Y-34414697D01*
X163425000Y-34349001D01*
X163424999Y-34349000D01*
X161475001Y-34349000D01*
X161475000Y-34349001D01*
X161475000Y-34414700D01*
X161486603Y-34473036D01*
X161530806Y-34539189D01*
X161530810Y-34539193D01*
X161596963Y-34583396D01*
X161655299Y-34594999D01*
X161655303Y-34595000D01*
X162015161Y-34595000D01*
X162073352Y-34613907D01*
X162109316Y-34663407D01*
X162109316Y-34724593D01*
X162073352Y-34774093D01*
X162070163Y-34776315D01*
X162003458Y-34820886D01*
X162003454Y-34820889D01*
X161988840Y-34835504D01*
X161934323Y-34863281D01*
X161918836Y-34864500D01*
X161655252Y-34864500D01*
X161655251Y-34864500D01*
X161655241Y-34864501D01*
X161596772Y-34876132D01*
X161596766Y-34876134D01*
X161530451Y-34920445D01*
X161530445Y-34920451D01*
X161486134Y-34986766D01*
X161486132Y-34986772D01*
X161474501Y-35045241D01*
X161474500Y-35045253D01*
X161474500Y-35684746D01*
X161474501Y-35684758D01*
X161486132Y-35743227D01*
X161486133Y-35743231D01*
X161530448Y-35809552D01*
X161596769Y-35853867D01*
X161641231Y-35862711D01*
X161655241Y-35865498D01*
X161655246Y-35865498D01*
X161655252Y-35865500D01*
X161918836Y-35865500D01*
X161977027Y-35884407D01*
X161988840Y-35894496D01*
X162003458Y-35909114D01*
X162016286Y-35917685D01*
X162054165Y-35965735D01*
X162056567Y-36026873D01*
X162022574Y-36077747D01*
X162016293Y-36082309D01*
X162003459Y-36090885D01*
X162003458Y-36090886D01*
X162003454Y-36090889D01*
X161988840Y-36105504D01*
X161934323Y-36133281D01*
X161918836Y-36134500D01*
X161655252Y-36134500D01*
X161655251Y-36134500D01*
X161655241Y-36134501D01*
X161596772Y-36146132D01*
X161596766Y-36146134D01*
X161530451Y-36190445D01*
X161530445Y-36190451D01*
X161486134Y-36256766D01*
X161486132Y-36256772D01*
X161474501Y-36315241D01*
X161474500Y-36315253D01*
X161474500Y-36954746D01*
X161474501Y-36954758D01*
X161486132Y-37013227D01*
X161486134Y-37013233D01*
X161511034Y-37050498D01*
X161527643Y-37109387D01*
X161506465Y-37166790D01*
X161455592Y-37200783D01*
X161428719Y-37204500D01*
X158071281Y-37204500D01*
X158013090Y-37185593D01*
X157977126Y-37136093D01*
X157977126Y-37074907D01*
X157988966Y-37050498D01*
X158011706Y-37016465D01*
X158013867Y-37013231D01*
X158025500Y-36954748D01*
X158025500Y-36315252D01*
X158013867Y-36256769D01*
X157969552Y-36190448D01*
X157966568Y-36188454D01*
X157903233Y-36146134D01*
X157903231Y-36146133D01*
X157903228Y-36146132D01*
X157903227Y-36146132D01*
X157844758Y-36134501D01*
X157844748Y-36134500D01*
X156255252Y-36134500D01*
X156255251Y-36134500D01*
X156255241Y-36134501D01*
X156196772Y-36146132D01*
X156196766Y-36146134D01*
X156164320Y-36167815D01*
X156109318Y-36184500D01*
X154466165Y-36184500D01*
X154407974Y-36165593D01*
X154396161Y-36155504D01*
X153925403Y-35684746D01*
X156074500Y-35684746D01*
X156074501Y-35684758D01*
X156086132Y-35743227D01*
X156086133Y-35743231D01*
X156130448Y-35809552D01*
X156196769Y-35853867D01*
X156241231Y-35862711D01*
X156255241Y-35865498D01*
X156255246Y-35865498D01*
X156255252Y-35865500D01*
X156255253Y-35865500D01*
X157844747Y-35865500D01*
X157844748Y-35865500D01*
X157903231Y-35853867D01*
X157969552Y-35809552D01*
X158013867Y-35743231D01*
X158025500Y-35684748D01*
X158025500Y-35045252D01*
X158013867Y-34986769D01*
X157969552Y-34920448D01*
X157969548Y-34920445D01*
X157903233Y-34876134D01*
X157903231Y-34876133D01*
X157903228Y-34876132D01*
X157903227Y-34876132D01*
X157844758Y-34864501D01*
X157844748Y-34864500D01*
X156255252Y-34864500D01*
X156255251Y-34864500D01*
X156255241Y-34864501D01*
X156196772Y-34876132D01*
X156196766Y-34876134D01*
X156130451Y-34920445D01*
X156130445Y-34920451D01*
X156086134Y-34986766D01*
X156086132Y-34986772D01*
X156074501Y-35045241D01*
X156074500Y-35045253D01*
X156074500Y-35684746D01*
X153925403Y-35684746D01*
X152655357Y-34414700D01*
X156075000Y-34414700D01*
X156086603Y-34473036D01*
X156130806Y-34539189D01*
X156130810Y-34539193D01*
X156196963Y-34583396D01*
X156255299Y-34594999D01*
X156255303Y-34595000D01*
X156795999Y-34595000D01*
X156796000Y-34594999D01*
X157304000Y-34594999D01*
X157304001Y-34595000D01*
X157844697Y-34595000D01*
X157844700Y-34594999D01*
X157903036Y-34583396D01*
X157969189Y-34539193D01*
X157969193Y-34539189D01*
X158013396Y-34473036D01*
X158024999Y-34414700D01*
X158025000Y-34414697D01*
X158025000Y-34349001D01*
X158024999Y-34349000D01*
X157304001Y-34349000D01*
X157304000Y-34349001D01*
X157304000Y-34594999D01*
X156796000Y-34594999D01*
X156796000Y-34349001D01*
X156795999Y-34349000D01*
X156075001Y-34349000D01*
X156075000Y-34349001D01*
X156075000Y-34414700D01*
X152655357Y-34414700D01*
X152081656Y-33840999D01*
X156075000Y-33840999D01*
X156075001Y-33841000D01*
X156795999Y-33841000D01*
X156796000Y-33840999D01*
X157304000Y-33840999D01*
X157304001Y-33841000D01*
X158024999Y-33841000D01*
X158025000Y-33840999D01*
X161475000Y-33840999D01*
X161475001Y-33841000D01*
X162195999Y-33841000D01*
X162196000Y-33840999D01*
X162704000Y-33840999D01*
X162704001Y-33841000D01*
X163424999Y-33841000D01*
X163425000Y-33840999D01*
X163425000Y-33775302D01*
X163424999Y-33775299D01*
X163413396Y-33716963D01*
X163369193Y-33650810D01*
X163369189Y-33650806D01*
X163303036Y-33606603D01*
X163244700Y-33595000D01*
X162704001Y-33595000D01*
X162704000Y-33595001D01*
X162704000Y-33840999D01*
X162196000Y-33840999D01*
X162196000Y-33595001D01*
X162195999Y-33595000D01*
X161655299Y-33595000D01*
X161596963Y-33606603D01*
X161530810Y-33650806D01*
X161530806Y-33650810D01*
X161486603Y-33716963D01*
X161475000Y-33775299D01*
X161475000Y-33840999D01*
X158025000Y-33840999D01*
X158025000Y-33775302D01*
X158024999Y-33775299D01*
X158013396Y-33716963D01*
X157969193Y-33650810D01*
X157969189Y-33650806D01*
X157903036Y-33606603D01*
X157844700Y-33595000D01*
X157304001Y-33595000D01*
X157304000Y-33595001D01*
X157304000Y-33840999D01*
X156796000Y-33840999D01*
X156796000Y-33595001D01*
X156795999Y-33595000D01*
X156255299Y-33595000D01*
X156196963Y-33606603D01*
X156130810Y-33650806D01*
X156130806Y-33650810D01*
X156086603Y-33716963D01*
X156075000Y-33775299D01*
X156075000Y-33840999D01*
X152081656Y-33840999D01*
X149696543Y-31455886D01*
X149581811Y-31379225D01*
X149581810Y-31379224D01*
X149581808Y-31379223D01*
X149454328Y-31326420D01*
X149318996Y-31299500D01*
X149318994Y-31299500D01*
X149318993Y-31299500D01*
X87181007Y-31299500D01*
X87181004Y-31299500D01*
X87045672Y-31326420D01*
X87045670Y-31326420D01*
X86918193Y-31379222D01*
X86918182Y-31379228D01*
X86803458Y-31455885D01*
X86705885Y-31553458D01*
X86629228Y-31668182D01*
X86629222Y-31668193D01*
X86576420Y-31795670D01*
X86576420Y-31795672D01*
X86549500Y-31931004D01*
X86549500Y-32068995D01*
X43200500Y-32068995D01*
X43200500Y-29124058D01*
X43219407Y-29065867D01*
X43229496Y-29054054D01*
X44054054Y-28229496D01*
X44108571Y-28201719D01*
X44124058Y-28200500D01*
X169875942Y-28200500D01*
X169934133Y-28219407D01*
G37*
G04 #@! TD.AperFunction*
M02*
