%TF.GenerationSoftware,KiCad,Pcbnew,7.99.0-4156-g4770532511*%
%TF.CreationDate,2024-01-07T23:04:21-05:00*%
%TF.ProjectId,emfi,656d6669-2e6b-4696-9361-645f70636258,0.1*%
%TF.SameCoordinates,Original*%
%TF.FileFunction,Drillmap*%
%TF.FilePolarity,Positive*%
%FSLAX45Y45*%
G04 Gerber Fmt 4.5, Leading zero omitted, Abs format (unit mm)*
G04 Created by KiCad (PCBNEW 7.99.0-4156-g4770532511) date 2024-01-07 23:04:21*
%MOMM*%
%LPD*%
G01*
G04 APERTURE LIST*
%ADD10C,0.150000*%
%ADD11C,0.200000*%
%ADD12C,0.100000*%
G04 APERTURE END LIST*
D10*
X17550000Y-3350000D02*
X17000000Y-2800000D01*
X17000000Y-2800000D02*
X4400000Y-2800000D01*
X17550000Y-5756000D02*
X16850000Y-5756000D01*
X16850000Y-5044000D02*
X17550000Y-5044000D01*
X16850000Y-5756000D02*
X16850000Y-5044000D01*
X17550000Y-5044000D02*
X17550000Y-4356000D01*
X16850000Y-4356000D02*
X16850000Y-3644000D01*
X4300000Y-2900000D02*
X4400000Y-2800000D01*
X5005000Y-4256000D02*
X4300000Y-4256000D01*
X17550000Y-6050000D02*
X17000000Y-6600000D01*
X4400000Y-6600000D02*
X4300000Y-6500000D01*
X5005000Y-3544000D02*
X5005000Y-4256000D01*
X17550000Y-3644000D02*
X17550000Y-3350000D01*
X16850000Y-3644000D02*
X17550000Y-3644000D01*
X17000000Y-6600000D02*
X4400000Y-6600000D01*
X17550000Y-4356000D02*
X16850000Y-4356000D01*
X5005000Y-3544000D02*
X4300000Y-3544000D01*
X4300000Y-2900000D02*
X4300000Y-3544000D01*
X17550000Y-5756000D02*
X17550000Y-6050000D01*
X4300000Y-6500000D02*
X4300000Y-4256000D01*
D11*
D12*
X4380000Y-2980000D02*
X4420000Y-3020000D01*
X4420000Y-2980000D02*
X4380000Y-3020000D01*
X4380000Y-3080000D02*
X4420000Y-3120000D01*
X4420000Y-3080000D02*
X4380000Y-3120000D01*
X4380000Y-3180000D02*
X4420000Y-3220000D01*
X4420000Y-3180000D02*
X4380000Y-3220000D01*
X4380000Y-3280000D02*
X4420000Y-3320000D01*
X4420000Y-3280000D02*
X4380000Y-3320000D01*
X4380000Y-4480000D02*
X4420000Y-4520000D01*
X4420000Y-4480000D02*
X4380000Y-4520000D01*
X4380000Y-4580000D02*
X4420000Y-4620000D01*
X4420000Y-4580000D02*
X4380000Y-4620000D01*
X4380000Y-4680000D02*
X4420000Y-4720000D01*
X4420000Y-4680000D02*
X4380000Y-4720000D01*
X4380000Y-4780000D02*
X4420000Y-4820000D01*
X4420000Y-4780000D02*
X4380000Y-4820000D01*
X4380000Y-4880000D02*
X4420000Y-4920000D01*
X4420000Y-4880000D02*
X4380000Y-4920000D01*
X4380000Y-6080000D02*
X4420000Y-6120000D01*
X4420000Y-6080000D02*
X4380000Y-6120000D01*
X4380000Y-6180000D02*
X4420000Y-6220000D01*
X4420000Y-6180000D02*
X4380000Y-6220000D01*
X4380000Y-6280000D02*
X4420000Y-6320000D01*
X4420000Y-6280000D02*
X4380000Y-6320000D01*
X4380000Y-6380000D02*
X4420000Y-6420000D01*
X4420000Y-6380000D02*
X4380000Y-6420000D01*
X4480000Y-2880000D02*
X4520000Y-2920000D01*
X4520000Y-2880000D02*
X4480000Y-2920000D01*
X4480000Y-6480000D02*
X4520000Y-6520000D01*
X4520000Y-6480000D02*
X4480000Y-6520000D01*
X4580000Y-2880000D02*
X4620000Y-2920000D01*
X4620000Y-2880000D02*
X4580000Y-2920000D01*
X4580000Y-6480000D02*
X4620000Y-6520000D01*
X4620000Y-6480000D02*
X4580000Y-6520000D01*
X4680000Y-2880000D02*
X4720000Y-2920000D01*
X4720000Y-2880000D02*
X4680000Y-2920000D01*
X4680000Y-6480000D02*
X4720000Y-6520000D01*
X4720000Y-6480000D02*
X4680000Y-6520000D01*
X4780000Y-2880000D02*
X4820000Y-2920000D01*
X4820000Y-2880000D02*
X4780000Y-2920000D01*
X4780000Y-6480000D02*
X4820000Y-6520000D01*
X4820000Y-6480000D02*
X4780000Y-6520000D01*
X4880000Y-2880000D02*
X4920000Y-2920000D01*
X4920000Y-2880000D02*
X4880000Y-2920000D01*
X4880000Y-6480000D02*
X4920000Y-6520000D01*
X4920000Y-6480000D02*
X4880000Y-6520000D01*
X4980000Y-2880000D02*
X5020000Y-2920000D01*
X5020000Y-2880000D02*
X4980000Y-2920000D01*
X4980000Y-6480000D02*
X5020000Y-6520000D01*
X5020000Y-6480000D02*
X4980000Y-6520000D01*
X5005000Y-5605000D02*
X5045000Y-5645000D01*
X5045000Y-5605000D02*
X5005000Y-5645000D01*
X5080000Y-2880000D02*
X5120000Y-2920000D01*
X5120000Y-2880000D02*
X5080000Y-2920000D01*
X5080000Y-6480000D02*
X5120000Y-6520000D01*
X5120000Y-6480000D02*
X5080000Y-6520000D01*
X5180000Y-2880000D02*
X5220000Y-2920000D01*
X5220000Y-2880000D02*
X5180000Y-2920000D01*
X5180000Y-6480000D02*
X5220000Y-6520000D01*
X5220000Y-6480000D02*
X5180000Y-6520000D01*
X5255000Y-4805000D02*
X5295000Y-4845000D01*
X5295000Y-4805000D02*
X5255000Y-4845000D01*
X5280000Y-2880000D02*
X5320000Y-2920000D01*
X5320000Y-2880000D02*
X5280000Y-2920000D01*
X5280000Y-4380000D02*
X5320000Y-4420000D01*
X5320000Y-4380000D02*
X5280000Y-4420000D01*
X5280000Y-6480000D02*
X5320000Y-6520000D01*
X5320000Y-6480000D02*
X5280000Y-6520000D01*
X5305000Y-3630000D02*
X5345000Y-3670000D01*
X5345000Y-3630000D02*
X5305000Y-3670000D01*
X5380000Y-2880000D02*
X5420000Y-2920000D01*
X5420000Y-2880000D02*
X5380000Y-2920000D01*
X5380000Y-6480000D02*
X5420000Y-6520000D01*
X5420000Y-6480000D02*
X5380000Y-6520000D01*
X5430000Y-4580000D02*
X5470000Y-4620000D01*
X5470000Y-4580000D02*
X5430000Y-4620000D01*
X5480000Y-2880000D02*
X5520000Y-2920000D01*
X5520000Y-2880000D02*
X5480000Y-2920000D01*
X5480000Y-6480000D02*
X5520000Y-6520000D01*
X5520000Y-6480000D02*
X5480000Y-6520000D01*
X5555000Y-4180000D02*
X5595000Y-4220000D01*
X5595000Y-4180000D02*
X5555000Y-4220000D01*
X5580000Y-2880000D02*
X5620000Y-2920000D01*
X5620000Y-2880000D02*
X5580000Y-2920000D01*
X5580000Y-6480000D02*
X5620000Y-6520000D01*
X5620000Y-6480000D02*
X5580000Y-6520000D01*
X5680000Y-2880000D02*
X5720000Y-2920000D01*
X5720000Y-2880000D02*
X5680000Y-2920000D01*
X5680000Y-6480000D02*
X5720000Y-6520000D01*
X5720000Y-6480000D02*
X5680000Y-6520000D01*
X5705000Y-3679995D02*
X5745000Y-3719995D01*
X5745000Y-3679995D02*
X5705000Y-3719995D01*
X5780000Y-2880000D02*
X5820000Y-2920000D01*
X5820000Y-2880000D02*
X5780000Y-2920000D01*
X5780000Y-6480000D02*
X5820000Y-6520000D01*
X5820000Y-6480000D02*
X5780000Y-6520000D01*
X5880000Y-2880000D02*
X5920000Y-2920000D01*
X5920000Y-2880000D02*
X5880000Y-2920000D01*
X5880000Y-6480000D02*
X5920000Y-6520000D01*
X5920000Y-6480000D02*
X5880000Y-6520000D01*
X5915000Y-5450000D02*
X5955000Y-5490000D01*
X5955000Y-5450000D02*
X5915000Y-5490000D01*
X5952500Y-4592048D02*
X5992500Y-4632048D01*
X5992500Y-4592048D02*
X5952500Y-4632048D01*
X5970000Y-4820000D02*
X6010000Y-4860000D01*
X6010000Y-4820000D02*
X5970000Y-4860000D01*
X5980000Y-2880000D02*
X6020000Y-2920000D01*
X6020000Y-2880000D02*
X5980000Y-2920000D01*
X5980000Y-6480000D02*
X6020000Y-6520000D01*
X6020000Y-6480000D02*
X5980000Y-6520000D01*
X6000000Y-5730000D02*
X6040000Y-5770000D01*
X6040000Y-5730000D02*
X6000000Y-5770000D01*
X6075000Y-4820000D02*
X6115000Y-4860000D01*
X6115000Y-4820000D02*
X6075000Y-4860000D01*
X6080000Y-2880000D02*
X6120000Y-2920000D01*
X6120000Y-2880000D02*
X6080000Y-2920000D01*
X6080000Y-6480000D02*
X6120000Y-6520000D01*
X6120000Y-6480000D02*
X6080000Y-6520000D01*
X6155000Y-4205000D02*
X6195000Y-4245000D01*
X6195000Y-4205000D02*
X6155000Y-4245000D01*
X6180000Y-2880000D02*
X6220000Y-2920000D01*
X6220000Y-2880000D02*
X6180000Y-2920000D01*
X6180000Y-6480000D02*
X6220000Y-6520000D01*
X6220000Y-6480000D02*
X6180000Y-6520000D01*
X6270000Y-5730000D02*
X6310000Y-5770000D01*
X6310000Y-5730000D02*
X6270000Y-5770000D01*
X6280000Y-2880000D02*
X6320000Y-2920000D01*
X6320000Y-2880000D02*
X6280000Y-2920000D01*
X6280000Y-6055000D02*
X6320000Y-6095000D01*
X6320000Y-6055000D02*
X6280000Y-6095000D01*
X6280000Y-6480000D02*
X6320000Y-6520000D01*
X6320000Y-6480000D02*
X6280000Y-6520000D01*
X6355000Y-4880000D02*
X6395000Y-4920000D01*
X6395000Y-4880000D02*
X6355000Y-4920000D01*
X6355000Y-5280000D02*
X6395000Y-5320000D01*
X6395000Y-5280000D02*
X6355000Y-5320000D01*
X6380000Y-2880000D02*
X6420000Y-2920000D01*
X6420000Y-2880000D02*
X6380000Y-2920000D01*
X6380000Y-6480000D02*
X6420000Y-6520000D01*
X6420000Y-6480000D02*
X6380000Y-6520000D01*
X6430000Y-4180000D02*
X6470000Y-4220000D01*
X6470000Y-4180000D02*
X6430000Y-4220000D01*
X6455000Y-3805000D02*
X6495000Y-3845000D01*
X6495000Y-3805000D02*
X6455000Y-3845000D01*
X6480000Y-2880000D02*
X6520000Y-2920000D01*
X6520000Y-2880000D02*
X6480000Y-2920000D01*
X6480000Y-6480000D02*
X6520000Y-6520000D01*
X6520000Y-6480000D02*
X6480000Y-6520000D01*
X6580000Y-2880000D02*
X6620000Y-2920000D01*
X6620000Y-2880000D02*
X6580000Y-2920000D01*
X6580000Y-6480000D02*
X6620000Y-6520000D01*
X6620000Y-6480000D02*
X6580000Y-6520000D01*
X6595000Y-5730000D02*
X6635000Y-5770000D01*
X6635000Y-5730000D02*
X6595000Y-5770000D01*
X6630000Y-6055000D02*
X6670000Y-6095000D01*
X6670000Y-6055000D02*
X6630000Y-6095000D01*
X6665000Y-3805000D02*
X6705000Y-3845000D01*
X6705000Y-3805000D02*
X6665000Y-3845000D01*
X6680000Y-2880000D02*
X6720000Y-2920000D01*
X6720000Y-2880000D02*
X6680000Y-2920000D01*
X6680000Y-6480000D02*
X6720000Y-6520000D01*
X6720000Y-6480000D02*
X6680000Y-6520000D01*
X6755000Y-5280000D02*
X6795000Y-5320000D01*
X6795000Y-5280000D02*
X6755000Y-5320000D01*
X6780000Y-2880000D02*
X6820000Y-2920000D01*
X6820000Y-2880000D02*
X6780000Y-2920000D01*
X6780000Y-6480000D02*
X6820000Y-6520000D01*
X6820000Y-6480000D02*
X6780000Y-6520000D01*
X6825000Y-4940000D02*
X6865000Y-4980000D01*
X6865000Y-4940000D02*
X6825000Y-4980000D01*
X6825000Y-5065000D02*
X6865000Y-5105000D01*
X6865000Y-5065000D02*
X6825000Y-5105000D01*
X6835000Y-5725000D02*
X6875000Y-5765000D01*
X6875000Y-5725000D02*
X6835000Y-5765000D01*
X6845000Y-4795000D02*
X6885000Y-4835000D01*
X6885000Y-4795000D02*
X6845000Y-4835000D01*
X6880000Y-2880000D02*
X6920000Y-2920000D01*
X6920000Y-2880000D02*
X6880000Y-2920000D01*
X6880000Y-6480000D02*
X6920000Y-6520000D01*
X6920000Y-6480000D02*
X6880000Y-6520000D01*
X6980000Y-2880000D02*
X7020000Y-2920000D01*
X7020000Y-2880000D02*
X6980000Y-2920000D01*
X6980000Y-6480000D02*
X7020000Y-6520000D01*
X7020000Y-6480000D02*
X6980000Y-6520000D01*
X7080000Y-2880000D02*
X7120000Y-2920000D01*
X7120000Y-2880000D02*
X7080000Y-2920000D01*
X7080000Y-3705000D02*
X7120000Y-3745000D01*
X7120000Y-3705000D02*
X7080000Y-3745000D01*
X7080000Y-6480000D02*
X7120000Y-6520000D01*
X7120000Y-6480000D02*
X7080000Y-6520000D01*
X7153899Y-4515000D02*
X7193899Y-4555000D01*
X7193899Y-4515000D02*
X7153899Y-4555000D01*
X7180000Y-2880000D02*
X7220000Y-2920000D01*
X7220000Y-2880000D02*
X7180000Y-2920000D01*
X7180000Y-6480000D02*
X7220000Y-6520000D01*
X7220000Y-6480000D02*
X7180000Y-6520000D01*
X7280000Y-2880000D02*
X7320000Y-2920000D01*
X7320000Y-2880000D02*
X7280000Y-2920000D01*
X7280000Y-6480000D02*
X7320000Y-6520000D01*
X7320000Y-6480000D02*
X7280000Y-6520000D01*
X7345000Y-4515000D02*
X7385000Y-4555000D01*
X7385000Y-4515000D02*
X7345000Y-4555000D01*
X7380000Y-2880000D02*
X7420000Y-2920000D01*
X7420000Y-2880000D02*
X7380000Y-2920000D01*
X7380000Y-6480000D02*
X7420000Y-6520000D01*
X7420000Y-6480000D02*
X7380000Y-6520000D01*
X7455000Y-4780000D02*
X7495000Y-4820000D01*
X7495000Y-4780000D02*
X7455000Y-4820000D01*
X7480000Y-2880000D02*
X7520000Y-2920000D01*
X7520000Y-2880000D02*
X7480000Y-2920000D01*
X7480000Y-6480000D02*
X7520000Y-6520000D01*
X7520000Y-6480000D02*
X7480000Y-6520000D01*
X7580000Y-2880000D02*
X7620000Y-2920000D01*
X7620000Y-2880000D02*
X7580000Y-2920000D01*
X7580000Y-6480000D02*
X7620000Y-6520000D01*
X7620000Y-6480000D02*
X7580000Y-6520000D01*
X7595000Y-4780000D02*
X7635000Y-4820000D01*
X7635000Y-4780000D02*
X7595000Y-4820000D01*
X7655000Y-5380000D02*
X7695000Y-5420000D01*
X7695000Y-5380000D02*
X7655000Y-5420000D01*
X7680000Y-2880000D02*
X7720000Y-2920000D01*
X7720000Y-2880000D02*
X7680000Y-2920000D01*
X7680000Y-6480000D02*
X7720000Y-6520000D01*
X7720000Y-6480000D02*
X7680000Y-6520000D01*
X7780000Y-2880000D02*
X7820000Y-2920000D01*
X7820000Y-2880000D02*
X7780000Y-2920000D01*
X7780000Y-6480000D02*
X7820000Y-6520000D01*
X7820000Y-6480000D02*
X7780000Y-6520000D01*
X7880000Y-2880000D02*
X7920000Y-2920000D01*
X7920000Y-2880000D02*
X7880000Y-2920000D01*
X7880000Y-6480000D02*
X7920000Y-6520000D01*
X7920000Y-6480000D02*
X7880000Y-6520000D01*
X7980000Y-2880000D02*
X8020000Y-2920000D01*
X8020000Y-2880000D02*
X7980000Y-2920000D01*
X7980000Y-6480000D02*
X8020000Y-6520000D01*
X8020000Y-6480000D02*
X7980000Y-6520000D01*
X8080000Y-2880000D02*
X8120000Y-2920000D01*
X8120000Y-2880000D02*
X8080000Y-2920000D01*
X8080000Y-6480000D02*
X8120000Y-6520000D01*
X8120000Y-6480000D02*
X8080000Y-6520000D01*
X8180000Y-2880000D02*
X8220000Y-2920000D01*
X8220000Y-2880000D02*
X8180000Y-2920000D01*
X8180000Y-6480000D02*
X8220000Y-6520000D01*
X8220000Y-6480000D02*
X8180000Y-6520000D01*
X8280000Y-2880000D02*
X8320000Y-2920000D01*
X8320000Y-2880000D02*
X8280000Y-2920000D01*
X8280000Y-6480000D02*
X8320000Y-6520000D01*
X8320000Y-6480000D02*
X8280000Y-6520000D01*
X8380000Y-2880000D02*
X8420000Y-2920000D01*
X8420000Y-2880000D02*
X8380000Y-2920000D01*
X8380000Y-3069999D02*
X8420000Y-3109999D01*
X8420000Y-3069999D02*
X8380000Y-3109999D01*
X8380000Y-3290001D02*
X8420000Y-3330001D01*
X8420000Y-3290001D02*
X8380000Y-3330001D01*
X8380000Y-4080000D02*
X8420000Y-4120000D01*
X8420000Y-4080000D02*
X8380000Y-4120000D01*
X8380000Y-4280000D02*
X8420000Y-4320000D01*
X8420000Y-4280000D02*
X8380000Y-4320000D01*
X8380000Y-4480000D02*
X8420000Y-4520000D01*
X8420000Y-4480000D02*
X8380000Y-4520000D01*
X8380000Y-4680000D02*
X8420000Y-4720000D01*
X8420000Y-4680000D02*
X8380000Y-4720000D01*
X8380000Y-4880000D02*
X8420000Y-4920000D01*
X8420000Y-4880000D02*
X8380000Y-4920000D01*
X8380000Y-5080000D02*
X8420000Y-5120000D01*
X8420000Y-5080000D02*
X8380000Y-5120000D01*
X8380000Y-5280000D02*
X8420000Y-5320000D01*
X8420000Y-5280000D02*
X8380000Y-5320000D01*
X8380000Y-5680000D02*
X8420000Y-5720000D01*
X8420000Y-5680000D02*
X8380000Y-5720000D01*
X8380000Y-5880000D02*
X8420000Y-5920000D01*
X8420000Y-5880000D02*
X8380000Y-5920000D01*
X8380000Y-6280000D02*
X8420000Y-6320000D01*
X8420000Y-6280000D02*
X8380000Y-6320000D01*
X8380000Y-6480000D02*
X8420000Y-6520000D01*
X8420000Y-6480000D02*
X8380000Y-6520000D01*
X8480000Y-2880000D02*
X8520000Y-2920000D01*
X8520000Y-2880000D02*
X8480000Y-2920000D01*
X8480000Y-6480000D02*
X8520000Y-6520000D01*
X8520000Y-6480000D02*
X8480000Y-6520000D01*
X8505000Y-3680000D02*
X8545000Y-3720000D01*
X8545000Y-3680000D02*
X8505000Y-3720000D01*
X8580000Y-2880000D02*
X8620000Y-2920000D01*
X8620000Y-2880000D02*
X8580000Y-2920000D01*
X8580000Y-6480000D02*
X8620000Y-6520000D01*
X8620000Y-6480000D02*
X8580000Y-6520000D01*
X8680000Y-2880000D02*
X8720000Y-2920000D01*
X8720000Y-2880000D02*
X8680000Y-2920000D01*
X8680000Y-6480000D02*
X8720000Y-6520000D01*
X8720000Y-6480000D02*
X8680000Y-6520000D01*
X8705000Y-3180000D02*
X8745000Y-3220000D01*
X8745000Y-3180000D02*
X8705000Y-3220000D01*
X8780000Y-2880000D02*
X8820000Y-2920000D01*
X8820000Y-2880000D02*
X8780000Y-2920000D01*
X8780000Y-6480000D02*
X8820000Y-6520000D01*
X8820000Y-6480000D02*
X8780000Y-6520000D01*
X8880000Y-2880000D02*
X8920000Y-2920000D01*
X8920000Y-2880000D02*
X8880000Y-2920000D01*
X8880000Y-6480000D02*
X8920000Y-6520000D01*
X8920000Y-6480000D02*
X8880000Y-6520000D01*
X8980000Y-2880000D02*
X9020000Y-2920000D01*
X9020000Y-2880000D02*
X8980000Y-2920000D01*
X8980000Y-6480000D02*
X9020000Y-6520000D01*
X9020000Y-6480000D02*
X8980000Y-6520000D01*
X9080000Y-2880000D02*
X9120000Y-2920000D01*
X9120000Y-2880000D02*
X9080000Y-2920000D01*
X9080000Y-6480000D02*
X9120000Y-6520000D01*
X9120000Y-6480000D02*
X9080000Y-6520000D01*
X9180000Y-2880000D02*
X9220000Y-2920000D01*
X9220000Y-2880000D02*
X9180000Y-2920000D01*
X9180000Y-6480000D02*
X9220000Y-6520000D01*
X9220000Y-6480000D02*
X9180000Y-6520000D01*
X9280000Y-2880000D02*
X9320000Y-2920000D01*
X9320000Y-2880000D02*
X9280000Y-2920000D01*
X9280000Y-6480000D02*
X9320000Y-6520000D01*
X9320000Y-6480000D02*
X9280000Y-6520000D01*
X9380000Y-2880000D02*
X9420000Y-2920000D01*
X9420000Y-2880000D02*
X9380000Y-2920000D01*
X9380000Y-6480000D02*
X9420000Y-6520000D01*
X9420000Y-6480000D02*
X9380000Y-6520000D01*
X9430000Y-5780000D02*
X9470000Y-5820000D01*
X9470000Y-5780000D02*
X9430000Y-5820000D01*
X9480000Y-2880000D02*
X9520000Y-2920000D01*
X9520000Y-2880000D02*
X9480000Y-2920000D01*
X9480000Y-6480000D02*
X9520000Y-6520000D01*
X9520000Y-6480000D02*
X9480000Y-6520000D01*
X9580000Y-2880000D02*
X9620000Y-2920000D01*
X9620000Y-2880000D02*
X9580000Y-2920000D01*
X9580000Y-6480000D02*
X9620000Y-6520000D01*
X9620000Y-6480000D02*
X9580000Y-6520000D01*
X9680000Y-2880000D02*
X9720000Y-2920000D01*
X9720000Y-2880000D02*
X9680000Y-2920000D01*
X9680000Y-6480000D02*
X9720000Y-6520000D01*
X9720000Y-6480000D02*
X9680000Y-6520000D01*
X9780000Y-2880000D02*
X9820000Y-2920000D01*
X9820000Y-2880000D02*
X9780000Y-2920000D01*
X9780000Y-6480000D02*
X9820000Y-6520000D01*
X9820000Y-6480000D02*
X9780000Y-6520000D01*
X9880000Y-2880000D02*
X9920000Y-2920000D01*
X9920000Y-2880000D02*
X9880000Y-2920000D01*
X9880000Y-6480000D02*
X9920000Y-6520000D01*
X9920000Y-6480000D02*
X9880000Y-6520000D01*
X9980000Y-2880000D02*
X10020000Y-2920000D01*
X10020000Y-2880000D02*
X9980000Y-2920000D01*
X9980000Y-6480000D02*
X10020000Y-6520000D01*
X10020000Y-6480000D02*
X9980000Y-6520000D01*
X10080000Y-2880000D02*
X10120000Y-2920000D01*
X10120000Y-2880000D02*
X10080000Y-2920000D01*
X10080000Y-6480000D02*
X10120000Y-6520000D01*
X10120000Y-6480000D02*
X10080000Y-6520000D01*
X10180000Y-2880000D02*
X10220000Y-2920000D01*
X10220000Y-2880000D02*
X10180000Y-2920000D01*
X10180000Y-6480000D02*
X10220000Y-6520000D01*
X10220000Y-6480000D02*
X10180000Y-6520000D01*
X10280000Y-2880000D02*
X10320000Y-2920000D01*
X10320000Y-2880000D02*
X10280000Y-2920000D01*
X10280000Y-6480000D02*
X10320000Y-6520000D01*
X10320000Y-6480000D02*
X10280000Y-6520000D01*
X10380000Y-2880000D02*
X10420000Y-2920000D01*
X10420000Y-2880000D02*
X10380000Y-2920000D01*
X10380000Y-6480000D02*
X10420000Y-6520000D01*
X10420000Y-6480000D02*
X10380000Y-6520000D01*
X10480000Y-2880000D02*
X10520000Y-2920000D01*
X10520000Y-2880000D02*
X10480000Y-2920000D01*
X10480000Y-6480000D02*
X10520000Y-6520000D01*
X10520000Y-6480000D02*
X10480000Y-6520000D01*
X10580000Y-2880000D02*
X10620000Y-2920000D01*
X10620000Y-2880000D02*
X10580000Y-2920000D01*
X10580000Y-6480000D02*
X10620000Y-6520000D01*
X10620000Y-6480000D02*
X10580000Y-6520000D01*
X10680000Y-2880000D02*
X10720000Y-2920000D01*
X10720000Y-2880000D02*
X10680000Y-2920000D01*
X10680000Y-6480000D02*
X10720000Y-6520000D01*
X10720000Y-6480000D02*
X10680000Y-6520000D01*
X10780000Y-2880000D02*
X10820000Y-2920000D01*
X10820000Y-2880000D02*
X10780000Y-2920000D01*
X10780000Y-6480000D02*
X10820000Y-6520000D01*
X10820000Y-6480000D02*
X10780000Y-6520000D01*
X10880000Y-2880000D02*
X10920000Y-2920000D01*
X10920000Y-2880000D02*
X10880000Y-2920000D01*
X10880000Y-6480000D02*
X10920000Y-6520000D01*
X10920000Y-6480000D02*
X10880000Y-6520000D01*
X10980000Y-2880000D02*
X11020000Y-2920000D01*
X11020000Y-2880000D02*
X10980000Y-2920000D01*
X10980000Y-6480000D02*
X11020000Y-6520000D01*
X11020000Y-6480000D02*
X10980000Y-6520000D01*
X11080000Y-2880000D02*
X11120000Y-2920000D01*
X11120000Y-2880000D02*
X11080000Y-2920000D01*
X11080000Y-6480000D02*
X11120000Y-6520000D01*
X11120000Y-6480000D02*
X11080000Y-6520000D01*
X11180000Y-2880000D02*
X11220000Y-2920000D01*
X11220000Y-2880000D02*
X11180000Y-2920000D01*
X11180000Y-6480000D02*
X11220000Y-6520000D01*
X11220000Y-6480000D02*
X11180000Y-6520000D01*
X11280000Y-2880000D02*
X11320000Y-2920000D01*
X11320000Y-2880000D02*
X11280000Y-2920000D01*
X11280000Y-6480000D02*
X11320000Y-6520000D01*
X11320000Y-6480000D02*
X11280000Y-6520000D01*
X11380000Y-2880000D02*
X11420000Y-2920000D01*
X11420000Y-2880000D02*
X11380000Y-2920000D01*
X11380000Y-6480000D02*
X11420000Y-6520000D01*
X11420000Y-6480000D02*
X11380000Y-6520000D01*
X11430000Y-5630000D02*
X11470000Y-5670000D01*
X11470000Y-5630000D02*
X11430000Y-5670000D01*
X11480000Y-2880000D02*
X11520000Y-2920000D01*
X11520000Y-2880000D02*
X11480000Y-2920000D01*
X11480000Y-6480000D02*
X11520000Y-6520000D01*
X11520000Y-6480000D02*
X11480000Y-6520000D01*
X11580000Y-2880000D02*
X11620000Y-2920000D01*
X11620000Y-2880000D02*
X11580000Y-2920000D01*
X11580000Y-6480000D02*
X11620000Y-6520000D01*
X11620000Y-6480000D02*
X11580000Y-6520000D01*
X11680000Y-2880000D02*
X11720000Y-2920000D01*
X11720000Y-2880000D02*
X11680000Y-2920000D01*
X11680000Y-6480000D02*
X11720000Y-6520000D01*
X11720000Y-6480000D02*
X11680000Y-6520000D01*
X11780000Y-2880000D02*
X11820000Y-2920000D01*
X11820000Y-2880000D02*
X11780000Y-2920000D01*
X11780000Y-6480000D02*
X11820000Y-6520000D01*
X11820000Y-6480000D02*
X11780000Y-6520000D01*
X11880000Y-2880000D02*
X11920000Y-2920000D01*
X11920000Y-2880000D02*
X11880000Y-2920000D01*
X11880000Y-6480000D02*
X11920000Y-6520000D01*
X11920000Y-6480000D02*
X11880000Y-6520000D01*
X11980000Y-2880000D02*
X12020000Y-2920000D01*
X12020000Y-2880000D02*
X11980000Y-2920000D01*
X11980000Y-6480000D02*
X12020000Y-6520000D01*
X12020000Y-6480000D02*
X11980000Y-6520000D01*
X12080000Y-2880000D02*
X12120000Y-2920000D01*
X12120000Y-2880000D02*
X12080000Y-2920000D01*
X12080000Y-6480000D02*
X12120000Y-6520000D01*
X12120000Y-6480000D02*
X12080000Y-6520000D01*
X12180000Y-2880000D02*
X12220000Y-2920000D01*
X12220000Y-2880000D02*
X12180000Y-2920000D01*
X12180000Y-6480000D02*
X12220000Y-6520000D01*
X12220000Y-6480000D02*
X12180000Y-6520000D01*
X12280000Y-2880000D02*
X12320000Y-2920000D01*
X12320000Y-2880000D02*
X12280000Y-2920000D01*
X12280000Y-6480000D02*
X12320000Y-6520000D01*
X12320000Y-6480000D02*
X12280000Y-6520000D01*
X12380000Y-2880000D02*
X12420000Y-2920000D01*
X12420000Y-2880000D02*
X12380000Y-2920000D01*
X12380000Y-6480000D02*
X12420000Y-6520000D01*
X12420000Y-6480000D02*
X12380000Y-6520000D01*
X12480000Y-2880000D02*
X12520000Y-2920000D01*
X12520000Y-2880000D02*
X12480000Y-2920000D01*
X12480000Y-6480000D02*
X12520000Y-6520000D01*
X12520000Y-6480000D02*
X12480000Y-6520000D01*
X12580000Y-2880000D02*
X12620000Y-2920000D01*
X12620000Y-2880000D02*
X12580000Y-2920000D01*
X12580000Y-6480000D02*
X12620000Y-6520000D01*
X12620000Y-6480000D02*
X12580000Y-6520000D01*
X12680000Y-2880000D02*
X12720000Y-2920000D01*
X12720000Y-2880000D02*
X12680000Y-2920000D01*
X12680000Y-6480000D02*
X12720000Y-6520000D01*
X12720000Y-6480000D02*
X12680000Y-6520000D01*
X12780000Y-2880000D02*
X12820000Y-2920000D01*
X12820000Y-2880000D02*
X12780000Y-2920000D01*
X12780000Y-6480000D02*
X12820000Y-6520000D01*
X12820000Y-6480000D02*
X12780000Y-6520000D01*
X12880000Y-2880000D02*
X12920000Y-2920000D01*
X12920000Y-2880000D02*
X12880000Y-2920000D01*
X12880000Y-6480000D02*
X12920000Y-6520000D01*
X12920000Y-6480000D02*
X12880000Y-6520000D01*
X12980000Y-2880000D02*
X13020000Y-2920000D01*
X13020000Y-2880000D02*
X12980000Y-2920000D01*
X12980000Y-6480000D02*
X13020000Y-6520000D01*
X13020000Y-6480000D02*
X12980000Y-6520000D01*
X13080000Y-2880000D02*
X13120000Y-2920000D01*
X13120000Y-2880000D02*
X13080000Y-2920000D01*
X13080000Y-6480000D02*
X13120000Y-6520000D01*
X13120000Y-6480000D02*
X13080000Y-6520000D01*
X13180000Y-2880000D02*
X13220000Y-2920000D01*
X13220000Y-2880000D02*
X13180000Y-2920000D01*
X13180000Y-6480000D02*
X13220000Y-6520000D01*
X13220000Y-6480000D02*
X13180000Y-6520000D01*
X13280000Y-2880000D02*
X13320000Y-2920000D01*
X13320000Y-2880000D02*
X13280000Y-2920000D01*
X13280000Y-6480000D02*
X13320000Y-6520000D01*
X13320000Y-6480000D02*
X13280000Y-6520000D01*
X13380000Y-2880000D02*
X13420000Y-2920000D01*
X13420000Y-2880000D02*
X13380000Y-2920000D01*
X13380000Y-6480000D02*
X13420000Y-6520000D01*
X13420000Y-6480000D02*
X13380000Y-6520000D01*
X13480000Y-2880000D02*
X13520000Y-2920000D01*
X13520000Y-2880000D02*
X13480000Y-2920000D01*
X13480000Y-6480000D02*
X13520000Y-6520000D01*
X13520000Y-6480000D02*
X13480000Y-6520000D01*
X13580000Y-2880000D02*
X13620000Y-2920000D01*
X13620000Y-2880000D02*
X13580000Y-2920000D01*
X13580000Y-6480000D02*
X13620000Y-6520000D01*
X13620000Y-6480000D02*
X13580000Y-6520000D01*
X13680000Y-2880000D02*
X13720000Y-2920000D01*
X13720000Y-2880000D02*
X13680000Y-2920000D01*
X13680000Y-6480000D02*
X13720000Y-6520000D01*
X13720000Y-6480000D02*
X13680000Y-6520000D01*
X13780000Y-2880000D02*
X13820000Y-2920000D01*
X13820000Y-2880000D02*
X13780000Y-2920000D01*
X13780000Y-6480000D02*
X13820000Y-6520000D01*
X13820000Y-6480000D02*
X13780000Y-6520000D01*
X13880000Y-2880000D02*
X13920000Y-2920000D01*
X13920000Y-2880000D02*
X13880000Y-2920000D01*
X13880000Y-6480000D02*
X13920000Y-6520000D01*
X13920000Y-6480000D02*
X13880000Y-6520000D01*
X13980000Y-2880000D02*
X14020000Y-2920000D01*
X14020000Y-2880000D02*
X13980000Y-2920000D01*
X13980000Y-6480000D02*
X14020000Y-6520000D01*
X14020000Y-6480000D02*
X13980000Y-6520000D01*
X14080000Y-2880000D02*
X14120000Y-2920000D01*
X14120000Y-2880000D02*
X14080000Y-2920000D01*
X14080000Y-6480000D02*
X14120000Y-6520000D01*
X14120000Y-6480000D02*
X14080000Y-6520000D01*
X14180000Y-2880000D02*
X14220000Y-2920000D01*
X14220000Y-2880000D02*
X14180000Y-2920000D01*
X14180000Y-6480000D02*
X14220000Y-6520000D01*
X14220000Y-6480000D02*
X14180000Y-6520000D01*
X14280000Y-2880000D02*
X14320000Y-2920000D01*
X14320000Y-2880000D02*
X14280000Y-2920000D01*
X14280000Y-6480000D02*
X14320000Y-6520000D01*
X14320000Y-6480000D02*
X14280000Y-6520000D01*
X14380000Y-2880000D02*
X14420000Y-2920000D01*
X14420000Y-2880000D02*
X14380000Y-2920000D01*
X14380000Y-6480000D02*
X14420000Y-6520000D01*
X14420000Y-6480000D02*
X14380000Y-6520000D01*
X14480000Y-2880000D02*
X14520000Y-2920000D01*
X14520000Y-2880000D02*
X14480000Y-2920000D01*
X14480000Y-6480000D02*
X14520000Y-6520000D01*
X14520000Y-6480000D02*
X14480000Y-6520000D01*
X14580000Y-2880000D02*
X14620000Y-2920000D01*
X14620000Y-2880000D02*
X14580000Y-2920000D01*
X14580000Y-6480000D02*
X14620000Y-6520000D01*
X14620000Y-6480000D02*
X14580000Y-6520000D01*
X14680000Y-2880000D02*
X14720000Y-2920000D01*
X14720000Y-2880000D02*
X14680000Y-2920000D01*
X14680000Y-6480000D02*
X14720000Y-6520000D01*
X14720000Y-6480000D02*
X14680000Y-6520000D01*
X14780000Y-2880000D02*
X14820000Y-2920000D01*
X14820000Y-2880000D02*
X14780000Y-2920000D01*
X14780000Y-6480000D02*
X14820000Y-6520000D01*
X14820000Y-6480000D02*
X14780000Y-6520000D01*
X14880000Y-2880000D02*
X14920000Y-2920000D01*
X14920000Y-2880000D02*
X14880000Y-2920000D01*
X14880000Y-6480000D02*
X14920000Y-6520000D01*
X14920000Y-6480000D02*
X14880000Y-6520000D01*
X14980000Y-2880000D02*
X15020000Y-2920000D01*
X15020000Y-2880000D02*
X14980000Y-2920000D01*
X14980000Y-6480000D02*
X15020000Y-6520000D01*
X15020000Y-6480000D02*
X14980000Y-6520000D01*
X15080000Y-2880000D02*
X15120000Y-2920000D01*
X15120000Y-2880000D02*
X15080000Y-2920000D01*
X15080000Y-6480000D02*
X15120000Y-6520000D01*
X15120000Y-6480000D02*
X15080000Y-6520000D01*
X15180000Y-2880000D02*
X15220000Y-2920000D01*
X15220000Y-2880000D02*
X15180000Y-2920000D01*
X15180000Y-6480000D02*
X15220000Y-6520000D01*
X15220000Y-6480000D02*
X15180000Y-6520000D01*
X15280000Y-2880000D02*
X15320000Y-2920000D01*
X15320000Y-2880000D02*
X15280000Y-2920000D01*
X15280000Y-6480000D02*
X15320000Y-6520000D01*
X15320000Y-6480000D02*
X15280000Y-6520000D01*
X15380000Y-2880000D02*
X15420000Y-2920000D01*
X15420000Y-2880000D02*
X15380000Y-2920000D01*
X15380000Y-6480000D02*
X15420000Y-6520000D01*
X15420000Y-6480000D02*
X15380000Y-6520000D01*
X15480000Y-2880000D02*
X15520000Y-2920000D01*
X15520000Y-2880000D02*
X15480000Y-2920000D01*
X15480000Y-6480000D02*
X15520000Y-6520000D01*
X15520000Y-6480000D02*
X15480000Y-6520000D01*
X15580000Y-2880000D02*
X15620000Y-2920000D01*
X15620000Y-2880000D02*
X15580000Y-2920000D01*
X15580000Y-6480000D02*
X15620000Y-6520000D01*
X15620000Y-6480000D02*
X15580000Y-6520000D01*
X15630000Y-4010000D02*
X15670000Y-4050000D01*
X15670000Y-4010000D02*
X15630000Y-4050000D01*
X15630000Y-5340000D02*
X15670000Y-5380000D01*
X15670000Y-5340000D02*
X15630000Y-5380000D01*
X15680000Y-2880000D02*
X15720000Y-2920000D01*
X15720000Y-2880000D02*
X15680000Y-2920000D01*
X15680000Y-6480000D02*
X15720000Y-6520000D01*
X15720000Y-6480000D02*
X15680000Y-6520000D01*
X15780000Y-2880000D02*
X15820000Y-2920000D01*
X15820000Y-2880000D02*
X15780000Y-2920000D01*
X15780000Y-6480000D02*
X15820000Y-6520000D01*
X15820000Y-6480000D02*
X15780000Y-6520000D01*
X15880000Y-2880000D02*
X15920000Y-2920000D01*
X15920000Y-2880000D02*
X15880000Y-2920000D01*
X15880000Y-6480000D02*
X15920000Y-6520000D01*
X15920000Y-6480000D02*
X15880000Y-6520000D01*
X15980000Y-2880000D02*
X16020000Y-2920000D01*
X16020000Y-2880000D02*
X15980000Y-2920000D01*
X15980000Y-6480000D02*
X16020000Y-6520000D01*
X16020000Y-6480000D02*
X15980000Y-6520000D01*
X16080000Y-2880000D02*
X16120000Y-2920000D01*
X16120000Y-2880000D02*
X16080000Y-2920000D01*
X16080000Y-6480000D02*
X16120000Y-6520000D01*
X16120000Y-6480000D02*
X16080000Y-6520000D01*
X16180000Y-2880000D02*
X16220000Y-2920000D01*
X16220000Y-2880000D02*
X16180000Y-2920000D01*
X16180000Y-6480000D02*
X16220000Y-6520000D01*
X16220000Y-6480000D02*
X16180000Y-6520000D01*
X16280000Y-2880000D02*
X16320000Y-2920000D01*
X16320000Y-2880000D02*
X16280000Y-2920000D01*
X16280000Y-6480000D02*
X16320000Y-6520000D01*
X16320000Y-6480000D02*
X16280000Y-6520000D01*
X16380000Y-2880000D02*
X16420000Y-2920000D01*
X16420000Y-2880000D02*
X16380000Y-2920000D01*
X16380000Y-6480000D02*
X16420000Y-6520000D01*
X16420000Y-6480000D02*
X16380000Y-6520000D01*
X16480000Y-2880000D02*
X16520000Y-2920000D01*
X16520000Y-2880000D02*
X16480000Y-2920000D01*
X16480000Y-6480000D02*
X16520000Y-6520000D01*
X16520000Y-6480000D02*
X16480000Y-6520000D01*
X16580000Y-2880000D02*
X16620000Y-2920000D01*
X16620000Y-2880000D02*
X16580000Y-2920000D01*
X16580000Y-6480000D02*
X16620000Y-6520000D01*
X16620000Y-6480000D02*
X16580000Y-6520000D01*
X16680000Y-2880000D02*
X16720000Y-2920000D01*
X16720000Y-2880000D02*
X16680000Y-2920000D01*
X16680000Y-3755000D02*
X16720000Y-3795000D01*
X16720000Y-3755000D02*
X16680000Y-3795000D01*
X16680000Y-4205000D02*
X16720000Y-4245000D01*
X16720000Y-4205000D02*
X16680000Y-4245000D01*
X16680000Y-5155000D02*
X16720000Y-5195000D01*
X16720000Y-5155000D02*
X16680000Y-5195000D01*
X16680000Y-5605000D02*
X16720000Y-5645000D01*
X16720000Y-5605000D02*
X16680000Y-5645000D01*
X16680000Y-6480000D02*
X16720000Y-6520000D01*
X16720000Y-6480000D02*
X16680000Y-6520000D01*
X16780000Y-2880000D02*
X16820000Y-2920000D01*
X16820000Y-2880000D02*
X16780000Y-2920000D01*
X16780000Y-6480000D02*
X16820000Y-6520000D01*
X16820000Y-6480000D02*
X16780000Y-6520000D01*
X16880000Y-2880000D02*
X16920000Y-2920000D01*
X16920000Y-2880000D02*
X16880000Y-2920000D01*
X16880000Y-6480000D02*
X16920000Y-6520000D01*
X16920000Y-6480000D02*
X16880000Y-6520000D01*
X16980000Y-2980000D02*
X17020000Y-3020000D01*
X17020000Y-2980000D02*
X16980000Y-3020000D01*
X16980000Y-6380000D02*
X17020000Y-6420000D01*
X17020000Y-6380000D02*
X16980000Y-6420000D01*
X17080000Y-3080000D02*
X17120000Y-3120000D01*
X17120000Y-3080000D02*
X17080000Y-3120000D01*
X17080000Y-6280000D02*
X17120000Y-6320000D01*
X17120000Y-6280000D02*
X17080000Y-6320000D01*
X17180000Y-3180000D02*
X17220000Y-3220000D01*
X17220000Y-3180000D02*
X17180000Y-3220000D01*
X17180000Y-6180000D02*
X17220000Y-6220000D01*
X17220000Y-6180000D02*
X17180000Y-6220000D01*
X17280000Y-3280000D02*
X17320000Y-3320000D01*
X17320000Y-3280000D02*
X17280000Y-3320000D01*
X17280000Y-6080000D02*
X17320000Y-6120000D01*
X17320000Y-6080000D02*
X17280000Y-6120000D01*
X17380000Y-3380000D02*
X17420000Y-3420000D01*
X17420000Y-3380000D02*
X17380000Y-3420000D01*
X17380000Y-4580000D02*
X17420000Y-4620000D01*
X17420000Y-4580000D02*
X17380000Y-4620000D01*
X17380000Y-4680000D02*
X17420000Y-4720000D01*
X17420000Y-4680000D02*
X17380000Y-4720000D01*
X17380000Y-4780000D02*
X17420000Y-4820000D01*
X17420000Y-4780000D02*
X17380000Y-4820000D01*
X17380000Y-5980000D02*
X17420000Y-6020000D01*
X17420000Y-5980000D02*
X17380000Y-6020000D01*
X4512500Y-5112500D02*
G75*
G02*
X4457500Y-5112500I-27500J0D01*
G01*
X4457500Y-5112500D02*
G75*
G02*
X4512500Y-5112500I27500J0D01*
G01*
X4517500Y-5085000D02*
X4452500Y-5085000D01*
X4452500Y-5140000D02*
G75*
G02*
X4452500Y-5085000I0J27500D01*
G01*
X4452500Y-5140000D02*
X4517500Y-5140000D01*
X4517500Y-5140000D02*
G75*
G03*
X4517500Y-5085000I0J27500D01*
G01*
X4512500Y-5887500D02*
G75*
G02*
X4457500Y-5887500I-27500J0D01*
G01*
X4457500Y-5887500D02*
G75*
G02*
X4512500Y-5887500I27500J0D01*
G01*
X4517500Y-5860000D02*
X4452500Y-5860000D01*
X4452500Y-5915000D02*
G75*
G02*
X4452500Y-5860000I0J27500D01*
G01*
X4452500Y-5915000D02*
X4517500Y-5915000D01*
X4517500Y-5915000D02*
G75*
G03*
X4517500Y-5860000I0J27500D01*
G01*
X4865000Y-5085000D02*
X4865000Y-5170000D01*
X4822500Y-5127500D02*
X4907500Y-5127500D01*
X4892500Y-5085000D02*
X4837500Y-5085000D01*
X4837500Y-5170000D02*
G75*
G02*
X4837500Y-5085000I0J42500D01*
G01*
X4837500Y-5170000D02*
X4892500Y-5170000D01*
X4892500Y-5170000D02*
G75*
G03*
X4892500Y-5085000I0J42500D01*
G01*
X4865000Y-5830000D02*
X4865000Y-5915000D01*
X4822500Y-5872500D02*
X4907500Y-5872500D01*
X4892500Y-5830000D02*
X4837500Y-5830000D01*
X4837500Y-5915000D02*
G75*
G02*
X4837500Y-5830000I0J42500D01*
G01*
X4837500Y-5915000D02*
X4892500Y-5915000D01*
X4892500Y-5915000D02*
G75*
G03*
X4892500Y-5830000I0J42500D01*
G01*
X5565356Y-5401356D02*
X5565356Y-5330644D01*
X5494644Y-5330644D01*
X5494644Y-5401356D01*
X5565356Y-5401356D01*
X5565356Y-5655356D02*
X5565356Y-5584644D01*
X5494644Y-5584644D01*
X5494644Y-5655356D01*
X5565356Y-5655356D01*
X8877356Y-3810356D02*
X8877356Y-3739644D01*
X8806644Y-3739644D01*
X8806644Y-3810356D01*
X8877356Y-3810356D01*
X9131356Y-3810356D02*
X9131356Y-3739644D01*
X9060644Y-3739644D01*
X9060644Y-3810356D01*
X9131356Y-3810356D01*
X9385356Y-3810356D02*
X9385356Y-3739644D01*
X9314644Y-3739644D01*
X9314644Y-3810356D01*
X9385356Y-3810356D01*
D10*
X16075000Y-4230000D02*
X16150000Y-4155000D01*
X16075000Y-4080000D01*
X16000000Y-4155000D01*
X16075000Y-4230000D01*
X16075000Y-4775000D02*
X16150000Y-4700000D01*
X16075000Y-4625000D01*
X16000000Y-4700000D01*
X16075000Y-4775000D01*
X16075000Y-5320000D02*
X16150000Y-5245000D01*
X16075000Y-5170000D01*
X16000000Y-5245000D01*
X16075000Y-5320000D01*
D11*
X4553277Y-6918984D02*
X4553277Y-6718984D01*
X4553277Y-6718984D02*
X4600896Y-6718984D01*
X4600896Y-6718984D02*
X4629467Y-6728508D01*
X4629467Y-6728508D02*
X4648515Y-6747555D01*
X4648515Y-6747555D02*
X4658039Y-6766603D01*
X4658039Y-6766603D02*
X4667563Y-6804698D01*
X4667563Y-6804698D02*
X4667563Y-6833269D01*
X4667563Y-6833269D02*
X4658039Y-6871365D01*
X4658039Y-6871365D02*
X4648515Y-6890412D01*
X4648515Y-6890412D02*
X4629467Y-6909460D01*
X4629467Y-6909460D02*
X4600896Y-6918984D01*
X4600896Y-6918984D02*
X4553277Y-6918984D01*
X4753277Y-6918984D02*
X4753277Y-6785650D01*
X4753277Y-6823746D02*
X4762801Y-6804698D01*
X4762801Y-6804698D02*
X4772324Y-6795174D01*
X4772324Y-6795174D02*
X4791372Y-6785650D01*
X4791372Y-6785650D02*
X4810420Y-6785650D01*
X4877086Y-6918984D02*
X4877086Y-6785650D01*
X4877086Y-6718984D02*
X4867563Y-6728508D01*
X4867563Y-6728508D02*
X4877086Y-6738031D01*
X4877086Y-6738031D02*
X4886610Y-6728508D01*
X4886610Y-6728508D02*
X4877086Y-6718984D01*
X4877086Y-6718984D02*
X4877086Y-6738031D01*
X5000896Y-6918984D02*
X4981848Y-6909460D01*
X4981848Y-6909460D02*
X4972324Y-6890412D01*
X4972324Y-6890412D02*
X4972324Y-6718984D01*
X5105658Y-6918984D02*
X5086610Y-6909460D01*
X5086610Y-6909460D02*
X5077086Y-6890412D01*
X5077086Y-6890412D02*
X5077086Y-6718984D01*
X5334229Y-6918984D02*
X5334229Y-6718984D01*
X5334229Y-6718984D02*
X5400896Y-6861841D01*
X5400896Y-6861841D02*
X5467563Y-6718984D01*
X5467563Y-6718984D02*
X5467563Y-6918984D01*
X5648515Y-6918984D02*
X5648515Y-6814222D01*
X5648515Y-6814222D02*
X5638991Y-6795174D01*
X5638991Y-6795174D02*
X5619943Y-6785650D01*
X5619943Y-6785650D02*
X5581848Y-6785650D01*
X5581848Y-6785650D02*
X5562801Y-6795174D01*
X5648515Y-6909460D02*
X5629467Y-6918984D01*
X5629467Y-6918984D02*
X5581848Y-6918984D01*
X5581848Y-6918984D02*
X5562801Y-6909460D01*
X5562801Y-6909460D02*
X5553277Y-6890412D01*
X5553277Y-6890412D02*
X5553277Y-6871365D01*
X5553277Y-6871365D02*
X5562801Y-6852317D01*
X5562801Y-6852317D02*
X5581848Y-6842793D01*
X5581848Y-6842793D02*
X5629467Y-6842793D01*
X5629467Y-6842793D02*
X5648515Y-6833269D01*
X5743753Y-6785650D02*
X5743753Y-6985650D01*
X5743753Y-6795174D02*
X5762801Y-6785650D01*
X5762801Y-6785650D02*
X5800896Y-6785650D01*
X5800896Y-6785650D02*
X5819943Y-6795174D01*
X5819943Y-6795174D02*
X5829467Y-6804698D01*
X5829467Y-6804698D02*
X5838991Y-6823746D01*
X5838991Y-6823746D02*
X5838991Y-6880888D01*
X5838991Y-6880888D02*
X5829467Y-6899936D01*
X5829467Y-6899936D02*
X5819943Y-6909460D01*
X5819943Y-6909460D02*
X5800896Y-6918984D01*
X5800896Y-6918984D02*
X5762801Y-6918984D01*
X5762801Y-6918984D02*
X5743753Y-6909460D01*
X5924705Y-6899936D02*
X5934229Y-6909460D01*
X5934229Y-6909460D02*
X5924705Y-6918984D01*
X5924705Y-6918984D02*
X5915182Y-6909460D01*
X5915182Y-6909460D02*
X5924705Y-6899936D01*
X5924705Y-6899936D02*
X5924705Y-6918984D01*
X5924705Y-6795174D02*
X5934229Y-6804698D01*
X5934229Y-6804698D02*
X5924705Y-6814222D01*
X5924705Y-6814222D02*
X5915182Y-6804698D01*
X5915182Y-6804698D02*
X5924705Y-6795174D01*
X5924705Y-6795174D02*
X5924705Y-6814222D01*
D12*
X4252500Y-7227500D02*
X4292500Y-7267500D01*
X4292500Y-7227500D02*
X4252500Y-7267500D01*
D11*
X4591372Y-7138984D02*
X4610420Y-7138984D01*
X4610420Y-7138984D02*
X4629467Y-7148508D01*
X4629467Y-7148508D02*
X4638991Y-7158031D01*
X4638991Y-7158031D02*
X4648515Y-7177079D01*
X4648515Y-7177079D02*
X4658039Y-7215174D01*
X4658039Y-7215174D02*
X4658039Y-7262793D01*
X4658039Y-7262793D02*
X4648515Y-7300888D01*
X4648515Y-7300888D02*
X4638991Y-7319936D01*
X4638991Y-7319936D02*
X4629467Y-7329460D01*
X4629467Y-7329460D02*
X4610420Y-7338984D01*
X4610420Y-7338984D02*
X4591372Y-7338984D01*
X4591372Y-7338984D02*
X4572324Y-7329460D01*
X4572324Y-7329460D02*
X4562801Y-7319936D01*
X4562801Y-7319936D02*
X4553277Y-7300888D01*
X4553277Y-7300888D02*
X4543753Y-7262793D01*
X4543753Y-7262793D02*
X4543753Y-7215174D01*
X4543753Y-7215174D02*
X4553277Y-7177079D01*
X4553277Y-7177079D02*
X4562801Y-7158031D01*
X4562801Y-7158031D02*
X4572324Y-7148508D01*
X4572324Y-7148508D02*
X4591372Y-7138984D01*
X4743753Y-7319936D02*
X4753277Y-7329460D01*
X4753277Y-7329460D02*
X4743753Y-7338984D01*
X4743753Y-7338984D02*
X4734229Y-7329460D01*
X4734229Y-7329460D02*
X4743753Y-7319936D01*
X4743753Y-7319936D02*
X4743753Y-7338984D01*
X4924705Y-7205650D02*
X4924705Y-7338984D01*
X4877086Y-7129460D02*
X4829467Y-7272317D01*
X4829467Y-7272317D02*
X4953277Y-7272317D01*
X5067563Y-7138984D02*
X5086610Y-7138984D01*
X5086610Y-7138984D02*
X5105658Y-7148508D01*
X5105658Y-7148508D02*
X5115182Y-7158031D01*
X5115182Y-7158031D02*
X5124705Y-7177079D01*
X5124705Y-7177079D02*
X5134229Y-7215174D01*
X5134229Y-7215174D02*
X5134229Y-7262793D01*
X5134229Y-7262793D02*
X5124705Y-7300888D01*
X5124705Y-7300888D02*
X5115182Y-7319936D01*
X5115182Y-7319936D02*
X5105658Y-7329460D01*
X5105658Y-7329460D02*
X5086610Y-7338984D01*
X5086610Y-7338984D02*
X5067563Y-7338984D01*
X5067563Y-7338984D02*
X5048515Y-7329460D01*
X5048515Y-7329460D02*
X5038991Y-7319936D01*
X5038991Y-7319936D02*
X5029467Y-7300888D01*
X5029467Y-7300888D02*
X5019944Y-7262793D01*
X5019944Y-7262793D02*
X5019944Y-7215174D01*
X5019944Y-7215174D02*
X5029467Y-7177079D01*
X5029467Y-7177079D02*
X5038991Y-7158031D01*
X5038991Y-7158031D02*
X5048515Y-7148508D01*
X5048515Y-7148508D02*
X5067563Y-7138984D01*
X5258039Y-7138984D02*
X5277086Y-7138984D01*
X5277086Y-7138984D02*
X5296134Y-7148508D01*
X5296134Y-7148508D02*
X5305658Y-7158031D01*
X5305658Y-7158031D02*
X5315182Y-7177079D01*
X5315182Y-7177079D02*
X5324705Y-7215174D01*
X5324705Y-7215174D02*
X5324705Y-7262793D01*
X5324705Y-7262793D02*
X5315182Y-7300888D01*
X5315182Y-7300888D02*
X5305658Y-7319936D01*
X5305658Y-7319936D02*
X5296134Y-7329460D01*
X5296134Y-7329460D02*
X5277086Y-7338984D01*
X5277086Y-7338984D02*
X5258039Y-7338984D01*
X5258039Y-7338984D02*
X5238991Y-7329460D01*
X5238991Y-7329460D02*
X5229467Y-7319936D01*
X5229467Y-7319936D02*
X5219944Y-7300888D01*
X5219944Y-7300888D02*
X5210420Y-7262793D01*
X5210420Y-7262793D02*
X5210420Y-7215174D01*
X5210420Y-7215174D02*
X5219944Y-7177079D01*
X5219944Y-7177079D02*
X5229467Y-7158031D01*
X5229467Y-7158031D02*
X5238991Y-7148508D01*
X5238991Y-7148508D02*
X5258039Y-7138984D01*
X5410420Y-7338984D02*
X5410420Y-7205650D01*
X5410420Y-7224698D02*
X5419944Y-7215174D01*
X5419944Y-7215174D02*
X5438991Y-7205650D01*
X5438991Y-7205650D02*
X5467563Y-7205650D01*
X5467563Y-7205650D02*
X5486610Y-7215174D01*
X5486610Y-7215174D02*
X5496134Y-7234222D01*
X5496134Y-7234222D02*
X5496134Y-7338984D01*
X5496134Y-7234222D02*
X5505658Y-7215174D01*
X5505658Y-7215174D02*
X5524705Y-7205650D01*
X5524705Y-7205650D02*
X5553277Y-7205650D01*
X5553277Y-7205650D02*
X5572325Y-7215174D01*
X5572325Y-7215174D02*
X5581848Y-7234222D01*
X5581848Y-7234222D02*
X5581848Y-7338984D01*
X5677086Y-7338984D02*
X5677086Y-7205650D01*
X5677086Y-7224698D02*
X5686610Y-7215174D01*
X5686610Y-7215174D02*
X5705658Y-7205650D01*
X5705658Y-7205650D02*
X5734229Y-7205650D01*
X5734229Y-7205650D02*
X5753277Y-7215174D01*
X5753277Y-7215174D02*
X5762801Y-7234222D01*
X5762801Y-7234222D02*
X5762801Y-7338984D01*
X5762801Y-7234222D02*
X5772324Y-7215174D01*
X5772324Y-7215174D02*
X5791372Y-7205650D01*
X5791372Y-7205650D02*
X5819943Y-7205650D01*
X5819943Y-7205650D02*
X5838991Y-7215174D01*
X5838991Y-7215174D02*
X5848515Y-7234222D01*
X5848515Y-7234222D02*
X5848515Y-7338984D01*
X6238991Y-7129460D02*
X6067563Y-7386603D01*
X6496134Y-7138984D02*
X6515182Y-7138984D01*
X6515182Y-7138984D02*
X6534229Y-7148508D01*
X6534229Y-7148508D02*
X6543753Y-7158031D01*
X6543753Y-7158031D02*
X6553277Y-7177079D01*
X6553277Y-7177079D02*
X6562801Y-7215174D01*
X6562801Y-7215174D02*
X6562801Y-7262793D01*
X6562801Y-7262793D02*
X6553277Y-7300888D01*
X6553277Y-7300888D02*
X6543753Y-7319936D01*
X6543753Y-7319936D02*
X6534229Y-7329460D01*
X6534229Y-7329460D02*
X6515182Y-7338984D01*
X6515182Y-7338984D02*
X6496134Y-7338984D01*
X6496134Y-7338984D02*
X6477086Y-7329460D01*
X6477086Y-7329460D02*
X6467563Y-7319936D01*
X6467563Y-7319936D02*
X6458039Y-7300888D01*
X6458039Y-7300888D02*
X6448515Y-7262793D01*
X6448515Y-7262793D02*
X6448515Y-7215174D01*
X6448515Y-7215174D02*
X6458039Y-7177079D01*
X6458039Y-7177079D02*
X6467563Y-7158031D01*
X6467563Y-7158031D02*
X6477086Y-7148508D01*
X6477086Y-7148508D02*
X6496134Y-7138984D01*
X6648515Y-7319936D02*
X6658039Y-7329460D01*
X6658039Y-7329460D02*
X6648515Y-7338984D01*
X6648515Y-7338984D02*
X6638991Y-7329460D01*
X6638991Y-7329460D02*
X6648515Y-7319936D01*
X6648515Y-7319936D02*
X6648515Y-7338984D01*
X6781848Y-7138984D02*
X6800896Y-7138984D01*
X6800896Y-7138984D02*
X6819944Y-7148508D01*
X6819944Y-7148508D02*
X6829467Y-7158031D01*
X6829467Y-7158031D02*
X6838991Y-7177079D01*
X6838991Y-7177079D02*
X6848515Y-7215174D01*
X6848515Y-7215174D02*
X6848515Y-7262793D01*
X6848515Y-7262793D02*
X6838991Y-7300888D01*
X6838991Y-7300888D02*
X6829467Y-7319936D01*
X6829467Y-7319936D02*
X6819944Y-7329460D01*
X6819944Y-7329460D02*
X6800896Y-7338984D01*
X6800896Y-7338984D02*
X6781848Y-7338984D01*
X6781848Y-7338984D02*
X6762801Y-7329460D01*
X6762801Y-7329460D02*
X6753277Y-7319936D01*
X6753277Y-7319936D02*
X6743753Y-7300888D01*
X6743753Y-7300888D02*
X6734229Y-7262793D01*
X6734229Y-7262793D02*
X6734229Y-7215174D01*
X6734229Y-7215174D02*
X6743753Y-7177079D01*
X6743753Y-7177079D02*
X6753277Y-7158031D01*
X6753277Y-7158031D02*
X6762801Y-7148508D01*
X6762801Y-7148508D02*
X6781848Y-7138984D01*
X7038991Y-7338984D02*
X6924706Y-7338984D01*
X6981848Y-7338984D02*
X6981848Y-7138984D01*
X6981848Y-7138984D02*
X6962801Y-7167555D01*
X6962801Y-7167555D02*
X6943753Y-7186603D01*
X6943753Y-7186603D02*
X6924706Y-7196127D01*
X7219944Y-7138984D02*
X7124706Y-7138984D01*
X7124706Y-7138984D02*
X7115182Y-7234222D01*
X7115182Y-7234222D02*
X7124706Y-7224698D01*
X7124706Y-7224698D02*
X7143753Y-7215174D01*
X7143753Y-7215174D02*
X7191372Y-7215174D01*
X7191372Y-7215174D02*
X7210420Y-7224698D01*
X7210420Y-7224698D02*
X7219944Y-7234222D01*
X7219944Y-7234222D02*
X7229467Y-7253269D01*
X7229467Y-7253269D02*
X7229467Y-7300888D01*
X7229467Y-7300888D02*
X7219944Y-7319936D01*
X7219944Y-7319936D02*
X7210420Y-7329460D01*
X7210420Y-7329460D02*
X7191372Y-7338984D01*
X7191372Y-7338984D02*
X7143753Y-7338984D01*
X7143753Y-7338984D02*
X7124706Y-7329460D01*
X7124706Y-7329460D02*
X7115182Y-7319936D01*
X7296134Y-7138984D02*
X7429467Y-7138984D01*
X7429467Y-7138984D02*
X7343753Y-7338984D01*
X7496134Y-7138984D02*
X7496134Y-7177079D01*
X7572325Y-7138984D02*
X7572325Y-7177079D01*
X7867563Y-7415174D02*
X7858039Y-7405650D01*
X7858039Y-7405650D02*
X7838991Y-7377079D01*
X7838991Y-7377079D02*
X7829468Y-7358031D01*
X7829468Y-7358031D02*
X7819944Y-7329460D01*
X7819944Y-7329460D02*
X7810420Y-7281841D01*
X7810420Y-7281841D02*
X7810420Y-7243746D01*
X7810420Y-7243746D02*
X7819944Y-7196127D01*
X7819944Y-7196127D02*
X7829468Y-7167555D01*
X7829468Y-7167555D02*
X7838991Y-7148508D01*
X7838991Y-7148508D02*
X7858039Y-7119936D01*
X7858039Y-7119936D02*
X7867563Y-7110412D01*
X7924706Y-7138984D02*
X8048515Y-7138984D01*
X8048515Y-7138984D02*
X7981848Y-7215174D01*
X7981848Y-7215174D02*
X8010420Y-7215174D01*
X8010420Y-7215174D02*
X8029468Y-7224698D01*
X8029468Y-7224698D02*
X8038991Y-7234222D01*
X8038991Y-7234222D02*
X8048515Y-7253269D01*
X8048515Y-7253269D02*
X8048515Y-7300888D01*
X8048515Y-7300888D02*
X8038991Y-7319936D01*
X8038991Y-7319936D02*
X8029468Y-7329460D01*
X8029468Y-7329460D02*
X8010420Y-7338984D01*
X8010420Y-7338984D02*
X7953277Y-7338984D01*
X7953277Y-7338984D02*
X7934229Y-7329460D01*
X7934229Y-7329460D02*
X7924706Y-7319936D01*
X8115182Y-7138984D02*
X8238991Y-7138984D01*
X8238991Y-7138984D02*
X8172325Y-7215174D01*
X8172325Y-7215174D02*
X8200896Y-7215174D01*
X8200896Y-7215174D02*
X8219944Y-7224698D01*
X8219944Y-7224698D02*
X8229468Y-7234222D01*
X8229468Y-7234222D02*
X8238991Y-7253269D01*
X8238991Y-7253269D02*
X8238991Y-7300888D01*
X8238991Y-7300888D02*
X8229468Y-7319936D01*
X8229468Y-7319936D02*
X8219944Y-7329460D01*
X8219944Y-7329460D02*
X8200896Y-7338984D01*
X8200896Y-7338984D02*
X8143753Y-7338984D01*
X8143753Y-7338984D02*
X8124706Y-7329460D01*
X8124706Y-7329460D02*
X8115182Y-7319936D01*
X8429468Y-7338984D02*
X8315182Y-7338984D01*
X8372325Y-7338984D02*
X8372325Y-7138984D01*
X8372325Y-7138984D02*
X8353277Y-7167555D01*
X8353277Y-7167555D02*
X8334229Y-7186603D01*
X8334229Y-7186603D02*
X8315182Y-7196127D01*
X8667563Y-7338984D02*
X8667563Y-7138984D01*
X8753277Y-7338984D02*
X8753277Y-7234222D01*
X8753277Y-7234222D02*
X8743753Y-7215174D01*
X8743753Y-7215174D02*
X8724706Y-7205650D01*
X8724706Y-7205650D02*
X8696134Y-7205650D01*
X8696134Y-7205650D02*
X8677087Y-7215174D01*
X8677087Y-7215174D02*
X8667563Y-7224698D01*
X8877087Y-7338984D02*
X8858039Y-7329460D01*
X8858039Y-7329460D02*
X8848515Y-7319936D01*
X8848515Y-7319936D02*
X8838992Y-7300888D01*
X8838992Y-7300888D02*
X8838992Y-7243746D01*
X8838992Y-7243746D02*
X8848515Y-7224698D01*
X8848515Y-7224698D02*
X8858039Y-7215174D01*
X8858039Y-7215174D02*
X8877087Y-7205650D01*
X8877087Y-7205650D02*
X8905658Y-7205650D01*
X8905658Y-7205650D02*
X8924706Y-7215174D01*
X8924706Y-7215174D02*
X8934230Y-7224698D01*
X8934230Y-7224698D02*
X8943753Y-7243746D01*
X8943753Y-7243746D02*
X8943753Y-7300888D01*
X8943753Y-7300888D02*
X8934230Y-7319936D01*
X8934230Y-7319936D02*
X8924706Y-7329460D01*
X8924706Y-7329460D02*
X8905658Y-7338984D01*
X8905658Y-7338984D02*
X8877087Y-7338984D01*
X9058039Y-7338984D02*
X9038992Y-7329460D01*
X9038992Y-7329460D02*
X9029468Y-7310412D01*
X9029468Y-7310412D02*
X9029468Y-7138984D01*
X9210420Y-7329460D02*
X9191373Y-7338984D01*
X9191373Y-7338984D02*
X9153277Y-7338984D01*
X9153277Y-7338984D02*
X9134230Y-7329460D01*
X9134230Y-7329460D02*
X9124706Y-7310412D01*
X9124706Y-7310412D02*
X9124706Y-7234222D01*
X9124706Y-7234222D02*
X9134230Y-7215174D01*
X9134230Y-7215174D02*
X9153277Y-7205650D01*
X9153277Y-7205650D02*
X9191373Y-7205650D01*
X9191373Y-7205650D02*
X9210420Y-7215174D01*
X9210420Y-7215174D02*
X9219944Y-7234222D01*
X9219944Y-7234222D02*
X9219944Y-7253269D01*
X9219944Y-7253269D02*
X9124706Y-7272317D01*
X9296134Y-7329460D02*
X9315182Y-7338984D01*
X9315182Y-7338984D02*
X9353277Y-7338984D01*
X9353277Y-7338984D02*
X9372325Y-7329460D01*
X9372325Y-7329460D02*
X9381849Y-7310412D01*
X9381849Y-7310412D02*
X9381849Y-7300888D01*
X9381849Y-7300888D02*
X9372325Y-7281841D01*
X9372325Y-7281841D02*
X9353277Y-7272317D01*
X9353277Y-7272317D02*
X9324706Y-7272317D01*
X9324706Y-7272317D02*
X9305658Y-7262793D01*
X9305658Y-7262793D02*
X9296134Y-7243746D01*
X9296134Y-7243746D02*
X9296134Y-7234222D01*
X9296134Y-7234222D02*
X9305658Y-7215174D01*
X9305658Y-7215174D02*
X9324706Y-7205650D01*
X9324706Y-7205650D02*
X9353277Y-7205650D01*
X9353277Y-7205650D02*
X9372325Y-7215174D01*
X9448515Y-7415174D02*
X9458039Y-7405650D01*
X9458039Y-7405650D02*
X9477087Y-7377079D01*
X9477087Y-7377079D02*
X9486611Y-7358031D01*
X9486611Y-7358031D02*
X9496134Y-7329460D01*
X9496134Y-7329460D02*
X9505658Y-7281841D01*
X9505658Y-7281841D02*
X9505658Y-7243746D01*
X9505658Y-7243746D02*
X9496134Y-7196127D01*
X9496134Y-7196127D02*
X9486611Y-7167555D01*
X9486611Y-7167555D02*
X9477087Y-7148508D01*
X9477087Y-7148508D02*
X9458039Y-7119936D01*
X9458039Y-7119936D02*
X9448515Y-7110412D01*
D12*
X4292500Y-7511500D02*
G75*
G02*
X4237500Y-7511500I-27500J0D01*
G01*
X4237500Y-7511500D02*
G75*
G02*
X4292500Y-7511500I27500J0D01*
G01*
D11*
X4591372Y-7402984D02*
X4610420Y-7402984D01*
X4610420Y-7402984D02*
X4629467Y-7412508D01*
X4629467Y-7412508D02*
X4638991Y-7422031D01*
X4638991Y-7422031D02*
X4648515Y-7441079D01*
X4648515Y-7441079D02*
X4658039Y-7479174D01*
X4658039Y-7479174D02*
X4658039Y-7526793D01*
X4658039Y-7526793D02*
X4648515Y-7564888D01*
X4648515Y-7564888D02*
X4638991Y-7583936D01*
X4638991Y-7583936D02*
X4629467Y-7593460D01*
X4629467Y-7593460D02*
X4610420Y-7602984D01*
X4610420Y-7602984D02*
X4591372Y-7602984D01*
X4591372Y-7602984D02*
X4572324Y-7593460D01*
X4572324Y-7593460D02*
X4562801Y-7583936D01*
X4562801Y-7583936D02*
X4553277Y-7564888D01*
X4553277Y-7564888D02*
X4543753Y-7526793D01*
X4543753Y-7526793D02*
X4543753Y-7479174D01*
X4543753Y-7479174D02*
X4553277Y-7441079D01*
X4553277Y-7441079D02*
X4562801Y-7422031D01*
X4562801Y-7422031D02*
X4572324Y-7412508D01*
X4572324Y-7412508D02*
X4591372Y-7402984D01*
X4743753Y-7583936D02*
X4753277Y-7593460D01*
X4753277Y-7593460D02*
X4743753Y-7602984D01*
X4743753Y-7602984D02*
X4734229Y-7593460D01*
X4734229Y-7593460D02*
X4743753Y-7583936D01*
X4743753Y-7583936D02*
X4743753Y-7602984D01*
X4934229Y-7402984D02*
X4838991Y-7402984D01*
X4838991Y-7402984D02*
X4829467Y-7498222D01*
X4829467Y-7498222D02*
X4838991Y-7488698D01*
X4838991Y-7488698D02*
X4858039Y-7479174D01*
X4858039Y-7479174D02*
X4905658Y-7479174D01*
X4905658Y-7479174D02*
X4924705Y-7488698D01*
X4924705Y-7488698D02*
X4934229Y-7498222D01*
X4934229Y-7498222D02*
X4943753Y-7517269D01*
X4943753Y-7517269D02*
X4943753Y-7564888D01*
X4943753Y-7564888D02*
X4934229Y-7583936D01*
X4934229Y-7583936D02*
X4924705Y-7593460D01*
X4924705Y-7593460D02*
X4905658Y-7602984D01*
X4905658Y-7602984D02*
X4858039Y-7602984D01*
X4858039Y-7602984D02*
X4838991Y-7593460D01*
X4838991Y-7593460D02*
X4829467Y-7583936D01*
X5124705Y-7402984D02*
X5029467Y-7402984D01*
X5029467Y-7402984D02*
X5019944Y-7498222D01*
X5019944Y-7498222D02*
X5029467Y-7488698D01*
X5029467Y-7488698D02*
X5048515Y-7479174D01*
X5048515Y-7479174D02*
X5096134Y-7479174D01*
X5096134Y-7479174D02*
X5115182Y-7488698D01*
X5115182Y-7488698D02*
X5124705Y-7498222D01*
X5124705Y-7498222D02*
X5134229Y-7517269D01*
X5134229Y-7517269D02*
X5134229Y-7564888D01*
X5134229Y-7564888D02*
X5124705Y-7583936D01*
X5124705Y-7583936D02*
X5115182Y-7593460D01*
X5115182Y-7593460D02*
X5096134Y-7602984D01*
X5096134Y-7602984D02*
X5048515Y-7602984D01*
X5048515Y-7602984D02*
X5029467Y-7593460D01*
X5029467Y-7593460D02*
X5019944Y-7583936D01*
X5258039Y-7402984D02*
X5277086Y-7402984D01*
X5277086Y-7402984D02*
X5296134Y-7412508D01*
X5296134Y-7412508D02*
X5305658Y-7422031D01*
X5305658Y-7422031D02*
X5315182Y-7441079D01*
X5315182Y-7441079D02*
X5324705Y-7479174D01*
X5324705Y-7479174D02*
X5324705Y-7526793D01*
X5324705Y-7526793D02*
X5315182Y-7564888D01*
X5315182Y-7564888D02*
X5305658Y-7583936D01*
X5305658Y-7583936D02*
X5296134Y-7593460D01*
X5296134Y-7593460D02*
X5277086Y-7602984D01*
X5277086Y-7602984D02*
X5258039Y-7602984D01*
X5258039Y-7602984D02*
X5238991Y-7593460D01*
X5238991Y-7593460D02*
X5229467Y-7583936D01*
X5229467Y-7583936D02*
X5219944Y-7564888D01*
X5219944Y-7564888D02*
X5210420Y-7526793D01*
X5210420Y-7526793D02*
X5210420Y-7479174D01*
X5210420Y-7479174D02*
X5219944Y-7441079D01*
X5219944Y-7441079D02*
X5229467Y-7422031D01*
X5229467Y-7422031D02*
X5238991Y-7412508D01*
X5238991Y-7412508D02*
X5258039Y-7402984D01*
X5410420Y-7602984D02*
X5410420Y-7469650D01*
X5410420Y-7488698D02*
X5419944Y-7479174D01*
X5419944Y-7479174D02*
X5438991Y-7469650D01*
X5438991Y-7469650D02*
X5467563Y-7469650D01*
X5467563Y-7469650D02*
X5486610Y-7479174D01*
X5486610Y-7479174D02*
X5496134Y-7498222D01*
X5496134Y-7498222D02*
X5496134Y-7602984D01*
X5496134Y-7498222D02*
X5505658Y-7479174D01*
X5505658Y-7479174D02*
X5524705Y-7469650D01*
X5524705Y-7469650D02*
X5553277Y-7469650D01*
X5553277Y-7469650D02*
X5572325Y-7479174D01*
X5572325Y-7479174D02*
X5581848Y-7498222D01*
X5581848Y-7498222D02*
X5581848Y-7602984D01*
X5677086Y-7602984D02*
X5677086Y-7469650D01*
X5677086Y-7488698D02*
X5686610Y-7479174D01*
X5686610Y-7479174D02*
X5705658Y-7469650D01*
X5705658Y-7469650D02*
X5734229Y-7469650D01*
X5734229Y-7469650D02*
X5753277Y-7479174D01*
X5753277Y-7479174D02*
X5762801Y-7498222D01*
X5762801Y-7498222D02*
X5762801Y-7602984D01*
X5762801Y-7498222D02*
X5772324Y-7479174D01*
X5772324Y-7479174D02*
X5791372Y-7469650D01*
X5791372Y-7469650D02*
X5819943Y-7469650D01*
X5819943Y-7469650D02*
X5838991Y-7479174D01*
X5838991Y-7479174D02*
X5848515Y-7498222D01*
X5848515Y-7498222D02*
X5848515Y-7602984D01*
X6238991Y-7393460D02*
X6067563Y-7650603D01*
X6496134Y-7402984D02*
X6515182Y-7402984D01*
X6515182Y-7402984D02*
X6534229Y-7412508D01*
X6534229Y-7412508D02*
X6543753Y-7422031D01*
X6543753Y-7422031D02*
X6553277Y-7441079D01*
X6553277Y-7441079D02*
X6562801Y-7479174D01*
X6562801Y-7479174D02*
X6562801Y-7526793D01*
X6562801Y-7526793D02*
X6553277Y-7564888D01*
X6553277Y-7564888D02*
X6543753Y-7583936D01*
X6543753Y-7583936D02*
X6534229Y-7593460D01*
X6534229Y-7593460D02*
X6515182Y-7602984D01*
X6515182Y-7602984D02*
X6496134Y-7602984D01*
X6496134Y-7602984D02*
X6477086Y-7593460D01*
X6477086Y-7593460D02*
X6467563Y-7583936D01*
X6467563Y-7583936D02*
X6458039Y-7564888D01*
X6458039Y-7564888D02*
X6448515Y-7526793D01*
X6448515Y-7526793D02*
X6448515Y-7479174D01*
X6448515Y-7479174D02*
X6458039Y-7441079D01*
X6458039Y-7441079D02*
X6467563Y-7422031D01*
X6467563Y-7422031D02*
X6477086Y-7412508D01*
X6477086Y-7412508D02*
X6496134Y-7402984D01*
X6648515Y-7583936D02*
X6658039Y-7593460D01*
X6658039Y-7593460D02*
X6648515Y-7602984D01*
X6648515Y-7602984D02*
X6638991Y-7593460D01*
X6638991Y-7593460D02*
X6648515Y-7583936D01*
X6648515Y-7583936D02*
X6648515Y-7602984D01*
X6781848Y-7402984D02*
X6800896Y-7402984D01*
X6800896Y-7402984D02*
X6819944Y-7412508D01*
X6819944Y-7412508D02*
X6829467Y-7422031D01*
X6829467Y-7422031D02*
X6838991Y-7441079D01*
X6838991Y-7441079D02*
X6848515Y-7479174D01*
X6848515Y-7479174D02*
X6848515Y-7526793D01*
X6848515Y-7526793D02*
X6838991Y-7564888D01*
X6838991Y-7564888D02*
X6829467Y-7583936D01*
X6829467Y-7583936D02*
X6819944Y-7593460D01*
X6819944Y-7593460D02*
X6800896Y-7602984D01*
X6800896Y-7602984D02*
X6781848Y-7602984D01*
X6781848Y-7602984D02*
X6762801Y-7593460D01*
X6762801Y-7593460D02*
X6753277Y-7583936D01*
X6753277Y-7583936D02*
X6743753Y-7564888D01*
X6743753Y-7564888D02*
X6734229Y-7526793D01*
X6734229Y-7526793D02*
X6734229Y-7479174D01*
X6734229Y-7479174D02*
X6743753Y-7441079D01*
X6743753Y-7441079D02*
X6753277Y-7422031D01*
X6753277Y-7422031D02*
X6762801Y-7412508D01*
X6762801Y-7412508D02*
X6781848Y-7402984D01*
X6924706Y-7422031D02*
X6934229Y-7412508D01*
X6934229Y-7412508D02*
X6953277Y-7402984D01*
X6953277Y-7402984D02*
X7000896Y-7402984D01*
X7000896Y-7402984D02*
X7019944Y-7412508D01*
X7019944Y-7412508D02*
X7029467Y-7422031D01*
X7029467Y-7422031D02*
X7038991Y-7441079D01*
X7038991Y-7441079D02*
X7038991Y-7460127D01*
X7038991Y-7460127D02*
X7029467Y-7488698D01*
X7029467Y-7488698D02*
X6915182Y-7602984D01*
X6915182Y-7602984D02*
X7038991Y-7602984D01*
X7229467Y-7602984D02*
X7115182Y-7602984D01*
X7172325Y-7602984D02*
X7172325Y-7402984D01*
X7172325Y-7402984D02*
X7153277Y-7431555D01*
X7153277Y-7431555D02*
X7134229Y-7450603D01*
X7134229Y-7450603D02*
X7115182Y-7460127D01*
X7296134Y-7402984D02*
X7429467Y-7402984D01*
X7429467Y-7402984D02*
X7343753Y-7602984D01*
X7496134Y-7402984D02*
X7496134Y-7441079D01*
X7572325Y-7402984D02*
X7572325Y-7441079D01*
X7867563Y-7679174D02*
X7858039Y-7669650D01*
X7858039Y-7669650D02*
X7838991Y-7641079D01*
X7838991Y-7641079D02*
X7829468Y-7622031D01*
X7829468Y-7622031D02*
X7819944Y-7593460D01*
X7819944Y-7593460D02*
X7810420Y-7545841D01*
X7810420Y-7545841D02*
X7810420Y-7507746D01*
X7810420Y-7507746D02*
X7819944Y-7460127D01*
X7819944Y-7460127D02*
X7829468Y-7431555D01*
X7829468Y-7431555D02*
X7838991Y-7412508D01*
X7838991Y-7412508D02*
X7858039Y-7383936D01*
X7858039Y-7383936D02*
X7867563Y-7374412D01*
X7981848Y-7402984D02*
X8000896Y-7402984D01*
X8000896Y-7402984D02*
X8019944Y-7412508D01*
X8019944Y-7412508D02*
X8029468Y-7422031D01*
X8029468Y-7422031D02*
X8038991Y-7441079D01*
X8038991Y-7441079D02*
X8048515Y-7479174D01*
X8048515Y-7479174D02*
X8048515Y-7526793D01*
X8048515Y-7526793D02*
X8038991Y-7564888D01*
X8038991Y-7564888D02*
X8029468Y-7583936D01*
X8029468Y-7583936D02*
X8019944Y-7593460D01*
X8019944Y-7593460D02*
X8000896Y-7602984D01*
X8000896Y-7602984D02*
X7981848Y-7602984D01*
X7981848Y-7602984D02*
X7962801Y-7593460D01*
X7962801Y-7593460D02*
X7953277Y-7583936D01*
X7953277Y-7583936D02*
X7943753Y-7564888D01*
X7943753Y-7564888D02*
X7934229Y-7526793D01*
X7934229Y-7526793D02*
X7934229Y-7479174D01*
X7934229Y-7479174D02*
X7943753Y-7441079D01*
X7943753Y-7441079D02*
X7953277Y-7422031D01*
X7953277Y-7422031D02*
X7962801Y-7412508D01*
X7962801Y-7412508D02*
X7981848Y-7402984D01*
X8286610Y-7602984D02*
X8286610Y-7402984D01*
X8372325Y-7602984D02*
X8372325Y-7498222D01*
X8372325Y-7498222D02*
X8362801Y-7479174D01*
X8362801Y-7479174D02*
X8343753Y-7469650D01*
X8343753Y-7469650D02*
X8315182Y-7469650D01*
X8315182Y-7469650D02*
X8296134Y-7479174D01*
X8296134Y-7479174D02*
X8286610Y-7488698D01*
X8496134Y-7602984D02*
X8477087Y-7593460D01*
X8477087Y-7593460D02*
X8467563Y-7583936D01*
X8467563Y-7583936D02*
X8458039Y-7564888D01*
X8458039Y-7564888D02*
X8458039Y-7507746D01*
X8458039Y-7507746D02*
X8467563Y-7488698D01*
X8467563Y-7488698D02*
X8477087Y-7479174D01*
X8477087Y-7479174D02*
X8496134Y-7469650D01*
X8496134Y-7469650D02*
X8524706Y-7469650D01*
X8524706Y-7469650D02*
X8543753Y-7479174D01*
X8543753Y-7479174D02*
X8553277Y-7488698D01*
X8553277Y-7488698D02*
X8562801Y-7507746D01*
X8562801Y-7507746D02*
X8562801Y-7564888D01*
X8562801Y-7564888D02*
X8553277Y-7583936D01*
X8553277Y-7583936D02*
X8543753Y-7593460D01*
X8543753Y-7593460D02*
X8524706Y-7602984D01*
X8524706Y-7602984D02*
X8496134Y-7602984D01*
X8677087Y-7602984D02*
X8658039Y-7593460D01*
X8658039Y-7593460D02*
X8648515Y-7574412D01*
X8648515Y-7574412D02*
X8648515Y-7402984D01*
X8829468Y-7593460D02*
X8810420Y-7602984D01*
X8810420Y-7602984D02*
X8772325Y-7602984D01*
X8772325Y-7602984D02*
X8753277Y-7593460D01*
X8753277Y-7593460D02*
X8743753Y-7574412D01*
X8743753Y-7574412D02*
X8743753Y-7498222D01*
X8743753Y-7498222D02*
X8753277Y-7479174D01*
X8753277Y-7479174D02*
X8772325Y-7469650D01*
X8772325Y-7469650D02*
X8810420Y-7469650D01*
X8810420Y-7469650D02*
X8829468Y-7479174D01*
X8829468Y-7479174D02*
X8838992Y-7498222D01*
X8838992Y-7498222D02*
X8838992Y-7517269D01*
X8838992Y-7517269D02*
X8743753Y-7536317D01*
X8915182Y-7593460D02*
X8934230Y-7602984D01*
X8934230Y-7602984D02*
X8972325Y-7602984D01*
X8972325Y-7602984D02*
X8991373Y-7593460D01*
X8991373Y-7593460D02*
X9000896Y-7574412D01*
X9000896Y-7574412D02*
X9000896Y-7564888D01*
X9000896Y-7564888D02*
X8991373Y-7545841D01*
X8991373Y-7545841D02*
X8972325Y-7536317D01*
X8972325Y-7536317D02*
X8943753Y-7536317D01*
X8943753Y-7536317D02*
X8924706Y-7526793D01*
X8924706Y-7526793D02*
X8915182Y-7507746D01*
X8915182Y-7507746D02*
X8915182Y-7498222D01*
X8915182Y-7498222D02*
X8924706Y-7479174D01*
X8924706Y-7479174D02*
X8943753Y-7469650D01*
X8943753Y-7469650D02*
X8972325Y-7469650D01*
X8972325Y-7469650D02*
X8991373Y-7479174D01*
X9238992Y-7526793D02*
X9391373Y-7526793D01*
X9315182Y-7602984D02*
X9315182Y-7450603D01*
X9629468Y-7422031D02*
X9638992Y-7412508D01*
X9638992Y-7412508D02*
X9658039Y-7402984D01*
X9658039Y-7402984D02*
X9705658Y-7402984D01*
X9705658Y-7402984D02*
X9724706Y-7412508D01*
X9724706Y-7412508D02*
X9734230Y-7422031D01*
X9734230Y-7422031D02*
X9743754Y-7441079D01*
X9743754Y-7441079D02*
X9743754Y-7460127D01*
X9743754Y-7460127D02*
X9734230Y-7488698D01*
X9734230Y-7488698D02*
X9619944Y-7602984D01*
X9619944Y-7602984D02*
X9743754Y-7602984D01*
X9972325Y-7593460D02*
X9991373Y-7602984D01*
X9991373Y-7602984D02*
X10029468Y-7602984D01*
X10029468Y-7602984D02*
X10048516Y-7593460D01*
X10048516Y-7593460D02*
X10058039Y-7574412D01*
X10058039Y-7574412D02*
X10058039Y-7564888D01*
X10058039Y-7564888D02*
X10048516Y-7545841D01*
X10048516Y-7545841D02*
X10029468Y-7536317D01*
X10029468Y-7536317D02*
X10000896Y-7536317D01*
X10000896Y-7536317D02*
X9981849Y-7526793D01*
X9981849Y-7526793D02*
X9972325Y-7507746D01*
X9972325Y-7507746D02*
X9972325Y-7498222D01*
X9972325Y-7498222D02*
X9981849Y-7479174D01*
X9981849Y-7479174D02*
X10000896Y-7469650D01*
X10000896Y-7469650D02*
X10029468Y-7469650D01*
X10029468Y-7469650D02*
X10048516Y-7479174D01*
X10172325Y-7602984D02*
X10153277Y-7593460D01*
X10153277Y-7593460D02*
X10143754Y-7574412D01*
X10143754Y-7574412D02*
X10143754Y-7402984D01*
X10277087Y-7602984D02*
X10258039Y-7593460D01*
X10258039Y-7593460D02*
X10248516Y-7583936D01*
X10248516Y-7583936D02*
X10238992Y-7564888D01*
X10238992Y-7564888D02*
X10238992Y-7507746D01*
X10238992Y-7507746D02*
X10248516Y-7488698D01*
X10248516Y-7488698D02*
X10258039Y-7479174D01*
X10258039Y-7479174D02*
X10277087Y-7469650D01*
X10277087Y-7469650D02*
X10305658Y-7469650D01*
X10305658Y-7469650D02*
X10324706Y-7479174D01*
X10324706Y-7479174D02*
X10334230Y-7488698D01*
X10334230Y-7488698D02*
X10343754Y-7507746D01*
X10343754Y-7507746D02*
X10343754Y-7564888D01*
X10343754Y-7564888D02*
X10334230Y-7583936D01*
X10334230Y-7583936D02*
X10324706Y-7593460D01*
X10324706Y-7593460D02*
X10305658Y-7602984D01*
X10305658Y-7602984D02*
X10277087Y-7602984D01*
X10400897Y-7469650D02*
X10477087Y-7469650D01*
X10429468Y-7402984D02*
X10429468Y-7574412D01*
X10429468Y-7574412D02*
X10438992Y-7593460D01*
X10438992Y-7593460D02*
X10458039Y-7602984D01*
X10458039Y-7602984D02*
X10477087Y-7602984D01*
X10534230Y-7593460D02*
X10553277Y-7602984D01*
X10553277Y-7602984D02*
X10591373Y-7602984D01*
X10591373Y-7602984D02*
X10610420Y-7593460D01*
X10610420Y-7593460D02*
X10619944Y-7574412D01*
X10619944Y-7574412D02*
X10619944Y-7564888D01*
X10619944Y-7564888D02*
X10610420Y-7545841D01*
X10610420Y-7545841D02*
X10591373Y-7536317D01*
X10591373Y-7536317D02*
X10562801Y-7536317D01*
X10562801Y-7536317D02*
X10543754Y-7526793D01*
X10543754Y-7526793D02*
X10534230Y-7507746D01*
X10534230Y-7507746D02*
X10534230Y-7498222D01*
X10534230Y-7498222D02*
X10543754Y-7479174D01*
X10543754Y-7479174D02*
X10562801Y-7469650D01*
X10562801Y-7469650D02*
X10591373Y-7469650D01*
X10591373Y-7469650D02*
X10610420Y-7479174D01*
X10686611Y-7679174D02*
X10696135Y-7669650D01*
X10696135Y-7669650D02*
X10715182Y-7641079D01*
X10715182Y-7641079D02*
X10724706Y-7622031D01*
X10724706Y-7622031D02*
X10734230Y-7593460D01*
X10734230Y-7593460D02*
X10743754Y-7545841D01*
X10743754Y-7545841D02*
X10743754Y-7507746D01*
X10743754Y-7507746D02*
X10734230Y-7460127D01*
X10734230Y-7460127D02*
X10724706Y-7431555D01*
X10724706Y-7431555D02*
X10715182Y-7412508D01*
X10715182Y-7412508D02*
X10696135Y-7383936D01*
X10696135Y-7383936D02*
X10686611Y-7374412D01*
D12*
X4250000Y-7733000D02*
X4250000Y-7818000D01*
X4207500Y-7775500D02*
X4292500Y-7775500D01*
D11*
X4591372Y-7666984D02*
X4610420Y-7666984D01*
X4610420Y-7666984D02*
X4629467Y-7676508D01*
X4629467Y-7676508D02*
X4638991Y-7686031D01*
X4638991Y-7686031D02*
X4648515Y-7705079D01*
X4648515Y-7705079D02*
X4658039Y-7743174D01*
X4658039Y-7743174D02*
X4658039Y-7790793D01*
X4658039Y-7790793D02*
X4648515Y-7828888D01*
X4648515Y-7828888D02*
X4638991Y-7847936D01*
X4638991Y-7847936D02*
X4629467Y-7857460D01*
X4629467Y-7857460D02*
X4610420Y-7866984D01*
X4610420Y-7866984D02*
X4591372Y-7866984D01*
X4591372Y-7866984D02*
X4572324Y-7857460D01*
X4572324Y-7857460D02*
X4562801Y-7847936D01*
X4562801Y-7847936D02*
X4553277Y-7828888D01*
X4553277Y-7828888D02*
X4543753Y-7790793D01*
X4543753Y-7790793D02*
X4543753Y-7743174D01*
X4543753Y-7743174D02*
X4553277Y-7705079D01*
X4553277Y-7705079D02*
X4562801Y-7686031D01*
X4562801Y-7686031D02*
X4572324Y-7676508D01*
X4572324Y-7676508D02*
X4591372Y-7666984D01*
X4743753Y-7847936D02*
X4753277Y-7857460D01*
X4753277Y-7857460D02*
X4743753Y-7866984D01*
X4743753Y-7866984D02*
X4734229Y-7857460D01*
X4734229Y-7857460D02*
X4743753Y-7847936D01*
X4743753Y-7847936D02*
X4743753Y-7866984D01*
X4867563Y-7752698D02*
X4848515Y-7743174D01*
X4848515Y-7743174D02*
X4838991Y-7733650D01*
X4838991Y-7733650D02*
X4829467Y-7714603D01*
X4829467Y-7714603D02*
X4829467Y-7705079D01*
X4829467Y-7705079D02*
X4838991Y-7686031D01*
X4838991Y-7686031D02*
X4848515Y-7676508D01*
X4848515Y-7676508D02*
X4867563Y-7666984D01*
X4867563Y-7666984D02*
X4905658Y-7666984D01*
X4905658Y-7666984D02*
X4924705Y-7676508D01*
X4924705Y-7676508D02*
X4934229Y-7686031D01*
X4934229Y-7686031D02*
X4943753Y-7705079D01*
X4943753Y-7705079D02*
X4943753Y-7714603D01*
X4943753Y-7714603D02*
X4934229Y-7733650D01*
X4934229Y-7733650D02*
X4924705Y-7743174D01*
X4924705Y-7743174D02*
X4905658Y-7752698D01*
X4905658Y-7752698D02*
X4867563Y-7752698D01*
X4867563Y-7752698D02*
X4848515Y-7762222D01*
X4848515Y-7762222D02*
X4838991Y-7771746D01*
X4838991Y-7771746D02*
X4829467Y-7790793D01*
X4829467Y-7790793D02*
X4829467Y-7828888D01*
X4829467Y-7828888D02*
X4838991Y-7847936D01*
X4838991Y-7847936D02*
X4848515Y-7857460D01*
X4848515Y-7857460D02*
X4867563Y-7866984D01*
X4867563Y-7866984D02*
X4905658Y-7866984D01*
X4905658Y-7866984D02*
X4924705Y-7857460D01*
X4924705Y-7857460D02*
X4934229Y-7847936D01*
X4934229Y-7847936D02*
X4943753Y-7828888D01*
X4943753Y-7828888D02*
X4943753Y-7790793D01*
X4943753Y-7790793D02*
X4934229Y-7771746D01*
X4934229Y-7771746D02*
X4924705Y-7762222D01*
X4924705Y-7762222D02*
X4905658Y-7752698D01*
X5124705Y-7666984D02*
X5029467Y-7666984D01*
X5029467Y-7666984D02*
X5019944Y-7762222D01*
X5019944Y-7762222D02*
X5029467Y-7752698D01*
X5029467Y-7752698D02*
X5048515Y-7743174D01*
X5048515Y-7743174D02*
X5096134Y-7743174D01*
X5096134Y-7743174D02*
X5115182Y-7752698D01*
X5115182Y-7752698D02*
X5124705Y-7762222D01*
X5124705Y-7762222D02*
X5134229Y-7781269D01*
X5134229Y-7781269D02*
X5134229Y-7828888D01*
X5134229Y-7828888D02*
X5124705Y-7847936D01*
X5124705Y-7847936D02*
X5115182Y-7857460D01*
X5115182Y-7857460D02*
X5096134Y-7866984D01*
X5096134Y-7866984D02*
X5048515Y-7866984D01*
X5048515Y-7866984D02*
X5029467Y-7857460D01*
X5029467Y-7857460D02*
X5019944Y-7847936D01*
X5258039Y-7666984D02*
X5277086Y-7666984D01*
X5277086Y-7666984D02*
X5296134Y-7676508D01*
X5296134Y-7676508D02*
X5305658Y-7686031D01*
X5305658Y-7686031D02*
X5315182Y-7705079D01*
X5315182Y-7705079D02*
X5324705Y-7743174D01*
X5324705Y-7743174D02*
X5324705Y-7790793D01*
X5324705Y-7790793D02*
X5315182Y-7828888D01*
X5315182Y-7828888D02*
X5305658Y-7847936D01*
X5305658Y-7847936D02*
X5296134Y-7857460D01*
X5296134Y-7857460D02*
X5277086Y-7866984D01*
X5277086Y-7866984D02*
X5258039Y-7866984D01*
X5258039Y-7866984D02*
X5238991Y-7857460D01*
X5238991Y-7857460D02*
X5229467Y-7847936D01*
X5229467Y-7847936D02*
X5219944Y-7828888D01*
X5219944Y-7828888D02*
X5210420Y-7790793D01*
X5210420Y-7790793D02*
X5210420Y-7743174D01*
X5210420Y-7743174D02*
X5219944Y-7705079D01*
X5219944Y-7705079D02*
X5229467Y-7686031D01*
X5229467Y-7686031D02*
X5238991Y-7676508D01*
X5238991Y-7676508D02*
X5258039Y-7666984D01*
X5410420Y-7866984D02*
X5410420Y-7733650D01*
X5410420Y-7752698D02*
X5419944Y-7743174D01*
X5419944Y-7743174D02*
X5438991Y-7733650D01*
X5438991Y-7733650D02*
X5467563Y-7733650D01*
X5467563Y-7733650D02*
X5486610Y-7743174D01*
X5486610Y-7743174D02*
X5496134Y-7762222D01*
X5496134Y-7762222D02*
X5496134Y-7866984D01*
X5496134Y-7762222D02*
X5505658Y-7743174D01*
X5505658Y-7743174D02*
X5524705Y-7733650D01*
X5524705Y-7733650D02*
X5553277Y-7733650D01*
X5553277Y-7733650D02*
X5572325Y-7743174D01*
X5572325Y-7743174D02*
X5581848Y-7762222D01*
X5581848Y-7762222D02*
X5581848Y-7866984D01*
X5677086Y-7866984D02*
X5677086Y-7733650D01*
X5677086Y-7752698D02*
X5686610Y-7743174D01*
X5686610Y-7743174D02*
X5705658Y-7733650D01*
X5705658Y-7733650D02*
X5734229Y-7733650D01*
X5734229Y-7733650D02*
X5753277Y-7743174D01*
X5753277Y-7743174D02*
X5762801Y-7762222D01*
X5762801Y-7762222D02*
X5762801Y-7866984D01*
X5762801Y-7762222D02*
X5772324Y-7743174D01*
X5772324Y-7743174D02*
X5791372Y-7733650D01*
X5791372Y-7733650D02*
X5819943Y-7733650D01*
X5819943Y-7733650D02*
X5838991Y-7743174D01*
X5838991Y-7743174D02*
X5848515Y-7762222D01*
X5848515Y-7762222D02*
X5848515Y-7866984D01*
X6238991Y-7657460D02*
X6067563Y-7914603D01*
X6496134Y-7666984D02*
X6515182Y-7666984D01*
X6515182Y-7666984D02*
X6534229Y-7676508D01*
X6534229Y-7676508D02*
X6543753Y-7686031D01*
X6543753Y-7686031D02*
X6553277Y-7705079D01*
X6553277Y-7705079D02*
X6562801Y-7743174D01*
X6562801Y-7743174D02*
X6562801Y-7790793D01*
X6562801Y-7790793D02*
X6553277Y-7828888D01*
X6553277Y-7828888D02*
X6543753Y-7847936D01*
X6543753Y-7847936D02*
X6534229Y-7857460D01*
X6534229Y-7857460D02*
X6515182Y-7866984D01*
X6515182Y-7866984D02*
X6496134Y-7866984D01*
X6496134Y-7866984D02*
X6477086Y-7857460D01*
X6477086Y-7857460D02*
X6467563Y-7847936D01*
X6467563Y-7847936D02*
X6458039Y-7828888D01*
X6458039Y-7828888D02*
X6448515Y-7790793D01*
X6448515Y-7790793D02*
X6448515Y-7743174D01*
X6448515Y-7743174D02*
X6458039Y-7705079D01*
X6458039Y-7705079D02*
X6467563Y-7686031D01*
X6467563Y-7686031D02*
X6477086Y-7676508D01*
X6477086Y-7676508D02*
X6496134Y-7666984D01*
X6648515Y-7847936D02*
X6658039Y-7857460D01*
X6658039Y-7857460D02*
X6648515Y-7866984D01*
X6648515Y-7866984D02*
X6638991Y-7857460D01*
X6638991Y-7857460D02*
X6648515Y-7847936D01*
X6648515Y-7847936D02*
X6648515Y-7866984D01*
X6781848Y-7666984D02*
X6800896Y-7666984D01*
X6800896Y-7666984D02*
X6819944Y-7676508D01*
X6819944Y-7676508D02*
X6829467Y-7686031D01*
X6829467Y-7686031D02*
X6838991Y-7705079D01*
X6838991Y-7705079D02*
X6848515Y-7743174D01*
X6848515Y-7743174D02*
X6848515Y-7790793D01*
X6848515Y-7790793D02*
X6838991Y-7828888D01*
X6838991Y-7828888D02*
X6829467Y-7847936D01*
X6829467Y-7847936D02*
X6819944Y-7857460D01*
X6819944Y-7857460D02*
X6800896Y-7866984D01*
X6800896Y-7866984D02*
X6781848Y-7866984D01*
X6781848Y-7866984D02*
X6762801Y-7857460D01*
X6762801Y-7857460D02*
X6753277Y-7847936D01*
X6753277Y-7847936D02*
X6743753Y-7828888D01*
X6743753Y-7828888D02*
X6734229Y-7790793D01*
X6734229Y-7790793D02*
X6734229Y-7743174D01*
X6734229Y-7743174D02*
X6743753Y-7705079D01*
X6743753Y-7705079D02*
X6753277Y-7686031D01*
X6753277Y-7686031D02*
X6762801Y-7676508D01*
X6762801Y-7676508D02*
X6781848Y-7666984D01*
X6915182Y-7666984D02*
X7038991Y-7666984D01*
X7038991Y-7666984D02*
X6972325Y-7743174D01*
X6972325Y-7743174D02*
X7000896Y-7743174D01*
X7000896Y-7743174D02*
X7019944Y-7752698D01*
X7019944Y-7752698D02*
X7029467Y-7762222D01*
X7029467Y-7762222D02*
X7038991Y-7781269D01*
X7038991Y-7781269D02*
X7038991Y-7828888D01*
X7038991Y-7828888D02*
X7029467Y-7847936D01*
X7029467Y-7847936D02*
X7019944Y-7857460D01*
X7019944Y-7857460D02*
X7000896Y-7866984D01*
X7000896Y-7866984D02*
X6943753Y-7866984D01*
X6943753Y-7866984D02*
X6924706Y-7857460D01*
X6924706Y-7857460D02*
X6915182Y-7847936D01*
X7105658Y-7666984D02*
X7229467Y-7666984D01*
X7229467Y-7666984D02*
X7162801Y-7743174D01*
X7162801Y-7743174D02*
X7191372Y-7743174D01*
X7191372Y-7743174D02*
X7210420Y-7752698D01*
X7210420Y-7752698D02*
X7219944Y-7762222D01*
X7219944Y-7762222D02*
X7229467Y-7781269D01*
X7229467Y-7781269D02*
X7229467Y-7828888D01*
X7229467Y-7828888D02*
X7219944Y-7847936D01*
X7219944Y-7847936D02*
X7210420Y-7857460D01*
X7210420Y-7857460D02*
X7191372Y-7866984D01*
X7191372Y-7866984D02*
X7134229Y-7866984D01*
X7134229Y-7866984D02*
X7115182Y-7857460D01*
X7115182Y-7857460D02*
X7105658Y-7847936D01*
X7410420Y-7666984D02*
X7315182Y-7666984D01*
X7315182Y-7666984D02*
X7305658Y-7762222D01*
X7305658Y-7762222D02*
X7315182Y-7752698D01*
X7315182Y-7752698D02*
X7334229Y-7743174D01*
X7334229Y-7743174D02*
X7381848Y-7743174D01*
X7381848Y-7743174D02*
X7400896Y-7752698D01*
X7400896Y-7752698D02*
X7410420Y-7762222D01*
X7410420Y-7762222D02*
X7419944Y-7781269D01*
X7419944Y-7781269D02*
X7419944Y-7828888D01*
X7419944Y-7828888D02*
X7410420Y-7847936D01*
X7410420Y-7847936D02*
X7400896Y-7857460D01*
X7400896Y-7857460D02*
X7381848Y-7866984D01*
X7381848Y-7866984D02*
X7334229Y-7866984D01*
X7334229Y-7866984D02*
X7315182Y-7857460D01*
X7315182Y-7857460D02*
X7305658Y-7847936D01*
X7496134Y-7666984D02*
X7496134Y-7705079D01*
X7572325Y-7666984D02*
X7572325Y-7705079D01*
X7867563Y-7943174D02*
X7858039Y-7933650D01*
X7858039Y-7933650D02*
X7838991Y-7905079D01*
X7838991Y-7905079D02*
X7829468Y-7886031D01*
X7829468Y-7886031D02*
X7819944Y-7857460D01*
X7819944Y-7857460D02*
X7810420Y-7809841D01*
X7810420Y-7809841D02*
X7810420Y-7771746D01*
X7810420Y-7771746D02*
X7819944Y-7724127D01*
X7819944Y-7724127D02*
X7829468Y-7695555D01*
X7829468Y-7695555D02*
X7838991Y-7676508D01*
X7838991Y-7676508D02*
X7858039Y-7647936D01*
X7858039Y-7647936D02*
X7867563Y-7638412D01*
X7981848Y-7666984D02*
X8000896Y-7666984D01*
X8000896Y-7666984D02*
X8019944Y-7676508D01*
X8019944Y-7676508D02*
X8029468Y-7686031D01*
X8029468Y-7686031D02*
X8038991Y-7705079D01*
X8038991Y-7705079D02*
X8048515Y-7743174D01*
X8048515Y-7743174D02*
X8048515Y-7790793D01*
X8048515Y-7790793D02*
X8038991Y-7828888D01*
X8038991Y-7828888D02*
X8029468Y-7847936D01*
X8029468Y-7847936D02*
X8019944Y-7857460D01*
X8019944Y-7857460D02*
X8000896Y-7866984D01*
X8000896Y-7866984D02*
X7981848Y-7866984D01*
X7981848Y-7866984D02*
X7962801Y-7857460D01*
X7962801Y-7857460D02*
X7953277Y-7847936D01*
X7953277Y-7847936D02*
X7943753Y-7828888D01*
X7943753Y-7828888D02*
X7934229Y-7790793D01*
X7934229Y-7790793D02*
X7934229Y-7743174D01*
X7934229Y-7743174D02*
X7943753Y-7705079D01*
X7943753Y-7705079D02*
X7953277Y-7686031D01*
X7953277Y-7686031D02*
X7962801Y-7676508D01*
X7962801Y-7676508D02*
X7981848Y-7666984D01*
X8286610Y-7866984D02*
X8286610Y-7666984D01*
X8372325Y-7866984D02*
X8372325Y-7762222D01*
X8372325Y-7762222D02*
X8362801Y-7743174D01*
X8362801Y-7743174D02*
X8343753Y-7733650D01*
X8343753Y-7733650D02*
X8315182Y-7733650D01*
X8315182Y-7733650D02*
X8296134Y-7743174D01*
X8296134Y-7743174D02*
X8286610Y-7752698D01*
X8496134Y-7866984D02*
X8477087Y-7857460D01*
X8477087Y-7857460D02*
X8467563Y-7847936D01*
X8467563Y-7847936D02*
X8458039Y-7828888D01*
X8458039Y-7828888D02*
X8458039Y-7771746D01*
X8458039Y-7771746D02*
X8467563Y-7752698D01*
X8467563Y-7752698D02*
X8477087Y-7743174D01*
X8477087Y-7743174D02*
X8496134Y-7733650D01*
X8496134Y-7733650D02*
X8524706Y-7733650D01*
X8524706Y-7733650D02*
X8543753Y-7743174D01*
X8543753Y-7743174D02*
X8553277Y-7752698D01*
X8553277Y-7752698D02*
X8562801Y-7771746D01*
X8562801Y-7771746D02*
X8562801Y-7828888D01*
X8562801Y-7828888D02*
X8553277Y-7847936D01*
X8553277Y-7847936D02*
X8543753Y-7857460D01*
X8543753Y-7857460D02*
X8524706Y-7866984D01*
X8524706Y-7866984D02*
X8496134Y-7866984D01*
X8677087Y-7866984D02*
X8658039Y-7857460D01*
X8658039Y-7857460D02*
X8648515Y-7838412D01*
X8648515Y-7838412D02*
X8648515Y-7666984D01*
X8829468Y-7857460D02*
X8810420Y-7866984D01*
X8810420Y-7866984D02*
X8772325Y-7866984D01*
X8772325Y-7866984D02*
X8753277Y-7857460D01*
X8753277Y-7857460D02*
X8743753Y-7838412D01*
X8743753Y-7838412D02*
X8743753Y-7762222D01*
X8743753Y-7762222D02*
X8753277Y-7743174D01*
X8753277Y-7743174D02*
X8772325Y-7733650D01*
X8772325Y-7733650D02*
X8810420Y-7733650D01*
X8810420Y-7733650D02*
X8829468Y-7743174D01*
X8829468Y-7743174D02*
X8838992Y-7762222D01*
X8838992Y-7762222D02*
X8838992Y-7781269D01*
X8838992Y-7781269D02*
X8743753Y-7800317D01*
X8915182Y-7857460D02*
X8934230Y-7866984D01*
X8934230Y-7866984D02*
X8972325Y-7866984D01*
X8972325Y-7866984D02*
X8991373Y-7857460D01*
X8991373Y-7857460D02*
X9000896Y-7838412D01*
X9000896Y-7838412D02*
X9000896Y-7828888D01*
X9000896Y-7828888D02*
X8991373Y-7809841D01*
X8991373Y-7809841D02*
X8972325Y-7800317D01*
X8972325Y-7800317D02*
X8943753Y-7800317D01*
X8943753Y-7800317D02*
X8924706Y-7790793D01*
X8924706Y-7790793D02*
X8915182Y-7771746D01*
X8915182Y-7771746D02*
X8915182Y-7762222D01*
X8915182Y-7762222D02*
X8924706Y-7743174D01*
X8924706Y-7743174D02*
X8943753Y-7733650D01*
X8943753Y-7733650D02*
X8972325Y-7733650D01*
X8972325Y-7733650D02*
X8991373Y-7743174D01*
X9238992Y-7790793D02*
X9391373Y-7790793D01*
X9315182Y-7866984D02*
X9315182Y-7714603D01*
X9629468Y-7686031D02*
X9638992Y-7676508D01*
X9638992Y-7676508D02*
X9658039Y-7666984D01*
X9658039Y-7666984D02*
X9705658Y-7666984D01*
X9705658Y-7666984D02*
X9724706Y-7676508D01*
X9724706Y-7676508D02*
X9734230Y-7686031D01*
X9734230Y-7686031D02*
X9743754Y-7705079D01*
X9743754Y-7705079D02*
X9743754Y-7724127D01*
X9743754Y-7724127D02*
X9734230Y-7752698D01*
X9734230Y-7752698D02*
X9619944Y-7866984D01*
X9619944Y-7866984D02*
X9743754Y-7866984D01*
X9972325Y-7857460D02*
X9991373Y-7866984D01*
X9991373Y-7866984D02*
X10029468Y-7866984D01*
X10029468Y-7866984D02*
X10048516Y-7857460D01*
X10048516Y-7857460D02*
X10058039Y-7838412D01*
X10058039Y-7838412D02*
X10058039Y-7828888D01*
X10058039Y-7828888D02*
X10048516Y-7809841D01*
X10048516Y-7809841D02*
X10029468Y-7800317D01*
X10029468Y-7800317D02*
X10000896Y-7800317D01*
X10000896Y-7800317D02*
X9981849Y-7790793D01*
X9981849Y-7790793D02*
X9972325Y-7771746D01*
X9972325Y-7771746D02*
X9972325Y-7762222D01*
X9972325Y-7762222D02*
X9981849Y-7743174D01*
X9981849Y-7743174D02*
X10000896Y-7733650D01*
X10000896Y-7733650D02*
X10029468Y-7733650D01*
X10029468Y-7733650D02*
X10048516Y-7743174D01*
X10172325Y-7866984D02*
X10153277Y-7857460D01*
X10153277Y-7857460D02*
X10143754Y-7838412D01*
X10143754Y-7838412D02*
X10143754Y-7666984D01*
X10277087Y-7866984D02*
X10258039Y-7857460D01*
X10258039Y-7857460D02*
X10248516Y-7847936D01*
X10248516Y-7847936D02*
X10238992Y-7828888D01*
X10238992Y-7828888D02*
X10238992Y-7771746D01*
X10238992Y-7771746D02*
X10248516Y-7752698D01*
X10248516Y-7752698D02*
X10258039Y-7743174D01*
X10258039Y-7743174D02*
X10277087Y-7733650D01*
X10277087Y-7733650D02*
X10305658Y-7733650D01*
X10305658Y-7733650D02*
X10324706Y-7743174D01*
X10324706Y-7743174D02*
X10334230Y-7752698D01*
X10334230Y-7752698D02*
X10343754Y-7771746D01*
X10343754Y-7771746D02*
X10343754Y-7828888D01*
X10343754Y-7828888D02*
X10334230Y-7847936D01*
X10334230Y-7847936D02*
X10324706Y-7857460D01*
X10324706Y-7857460D02*
X10305658Y-7866984D01*
X10305658Y-7866984D02*
X10277087Y-7866984D01*
X10400897Y-7733650D02*
X10477087Y-7733650D01*
X10429468Y-7666984D02*
X10429468Y-7838412D01*
X10429468Y-7838412D02*
X10438992Y-7857460D01*
X10438992Y-7857460D02*
X10458039Y-7866984D01*
X10458039Y-7866984D02*
X10477087Y-7866984D01*
X10534230Y-7857460D02*
X10553277Y-7866984D01*
X10553277Y-7866984D02*
X10591373Y-7866984D01*
X10591373Y-7866984D02*
X10610420Y-7857460D01*
X10610420Y-7857460D02*
X10619944Y-7838412D01*
X10619944Y-7838412D02*
X10619944Y-7828888D01*
X10619944Y-7828888D02*
X10610420Y-7809841D01*
X10610420Y-7809841D02*
X10591373Y-7800317D01*
X10591373Y-7800317D02*
X10562801Y-7800317D01*
X10562801Y-7800317D02*
X10543754Y-7790793D01*
X10543754Y-7790793D02*
X10534230Y-7771746D01*
X10534230Y-7771746D02*
X10534230Y-7762222D01*
X10534230Y-7762222D02*
X10543754Y-7743174D01*
X10543754Y-7743174D02*
X10562801Y-7733650D01*
X10562801Y-7733650D02*
X10591373Y-7733650D01*
X10591373Y-7733650D02*
X10610420Y-7743174D01*
X10686611Y-7943174D02*
X10696135Y-7933650D01*
X10696135Y-7933650D02*
X10715182Y-7905079D01*
X10715182Y-7905079D02*
X10724706Y-7886031D01*
X10724706Y-7886031D02*
X10734230Y-7857460D01*
X10734230Y-7857460D02*
X10743754Y-7809841D01*
X10743754Y-7809841D02*
X10743754Y-7771746D01*
X10743754Y-7771746D02*
X10734230Y-7724127D01*
X10734230Y-7724127D02*
X10724706Y-7695555D01*
X10724706Y-7695555D02*
X10715182Y-7676508D01*
X10715182Y-7676508D02*
X10696135Y-7647936D01*
X10696135Y-7647936D02*
X10686611Y-7638412D01*
D12*
X4277856Y-8074856D02*
X4277856Y-8004144D01*
X4207144Y-8004144D01*
X4207144Y-8074856D01*
X4277856Y-8074856D01*
D11*
X4658039Y-8130984D02*
X4543753Y-8130984D01*
X4600896Y-8130984D02*
X4600896Y-7930984D01*
X4600896Y-7930984D02*
X4581848Y-7959555D01*
X4581848Y-7959555D02*
X4562801Y-7978603D01*
X4562801Y-7978603D02*
X4543753Y-7988127D01*
X4743753Y-8111936D02*
X4753277Y-8121460D01*
X4753277Y-8121460D02*
X4743753Y-8130984D01*
X4743753Y-8130984D02*
X4734229Y-8121460D01*
X4734229Y-8121460D02*
X4743753Y-8111936D01*
X4743753Y-8111936D02*
X4743753Y-8130984D01*
X4877086Y-7930984D02*
X4896134Y-7930984D01*
X4896134Y-7930984D02*
X4915182Y-7940508D01*
X4915182Y-7940508D02*
X4924705Y-7950031D01*
X4924705Y-7950031D02*
X4934229Y-7969079D01*
X4934229Y-7969079D02*
X4943753Y-8007174D01*
X4943753Y-8007174D02*
X4943753Y-8054793D01*
X4943753Y-8054793D02*
X4934229Y-8092888D01*
X4934229Y-8092888D02*
X4924705Y-8111936D01*
X4924705Y-8111936D02*
X4915182Y-8121460D01*
X4915182Y-8121460D02*
X4896134Y-8130984D01*
X4896134Y-8130984D02*
X4877086Y-8130984D01*
X4877086Y-8130984D02*
X4858039Y-8121460D01*
X4858039Y-8121460D02*
X4848515Y-8111936D01*
X4848515Y-8111936D02*
X4838991Y-8092888D01*
X4838991Y-8092888D02*
X4829467Y-8054793D01*
X4829467Y-8054793D02*
X4829467Y-8007174D01*
X4829467Y-8007174D02*
X4838991Y-7969079D01*
X4838991Y-7969079D02*
X4848515Y-7950031D01*
X4848515Y-7950031D02*
X4858039Y-7940508D01*
X4858039Y-7940508D02*
X4877086Y-7930984D01*
X5067563Y-7930984D02*
X5086610Y-7930984D01*
X5086610Y-7930984D02*
X5105658Y-7940508D01*
X5105658Y-7940508D02*
X5115182Y-7950031D01*
X5115182Y-7950031D02*
X5124705Y-7969079D01*
X5124705Y-7969079D02*
X5134229Y-8007174D01*
X5134229Y-8007174D02*
X5134229Y-8054793D01*
X5134229Y-8054793D02*
X5124705Y-8092888D01*
X5124705Y-8092888D02*
X5115182Y-8111936D01*
X5115182Y-8111936D02*
X5105658Y-8121460D01*
X5105658Y-8121460D02*
X5086610Y-8130984D01*
X5086610Y-8130984D02*
X5067563Y-8130984D01*
X5067563Y-8130984D02*
X5048515Y-8121460D01*
X5048515Y-8121460D02*
X5038991Y-8111936D01*
X5038991Y-8111936D02*
X5029467Y-8092888D01*
X5029467Y-8092888D02*
X5019944Y-8054793D01*
X5019944Y-8054793D02*
X5019944Y-8007174D01*
X5019944Y-8007174D02*
X5029467Y-7969079D01*
X5029467Y-7969079D02*
X5038991Y-7950031D01*
X5038991Y-7950031D02*
X5048515Y-7940508D01*
X5048515Y-7940508D02*
X5067563Y-7930984D01*
X5258039Y-7930984D02*
X5277086Y-7930984D01*
X5277086Y-7930984D02*
X5296134Y-7940508D01*
X5296134Y-7940508D02*
X5305658Y-7950031D01*
X5305658Y-7950031D02*
X5315182Y-7969079D01*
X5315182Y-7969079D02*
X5324705Y-8007174D01*
X5324705Y-8007174D02*
X5324705Y-8054793D01*
X5324705Y-8054793D02*
X5315182Y-8092888D01*
X5315182Y-8092888D02*
X5305658Y-8111936D01*
X5305658Y-8111936D02*
X5296134Y-8121460D01*
X5296134Y-8121460D02*
X5277086Y-8130984D01*
X5277086Y-8130984D02*
X5258039Y-8130984D01*
X5258039Y-8130984D02*
X5238991Y-8121460D01*
X5238991Y-8121460D02*
X5229467Y-8111936D01*
X5229467Y-8111936D02*
X5219944Y-8092888D01*
X5219944Y-8092888D02*
X5210420Y-8054793D01*
X5210420Y-8054793D02*
X5210420Y-8007174D01*
X5210420Y-8007174D02*
X5219944Y-7969079D01*
X5219944Y-7969079D02*
X5229467Y-7950031D01*
X5229467Y-7950031D02*
X5238991Y-7940508D01*
X5238991Y-7940508D02*
X5258039Y-7930984D01*
X5410420Y-8130984D02*
X5410420Y-7997650D01*
X5410420Y-8016698D02*
X5419944Y-8007174D01*
X5419944Y-8007174D02*
X5438991Y-7997650D01*
X5438991Y-7997650D02*
X5467563Y-7997650D01*
X5467563Y-7997650D02*
X5486610Y-8007174D01*
X5486610Y-8007174D02*
X5496134Y-8026222D01*
X5496134Y-8026222D02*
X5496134Y-8130984D01*
X5496134Y-8026222D02*
X5505658Y-8007174D01*
X5505658Y-8007174D02*
X5524705Y-7997650D01*
X5524705Y-7997650D02*
X5553277Y-7997650D01*
X5553277Y-7997650D02*
X5572325Y-8007174D01*
X5572325Y-8007174D02*
X5581848Y-8026222D01*
X5581848Y-8026222D02*
X5581848Y-8130984D01*
X5677086Y-8130984D02*
X5677086Y-7997650D01*
X5677086Y-8016698D02*
X5686610Y-8007174D01*
X5686610Y-8007174D02*
X5705658Y-7997650D01*
X5705658Y-7997650D02*
X5734229Y-7997650D01*
X5734229Y-7997650D02*
X5753277Y-8007174D01*
X5753277Y-8007174D02*
X5762801Y-8026222D01*
X5762801Y-8026222D02*
X5762801Y-8130984D01*
X5762801Y-8026222D02*
X5772324Y-8007174D01*
X5772324Y-8007174D02*
X5791372Y-7997650D01*
X5791372Y-7997650D02*
X5819943Y-7997650D01*
X5819943Y-7997650D02*
X5838991Y-8007174D01*
X5838991Y-8007174D02*
X5848515Y-8026222D01*
X5848515Y-8026222D02*
X5848515Y-8130984D01*
X6238991Y-7921460D02*
X6067563Y-8178603D01*
X6496134Y-7930984D02*
X6515182Y-7930984D01*
X6515182Y-7930984D02*
X6534229Y-7940508D01*
X6534229Y-7940508D02*
X6543753Y-7950031D01*
X6543753Y-7950031D02*
X6553277Y-7969079D01*
X6553277Y-7969079D02*
X6562801Y-8007174D01*
X6562801Y-8007174D02*
X6562801Y-8054793D01*
X6562801Y-8054793D02*
X6553277Y-8092888D01*
X6553277Y-8092888D02*
X6543753Y-8111936D01*
X6543753Y-8111936D02*
X6534229Y-8121460D01*
X6534229Y-8121460D02*
X6515182Y-8130984D01*
X6515182Y-8130984D02*
X6496134Y-8130984D01*
X6496134Y-8130984D02*
X6477086Y-8121460D01*
X6477086Y-8121460D02*
X6467563Y-8111936D01*
X6467563Y-8111936D02*
X6458039Y-8092888D01*
X6458039Y-8092888D02*
X6448515Y-8054793D01*
X6448515Y-8054793D02*
X6448515Y-8007174D01*
X6448515Y-8007174D02*
X6458039Y-7969079D01*
X6458039Y-7969079D02*
X6467563Y-7950031D01*
X6467563Y-7950031D02*
X6477086Y-7940508D01*
X6477086Y-7940508D02*
X6496134Y-7930984D01*
X6648515Y-8111936D02*
X6658039Y-8121460D01*
X6658039Y-8121460D02*
X6648515Y-8130984D01*
X6648515Y-8130984D02*
X6638991Y-8121460D01*
X6638991Y-8121460D02*
X6648515Y-8111936D01*
X6648515Y-8111936D02*
X6648515Y-8130984D01*
X6781848Y-7930984D02*
X6800896Y-7930984D01*
X6800896Y-7930984D02*
X6819944Y-7940508D01*
X6819944Y-7940508D02*
X6829467Y-7950031D01*
X6829467Y-7950031D02*
X6838991Y-7969079D01*
X6838991Y-7969079D02*
X6848515Y-8007174D01*
X6848515Y-8007174D02*
X6848515Y-8054793D01*
X6848515Y-8054793D02*
X6838991Y-8092888D01*
X6838991Y-8092888D02*
X6829467Y-8111936D01*
X6829467Y-8111936D02*
X6819944Y-8121460D01*
X6819944Y-8121460D02*
X6800896Y-8130984D01*
X6800896Y-8130984D02*
X6781848Y-8130984D01*
X6781848Y-8130984D02*
X6762801Y-8121460D01*
X6762801Y-8121460D02*
X6753277Y-8111936D01*
X6753277Y-8111936D02*
X6743753Y-8092888D01*
X6743753Y-8092888D02*
X6734229Y-8054793D01*
X6734229Y-8054793D02*
X6734229Y-8007174D01*
X6734229Y-8007174D02*
X6743753Y-7969079D01*
X6743753Y-7969079D02*
X6753277Y-7950031D01*
X6753277Y-7950031D02*
X6762801Y-7940508D01*
X6762801Y-7940508D02*
X6781848Y-7930984D01*
X6915182Y-7930984D02*
X7038991Y-7930984D01*
X7038991Y-7930984D02*
X6972325Y-8007174D01*
X6972325Y-8007174D02*
X7000896Y-8007174D01*
X7000896Y-8007174D02*
X7019944Y-8016698D01*
X7019944Y-8016698D02*
X7029467Y-8026222D01*
X7029467Y-8026222D02*
X7038991Y-8045269D01*
X7038991Y-8045269D02*
X7038991Y-8092888D01*
X7038991Y-8092888D02*
X7029467Y-8111936D01*
X7029467Y-8111936D02*
X7019944Y-8121460D01*
X7019944Y-8121460D02*
X7000896Y-8130984D01*
X7000896Y-8130984D02*
X6943753Y-8130984D01*
X6943753Y-8130984D02*
X6924706Y-8121460D01*
X6924706Y-8121460D02*
X6915182Y-8111936D01*
X7134229Y-8130984D02*
X7172325Y-8130984D01*
X7172325Y-8130984D02*
X7191372Y-8121460D01*
X7191372Y-8121460D02*
X7200896Y-8111936D01*
X7200896Y-8111936D02*
X7219944Y-8083365D01*
X7219944Y-8083365D02*
X7229467Y-8045269D01*
X7229467Y-8045269D02*
X7229467Y-7969079D01*
X7229467Y-7969079D02*
X7219944Y-7950031D01*
X7219944Y-7950031D02*
X7210420Y-7940508D01*
X7210420Y-7940508D02*
X7191372Y-7930984D01*
X7191372Y-7930984D02*
X7153277Y-7930984D01*
X7153277Y-7930984D02*
X7134229Y-7940508D01*
X7134229Y-7940508D02*
X7124706Y-7950031D01*
X7124706Y-7950031D02*
X7115182Y-7969079D01*
X7115182Y-7969079D02*
X7115182Y-8016698D01*
X7115182Y-8016698D02*
X7124706Y-8035746D01*
X7124706Y-8035746D02*
X7134229Y-8045269D01*
X7134229Y-8045269D02*
X7153277Y-8054793D01*
X7153277Y-8054793D02*
X7191372Y-8054793D01*
X7191372Y-8054793D02*
X7210420Y-8045269D01*
X7210420Y-8045269D02*
X7219944Y-8035746D01*
X7219944Y-8035746D02*
X7229467Y-8016698D01*
X7400896Y-7997650D02*
X7400896Y-8130984D01*
X7353277Y-7921460D02*
X7305658Y-8064317D01*
X7305658Y-8064317D02*
X7429467Y-8064317D01*
X7496134Y-7930984D02*
X7496134Y-7969079D01*
X7572325Y-7930984D02*
X7572325Y-7969079D01*
X7867563Y-8207174D02*
X7858039Y-8197650D01*
X7858039Y-8197650D02*
X7838991Y-8169079D01*
X7838991Y-8169079D02*
X7829468Y-8150031D01*
X7829468Y-8150031D02*
X7819944Y-8121460D01*
X7819944Y-8121460D02*
X7810420Y-8073841D01*
X7810420Y-8073841D02*
X7810420Y-8035746D01*
X7810420Y-8035746D02*
X7819944Y-7988127D01*
X7819944Y-7988127D02*
X7829468Y-7959555D01*
X7829468Y-7959555D02*
X7838991Y-7940508D01*
X7838991Y-7940508D02*
X7858039Y-7911936D01*
X7858039Y-7911936D02*
X7867563Y-7902412D01*
X8038991Y-7930984D02*
X7943753Y-7930984D01*
X7943753Y-7930984D02*
X7934229Y-8026222D01*
X7934229Y-8026222D02*
X7943753Y-8016698D01*
X7943753Y-8016698D02*
X7962801Y-8007174D01*
X7962801Y-8007174D02*
X8010420Y-8007174D01*
X8010420Y-8007174D02*
X8029468Y-8016698D01*
X8029468Y-8016698D02*
X8038991Y-8026222D01*
X8038991Y-8026222D02*
X8048515Y-8045269D01*
X8048515Y-8045269D02*
X8048515Y-8092888D01*
X8048515Y-8092888D02*
X8038991Y-8111936D01*
X8038991Y-8111936D02*
X8029468Y-8121460D01*
X8029468Y-8121460D02*
X8010420Y-8130984D01*
X8010420Y-8130984D02*
X7962801Y-8130984D01*
X7962801Y-8130984D02*
X7943753Y-8121460D01*
X7943753Y-8121460D02*
X7934229Y-8111936D01*
X8286610Y-8130984D02*
X8286610Y-7930984D01*
X8372325Y-8130984D02*
X8372325Y-8026222D01*
X8372325Y-8026222D02*
X8362801Y-8007174D01*
X8362801Y-8007174D02*
X8343753Y-7997650D01*
X8343753Y-7997650D02*
X8315182Y-7997650D01*
X8315182Y-7997650D02*
X8296134Y-8007174D01*
X8296134Y-8007174D02*
X8286610Y-8016698D01*
X8496134Y-8130984D02*
X8477087Y-8121460D01*
X8477087Y-8121460D02*
X8467563Y-8111936D01*
X8467563Y-8111936D02*
X8458039Y-8092888D01*
X8458039Y-8092888D02*
X8458039Y-8035746D01*
X8458039Y-8035746D02*
X8467563Y-8016698D01*
X8467563Y-8016698D02*
X8477087Y-8007174D01*
X8477087Y-8007174D02*
X8496134Y-7997650D01*
X8496134Y-7997650D02*
X8524706Y-7997650D01*
X8524706Y-7997650D02*
X8543753Y-8007174D01*
X8543753Y-8007174D02*
X8553277Y-8016698D01*
X8553277Y-8016698D02*
X8562801Y-8035746D01*
X8562801Y-8035746D02*
X8562801Y-8092888D01*
X8562801Y-8092888D02*
X8553277Y-8111936D01*
X8553277Y-8111936D02*
X8543753Y-8121460D01*
X8543753Y-8121460D02*
X8524706Y-8130984D01*
X8524706Y-8130984D02*
X8496134Y-8130984D01*
X8677087Y-8130984D02*
X8658039Y-8121460D01*
X8658039Y-8121460D02*
X8648515Y-8102412D01*
X8648515Y-8102412D02*
X8648515Y-7930984D01*
X8829468Y-8121460D02*
X8810420Y-8130984D01*
X8810420Y-8130984D02*
X8772325Y-8130984D01*
X8772325Y-8130984D02*
X8753277Y-8121460D01*
X8753277Y-8121460D02*
X8743753Y-8102412D01*
X8743753Y-8102412D02*
X8743753Y-8026222D01*
X8743753Y-8026222D02*
X8753277Y-8007174D01*
X8753277Y-8007174D02*
X8772325Y-7997650D01*
X8772325Y-7997650D02*
X8810420Y-7997650D01*
X8810420Y-7997650D02*
X8829468Y-8007174D01*
X8829468Y-8007174D02*
X8838992Y-8026222D01*
X8838992Y-8026222D02*
X8838992Y-8045269D01*
X8838992Y-8045269D02*
X8743753Y-8064317D01*
X8915182Y-8121460D02*
X8934230Y-8130984D01*
X8934230Y-8130984D02*
X8972325Y-8130984D01*
X8972325Y-8130984D02*
X8991373Y-8121460D01*
X8991373Y-8121460D02*
X9000896Y-8102412D01*
X9000896Y-8102412D02*
X9000896Y-8092888D01*
X9000896Y-8092888D02*
X8991373Y-8073841D01*
X8991373Y-8073841D02*
X8972325Y-8064317D01*
X8972325Y-8064317D02*
X8943753Y-8064317D01*
X8943753Y-8064317D02*
X8924706Y-8054793D01*
X8924706Y-8054793D02*
X8915182Y-8035746D01*
X8915182Y-8035746D02*
X8915182Y-8026222D01*
X8915182Y-8026222D02*
X8924706Y-8007174D01*
X8924706Y-8007174D02*
X8943753Y-7997650D01*
X8943753Y-7997650D02*
X8972325Y-7997650D01*
X8972325Y-7997650D02*
X8991373Y-8007174D01*
X9067563Y-8207174D02*
X9077087Y-8197650D01*
X9077087Y-8197650D02*
X9096134Y-8169079D01*
X9096134Y-8169079D02*
X9105658Y-8150031D01*
X9105658Y-8150031D02*
X9115182Y-8121460D01*
X9115182Y-8121460D02*
X9124706Y-8073841D01*
X9124706Y-8073841D02*
X9124706Y-8035746D01*
X9124706Y-8035746D02*
X9115182Y-7988127D01*
X9115182Y-7988127D02*
X9105658Y-7959555D01*
X9105658Y-7959555D02*
X9096134Y-7940508D01*
X9096134Y-7940508D02*
X9077087Y-7911936D01*
X9077087Y-7911936D02*
X9067563Y-7902412D01*
D10*
X4217500Y-8378500D02*
X4292500Y-8303500D01*
X4217500Y-8228500D01*
X4142500Y-8303500D01*
X4217500Y-8378500D01*
D11*
X4658039Y-8394984D02*
X4543753Y-8394984D01*
X4600896Y-8394984D02*
X4600896Y-8194984D01*
X4600896Y-8194984D02*
X4581848Y-8223555D01*
X4581848Y-8223555D02*
X4562801Y-8242603D01*
X4562801Y-8242603D02*
X4543753Y-8252127D01*
X4743753Y-8375936D02*
X4753277Y-8385460D01*
X4753277Y-8385460D02*
X4743753Y-8394984D01*
X4743753Y-8394984D02*
X4734229Y-8385460D01*
X4734229Y-8385460D02*
X4743753Y-8375936D01*
X4743753Y-8375936D02*
X4743753Y-8394984D01*
X4934229Y-8194984D02*
X4838991Y-8194984D01*
X4838991Y-8194984D02*
X4829467Y-8290222D01*
X4829467Y-8290222D02*
X4838991Y-8280698D01*
X4838991Y-8280698D02*
X4858039Y-8271174D01*
X4858039Y-8271174D02*
X4905658Y-8271174D01*
X4905658Y-8271174D02*
X4924705Y-8280698D01*
X4924705Y-8280698D02*
X4934229Y-8290222D01*
X4934229Y-8290222D02*
X4943753Y-8309269D01*
X4943753Y-8309269D02*
X4943753Y-8356888D01*
X4943753Y-8356888D02*
X4934229Y-8375936D01*
X4934229Y-8375936D02*
X4924705Y-8385460D01*
X4924705Y-8385460D02*
X4905658Y-8394984D01*
X4905658Y-8394984D02*
X4858039Y-8394984D01*
X4858039Y-8394984D02*
X4838991Y-8385460D01*
X4838991Y-8385460D02*
X4829467Y-8375936D01*
X5067563Y-8194984D02*
X5086610Y-8194984D01*
X5086610Y-8194984D02*
X5105658Y-8204508D01*
X5105658Y-8204508D02*
X5115182Y-8214031D01*
X5115182Y-8214031D02*
X5124705Y-8233079D01*
X5124705Y-8233079D02*
X5134229Y-8271174D01*
X5134229Y-8271174D02*
X5134229Y-8318793D01*
X5134229Y-8318793D02*
X5124705Y-8356888D01*
X5124705Y-8356888D02*
X5115182Y-8375936D01*
X5115182Y-8375936D02*
X5105658Y-8385460D01*
X5105658Y-8385460D02*
X5086610Y-8394984D01*
X5086610Y-8394984D02*
X5067563Y-8394984D01*
X5067563Y-8394984D02*
X5048515Y-8385460D01*
X5048515Y-8385460D02*
X5038991Y-8375936D01*
X5038991Y-8375936D02*
X5029467Y-8356888D01*
X5029467Y-8356888D02*
X5019944Y-8318793D01*
X5019944Y-8318793D02*
X5019944Y-8271174D01*
X5019944Y-8271174D02*
X5029467Y-8233079D01*
X5029467Y-8233079D02*
X5038991Y-8214031D01*
X5038991Y-8214031D02*
X5048515Y-8204508D01*
X5048515Y-8204508D02*
X5067563Y-8194984D01*
X5258039Y-8194984D02*
X5277086Y-8194984D01*
X5277086Y-8194984D02*
X5296134Y-8204508D01*
X5296134Y-8204508D02*
X5305658Y-8214031D01*
X5305658Y-8214031D02*
X5315182Y-8233079D01*
X5315182Y-8233079D02*
X5324705Y-8271174D01*
X5324705Y-8271174D02*
X5324705Y-8318793D01*
X5324705Y-8318793D02*
X5315182Y-8356888D01*
X5315182Y-8356888D02*
X5305658Y-8375936D01*
X5305658Y-8375936D02*
X5296134Y-8385460D01*
X5296134Y-8385460D02*
X5277086Y-8394984D01*
X5277086Y-8394984D02*
X5258039Y-8394984D01*
X5258039Y-8394984D02*
X5238991Y-8385460D01*
X5238991Y-8385460D02*
X5229467Y-8375936D01*
X5229467Y-8375936D02*
X5219944Y-8356888D01*
X5219944Y-8356888D02*
X5210420Y-8318793D01*
X5210420Y-8318793D02*
X5210420Y-8271174D01*
X5210420Y-8271174D02*
X5219944Y-8233079D01*
X5219944Y-8233079D02*
X5229467Y-8214031D01*
X5229467Y-8214031D02*
X5238991Y-8204508D01*
X5238991Y-8204508D02*
X5258039Y-8194984D01*
X5410420Y-8394984D02*
X5410420Y-8261650D01*
X5410420Y-8280698D02*
X5419944Y-8271174D01*
X5419944Y-8271174D02*
X5438991Y-8261650D01*
X5438991Y-8261650D02*
X5467563Y-8261650D01*
X5467563Y-8261650D02*
X5486610Y-8271174D01*
X5486610Y-8271174D02*
X5496134Y-8290222D01*
X5496134Y-8290222D02*
X5496134Y-8394984D01*
X5496134Y-8290222D02*
X5505658Y-8271174D01*
X5505658Y-8271174D02*
X5524705Y-8261650D01*
X5524705Y-8261650D02*
X5553277Y-8261650D01*
X5553277Y-8261650D02*
X5572325Y-8271174D01*
X5572325Y-8271174D02*
X5581848Y-8290222D01*
X5581848Y-8290222D02*
X5581848Y-8394984D01*
X5677086Y-8394984D02*
X5677086Y-8261650D01*
X5677086Y-8280698D02*
X5686610Y-8271174D01*
X5686610Y-8271174D02*
X5705658Y-8261650D01*
X5705658Y-8261650D02*
X5734229Y-8261650D01*
X5734229Y-8261650D02*
X5753277Y-8271174D01*
X5753277Y-8271174D02*
X5762801Y-8290222D01*
X5762801Y-8290222D02*
X5762801Y-8394984D01*
X5762801Y-8290222D02*
X5772324Y-8271174D01*
X5772324Y-8271174D02*
X5791372Y-8261650D01*
X5791372Y-8261650D02*
X5819943Y-8261650D01*
X5819943Y-8261650D02*
X5838991Y-8271174D01*
X5838991Y-8271174D02*
X5848515Y-8290222D01*
X5848515Y-8290222D02*
X5848515Y-8394984D01*
X6238991Y-8185460D02*
X6067563Y-8442603D01*
X6496134Y-8194984D02*
X6515182Y-8194984D01*
X6515182Y-8194984D02*
X6534229Y-8204508D01*
X6534229Y-8204508D02*
X6543753Y-8214031D01*
X6543753Y-8214031D02*
X6553277Y-8233079D01*
X6553277Y-8233079D02*
X6562801Y-8271174D01*
X6562801Y-8271174D02*
X6562801Y-8318793D01*
X6562801Y-8318793D02*
X6553277Y-8356888D01*
X6553277Y-8356888D02*
X6543753Y-8375936D01*
X6543753Y-8375936D02*
X6534229Y-8385460D01*
X6534229Y-8385460D02*
X6515182Y-8394984D01*
X6515182Y-8394984D02*
X6496134Y-8394984D01*
X6496134Y-8394984D02*
X6477086Y-8385460D01*
X6477086Y-8385460D02*
X6467563Y-8375936D01*
X6467563Y-8375936D02*
X6458039Y-8356888D01*
X6458039Y-8356888D02*
X6448515Y-8318793D01*
X6448515Y-8318793D02*
X6448515Y-8271174D01*
X6448515Y-8271174D02*
X6458039Y-8233079D01*
X6458039Y-8233079D02*
X6467563Y-8214031D01*
X6467563Y-8214031D02*
X6477086Y-8204508D01*
X6477086Y-8204508D02*
X6496134Y-8194984D01*
X6648515Y-8375936D02*
X6658039Y-8385460D01*
X6658039Y-8385460D02*
X6648515Y-8394984D01*
X6648515Y-8394984D02*
X6638991Y-8385460D01*
X6638991Y-8385460D02*
X6648515Y-8375936D01*
X6648515Y-8375936D02*
X6648515Y-8394984D01*
X6781848Y-8194984D02*
X6800896Y-8194984D01*
X6800896Y-8194984D02*
X6819944Y-8204508D01*
X6819944Y-8204508D02*
X6829467Y-8214031D01*
X6829467Y-8214031D02*
X6838991Y-8233079D01*
X6838991Y-8233079D02*
X6848515Y-8271174D01*
X6848515Y-8271174D02*
X6848515Y-8318793D01*
X6848515Y-8318793D02*
X6838991Y-8356888D01*
X6838991Y-8356888D02*
X6829467Y-8375936D01*
X6829467Y-8375936D02*
X6819944Y-8385460D01*
X6819944Y-8385460D02*
X6800896Y-8394984D01*
X6800896Y-8394984D02*
X6781848Y-8394984D01*
X6781848Y-8394984D02*
X6762801Y-8385460D01*
X6762801Y-8385460D02*
X6753277Y-8375936D01*
X6753277Y-8375936D02*
X6743753Y-8356888D01*
X6743753Y-8356888D02*
X6734229Y-8318793D01*
X6734229Y-8318793D02*
X6734229Y-8271174D01*
X6734229Y-8271174D02*
X6743753Y-8233079D01*
X6743753Y-8233079D02*
X6753277Y-8214031D01*
X6753277Y-8214031D02*
X6762801Y-8204508D01*
X6762801Y-8204508D02*
X6781848Y-8194984D01*
X7029467Y-8194984D02*
X6934229Y-8194984D01*
X6934229Y-8194984D02*
X6924706Y-8290222D01*
X6924706Y-8290222D02*
X6934229Y-8280698D01*
X6934229Y-8280698D02*
X6953277Y-8271174D01*
X6953277Y-8271174D02*
X7000896Y-8271174D01*
X7000896Y-8271174D02*
X7019944Y-8280698D01*
X7019944Y-8280698D02*
X7029467Y-8290222D01*
X7029467Y-8290222D02*
X7038991Y-8309269D01*
X7038991Y-8309269D02*
X7038991Y-8356888D01*
X7038991Y-8356888D02*
X7029467Y-8375936D01*
X7029467Y-8375936D02*
X7019944Y-8385460D01*
X7019944Y-8385460D02*
X7000896Y-8394984D01*
X7000896Y-8394984D02*
X6953277Y-8394984D01*
X6953277Y-8394984D02*
X6934229Y-8385460D01*
X6934229Y-8385460D02*
X6924706Y-8375936D01*
X7134229Y-8394984D02*
X7172325Y-8394984D01*
X7172325Y-8394984D02*
X7191372Y-8385460D01*
X7191372Y-8385460D02*
X7200896Y-8375936D01*
X7200896Y-8375936D02*
X7219944Y-8347365D01*
X7219944Y-8347365D02*
X7229467Y-8309269D01*
X7229467Y-8309269D02*
X7229467Y-8233079D01*
X7229467Y-8233079D02*
X7219944Y-8214031D01*
X7219944Y-8214031D02*
X7210420Y-8204508D01*
X7210420Y-8204508D02*
X7191372Y-8194984D01*
X7191372Y-8194984D02*
X7153277Y-8194984D01*
X7153277Y-8194984D02*
X7134229Y-8204508D01*
X7134229Y-8204508D02*
X7124706Y-8214031D01*
X7124706Y-8214031D02*
X7115182Y-8233079D01*
X7115182Y-8233079D02*
X7115182Y-8280698D01*
X7115182Y-8280698D02*
X7124706Y-8299746D01*
X7124706Y-8299746D02*
X7134229Y-8309269D01*
X7134229Y-8309269D02*
X7153277Y-8318793D01*
X7153277Y-8318793D02*
X7191372Y-8318793D01*
X7191372Y-8318793D02*
X7210420Y-8309269D01*
X7210420Y-8309269D02*
X7219944Y-8299746D01*
X7219944Y-8299746D02*
X7229467Y-8280698D01*
X7419944Y-8394984D02*
X7305658Y-8394984D01*
X7362801Y-8394984D02*
X7362801Y-8194984D01*
X7362801Y-8194984D02*
X7343753Y-8223555D01*
X7343753Y-8223555D02*
X7324706Y-8242603D01*
X7324706Y-8242603D02*
X7305658Y-8252127D01*
X7496134Y-8194984D02*
X7496134Y-8233079D01*
X7572325Y-8194984D02*
X7572325Y-8233079D01*
X7867563Y-8471174D02*
X7858039Y-8461650D01*
X7858039Y-8461650D02*
X7838991Y-8433079D01*
X7838991Y-8433079D02*
X7829468Y-8414031D01*
X7829468Y-8414031D02*
X7819944Y-8385460D01*
X7819944Y-8385460D02*
X7810420Y-8337841D01*
X7810420Y-8337841D02*
X7810420Y-8299746D01*
X7810420Y-8299746D02*
X7819944Y-8252127D01*
X7819944Y-8252127D02*
X7829468Y-8223555D01*
X7829468Y-8223555D02*
X7838991Y-8204508D01*
X7838991Y-8204508D02*
X7858039Y-8175936D01*
X7858039Y-8175936D02*
X7867563Y-8166412D01*
X7924706Y-8194984D02*
X8048515Y-8194984D01*
X8048515Y-8194984D02*
X7981848Y-8271174D01*
X7981848Y-8271174D02*
X8010420Y-8271174D01*
X8010420Y-8271174D02*
X8029468Y-8280698D01*
X8029468Y-8280698D02*
X8038991Y-8290222D01*
X8038991Y-8290222D02*
X8048515Y-8309269D01*
X8048515Y-8309269D02*
X8048515Y-8356888D01*
X8048515Y-8356888D02*
X8038991Y-8375936D01*
X8038991Y-8375936D02*
X8029468Y-8385460D01*
X8029468Y-8385460D02*
X8010420Y-8394984D01*
X8010420Y-8394984D02*
X7953277Y-8394984D01*
X7953277Y-8394984D02*
X7934229Y-8385460D01*
X7934229Y-8385460D02*
X7924706Y-8375936D01*
X8286610Y-8394984D02*
X8286610Y-8194984D01*
X8372325Y-8394984D02*
X8372325Y-8290222D01*
X8372325Y-8290222D02*
X8362801Y-8271174D01*
X8362801Y-8271174D02*
X8343753Y-8261650D01*
X8343753Y-8261650D02*
X8315182Y-8261650D01*
X8315182Y-8261650D02*
X8296134Y-8271174D01*
X8296134Y-8271174D02*
X8286610Y-8280698D01*
X8496134Y-8394984D02*
X8477087Y-8385460D01*
X8477087Y-8385460D02*
X8467563Y-8375936D01*
X8467563Y-8375936D02*
X8458039Y-8356888D01*
X8458039Y-8356888D02*
X8458039Y-8299746D01*
X8458039Y-8299746D02*
X8467563Y-8280698D01*
X8467563Y-8280698D02*
X8477087Y-8271174D01*
X8477087Y-8271174D02*
X8496134Y-8261650D01*
X8496134Y-8261650D02*
X8524706Y-8261650D01*
X8524706Y-8261650D02*
X8543753Y-8271174D01*
X8543753Y-8271174D02*
X8553277Y-8280698D01*
X8553277Y-8280698D02*
X8562801Y-8299746D01*
X8562801Y-8299746D02*
X8562801Y-8356888D01*
X8562801Y-8356888D02*
X8553277Y-8375936D01*
X8553277Y-8375936D02*
X8543753Y-8385460D01*
X8543753Y-8385460D02*
X8524706Y-8394984D01*
X8524706Y-8394984D02*
X8496134Y-8394984D01*
X8677087Y-8394984D02*
X8658039Y-8385460D01*
X8658039Y-8385460D02*
X8648515Y-8366412D01*
X8648515Y-8366412D02*
X8648515Y-8194984D01*
X8829468Y-8385460D02*
X8810420Y-8394984D01*
X8810420Y-8394984D02*
X8772325Y-8394984D01*
X8772325Y-8394984D02*
X8753277Y-8385460D01*
X8753277Y-8385460D02*
X8743753Y-8366412D01*
X8743753Y-8366412D02*
X8743753Y-8290222D01*
X8743753Y-8290222D02*
X8753277Y-8271174D01*
X8753277Y-8271174D02*
X8772325Y-8261650D01*
X8772325Y-8261650D02*
X8810420Y-8261650D01*
X8810420Y-8261650D02*
X8829468Y-8271174D01*
X8829468Y-8271174D02*
X8838992Y-8290222D01*
X8838992Y-8290222D02*
X8838992Y-8309269D01*
X8838992Y-8309269D02*
X8743753Y-8328317D01*
X8915182Y-8385460D02*
X8934230Y-8394984D01*
X8934230Y-8394984D02*
X8972325Y-8394984D01*
X8972325Y-8394984D02*
X8991373Y-8385460D01*
X8991373Y-8385460D02*
X9000896Y-8366412D01*
X9000896Y-8366412D02*
X9000896Y-8356888D01*
X9000896Y-8356888D02*
X8991373Y-8337841D01*
X8991373Y-8337841D02*
X8972325Y-8328317D01*
X8972325Y-8328317D02*
X8943753Y-8328317D01*
X8943753Y-8328317D02*
X8924706Y-8318793D01*
X8924706Y-8318793D02*
X8915182Y-8299746D01*
X8915182Y-8299746D02*
X8915182Y-8290222D01*
X8915182Y-8290222D02*
X8924706Y-8271174D01*
X8924706Y-8271174D02*
X8943753Y-8261650D01*
X8943753Y-8261650D02*
X8972325Y-8261650D01*
X8972325Y-8261650D02*
X8991373Y-8271174D01*
X9067563Y-8471174D02*
X9077087Y-8461650D01*
X9077087Y-8461650D02*
X9096134Y-8433079D01*
X9096134Y-8433079D02*
X9105658Y-8414031D01*
X9105658Y-8414031D02*
X9115182Y-8385460D01*
X9115182Y-8385460D02*
X9124706Y-8337841D01*
X9124706Y-8337841D02*
X9124706Y-8299746D01*
X9124706Y-8299746D02*
X9115182Y-8252127D01*
X9115182Y-8252127D02*
X9105658Y-8223555D01*
X9105658Y-8223555D02*
X9096134Y-8204508D01*
X9096134Y-8204508D02*
X9077087Y-8175936D01*
X9077087Y-8175936D02*
X9067563Y-8166412D01*
M02*
