G04 #@! TF.GenerationSoftware,KiCad,Pcbnew,7.99.0-4156-g4770532511*
G04 #@! TF.CreationDate,2024-01-07T23:02:07-05:00*
G04 #@! TF.ProjectId,emfi,656d6669-2e6b-4696-9361-645f70636258,0.1*
G04 #@! TF.SameCoordinates,Original*
G04 #@! TF.FileFunction,Legend,Top*
G04 #@! TF.FilePolarity,Positive*
%FSLAX46Y46*%
G04 Gerber Fmt 4.6, Leading zero omitted, Abs format (unit mm)*
G04 Created by KiCad (PCBNEW 7.99.0-4156-g4770532511) date 2024-01-07 23:02:07*
%MOMM*%
%LPD*%
G01*
G04 APERTURE LIST*
G04 Aperture macros list*
%AMRoundRect*
0 Rectangle with rounded corners*
0 $1 Rounding radius*
0 $2 $3 $4 $5 $6 $7 $8 $9 X,Y pos of 4 corners*
0 Add a 4 corners polygon primitive as box body*
4,1,4,$2,$3,$4,$5,$6,$7,$8,$9,$2,$3,0*
0 Add four circle primitives for the rounded corners*
1,1,$1+$1,$2,$3*
1,1,$1+$1,$4,$5*
1,1,$1+$1,$6,$7*
1,1,$1+$1,$8,$9*
0 Add four rect primitives between the rounded corners*
20,1,$1+$1,$2,$3,$4,$5,0*
20,1,$1+$1,$4,$5,$6,$7,0*
20,1,$1+$1,$6,$7,$8,$9,0*
20,1,$1+$1,$8,$9,$2,$3,0*%
G04 Aperture macros list end*
%ADD10C,0.125000*%
%ADD11C,0.300000*%
%ADD12C,0.153000*%
%ADD13C,0.000000*%
%ADD14C,0.120000*%
%ADD15C,0.150000*%
%ADD16C,0.010000*%
%ADD17RoundRect,0.218750X-0.218750X-0.256250X0.218750X-0.256250X0.218750X0.256250X-0.218750X0.256250X0*%
%ADD18RoundRect,0.218750X0.218750X0.256250X-0.218750X0.256250X-0.218750X-0.256250X0.218750X-0.256250X0*%
%ADD19C,3.000000*%
%ADD20RoundRect,0.243750X0.243750X0.456250X-0.243750X0.456250X-0.243750X-0.456250X0.243750X-0.456250X0*%
%ADD21RoundRect,0.250000X1.450000X-0.312500X1.450000X0.312500X-1.450000X0.312500X-1.450000X-0.312500X0*%
%ADD22R,0.650000X1.060000*%
%ADD23R,2.540000X2.670000*%
%ADD24R,1.270000X0.762000*%
%ADD25R,0.250000X1.000000*%
%ADD26R,1.000000X0.250000*%
%ADD27R,0.450000X1.750000*%
%ADD28R,1.060000X0.650000*%
%ADD29R,1.700000X1.700000*%
%ADD30O,1.700000X1.700000*%
%ADD31RoundRect,0.218750X-0.256250X0.218750X-0.256250X-0.218750X0.256250X-0.218750X0.256250X0.218750X0*%
%ADD32R,1.800000X3.500000*%
%ADD33RoundRect,0.250000X0.650000X3.050000X-0.650000X3.050000X-0.650000X-3.050000X0.650000X-3.050000X0*%
%ADD34RoundRect,0.250000X-0.650000X-3.050000X0.650000X-3.050000X0.650000X3.050000X-0.650000X3.050000X0*%
%ADD35RoundRect,0.250000X3.050000X-0.650000X3.050000X0.650000X-3.050000X0.650000X-3.050000X-0.650000X0*%
%ADD36RoundRect,0.250000X-3.050000X0.650000X-3.050000X-0.650000X3.050000X-0.650000X3.050000X0.650000X0*%
%ADD37R,1.500000X2.000000*%
%ADD38R,3.800000X2.000000*%
%ADD39RoundRect,0.218750X0.256250X-0.218750X0.256250X0.218750X-0.256250X0.218750X-0.256250X-0.218750X0*%
%ADD40C,0.800000*%
%ADD41R,2.500000X1.000000*%
%ADD42R,6.400000X1.440000*%
%ADD43O,0.800000X0.800000*%
%ADD44R,1.300000X0.450000*%
%ADD45O,1.800000X1.150000*%
%ADD46O,2.000000X1.450000*%
%ADD47R,3.500000X1.800000*%
%ADD48R,0.650000X0.400000*%
%ADD49R,4.500000X2.500000*%
%ADD50O,4.500000X2.500000*%
G04 APERTURE END LIST*
D10*
X111500000Y-51750000D02*
X107250000Y-51750000D01*
X115750000Y-54000000D02*
X111500000Y-54000000D01*
X111500000Y-54000000D02*
X111500000Y-51750000D01*
D11*
X45464286Y-32106900D02*
X45678572Y-32178328D01*
X45678572Y-32178328D02*
X46035714Y-32178328D01*
X46035714Y-32178328D02*
X46178572Y-32106900D01*
X46178572Y-32106900D02*
X46250000Y-32035471D01*
X46250000Y-32035471D02*
X46321429Y-31892614D01*
X46321429Y-31892614D02*
X46321429Y-31749757D01*
X46321429Y-31749757D02*
X46250000Y-31606900D01*
X46250000Y-31606900D02*
X46178572Y-31535471D01*
X46178572Y-31535471D02*
X46035714Y-31464042D01*
X46035714Y-31464042D02*
X45750000Y-31392614D01*
X45750000Y-31392614D02*
X45607143Y-31321185D01*
X45607143Y-31321185D02*
X45535714Y-31249757D01*
X45535714Y-31249757D02*
X45464286Y-31106900D01*
X45464286Y-31106900D02*
X45464286Y-30964042D01*
X45464286Y-30964042D02*
X45535714Y-30821185D01*
X45535714Y-30821185D02*
X45607143Y-30749757D01*
X45607143Y-30749757D02*
X45750000Y-30678328D01*
X45750000Y-30678328D02*
X46107143Y-30678328D01*
X46107143Y-30678328D02*
X46321429Y-30749757D01*
X46964285Y-32178328D02*
X46964285Y-31178328D01*
X46964285Y-30678328D02*
X46892857Y-30749757D01*
X46892857Y-30749757D02*
X46964285Y-30821185D01*
X46964285Y-30821185D02*
X47035714Y-30749757D01*
X47035714Y-30749757D02*
X46964285Y-30678328D01*
X46964285Y-30678328D02*
X46964285Y-30821185D01*
X47892857Y-32178328D02*
X47750000Y-32106900D01*
X47750000Y-32106900D02*
X47678571Y-31964042D01*
X47678571Y-31964042D02*
X47678571Y-30678328D01*
X48464285Y-32178328D02*
X48464285Y-31178328D01*
X48464285Y-30678328D02*
X48392857Y-30749757D01*
X48392857Y-30749757D02*
X48464285Y-30821185D01*
X48464285Y-30821185D02*
X48535714Y-30749757D01*
X48535714Y-30749757D02*
X48464285Y-30678328D01*
X48464285Y-30678328D02*
X48464285Y-30821185D01*
X49821429Y-32106900D02*
X49678571Y-32178328D01*
X49678571Y-32178328D02*
X49392857Y-32178328D01*
X49392857Y-32178328D02*
X49250000Y-32106900D01*
X49250000Y-32106900D02*
X49178571Y-32035471D01*
X49178571Y-32035471D02*
X49107143Y-31892614D01*
X49107143Y-31892614D02*
X49107143Y-31464042D01*
X49107143Y-31464042D02*
X49178571Y-31321185D01*
X49178571Y-31321185D02*
X49250000Y-31249757D01*
X49250000Y-31249757D02*
X49392857Y-31178328D01*
X49392857Y-31178328D02*
X49678571Y-31178328D01*
X49678571Y-31178328D02*
X49821429Y-31249757D01*
X50678571Y-32178328D02*
X50535714Y-32106900D01*
X50535714Y-32106900D02*
X50464285Y-32035471D01*
X50464285Y-32035471D02*
X50392857Y-31892614D01*
X50392857Y-31892614D02*
X50392857Y-31464042D01*
X50392857Y-31464042D02*
X50464285Y-31321185D01*
X50464285Y-31321185D02*
X50535714Y-31249757D01*
X50535714Y-31249757D02*
X50678571Y-31178328D01*
X50678571Y-31178328D02*
X50892857Y-31178328D01*
X50892857Y-31178328D02*
X51035714Y-31249757D01*
X51035714Y-31249757D02*
X51107143Y-31321185D01*
X51107143Y-31321185D02*
X51178571Y-31464042D01*
X51178571Y-31464042D02*
X51178571Y-31892614D01*
X51178571Y-31892614D02*
X51107143Y-32035471D01*
X51107143Y-32035471D02*
X51035714Y-32106900D01*
X51035714Y-32106900D02*
X50892857Y-32178328D01*
X50892857Y-32178328D02*
X50678571Y-32178328D01*
X51821428Y-31178328D02*
X51821428Y-32178328D01*
X51821428Y-31321185D02*
X51892857Y-31249757D01*
X51892857Y-31249757D02*
X52035714Y-31178328D01*
X52035714Y-31178328D02*
X52250000Y-31178328D01*
X52250000Y-31178328D02*
X52392857Y-31249757D01*
X52392857Y-31249757D02*
X52464286Y-31392614D01*
X52464286Y-31392614D02*
X52464286Y-32178328D01*
X52964286Y-30678328D02*
X53821429Y-30678328D01*
X53392857Y-32178328D02*
X53392857Y-30678328D01*
X54535714Y-32178328D02*
X54392857Y-32106900D01*
X54392857Y-32106900D02*
X54321428Y-32035471D01*
X54321428Y-32035471D02*
X54250000Y-31892614D01*
X54250000Y-31892614D02*
X54250000Y-31464042D01*
X54250000Y-31464042D02*
X54321428Y-31321185D01*
X54321428Y-31321185D02*
X54392857Y-31249757D01*
X54392857Y-31249757D02*
X54535714Y-31178328D01*
X54535714Y-31178328D02*
X54750000Y-31178328D01*
X54750000Y-31178328D02*
X54892857Y-31249757D01*
X54892857Y-31249757D02*
X54964286Y-31321185D01*
X54964286Y-31321185D02*
X55035714Y-31464042D01*
X55035714Y-31464042D02*
X55035714Y-31892614D01*
X55035714Y-31892614D02*
X54964286Y-32035471D01*
X54964286Y-32035471D02*
X54892857Y-32106900D01*
X54892857Y-32106900D02*
X54750000Y-32178328D01*
X54750000Y-32178328D02*
X54535714Y-32178328D01*
X56321429Y-32178328D02*
X56321429Y-31392614D01*
X56321429Y-31392614D02*
X56250000Y-31249757D01*
X56250000Y-31249757D02*
X56107143Y-31178328D01*
X56107143Y-31178328D02*
X55821429Y-31178328D01*
X55821429Y-31178328D02*
X55678571Y-31249757D01*
X56321429Y-32106900D02*
X56178571Y-32178328D01*
X56178571Y-32178328D02*
X55821429Y-32178328D01*
X55821429Y-32178328D02*
X55678571Y-32106900D01*
X55678571Y-32106900D02*
X55607143Y-31964042D01*
X55607143Y-31964042D02*
X55607143Y-31821185D01*
X55607143Y-31821185D02*
X55678571Y-31678328D01*
X55678571Y-31678328D02*
X55821429Y-31606900D01*
X55821429Y-31606900D02*
X56178571Y-31606900D01*
X56178571Y-31606900D02*
X56321429Y-31535471D01*
X56964286Y-32106900D02*
X57107143Y-32178328D01*
X57107143Y-32178328D02*
X57392857Y-32178328D01*
X57392857Y-32178328D02*
X57535714Y-32106900D01*
X57535714Y-32106900D02*
X57607143Y-31964042D01*
X57607143Y-31964042D02*
X57607143Y-31892614D01*
X57607143Y-31892614D02*
X57535714Y-31749757D01*
X57535714Y-31749757D02*
X57392857Y-31678328D01*
X57392857Y-31678328D02*
X57178572Y-31678328D01*
X57178572Y-31678328D02*
X57035714Y-31606900D01*
X57035714Y-31606900D02*
X56964286Y-31464042D01*
X56964286Y-31464042D02*
X56964286Y-31392614D01*
X56964286Y-31392614D02*
X57035714Y-31249757D01*
X57035714Y-31249757D02*
X57178572Y-31178328D01*
X57178572Y-31178328D02*
X57392857Y-31178328D01*
X57392857Y-31178328D02*
X57535714Y-31249757D01*
X58035715Y-31178328D02*
X58607143Y-31178328D01*
X58250000Y-30678328D02*
X58250000Y-31964042D01*
X58250000Y-31964042D02*
X58321429Y-32106900D01*
X58321429Y-32106900D02*
X58464286Y-32178328D01*
X58464286Y-32178328D02*
X58607143Y-32178328D01*
X59678572Y-32106900D02*
X59535715Y-32178328D01*
X59535715Y-32178328D02*
X59250001Y-32178328D01*
X59250001Y-32178328D02*
X59107143Y-32106900D01*
X59107143Y-32106900D02*
X59035715Y-31964042D01*
X59035715Y-31964042D02*
X59035715Y-31392614D01*
X59035715Y-31392614D02*
X59107143Y-31249757D01*
X59107143Y-31249757D02*
X59250001Y-31178328D01*
X59250001Y-31178328D02*
X59535715Y-31178328D01*
X59535715Y-31178328D02*
X59678572Y-31249757D01*
X59678572Y-31249757D02*
X59750001Y-31392614D01*
X59750001Y-31392614D02*
X59750001Y-31535471D01*
X59750001Y-31535471D02*
X59035715Y-31678328D01*
X60392857Y-32178328D02*
X60392857Y-31178328D01*
X60392857Y-31464042D02*
X60464286Y-31321185D01*
X60464286Y-31321185D02*
X60535715Y-31249757D01*
X60535715Y-31249757D02*
X60678572Y-31178328D01*
X60678572Y-31178328D02*
X60821429Y-31178328D01*
X62321428Y-31178328D02*
X62678571Y-32178328D01*
X62678571Y-32178328D02*
X63035714Y-31178328D01*
X63892857Y-30678328D02*
X64035714Y-30678328D01*
X64035714Y-30678328D02*
X64178571Y-30749757D01*
X64178571Y-30749757D02*
X64250000Y-30821185D01*
X64250000Y-30821185D02*
X64321428Y-30964042D01*
X64321428Y-30964042D02*
X64392857Y-31249757D01*
X64392857Y-31249757D02*
X64392857Y-31606900D01*
X64392857Y-31606900D02*
X64321428Y-31892614D01*
X64321428Y-31892614D02*
X64250000Y-32035471D01*
X64250000Y-32035471D02*
X64178571Y-32106900D01*
X64178571Y-32106900D02*
X64035714Y-32178328D01*
X64035714Y-32178328D02*
X63892857Y-32178328D01*
X63892857Y-32178328D02*
X63750000Y-32106900D01*
X63750000Y-32106900D02*
X63678571Y-32035471D01*
X63678571Y-32035471D02*
X63607142Y-31892614D01*
X63607142Y-31892614D02*
X63535714Y-31606900D01*
X63535714Y-31606900D02*
X63535714Y-31249757D01*
X63535714Y-31249757D02*
X63607142Y-30964042D01*
X63607142Y-30964042D02*
X63678571Y-30821185D01*
X63678571Y-30821185D02*
X63750000Y-30749757D01*
X63750000Y-30749757D02*
X63892857Y-30678328D01*
X65035713Y-32035471D02*
X65107142Y-32106900D01*
X65107142Y-32106900D02*
X65035713Y-32178328D01*
X65035713Y-32178328D02*
X64964285Y-32106900D01*
X64964285Y-32106900D02*
X65035713Y-32035471D01*
X65035713Y-32035471D02*
X65035713Y-32178328D01*
X65678571Y-30821185D02*
X65749999Y-30749757D01*
X65749999Y-30749757D02*
X65892857Y-30678328D01*
X65892857Y-30678328D02*
X66249999Y-30678328D01*
X66249999Y-30678328D02*
X66392857Y-30749757D01*
X66392857Y-30749757D02*
X66464285Y-30821185D01*
X66464285Y-30821185D02*
X66535714Y-30964042D01*
X66535714Y-30964042D02*
X66535714Y-31106900D01*
X66535714Y-31106900D02*
X66464285Y-31321185D01*
X66464285Y-31321185D02*
X65607142Y-32178328D01*
X65607142Y-32178328D02*
X66535714Y-32178328D01*
X99499999Y-61720870D02*
X99499999Y-60220870D01*
X99499999Y-60220870D02*
X99857142Y-60220870D01*
X99857142Y-60220870D02*
X100071428Y-60292299D01*
X100071428Y-60292299D02*
X100214285Y-60435156D01*
X100214285Y-60435156D02*
X100285714Y-60578013D01*
X100285714Y-60578013D02*
X100357142Y-60863727D01*
X100357142Y-60863727D02*
X100357142Y-61078013D01*
X100357142Y-61078013D02*
X100285714Y-61363727D01*
X100285714Y-61363727D02*
X100214285Y-61506584D01*
X100214285Y-61506584D02*
X100071428Y-61649442D01*
X100071428Y-61649442D02*
X99857142Y-61720870D01*
X99857142Y-61720870D02*
X99499999Y-61720870D01*
X100928571Y-61292299D02*
X101642857Y-61292299D01*
X100785714Y-61720870D02*
X101285714Y-60220870D01*
X101285714Y-60220870D02*
X101785714Y-61720870D01*
X102285713Y-61720870D02*
X102285713Y-60220870D01*
X102285713Y-60220870D02*
X103142856Y-61720870D01*
X103142856Y-61720870D02*
X103142856Y-60220870D01*
X104642857Y-60292299D02*
X104500000Y-60220870D01*
X104500000Y-60220870D02*
X104285714Y-60220870D01*
X104285714Y-60220870D02*
X104071428Y-60292299D01*
X104071428Y-60292299D02*
X103928571Y-60435156D01*
X103928571Y-60435156D02*
X103857142Y-60578013D01*
X103857142Y-60578013D02*
X103785714Y-60863727D01*
X103785714Y-60863727D02*
X103785714Y-61078013D01*
X103785714Y-61078013D02*
X103857142Y-61363727D01*
X103857142Y-61363727D02*
X103928571Y-61506584D01*
X103928571Y-61506584D02*
X104071428Y-61649442D01*
X104071428Y-61649442D02*
X104285714Y-61720870D01*
X104285714Y-61720870D02*
X104428571Y-61720870D01*
X104428571Y-61720870D02*
X104642857Y-61649442D01*
X104642857Y-61649442D02*
X104714285Y-61578013D01*
X104714285Y-61578013D02*
X104714285Y-61078013D01*
X104714285Y-61078013D02*
X104428571Y-61078013D01*
X105357142Y-60935156D02*
X105857142Y-60935156D01*
X106071428Y-61720870D02*
X105357142Y-61720870D01*
X105357142Y-61720870D02*
X105357142Y-60220870D01*
X105357142Y-60220870D02*
X106071428Y-60220870D01*
X107571428Y-61720870D02*
X107071428Y-61006584D01*
X106714285Y-61720870D02*
X106714285Y-60220870D01*
X106714285Y-60220870D02*
X107285714Y-60220870D01*
X107285714Y-60220870D02*
X107428571Y-60292299D01*
X107428571Y-60292299D02*
X107500000Y-60363727D01*
X107500000Y-60363727D02*
X107571428Y-60506584D01*
X107571428Y-60506584D02*
X107571428Y-60720870D01*
X107571428Y-60720870D02*
X107500000Y-60863727D01*
X107500000Y-60863727D02*
X107428571Y-60935156D01*
X107428571Y-60935156D02*
X107285714Y-61006584D01*
X107285714Y-61006584D02*
X106714285Y-61006584D01*
X95928570Y-64135786D02*
X95928570Y-62635786D01*
X95928570Y-63350072D02*
X96785713Y-63350072D01*
X96785713Y-64135786D02*
X96785713Y-62635786D01*
X97499999Y-64135786D02*
X97499999Y-62635786D01*
X99000000Y-62707215D02*
X98857143Y-62635786D01*
X98857143Y-62635786D02*
X98642857Y-62635786D01*
X98642857Y-62635786D02*
X98428571Y-62707215D01*
X98428571Y-62707215D02*
X98285714Y-62850072D01*
X98285714Y-62850072D02*
X98214285Y-62992929D01*
X98214285Y-62992929D02*
X98142857Y-63278643D01*
X98142857Y-63278643D02*
X98142857Y-63492929D01*
X98142857Y-63492929D02*
X98214285Y-63778643D01*
X98214285Y-63778643D02*
X98285714Y-63921500D01*
X98285714Y-63921500D02*
X98428571Y-64064358D01*
X98428571Y-64064358D02*
X98642857Y-64135786D01*
X98642857Y-64135786D02*
X98785714Y-64135786D01*
X98785714Y-64135786D02*
X99000000Y-64064358D01*
X99000000Y-64064358D02*
X99071428Y-63992929D01*
X99071428Y-63992929D02*
X99071428Y-63492929D01*
X99071428Y-63492929D02*
X98785714Y-63492929D01*
X99714285Y-64135786D02*
X99714285Y-62635786D01*
X99714285Y-63350072D02*
X100571428Y-63350072D01*
X100571428Y-64135786D02*
X100571428Y-62635786D01*
X102214286Y-62635786D02*
X102714286Y-64135786D01*
X102714286Y-64135786D02*
X103214286Y-62635786D01*
X104000000Y-62635786D02*
X104285714Y-62635786D01*
X104285714Y-62635786D02*
X104428571Y-62707215D01*
X104428571Y-62707215D02*
X104571428Y-62850072D01*
X104571428Y-62850072D02*
X104642857Y-63135786D01*
X104642857Y-63135786D02*
X104642857Y-63635786D01*
X104642857Y-63635786D02*
X104571428Y-63921500D01*
X104571428Y-63921500D02*
X104428571Y-64064358D01*
X104428571Y-64064358D02*
X104285714Y-64135786D01*
X104285714Y-64135786D02*
X104000000Y-64135786D01*
X104000000Y-64135786D02*
X103857143Y-64064358D01*
X103857143Y-64064358D02*
X103714285Y-63921500D01*
X103714285Y-63921500D02*
X103642857Y-63635786D01*
X103642857Y-63635786D02*
X103642857Y-63135786D01*
X103642857Y-63135786D02*
X103714285Y-62850072D01*
X103714285Y-62850072D02*
X103857143Y-62707215D01*
X103857143Y-62707215D02*
X104000000Y-62635786D01*
X106000000Y-64135786D02*
X105285714Y-64135786D01*
X105285714Y-64135786D02*
X105285714Y-62635786D01*
X106285715Y-62635786D02*
X107142858Y-62635786D01*
X106714286Y-64135786D02*
X106714286Y-62635786D01*
X107571429Y-63707215D02*
X108285715Y-63707215D01*
X107428572Y-64135786D02*
X107928572Y-62635786D01*
X107928572Y-62635786D02*
X108428572Y-64135786D01*
X109714286Y-62707215D02*
X109571429Y-62635786D01*
X109571429Y-62635786D02*
X109357143Y-62635786D01*
X109357143Y-62635786D02*
X109142857Y-62707215D01*
X109142857Y-62707215D02*
X109000000Y-62850072D01*
X109000000Y-62850072D02*
X108928571Y-62992929D01*
X108928571Y-62992929D02*
X108857143Y-63278643D01*
X108857143Y-63278643D02*
X108857143Y-63492929D01*
X108857143Y-63492929D02*
X108928571Y-63778643D01*
X108928571Y-63778643D02*
X109000000Y-63921500D01*
X109000000Y-63921500D02*
X109142857Y-64064358D01*
X109142857Y-64064358D02*
X109357143Y-64135786D01*
X109357143Y-64135786D02*
X109500000Y-64135786D01*
X109500000Y-64135786D02*
X109714286Y-64064358D01*
X109714286Y-64064358D02*
X109785714Y-63992929D01*
X109785714Y-63992929D02*
X109785714Y-63492929D01*
X109785714Y-63492929D02*
X109500000Y-63492929D01*
X110428571Y-63350072D02*
X110928571Y-63350072D01*
X111142857Y-64135786D02*
X110428571Y-64135786D01*
X110428571Y-64135786D02*
X110428571Y-62635786D01*
X110428571Y-62635786D02*
X111142857Y-62635786D01*
X99499999Y-31470870D02*
X99499999Y-29970870D01*
X99499999Y-29970870D02*
X99857142Y-29970870D01*
X99857142Y-29970870D02*
X100071428Y-30042299D01*
X100071428Y-30042299D02*
X100214285Y-30185156D01*
X100214285Y-30185156D02*
X100285714Y-30328013D01*
X100285714Y-30328013D02*
X100357142Y-30613727D01*
X100357142Y-30613727D02*
X100357142Y-30828013D01*
X100357142Y-30828013D02*
X100285714Y-31113727D01*
X100285714Y-31113727D02*
X100214285Y-31256584D01*
X100214285Y-31256584D02*
X100071428Y-31399442D01*
X100071428Y-31399442D02*
X99857142Y-31470870D01*
X99857142Y-31470870D02*
X99499999Y-31470870D01*
X100928571Y-31042299D02*
X101642857Y-31042299D01*
X100785714Y-31470870D02*
X101285714Y-29970870D01*
X101285714Y-29970870D02*
X101785714Y-31470870D01*
X102285713Y-31470870D02*
X102285713Y-29970870D01*
X102285713Y-29970870D02*
X103142856Y-31470870D01*
X103142856Y-31470870D02*
X103142856Y-29970870D01*
X104642857Y-30042299D02*
X104500000Y-29970870D01*
X104500000Y-29970870D02*
X104285714Y-29970870D01*
X104285714Y-29970870D02*
X104071428Y-30042299D01*
X104071428Y-30042299D02*
X103928571Y-30185156D01*
X103928571Y-30185156D02*
X103857142Y-30328013D01*
X103857142Y-30328013D02*
X103785714Y-30613727D01*
X103785714Y-30613727D02*
X103785714Y-30828013D01*
X103785714Y-30828013D02*
X103857142Y-31113727D01*
X103857142Y-31113727D02*
X103928571Y-31256584D01*
X103928571Y-31256584D02*
X104071428Y-31399442D01*
X104071428Y-31399442D02*
X104285714Y-31470870D01*
X104285714Y-31470870D02*
X104428571Y-31470870D01*
X104428571Y-31470870D02*
X104642857Y-31399442D01*
X104642857Y-31399442D02*
X104714285Y-31328013D01*
X104714285Y-31328013D02*
X104714285Y-30828013D01*
X104714285Y-30828013D02*
X104428571Y-30828013D01*
X105357142Y-30685156D02*
X105857142Y-30685156D01*
X106071428Y-31470870D02*
X105357142Y-31470870D01*
X105357142Y-31470870D02*
X105357142Y-29970870D01*
X105357142Y-29970870D02*
X106071428Y-29970870D01*
X107571428Y-31470870D02*
X107071428Y-30756584D01*
X106714285Y-31470870D02*
X106714285Y-29970870D01*
X106714285Y-29970870D02*
X107285714Y-29970870D01*
X107285714Y-29970870D02*
X107428571Y-30042299D01*
X107428571Y-30042299D02*
X107500000Y-30113727D01*
X107500000Y-30113727D02*
X107571428Y-30256584D01*
X107571428Y-30256584D02*
X107571428Y-30470870D01*
X107571428Y-30470870D02*
X107500000Y-30613727D01*
X107500000Y-30613727D02*
X107428571Y-30685156D01*
X107428571Y-30685156D02*
X107285714Y-30756584D01*
X107285714Y-30756584D02*
X106714285Y-30756584D01*
X95928570Y-33885786D02*
X95928570Y-32385786D01*
X95928570Y-33100072D02*
X96785713Y-33100072D01*
X96785713Y-33885786D02*
X96785713Y-32385786D01*
X97499999Y-33885786D02*
X97499999Y-32385786D01*
X99000000Y-32457215D02*
X98857143Y-32385786D01*
X98857143Y-32385786D02*
X98642857Y-32385786D01*
X98642857Y-32385786D02*
X98428571Y-32457215D01*
X98428571Y-32457215D02*
X98285714Y-32600072D01*
X98285714Y-32600072D02*
X98214285Y-32742929D01*
X98214285Y-32742929D02*
X98142857Y-33028643D01*
X98142857Y-33028643D02*
X98142857Y-33242929D01*
X98142857Y-33242929D02*
X98214285Y-33528643D01*
X98214285Y-33528643D02*
X98285714Y-33671500D01*
X98285714Y-33671500D02*
X98428571Y-33814358D01*
X98428571Y-33814358D02*
X98642857Y-33885786D01*
X98642857Y-33885786D02*
X98785714Y-33885786D01*
X98785714Y-33885786D02*
X99000000Y-33814358D01*
X99000000Y-33814358D02*
X99071428Y-33742929D01*
X99071428Y-33742929D02*
X99071428Y-33242929D01*
X99071428Y-33242929D02*
X98785714Y-33242929D01*
X99714285Y-33885786D02*
X99714285Y-32385786D01*
X99714285Y-33100072D02*
X100571428Y-33100072D01*
X100571428Y-33885786D02*
X100571428Y-32385786D01*
X102214286Y-32385786D02*
X102714286Y-33885786D01*
X102714286Y-33885786D02*
X103214286Y-32385786D01*
X104000000Y-32385786D02*
X104285714Y-32385786D01*
X104285714Y-32385786D02*
X104428571Y-32457215D01*
X104428571Y-32457215D02*
X104571428Y-32600072D01*
X104571428Y-32600072D02*
X104642857Y-32885786D01*
X104642857Y-32885786D02*
X104642857Y-33385786D01*
X104642857Y-33385786D02*
X104571428Y-33671500D01*
X104571428Y-33671500D02*
X104428571Y-33814358D01*
X104428571Y-33814358D02*
X104285714Y-33885786D01*
X104285714Y-33885786D02*
X104000000Y-33885786D01*
X104000000Y-33885786D02*
X103857143Y-33814358D01*
X103857143Y-33814358D02*
X103714285Y-33671500D01*
X103714285Y-33671500D02*
X103642857Y-33385786D01*
X103642857Y-33385786D02*
X103642857Y-32885786D01*
X103642857Y-32885786D02*
X103714285Y-32600072D01*
X103714285Y-32600072D02*
X103857143Y-32457215D01*
X103857143Y-32457215D02*
X104000000Y-32385786D01*
X106000000Y-33885786D02*
X105285714Y-33885786D01*
X105285714Y-33885786D02*
X105285714Y-32385786D01*
X106285715Y-32385786D02*
X107142858Y-32385786D01*
X106714286Y-33885786D02*
X106714286Y-32385786D01*
X107571429Y-33457215D02*
X108285715Y-33457215D01*
X107428572Y-33885786D02*
X107928572Y-32385786D01*
X107928572Y-32385786D02*
X108428572Y-33885786D01*
X109714286Y-32457215D02*
X109571429Y-32385786D01*
X109571429Y-32385786D02*
X109357143Y-32385786D01*
X109357143Y-32385786D02*
X109142857Y-32457215D01*
X109142857Y-32457215D02*
X109000000Y-32600072D01*
X109000000Y-32600072D02*
X108928571Y-32742929D01*
X108928571Y-32742929D02*
X108857143Y-33028643D01*
X108857143Y-33028643D02*
X108857143Y-33242929D01*
X108857143Y-33242929D02*
X108928571Y-33528643D01*
X108928571Y-33528643D02*
X109000000Y-33671500D01*
X109000000Y-33671500D02*
X109142857Y-33814358D01*
X109142857Y-33814358D02*
X109357143Y-33885786D01*
X109357143Y-33885786D02*
X109500000Y-33885786D01*
X109500000Y-33885786D02*
X109714286Y-33814358D01*
X109714286Y-33814358D02*
X109785714Y-33742929D01*
X109785714Y-33742929D02*
X109785714Y-33242929D01*
X109785714Y-33242929D02*
X109500000Y-33242929D01*
X110428571Y-33100072D02*
X110928571Y-33100072D01*
X111142857Y-33885786D02*
X110428571Y-33885786D01*
X110428571Y-33885786D02*
X110428571Y-32385786D01*
X110428571Y-32385786D02*
X111142857Y-32385786D01*
X157249999Y-61720870D02*
X157249999Y-60220870D01*
X157249999Y-60220870D02*
X157607142Y-60220870D01*
X157607142Y-60220870D02*
X157821428Y-60292299D01*
X157821428Y-60292299D02*
X157964285Y-60435156D01*
X157964285Y-60435156D02*
X158035714Y-60578013D01*
X158035714Y-60578013D02*
X158107142Y-60863727D01*
X158107142Y-60863727D02*
X158107142Y-61078013D01*
X158107142Y-61078013D02*
X158035714Y-61363727D01*
X158035714Y-61363727D02*
X157964285Y-61506584D01*
X157964285Y-61506584D02*
X157821428Y-61649442D01*
X157821428Y-61649442D02*
X157607142Y-61720870D01*
X157607142Y-61720870D02*
X157249999Y-61720870D01*
X158678571Y-61292299D02*
X159392857Y-61292299D01*
X158535714Y-61720870D02*
X159035714Y-60220870D01*
X159035714Y-60220870D02*
X159535714Y-61720870D01*
X160035713Y-61720870D02*
X160035713Y-60220870D01*
X160035713Y-60220870D02*
X160892856Y-61720870D01*
X160892856Y-61720870D02*
X160892856Y-60220870D01*
X162392857Y-60292299D02*
X162250000Y-60220870D01*
X162250000Y-60220870D02*
X162035714Y-60220870D01*
X162035714Y-60220870D02*
X161821428Y-60292299D01*
X161821428Y-60292299D02*
X161678571Y-60435156D01*
X161678571Y-60435156D02*
X161607142Y-60578013D01*
X161607142Y-60578013D02*
X161535714Y-60863727D01*
X161535714Y-60863727D02*
X161535714Y-61078013D01*
X161535714Y-61078013D02*
X161607142Y-61363727D01*
X161607142Y-61363727D02*
X161678571Y-61506584D01*
X161678571Y-61506584D02*
X161821428Y-61649442D01*
X161821428Y-61649442D02*
X162035714Y-61720870D01*
X162035714Y-61720870D02*
X162178571Y-61720870D01*
X162178571Y-61720870D02*
X162392857Y-61649442D01*
X162392857Y-61649442D02*
X162464285Y-61578013D01*
X162464285Y-61578013D02*
X162464285Y-61078013D01*
X162464285Y-61078013D02*
X162178571Y-61078013D01*
X163107142Y-60935156D02*
X163607142Y-60935156D01*
X163821428Y-61720870D02*
X163107142Y-61720870D01*
X163107142Y-61720870D02*
X163107142Y-60220870D01*
X163107142Y-60220870D02*
X163821428Y-60220870D01*
X165321428Y-61720870D02*
X164821428Y-61006584D01*
X164464285Y-61720870D02*
X164464285Y-60220870D01*
X164464285Y-60220870D02*
X165035714Y-60220870D01*
X165035714Y-60220870D02*
X165178571Y-60292299D01*
X165178571Y-60292299D02*
X165250000Y-60363727D01*
X165250000Y-60363727D02*
X165321428Y-60506584D01*
X165321428Y-60506584D02*
X165321428Y-60720870D01*
X165321428Y-60720870D02*
X165250000Y-60863727D01*
X165250000Y-60863727D02*
X165178571Y-60935156D01*
X165178571Y-60935156D02*
X165035714Y-61006584D01*
X165035714Y-61006584D02*
X164464285Y-61006584D01*
X153678570Y-64135786D02*
X153678570Y-62635786D01*
X153678570Y-63350072D02*
X154535713Y-63350072D01*
X154535713Y-64135786D02*
X154535713Y-62635786D01*
X155249999Y-64135786D02*
X155249999Y-62635786D01*
X156750000Y-62707215D02*
X156607143Y-62635786D01*
X156607143Y-62635786D02*
X156392857Y-62635786D01*
X156392857Y-62635786D02*
X156178571Y-62707215D01*
X156178571Y-62707215D02*
X156035714Y-62850072D01*
X156035714Y-62850072D02*
X155964285Y-62992929D01*
X155964285Y-62992929D02*
X155892857Y-63278643D01*
X155892857Y-63278643D02*
X155892857Y-63492929D01*
X155892857Y-63492929D02*
X155964285Y-63778643D01*
X155964285Y-63778643D02*
X156035714Y-63921500D01*
X156035714Y-63921500D02*
X156178571Y-64064358D01*
X156178571Y-64064358D02*
X156392857Y-64135786D01*
X156392857Y-64135786D02*
X156535714Y-64135786D01*
X156535714Y-64135786D02*
X156750000Y-64064358D01*
X156750000Y-64064358D02*
X156821428Y-63992929D01*
X156821428Y-63992929D02*
X156821428Y-63492929D01*
X156821428Y-63492929D02*
X156535714Y-63492929D01*
X157464285Y-64135786D02*
X157464285Y-62635786D01*
X157464285Y-63350072D02*
X158321428Y-63350072D01*
X158321428Y-64135786D02*
X158321428Y-62635786D01*
X159964286Y-62635786D02*
X160464286Y-64135786D01*
X160464286Y-64135786D02*
X160964286Y-62635786D01*
X161750000Y-62635786D02*
X162035714Y-62635786D01*
X162035714Y-62635786D02*
X162178571Y-62707215D01*
X162178571Y-62707215D02*
X162321428Y-62850072D01*
X162321428Y-62850072D02*
X162392857Y-63135786D01*
X162392857Y-63135786D02*
X162392857Y-63635786D01*
X162392857Y-63635786D02*
X162321428Y-63921500D01*
X162321428Y-63921500D02*
X162178571Y-64064358D01*
X162178571Y-64064358D02*
X162035714Y-64135786D01*
X162035714Y-64135786D02*
X161750000Y-64135786D01*
X161750000Y-64135786D02*
X161607143Y-64064358D01*
X161607143Y-64064358D02*
X161464285Y-63921500D01*
X161464285Y-63921500D02*
X161392857Y-63635786D01*
X161392857Y-63635786D02*
X161392857Y-63135786D01*
X161392857Y-63135786D02*
X161464285Y-62850072D01*
X161464285Y-62850072D02*
X161607143Y-62707215D01*
X161607143Y-62707215D02*
X161750000Y-62635786D01*
X163750000Y-64135786D02*
X163035714Y-64135786D01*
X163035714Y-64135786D02*
X163035714Y-62635786D01*
X164035715Y-62635786D02*
X164892858Y-62635786D01*
X164464286Y-64135786D02*
X164464286Y-62635786D01*
X165321429Y-63707215D02*
X166035715Y-63707215D01*
X165178572Y-64135786D02*
X165678572Y-62635786D01*
X165678572Y-62635786D02*
X166178572Y-64135786D01*
X167464286Y-62707215D02*
X167321429Y-62635786D01*
X167321429Y-62635786D02*
X167107143Y-62635786D01*
X167107143Y-62635786D02*
X166892857Y-62707215D01*
X166892857Y-62707215D02*
X166750000Y-62850072D01*
X166750000Y-62850072D02*
X166678571Y-62992929D01*
X166678571Y-62992929D02*
X166607143Y-63278643D01*
X166607143Y-63278643D02*
X166607143Y-63492929D01*
X166607143Y-63492929D02*
X166678571Y-63778643D01*
X166678571Y-63778643D02*
X166750000Y-63921500D01*
X166750000Y-63921500D02*
X166892857Y-64064358D01*
X166892857Y-64064358D02*
X167107143Y-64135786D01*
X167107143Y-64135786D02*
X167250000Y-64135786D01*
X167250000Y-64135786D02*
X167464286Y-64064358D01*
X167464286Y-64064358D02*
X167535714Y-63992929D01*
X167535714Y-63992929D02*
X167535714Y-63492929D01*
X167535714Y-63492929D02*
X167250000Y-63492929D01*
X168178571Y-63350072D02*
X168678571Y-63350072D01*
X168892857Y-64135786D02*
X168178571Y-64135786D01*
X168178571Y-64135786D02*
X168178571Y-62635786D01*
X168178571Y-62635786D02*
X168892857Y-62635786D01*
D12*
X53333333Y-33954663D02*
X53000000Y-33478472D01*
X52761905Y-33954663D02*
X52761905Y-32954663D01*
X52761905Y-32954663D02*
X53142857Y-32954663D01*
X53142857Y-32954663D02*
X53238095Y-33002282D01*
X53238095Y-33002282D02*
X53285714Y-33049901D01*
X53285714Y-33049901D02*
X53333333Y-33145139D01*
X53333333Y-33145139D02*
X53333333Y-33287996D01*
X53333333Y-33287996D02*
X53285714Y-33383234D01*
X53285714Y-33383234D02*
X53238095Y-33430853D01*
X53238095Y-33430853D02*
X53142857Y-33478472D01*
X53142857Y-33478472D02*
X52761905Y-33478472D01*
X53666667Y-32954663D02*
X54333333Y-32954663D01*
X54333333Y-32954663D02*
X53904762Y-33954663D01*
X73107142Y-61109424D02*
X73059523Y-61157044D01*
X73059523Y-61157044D02*
X72916666Y-61204663D01*
X72916666Y-61204663D02*
X72821428Y-61204663D01*
X72821428Y-61204663D02*
X72678571Y-61157044D01*
X72678571Y-61157044D02*
X72583333Y-61061805D01*
X72583333Y-61061805D02*
X72535714Y-60966567D01*
X72535714Y-60966567D02*
X72488095Y-60776091D01*
X72488095Y-60776091D02*
X72488095Y-60633234D01*
X72488095Y-60633234D02*
X72535714Y-60442758D01*
X72535714Y-60442758D02*
X72583333Y-60347520D01*
X72583333Y-60347520D02*
X72678571Y-60252282D01*
X72678571Y-60252282D02*
X72821428Y-60204663D01*
X72821428Y-60204663D02*
X72916666Y-60204663D01*
X72916666Y-60204663D02*
X73059523Y-60252282D01*
X73059523Y-60252282D02*
X73107142Y-60299901D01*
X74059523Y-61204663D02*
X73488095Y-61204663D01*
X73773809Y-61204663D02*
X73773809Y-60204663D01*
X73773809Y-60204663D02*
X73678571Y-60347520D01*
X73678571Y-60347520D02*
X73583333Y-60442758D01*
X73583333Y-60442758D02*
X73488095Y-60490377D01*
X74392857Y-60204663D02*
X75011904Y-60204663D01*
X75011904Y-60204663D02*
X74678571Y-60585615D01*
X74678571Y-60585615D02*
X74821428Y-60585615D01*
X74821428Y-60585615D02*
X74916666Y-60633234D01*
X74916666Y-60633234D02*
X74964285Y-60680853D01*
X74964285Y-60680853D02*
X75011904Y-60776091D01*
X75011904Y-60776091D02*
X75011904Y-61014186D01*
X75011904Y-61014186D02*
X74964285Y-61109424D01*
X74964285Y-61109424D02*
X74916666Y-61157044D01*
X74916666Y-61157044D02*
X74821428Y-61204663D01*
X74821428Y-61204663D02*
X74535714Y-61204663D01*
X74535714Y-61204663D02*
X74440476Y-61157044D01*
X74440476Y-61157044D02*
X74392857Y-61109424D01*
X76357142Y-61109424D02*
X76309523Y-61157044D01*
X76309523Y-61157044D02*
X76166666Y-61204663D01*
X76166666Y-61204663D02*
X76071428Y-61204663D01*
X76071428Y-61204663D02*
X75928571Y-61157044D01*
X75928571Y-61157044D02*
X75833333Y-61061805D01*
X75833333Y-61061805D02*
X75785714Y-60966567D01*
X75785714Y-60966567D02*
X75738095Y-60776091D01*
X75738095Y-60776091D02*
X75738095Y-60633234D01*
X75738095Y-60633234D02*
X75785714Y-60442758D01*
X75785714Y-60442758D02*
X75833333Y-60347520D01*
X75833333Y-60347520D02*
X75928571Y-60252282D01*
X75928571Y-60252282D02*
X76071428Y-60204663D01*
X76071428Y-60204663D02*
X76166666Y-60204663D01*
X76166666Y-60204663D02*
X76309523Y-60252282D01*
X76309523Y-60252282D02*
X76357142Y-60299901D01*
X77309523Y-61204663D02*
X76738095Y-61204663D01*
X77023809Y-61204663D02*
X77023809Y-60204663D01*
X77023809Y-60204663D02*
X76928571Y-60347520D01*
X76928571Y-60347520D02*
X76833333Y-60442758D01*
X76833333Y-60442758D02*
X76738095Y-60490377D01*
X78261904Y-61204663D02*
X77690476Y-61204663D01*
X77976190Y-61204663D02*
X77976190Y-60204663D01*
X77976190Y-60204663D02*
X77880952Y-60347520D01*
X77880952Y-60347520D02*
X77785714Y-60442758D01*
X77785714Y-60442758D02*
X77690476Y-60490377D01*
X78107142Y-49789424D02*
X78059523Y-49837044D01*
X78059523Y-49837044D02*
X77916666Y-49884663D01*
X77916666Y-49884663D02*
X77821428Y-49884663D01*
X77821428Y-49884663D02*
X77678571Y-49837044D01*
X77678571Y-49837044D02*
X77583333Y-49741805D01*
X77583333Y-49741805D02*
X77535714Y-49646567D01*
X77535714Y-49646567D02*
X77488095Y-49456091D01*
X77488095Y-49456091D02*
X77488095Y-49313234D01*
X77488095Y-49313234D02*
X77535714Y-49122758D01*
X77535714Y-49122758D02*
X77583333Y-49027520D01*
X77583333Y-49027520D02*
X77678571Y-48932282D01*
X77678571Y-48932282D02*
X77821428Y-48884663D01*
X77821428Y-48884663D02*
X77916666Y-48884663D01*
X77916666Y-48884663D02*
X78059523Y-48932282D01*
X78059523Y-48932282D02*
X78107142Y-48979901D01*
X79059523Y-49884663D02*
X78488095Y-49884663D01*
X78773809Y-49884663D02*
X78773809Y-48884663D01*
X78773809Y-48884663D02*
X78678571Y-49027520D01*
X78678571Y-49027520D02*
X78583333Y-49122758D01*
X78583333Y-49122758D02*
X78488095Y-49170377D01*
X79678571Y-48884663D02*
X79773809Y-48884663D01*
X79773809Y-48884663D02*
X79869047Y-48932282D01*
X79869047Y-48932282D02*
X79916666Y-48979901D01*
X79916666Y-48979901D02*
X79964285Y-49075139D01*
X79964285Y-49075139D02*
X80011904Y-49265615D01*
X80011904Y-49265615D02*
X80011904Y-49503710D01*
X80011904Y-49503710D02*
X79964285Y-49694186D01*
X79964285Y-49694186D02*
X79916666Y-49789424D01*
X79916666Y-49789424D02*
X79869047Y-49837044D01*
X79869047Y-49837044D02*
X79773809Y-49884663D01*
X79773809Y-49884663D02*
X79678571Y-49884663D01*
X79678571Y-49884663D02*
X79583333Y-49837044D01*
X79583333Y-49837044D02*
X79535714Y-49789424D01*
X79535714Y-49789424D02*
X79488095Y-49694186D01*
X79488095Y-49694186D02*
X79440476Y-49503710D01*
X79440476Y-49503710D02*
X79440476Y-49265615D01*
X79440476Y-49265615D02*
X79488095Y-49075139D01*
X79488095Y-49075139D02*
X79535714Y-48979901D01*
X79535714Y-48979901D02*
X79583333Y-48932282D01*
X79583333Y-48932282D02*
X79678571Y-48884663D01*
X86868095Y-55444663D02*
X86868095Y-56254186D01*
X86868095Y-56254186D02*
X86915714Y-56349424D01*
X86915714Y-56349424D02*
X86963333Y-56397044D01*
X86963333Y-56397044D02*
X87058571Y-56444663D01*
X87058571Y-56444663D02*
X87249047Y-56444663D01*
X87249047Y-56444663D02*
X87344285Y-56397044D01*
X87344285Y-56397044D02*
X87391904Y-56349424D01*
X87391904Y-56349424D02*
X87439523Y-56254186D01*
X87439523Y-56254186D02*
X87439523Y-55444663D01*
X87820476Y-55444663D02*
X88487142Y-55444663D01*
X88487142Y-55444663D02*
X88058571Y-56444663D01*
X71333333Y-42704663D02*
X71000000Y-42228472D01*
X70761905Y-42704663D02*
X70761905Y-41704663D01*
X70761905Y-41704663D02*
X71142857Y-41704663D01*
X71142857Y-41704663D02*
X71238095Y-41752282D01*
X71238095Y-41752282D02*
X71285714Y-41799901D01*
X71285714Y-41799901D02*
X71333333Y-41895139D01*
X71333333Y-41895139D02*
X71333333Y-42037996D01*
X71333333Y-42037996D02*
X71285714Y-42133234D01*
X71285714Y-42133234D02*
X71238095Y-42180853D01*
X71238095Y-42180853D02*
X71142857Y-42228472D01*
X71142857Y-42228472D02*
X70761905Y-42228472D01*
X72190476Y-41704663D02*
X72000000Y-41704663D01*
X72000000Y-41704663D02*
X71904762Y-41752282D01*
X71904762Y-41752282D02*
X71857143Y-41799901D01*
X71857143Y-41799901D02*
X71761905Y-41942758D01*
X71761905Y-41942758D02*
X71714286Y-42133234D01*
X71714286Y-42133234D02*
X71714286Y-42514186D01*
X71714286Y-42514186D02*
X71761905Y-42609424D01*
X71761905Y-42609424D02*
X71809524Y-42657044D01*
X71809524Y-42657044D02*
X71904762Y-42704663D01*
X71904762Y-42704663D02*
X72095238Y-42704663D01*
X72095238Y-42704663D02*
X72190476Y-42657044D01*
X72190476Y-42657044D02*
X72238095Y-42609424D01*
X72238095Y-42609424D02*
X72285714Y-42514186D01*
X72285714Y-42514186D02*
X72285714Y-42276091D01*
X72285714Y-42276091D02*
X72238095Y-42180853D01*
X72238095Y-42180853D02*
X72190476Y-42133234D01*
X72190476Y-42133234D02*
X72095238Y-42085615D01*
X72095238Y-42085615D02*
X71904762Y-42085615D01*
X71904762Y-42085615D02*
X71809524Y-42133234D01*
X71809524Y-42133234D02*
X71761905Y-42180853D01*
X71761905Y-42180853D02*
X71714286Y-42276091D01*
X71333333Y-40954663D02*
X71000000Y-40478472D01*
X70761905Y-40954663D02*
X70761905Y-39954663D01*
X70761905Y-39954663D02*
X71142857Y-39954663D01*
X71142857Y-39954663D02*
X71238095Y-40002282D01*
X71238095Y-40002282D02*
X71285714Y-40049901D01*
X71285714Y-40049901D02*
X71333333Y-40145139D01*
X71333333Y-40145139D02*
X71333333Y-40287996D01*
X71333333Y-40287996D02*
X71285714Y-40383234D01*
X71285714Y-40383234D02*
X71238095Y-40430853D01*
X71238095Y-40430853D02*
X71142857Y-40478472D01*
X71142857Y-40478472D02*
X70761905Y-40478472D01*
X72238095Y-39954663D02*
X71761905Y-39954663D01*
X71761905Y-39954663D02*
X71714286Y-40430853D01*
X71714286Y-40430853D02*
X71761905Y-40383234D01*
X71761905Y-40383234D02*
X71857143Y-40335615D01*
X71857143Y-40335615D02*
X72095238Y-40335615D01*
X72095238Y-40335615D02*
X72190476Y-40383234D01*
X72190476Y-40383234D02*
X72238095Y-40430853D01*
X72238095Y-40430853D02*
X72285714Y-40526091D01*
X72285714Y-40526091D02*
X72285714Y-40764186D01*
X72285714Y-40764186D02*
X72238095Y-40859424D01*
X72238095Y-40859424D02*
X72190476Y-40907044D01*
X72190476Y-40907044D02*
X72095238Y-40954663D01*
X72095238Y-40954663D02*
X71857143Y-40954663D01*
X71857143Y-40954663D02*
X71761905Y-40907044D01*
X71761905Y-40907044D02*
X71714286Y-40859424D01*
X73746142Y-35495031D02*
X73698523Y-35542651D01*
X73698523Y-35542651D02*
X73555666Y-35590270D01*
X73555666Y-35590270D02*
X73460428Y-35590270D01*
X73460428Y-35590270D02*
X73317571Y-35542651D01*
X73317571Y-35542651D02*
X73222333Y-35447412D01*
X73222333Y-35447412D02*
X73174714Y-35352174D01*
X73174714Y-35352174D02*
X73127095Y-35161698D01*
X73127095Y-35161698D02*
X73127095Y-35018841D01*
X73127095Y-35018841D02*
X73174714Y-34828365D01*
X73174714Y-34828365D02*
X73222333Y-34733127D01*
X73222333Y-34733127D02*
X73317571Y-34637889D01*
X73317571Y-34637889D02*
X73460428Y-34590270D01*
X73460428Y-34590270D02*
X73555666Y-34590270D01*
X73555666Y-34590270D02*
X73698523Y-34637889D01*
X73698523Y-34637889D02*
X73746142Y-34685508D01*
X74698523Y-35590270D02*
X74127095Y-35590270D01*
X74412809Y-35590270D02*
X74412809Y-34590270D01*
X74412809Y-34590270D02*
X74317571Y-34733127D01*
X74317571Y-34733127D02*
X74222333Y-34828365D01*
X74222333Y-34828365D02*
X74127095Y-34875984D01*
X75555666Y-34590270D02*
X75365190Y-34590270D01*
X75365190Y-34590270D02*
X75269952Y-34637889D01*
X75269952Y-34637889D02*
X75222333Y-34685508D01*
X75222333Y-34685508D02*
X75127095Y-34828365D01*
X75127095Y-34828365D02*
X75079476Y-35018841D01*
X75079476Y-35018841D02*
X75079476Y-35399793D01*
X75079476Y-35399793D02*
X75127095Y-35495031D01*
X75127095Y-35495031D02*
X75174714Y-35542651D01*
X75174714Y-35542651D02*
X75269952Y-35590270D01*
X75269952Y-35590270D02*
X75460428Y-35590270D01*
X75460428Y-35590270D02*
X75555666Y-35542651D01*
X75555666Y-35542651D02*
X75603285Y-35495031D01*
X75603285Y-35495031D02*
X75650904Y-35399793D01*
X75650904Y-35399793D02*
X75650904Y-35161698D01*
X75650904Y-35161698D02*
X75603285Y-35066460D01*
X75603285Y-35066460D02*
X75555666Y-35018841D01*
X75555666Y-35018841D02*
X75460428Y-34971222D01*
X75460428Y-34971222D02*
X75269952Y-34971222D01*
X75269952Y-34971222D02*
X75174714Y-35018841D01*
X75174714Y-35018841D02*
X75127095Y-35066460D01*
X75127095Y-35066460D02*
X75079476Y-35161698D01*
X70607142Y-38859424D02*
X70559523Y-38907044D01*
X70559523Y-38907044D02*
X70416666Y-38954663D01*
X70416666Y-38954663D02*
X70321428Y-38954663D01*
X70321428Y-38954663D02*
X70178571Y-38907044D01*
X70178571Y-38907044D02*
X70083333Y-38811805D01*
X70083333Y-38811805D02*
X70035714Y-38716567D01*
X70035714Y-38716567D02*
X69988095Y-38526091D01*
X69988095Y-38526091D02*
X69988095Y-38383234D01*
X69988095Y-38383234D02*
X70035714Y-38192758D01*
X70035714Y-38192758D02*
X70083333Y-38097520D01*
X70083333Y-38097520D02*
X70178571Y-38002282D01*
X70178571Y-38002282D02*
X70321428Y-37954663D01*
X70321428Y-37954663D02*
X70416666Y-37954663D01*
X70416666Y-37954663D02*
X70559523Y-38002282D01*
X70559523Y-38002282D02*
X70607142Y-38049901D01*
X71559523Y-38954663D02*
X70988095Y-38954663D01*
X71273809Y-38954663D02*
X71273809Y-37954663D01*
X71273809Y-37954663D02*
X71178571Y-38097520D01*
X71178571Y-38097520D02*
X71083333Y-38192758D01*
X71083333Y-38192758D02*
X70988095Y-38240377D01*
X72464285Y-37954663D02*
X71988095Y-37954663D01*
X71988095Y-37954663D02*
X71940476Y-38430853D01*
X71940476Y-38430853D02*
X71988095Y-38383234D01*
X71988095Y-38383234D02*
X72083333Y-38335615D01*
X72083333Y-38335615D02*
X72321428Y-38335615D01*
X72321428Y-38335615D02*
X72416666Y-38383234D01*
X72416666Y-38383234D02*
X72464285Y-38430853D01*
X72464285Y-38430853D02*
X72511904Y-38526091D01*
X72511904Y-38526091D02*
X72511904Y-38764186D01*
X72511904Y-38764186D02*
X72464285Y-38859424D01*
X72464285Y-38859424D02*
X72416666Y-38907044D01*
X72416666Y-38907044D02*
X72321428Y-38954663D01*
X72321428Y-38954663D02*
X72083333Y-38954663D01*
X72083333Y-38954663D02*
X71988095Y-38907044D01*
X71988095Y-38907044D02*
X71940476Y-38859424D01*
X79083333Y-40704663D02*
X78607143Y-40704663D01*
X78607143Y-40704663D02*
X78607143Y-39704663D01*
X79369048Y-39799901D02*
X79416667Y-39752282D01*
X79416667Y-39752282D02*
X79511905Y-39704663D01*
X79511905Y-39704663D02*
X79750000Y-39704663D01*
X79750000Y-39704663D02*
X79845238Y-39752282D01*
X79845238Y-39752282D02*
X79892857Y-39799901D01*
X79892857Y-39799901D02*
X79940476Y-39895139D01*
X79940476Y-39895139D02*
X79940476Y-39990377D01*
X79940476Y-39990377D02*
X79892857Y-40133234D01*
X79892857Y-40133234D02*
X79321429Y-40704663D01*
X79321429Y-40704663D02*
X79940476Y-40704663D01*
X70238095Y-44770270D02*
X70238095Y-45579793D01*
X70238095Y-45579793D02*
X70285714Y-45675031D01*
X70285714Y-45675031D02*
X70333333Y-45722651D01*
X70333333Y-45722651D02*
X70428571Y-45770270D01*
X70428571Y-45770270D02*
X70619047Y-45770270D01*
X70619047Y-45770270D02*
X70714285Y-45722651D01*
X70714285Y-45722651D02*
X70761904Y-45675031D01*
X70761904Y-45675031D02*
X70809523Y-45579793D01*
X70809523Y-45579793D02*
X70809523Y-44770270D01*
X71190476Y-44770270D02*
X71809523Y-44770270D01*
X71809523Y-44770270D02*
X71476190Y-45151222D01*
X71476190Y-45151222D02*
X71619047Y-45151222D01*
X71619047Y-45151222D02*
X71714285Y-45198841D01*
X71714285Y-45198841D02*
X71761904Y-45246460D01*
X71761904Y-45246460D02*
X71809523Y-45341698D01*
X71809523Y-45341698D02*
X71809523Y-45579793D01*
X71809523Y-45579793D02*
X71761904Y-45675031D01*
X71761904Y-45675031D02*
X71714285Y-45722651D01*
X71714285Y-45722651D02*
X71619047Y-45770270D01*
X71619047Y-45770270D02*
X71333333Y-45770270D01*
X71333333Y-45770270D02*
X71238095Y-45722651D01*
X71238095Y-45722651D02*
X71190476Y-45675031D01*
X77011905Y-35954663D02*
X77011905Y-34954663D01*
X77011905Y-34954663D02*
X77250000Y-34954663D01*
X77250000Y-34954663D02*
X77392857Y-35002282D01*
X77392857Y-35002282D02*
X77488095Y-35097520D01*
X77488095Y-35097520D02*
X77535714Y-35192758D01*
X77535714Y-35192758D02*
X77583333Y-35383234D01*
X77583333Y-35383234D02*
X77583333Y-35526091D01*
X77583333Y-35526091D02*
X77535714Y-35716567D01*
X77535714Y-35716567D02*
X77488095Y-35811805D01*
X77488095Y-35811805D02*
X77392857Y-35907044D01*
X77392857Y-35907044D02*
X77250000Y-35954663D01*
X77250000Y-35954663D02*
X77011905Y-35954663D01*
X78488095Y-34954663D02*
X78011905Y-34954663D01*
X78011905Y-34954663D02*
X77964286Y-35430853D01*
X77964286Y-35430853D02*
X78011905Y-35383234D01*
X78011905Y-35383234D02*
X78107143Y-35335615D01*
X78107143Y-35335615D02*
X78345238Y-35335615D01*
X78345238Y-35335615D02*
X78440476Y-35383234D01*
X78440476Y-35383234D02*
X78488095Y-35430853D01*
X78488095Y-35430853D02*
X78535714Y-35526091D01*
X78535714Y-35526091D02*
X78535714Y-35764186D01*
X78535714Y-35764186D02*
X78488095Y-35859424D01*
X78488095Y-35859424D02*
X78440476Y-35907044D01*
X78440476Y-35907044D02*
X78345238Y-35954663D01*
X78345238Y-35954663D02*
X78107143Y-35954663D01*
X78107143Y-35954663D02*
X78011905Y-35907044D01*
X78011905Y-35907044D02*
X77964286Y-35859424D01*
X63238095Y-45454663D02*
X63238095Y-46264186D01*
X63238095Y-46264186D02*
X63285714Y-46359424D01*
X63285714Y-46359424D02*
X63333333Y-46407044D01*
X63333333Y-46407044D02*
X63428571Y-46454663D01*
X63428571Y-46454663D02*
X63619047Y-46454663D01*
X63619047Y-46454663D02*
X63714285Y-46407044D01*
X63714285Y-46407044D02*
X63761904Y-46359424D01*
X63761904Y-46359424D02*
X63809523Y-46264186D01*
X63809523Y-46264186D02*
X63809523Y-45454663D01*
X64809523Y-46454663D02*
X64238095Y-46454663D01*
X64523809Y-46454663D02*
X64523809Y-45454663D01*
X64523809Y-45454663D02*
X64428571Y-45597520D01*
X64428571Y-45597520D02*
X64333333Y-45692758D01*
X64333333Y-45692758D02*
X64238095Y-45740377D01*
X62988095Y-34454663D02*
X62988095Y-35264186D01*
X62988095Y-35264186D02*
X63035714Y-35359424D01*
X63035714Y-35359424D02*
X63083333Y-35407044D01*
X63083333Y-35407044D02*
X63178571Y-35454663D01*
X63178571Y-35454663D02*
X63369047Y-35454663D01*
X63369047Y-35454663D02*
X63464285Y-35407044D01*
X63464285Y-35407044D02*
X63511904Y-35359424D01*
X63511904Y-35359424D02*
X63559523Y-35264186D01*
X63559523Y-35264186D02*
X63559523Y-34454663D01*
X63988095Y-34549901D02*
X64035714Y-34502282D01*
X64035714Y-34502282D02*
X64130952Y-34454663D01*
X64130952Y-34454663D02*
X64369047Y-34454663D01*
X64369047Y-34454663D02*
X64464285Y-34502282D01*
X64464285Y-34502282D02*
X64511904Y-34549901D01*
X64511904Y-34549901D02*
X64559523Y-34645139D01*
X64559523Y-34645139D02*
X64559523Y-34740377D01*
X64559523Y-34740377D02*
X64511904Y-34883234D01*
X64511904Y-34883234D02*
X63940476Y-35454663D01*
X63940476Y-35454663D02*
X64559523Y-35454663D01*
X82654761Y-36049901D02*
X82559523Y-36002282D01*
X82559523Y-36002282D02*
X82464285Y-35907044D01*
X82464285Y-35907044D02*
X82321428Y-35764186D01*
X82321428Y-35764186D02*
X82226190Y-35716567D01*
X82226190Y-35716567D02*
X82130952Y-35716567D01*
X82178571Y-35954663D02*
X82083333Y-35907044D01*
X82083333Y-35907044D02*
X81988095Y-35811805D01*
X81988095Y-35811805D02*
X81940476Y-35621329D01*
X81940476Y-35621329D02*
X81940476Y-35287996D01*
X81940476Y-35287996D02*
X81988095Y-35097520D01*
X81988095Y-35097520D02*
X82083333Y-35002282D01*
X82083333Y-35002282D02*
X82178571Y-34954663D01*
X82178571Y-34954663D02*
X82369047Y-34954663D01*
X82369047Y-34954663D02*
X82464285Y-35002282D01*
X82464285Y-35002282D02*
X82559523Y-35097520D01*
X82559523Y-35097520D02*
X82607142Y-35287996D01*
X82607142Y-35287996D02*
X82607142Y-35621329D01*
X82607142Y-35621329D02*
X82559523Y-35811805D01*
X82559523Y-35811805D02*
X82464285Y-35907044D01*
X82464285Y-35907044D02*
X82369047Y-35954663D01*
X82369047Y-35954663D02*
X82178571Y-35954663D01*
X83559523Y-35954663D02*
X82988095Y-35954663D01*
X83273809Y-35954663D02*
X83273809Y-34954663D01*
X83273809Y-34954663D02*
X83178571Y-35097520D01*
X83178571Y-35097520D02*
X83083333Y-35192758D01*
X83083333Y-35192758D02*
X82988095Y-35240377D01*
X90666666Y-34704663D02*
X90666666Y-35418948D01*
X90666666Y-35418948D02*
X90619047Y-35561805D01*
X90619047Y-35561805D02*
X90523809Y-35657044D01*
X90523809Y-35657044D02*
X90380952Y-35704663D01*
X90380952Y-35704663D02*
X90285714Y-35704663D01*
X91619047Y-34704663D02*
X91142857Y-34704663D01*
X91142857Y-34704663D02*
X91095238Y-35180853D01*
X91095238Y-35180853D02*
X91142857Y-35133234D01*
X91142857Y-35133234D02*
X91238095Y-35085615D01*
X91238095Y-35085615D02*
X91476190Y-35085615D01*
X91476190Y-35085615D02*
X91571428Y-35133234D01*
X91571428Y-35133234D02*
X91619047Y-35180853D01*
X91619047Y-35180853D02*
X91666666Y-35276091D01*
X91666666Y-35276091D02*
X91666666Y-35514186D01*
X91666666Y-35514186D02*
X91619047Y-35609424D01*
X91619047Y-35609424D02*
X91571428Y-35657044D01*
X91571428Y-35657044D02*
X91476190Y-35704663D01*
X91476190Y-35704663D02*
X91238095Y-35704663D01*
X91238095Y-35704663D02*
X91142857Y-35657044D01*
X91142857Y-35657044D02*
X91095238Y-35609424D01*
X52583333Y-52859424D02*
X52535714Y-52907044D01*
X52535714Y-52907044D02*
X52392857Y-52954663D01*
X52392857Y-52954663D02*
X52297619Y-52954663D01*
X52297619Y-52954663D02*
X52154762Y-52907044D01*
X52154762Y-52907044D02*
X52059524Y-52811805D01*
X52059524Y-52811805D02*
X52011905Y-52716567D01*
X52011905Y-52716567D02*
X51964286Y-52526091D01*
X51964286Y-52526091D02*
X51964286Y-52383234D01*
X51964286Y-52383234D02*
X52011905Y-52192758D01*
X52011905Y-52192758D02*
X52059524Y-52097520D01*
X52059524Y-52097520D02*
X52154762Y-52002282D01*
X52154762Y-52002282D02*
X52297619Y-51954663D01*
X52297619Y-51954663D02*
X52392857Y-51954663D01*
X52392857Y-51954663D02*
X52535714Y-52002282D01*
X52535714Y-52002282D02*
X52583333Y-52049901D01*
X53535714Y-52954663D02*
X52964286Y-52954663D01*
X53250000Y-52954663D02*
X53250000Y-51954663D01*
X53250000Y-51954663D02*
X53154762Y-52097520D01*
X53154762Y-52097520D02*
X53059524Y-52192758D01*
X53059524Y-52192758D02*
X52964286Y-52240377D01*
X86833333Y-59954663D02*
X86500000Y-59478472D01*
X86261905Y-59954663D02*
X86261905Y-58954663D01*
X86261905Y-58954663D02*
X86642857Y-58954663D01*
X86642857Y-58954663D02*
X86738095Y-59002282D01*
X86738095Y-59002282D02*
X86785714Y-59049901D01*
X86785714Y-59049901D02*
X86833333Y-59145139D01*
X86833333Y-59145139D02*
X86833333Y-59287996D01*
X86833333Y-59287996D02*
X86785714Y-59383234D01*
X86785714Y-59383234D02*
X86738095Y-59430853D01*
X86738095Y-59430853D02*
X86642857Y-59478472D01*
X86642857Y-59478472D02*
X86261905Y-59478472D01*
X87166667Y-58954663D02*
X87785714Y-58954663D01*
X87785714Y-58954663D02*
X87452381Y-59335615D01*
X87452381Y-59335615D02*
X87595238Y-59335615D01*
X87595238Y-59335615D02*
X87690476Y-59383234D01*
X87690476Y-59383234D02*
X87738095Y-59430853D01*
X87738095Y-59430853D02*
X87785714Y-59526091D01*
X87785714Y-59526091D02*
X87785714Y-59764186D01*
X87785714Y-59764186D02*
X87738095Y-59859424D01*
X87738095Y-59859424D02*
X87690476Y-59907044D01*
X87690476Y-59907044D02*
X87595238Y-59954663D01*
X87595238Y-59954663D02*
X87309524Y-59954663D01*
X87309524Y-59954663D02*
X87214286Y-59907044D01*
X87214286Y-59907044D02*
X87166667Y-59859424D01*
X90333333Y-59954663D02*
X90000000Y-59478472D01*
X89761905Y-59954663D02*
X89761905Y-58954663D01*
X89761905Y-58954663D02*
X90142857Y-58954663D01*
X90142857Y-58954663D02*
X90238095Y-59002282D01*
X90238095Y-59002282D02*
X90285714Y-59049901D01*
X90285714Y-59049901D02*
X90333333Y-59145139D01*
X90333333Y-59145139D02*
X90333333Y-59287996D01*
X90333333Y-59287996D02*
X90285714Y-59383234D01*
X90285714Y-59383234D02*
X90238095Y-59430853D01*
X90238095Y-59430853D02*
X90142857Y-59478472D01*
X90142857Y-59478472D02*
X89761905Y-59478472D01*
X90714286Y-59049901D02*
X90761905Y-59002282D01*
X90761905Y-59002282D02*
X90857143Y-58954663D01*
X90857143Y-58954663D02*
X91095238Y-58954663D01*
X91095238Y-58954663D02*
X91190476Y-59002282D01*
X91190476Y-59002282D02*
X91238095Y-59049901D01*
X91238095Y-59049901D02*
X91285714Y-59145139D01*
X91285714Y-59145139D02*
X91285714Y-59240377D01*
X91285714Y-59240377D02*
X91238095Y-59383234D01*
X91238095Y-59383234D02*
X90666667Y-59954663D01*
X90666667Y-59954663D02*
X91285714Y-59954663D01*
X112761905Y-52954663D02*
X112761905Y-51954663D01*
X112761905Y-51954663D02*
X113000000Y-51954663D01*
X113000000Y-51954663D02*
X113142857Y-52002282D01*
X113142857Y-52002282D02*
X113238095Y-52097520D01*
X113238095Y-52097520D02*
X113285714Y-52192758D01*
X113285714Y-52192758D02*
X113333333Y-52383234D01*
X113333333Y-52383234D02*
X113333333Y-52526091D01*
X113333333Y-52526091D02*
X113285714Y-52716567D01*
X113285714Y-52716567D02*
X113238095Y-52811805D01*
X113238095Y-52811805D02*
X113142857Y-52907044D01*
X113142857Y-52907044D02*
X113000000Y-52954663D01*
X113000000Y-52954663D02*
X112761905Y-52954663D01*
X114190476Y-51954663D02*
X114000000Y-51954663D01*
X114000000Y-51954663D02*
X113904762Y-52002282D01*
X113904762Y-52002282D02*
X113857143Y-52049901D01*
X113857143Y-52049901D02*
X113761905Y-52192758D01*
X113761905Y-52192758D02*
X113714286Y-52383234D01*
X113714286Y-52383234D02*
X113714286Y-52764186D01*
X113714286Y-52764186D02*
X113761905Y-52859424D01*
X113761905Y-52859424D02*
X113809524Y-52907044D01*
X113809524Y-52907044D02*
X113904762Y-52954663D01*
X113904762Y-52954663D02*
X114095238Y-52954663D01*
X114095238Y-52954663D02*
X114190476Y-52907044D01*
X114190476Y-52907044D02*
X114238095Y-52859424D01*
X114238095Y-52859424D02*
X114285714Y-52764186D01*
X114285714Y-52764186D02*
X114285714Y-52526091D01*
X114285714Y-52526091D02*
X114238095Y-52430853D01*
X114238095Y-52430853D02*
X114190476Y-52383234D01*
X114190476Y-52383234D02*
X114095238Y-52335615D01*
X114095238Y-52335615D02*
X113904762Y-52335615D01*
X113904762Y-52335615D02*
X113809524Y-52383234D01*
X113809524Y-52383234D02*
X113761905Y-52430853D01*
X113761905Y-52430853D02*
X113714286Y-52526091D01*
X111857142Y-58859424D02*
X111809523Y-58907044D01*
X111809523Y-58907044D02*
X111666666Y-58954663D01*
X111666666Y-58954663D02*
X111571428Y-58954663D01*
X111571428Y-58954663D02*
X111428571Y-58907044D01*
X111428571Y-58907044D02*
X111333333Y-58811805D01*
X111333333Y-58811805D02*
X111285714Y-58716567D01*
X111285714Y-58716567D02*
X111238095Y-58526091D01*
X111238095Y-58526091D02*
X111238095Y-58383234D01*
X111238095Y-58383234D02*
X111285714Y-58192758D01*
X111285714Y-58192758D02*
X111333333Y-58097520D01*
X111333333Y-58097520D02*
X111428571Y-58002282D01*
X111428571Y-58002282D02*
X111571428Y-57954663D01*
X111571428Y-57954663D02*
X111666666Y-57954663D01*
X111666666Y-57954663D02*
X111809523Y-58002282D01*
X111809523Y-58002282D02*
X111857142Y-58049901D01*
X112238095Y-58049901D02*
X112285714Y-58002282D01*
X112285714Y-58002282D02*
X112380952Y-57954663D01*
X112380952Y-57954663D02*
X112619047Y-57954663D01*
X112619047Y-57954663D02*
X112714285Y-58002282D01*
X112714285Y-58002282D02*
X112761904Y-58049901D01*
X112761904Y-58049901D02*
X112809523Y-58145139D01*
X112809523Y-58145139D02*
X112809523Y-58240377D01*
X112809523Y-58240377D02*
X112761904Y-58383234D01*
X112761904Y-58383234D02*
X112190476Y-58954663D01*
X112190476Y-58954663D02*
X112809523Y-58954663D01*
X113761904Y-58954663D02*
X113190476Y-58954663D01*
X113476190Y-58954663D02*
X113476190Y-57954663D01*
X113476190Y-57954663D02*
X113380952Y-58097520D01*
X113380952Y-58097520D02*
X113285714Y-58192758D01*
X113285714Y-58192758D02*
X113190476Y-58240377D01*
X113454663Y-55738094D02*
X112454663Y-55738094D01*
X112454663Y-55738094D02*
X112454663Y-55499999D01*
X112454663Y-55499999D02*
X112502282Y-55357142D01*
X112502282Y-55357142D02*
X112597520Y-55261904D01*
X112597520Y-55261904D02*
X112692758Y-55214285D01*
X112692758Y-55214285D02*
X112883234Y-55166666D01*
X112883234Y-55166666D02*
X113026091Y-55166666D01*
X113026091Y-55166666D02*
X113216567Y-55214285D01*
X113216567Y-55214285D02*
X113311805Y-55261904D01*
X113311805Y-55261904D02*
X113407044Y-55357142D01*
X113407044Y-55357142D02*
X113454663Y-55499999D01*
X113454663Y-55499999D02*
X113454663Y-55738094D01*
X112549901Y-54785713D02*
X112502282Y-54738094D01*
X112502282Y-54738094D02*
X112454663Y-54642856D01*
X112454663Y-54642856D02*
X112454663Y-54404761D01*
X112454663Y-54404761D02*
X112502282Y-54309523D01*
X112502282Y-54309523D02*
X112549901Y-54261904D01*
X112549901Y-54261904D02*
X112645139Y-54214285D01*
X112645139Y-54214285D02*
X112740377Y-54214285D01*
X112740377Y-54214285D02*
X112883234Y-54261904D01*
X112883234Y-54261904D02*
X113454663Y-54833332D01*
X113454663Y-54833332D02*
X113454663Y-54214285D01*
X112107142Y-35859424D02*
X112059523Y-35907044D01*
X112059523Y-35907044D02*
X111916666Y-35954663D01*
X111916666Y-35954663D02*
X111821428Y-35954663D01*
X111821428Y-35954663D02*
X111678571Y-35907044D01*
X111678571Y-35907044D02*
X111583333Y-35811805D01*
X111583333Y-35811805D02*
X111535714Y-35716567D01*
X111535714Y-35716567D02*
X111488095Y-35526091D01*
X111488095Y-35526091D02*
X111488095Y-35383234D01*
X111488095Y-35383234D02*
X111535714Y-35192758D01*
X111535714Y-35192758D02*
X111583333Y-35097520D01*
X111583333Y-35097520D02*
X111678571Y-35002282D01*
X111678571Y-35002282D02*
X111821428Y-34954663D01*
X111821428Y-34954663D02*
X111916666Y-34954663D01*
X111916666Y-34954663D02*
X112059523Y-35002282D01*
X112059523Y-35002282D02*
X112107142Y-35049901D01*
X112488095Y-35049901D02*
X112535714Y-35002282D01*
X112535714Y-35002282D02*
X112630952Y-34954663D01*
X112630952Y-34954663D02*
X112869047Y-34954663D01*
X112869047Y-34954663D02*
X112964285Y-35002282D01*
X112964285Y-35002282D02*
X113011904Y-35049901D01*
X113011904Y-35049901D02*
X113059523Y-35145139D01*
X113059523Y-35145139D02*
X113059523Y-35240377D01*
X113059523Y-35240377D02*
X113011904Y-35383234D01*
X113011904Y-35383234D02*
X112440476Y-35954663D01*
X112440476Y-35954663D02*
X113059523Y-35954663D01*
X113678571Y-34954663D02*
X113773809Y-34954663D01*
X113773809Y-34954663D02*
X113869047Y-35002282D01*
X113869047Y-35002282D02*
X113916666Y-35049901D01*
X113916666Y-35049901D02*
X113964285Y-35145139D01*
X113964285Y-35145139D02*
X114011904Y-35335615D01*
X114011904Y-35335615D02*
X114011904Y-35573710D01*
X114011904Y-35573710D02*
X113964285Y-35764186D01*
X113964285Y-35764186D02*
X113916666Y-35859424D01*
X113916666Y-35859424D02*
X113869047Y-35907044D01*
X113869047Y-35907044D02*
X113773809Y-35954663D01*
X113773809Y-35954663D02*
X113678571Y-35954663D01*
X113678571Y-35954663D02*
X113583333Y-35907044D01*
X113583333Y-35907044D02*
X113535714Y-35859424D01*
X113535714Y-35859424D02*
X113488095Y-35764186D01*
X113488095Y-35764186D02*
X113440476Y-35573710D01*
X113440476Y-35573710D02*
X113440476Y-35335615D01*
X113440476Y-35335615D02*
X113488095Y-35145139D01*
X113488095Y-35145139D02*
X113535714Y-35049901D01*
X113535714Y-35049901D02*
X113583333Y-35002282D01*
X113583333Y-35002282D02*
X113678571Y-34954663D01*
X93857142Y-58859424D02*
X93809523Y-58907044D01*
X93809523Y-58907044D02*
X93666666Y-58954663D01*
X93666666Y-58954663D02*
X93571428Y-58954663D01*
X93571428Y-58954663D02*
X93428571Y-58907044D01*
X93428571Y-58907044D02*
X93333333Y-58811805D01*
X93333333Y-58811805D02*
X93285714Y-58716567D01*
X93285714Y-58716567D02*
X93238095Y-58526091D01*
X93238095Y-58526091D02*
X93238095Y-58383234D01*
X93238095Y-58383234D02*
X93285714Y-58192758D01*
X93285714Y-58192758D02*
X93333333Y-58097520D01*
X93333333Y-58097520D02*
X93428571Y-58002282D01*
X93428571Y-58002282D02*
X93571428Y-57954663D01*
X93571428Y-57954663D02*
X93666666Y-57954663D01*
X93666666Y-57954663D02*
X93809523Y-58002282D01*
X93809523Y-58002282D02*
X93857142Y-58049901D01*
X94809523Y-58954663D02*
X94238095Y-58954663D01*
X94523809Y-58954663D02*
X94523809Y-57954663D01*
X94523809Y-57954663D02*
X94428571Y-58097520D01*
X94428571Y-58097520D02*
X94333333Y-58192758D01*
X94333333Y-58192758D02*
X94238095Y-58240377D01*
X95285714Y-58954663D02*
X95476190Y-58954663D01*
X95476190Y-58954663D02*
X95571428Y-58907044D01*
X95571428Y-58907044D02*
X95619047Y-58859424D01*
X95619047Y-58859424D02*
X95714285Y-58716567D01*
X95714285Y-58716567D02*
X95761904Y-58526091D01*
X95761904Y-58526091D02*
X95761904Y-58145139D01*
X95761904Y-58145139D02*
X95714285Y-58049901D01*
X95714285Y-58049901D02*
X95666666Y-58002282D01*
X95666666Y-58002282D02*
X95571428Y-57954663D01*
X95571428Y-57954663D02*
X95380952Y-57954663D01*
X95380952Y-57954663D02*
X95285714Y-58002282D01*
X95285714Y-58002282D02*
X95238095Y-58049901D01*
X95238095Y-58049901D02*
X95190476Y-58145139D01*
X95190476Y-58145139D02*
X95190476Y-58383234D01*
X95190476Y-58383234D02*
X95238095Y-58478472D01*
X95238095Y-58478472D02*
X95285714Y-58526091D01*
X95285714Y-58526091D02*
X95380952Y-58573710D01*
X95380952Y-58573710D02*
X95571428Y-58573710D01*
X95571428Y-58573710D02*
X95666666Y-58526091D01*
X95666666Y-58526091D02*
X95714285Y-58478472D01*
X95714285Y-58478472D02*
X95761904Y-58383234D01*
X114704663Y-55738094D02*
X113704663Y-55738094D01*
X113704663Y-55738094D02*
X113704663Y-55499999D01*
X113704663Y-55499999D02*
X113752282Y-55357142D01*
X113752282Y-55357142D02*
X113847520Y-55261904D01*
X113847520Y-55261904D02*
X113942758Y-55214285D01*
X113942758Y-55214285D02*
X114133234Y-55166666D01*
X114133234Y-55166666D02*
X114276091Y-55166666D01*
X114276091Y-55166666D02*
X114466567Y-55214285D01*
X114466567Y-55214285D02*
X114561805Y-55261904D01*
X114561805Y-55261904D02*
X114657044Y-55357142D01*
X114657044Y-55357142D02*
X114704663Y-55499999D01*
X114704663Y-55499999D02*
X114704663Y-55738094D01*
X113704663Y-54833332D02*
X113704663Y-54214285D01*
X113704663Y-54214285D02*
X114085615Y-54547618D01*
X114085615Y-54547618D02*
X114085615Y-54404761D01*
X114085615Y-54404761D02*
X114133234Y-54309523D01*
X114133234Y-54309523D02*
X114180853Y-54261904D01*
X114180853Y-54261904D02*
X114276091Y-54214285D01*
X114276091Y-54214285D02*
X114514186Y-54214285D01*
X114514186Y-54214285D02*
X114609424Y-54261904D01*
X114609424Y-54261904D02*
X114657044Y-54309523D01*
X114657044Y-54309523D02*
X114704663Y-54404761D01*
X114704663Y-54404761D02*
X114704663Y-54690475D01*
X114704663Y-54690475D02*
X114657044Y-54785713D01*
X114657044Y-54785713D02*
X114609424Y-54833332D01*
X112204663Y-55738094D02*
X111204663Y-55738094D01*
X111204663Y-55738094D02*
X111204663Y-55499999D01*
X111204663Y-55499999D02*
X111252282Y-55357142D01*
X111252282Y-55357142D02*
X111347520Y-55261904D01*
X111347520Y-55261904D02*
X111442758Y-55214285D01*
X111442758Y-55214285D02*
X111633234Y-55166666D01*
X111633234Y-55166666D02*
X111776091Y-55166666D01*
X111776091Y-55166666D02*
X111966567Y-55214285D01*
X111966567Y-55214285D02*
X112061805Y-55261904D01*
X112061805Y-55261904D02*
X112157044Y-55357142D01*
X112157044Y-55357142D02*
X112204663Y-55499999D01*
X112204663Y-55499999D02*
X112204663Y-55738094D01*
X112204663Y-54214285D02*
X112204663Y-54785713D01*
X112204663Y-54499999D02*
X111204663Y-54499999D01*
X111204663Y-54499999D02*
X111347520Y-54595237D01*
X111347520Y-54595237D02*
X111442758Y-54690475D01*
X111442758Y-54690475D02*
X111490377Y-54785713D01*
X115954663Y-55738094D02*
X114954663Y-55738094D01*
X114954663Y-55738094D02*
X114954663Y-55499999D01*
X114954663Y-55499999D02*
X115002282Y-55357142D01*
X115002282Y-55357142D02*
X115097520Y-55261904D01*
X115097520Y-55261904D02*
X115192758Y-55214285D01*
X115192758Y-55214285D02*
X115383234Y-55166666D01*
X115383234Y-55166666D02*
X115526091Y-55166666D01*
X115526091Y-55166666D02*
X115716567Y-55214285D01*
X115716567Y-55214285D02*
X115811805Y-55261904D01*
X115811805Y-55261904D02*
X115907044Y-55357142D01*
X115907044Y-55357142D02*
X115954663Y-55499999D01*
X115954663Y-55499999D02*
X115954663Y-55738094D01*
X115287996Y-54309523D02*
X115954663Y-54309523D01*
X114907044Y-54547618D02*
X115621329Y-54785713D01*
X115621329Y-54785713D02*
X115621329Y-54166666D01*
X93607142Y-35859424D02*
X93559523Y-35907044D01*
X93559523Y-35907044D02*
X93416666Y-35954663D01*
X93416666Y-35954663D02*
X93321428Y-35954663D01*
X93321428Y-35954663D02*
X93178571Y-35907044D01*
X93178571Y-35907044D02*
X93083333Y-35811805D01*
X93083333Y-35811805D02*
X93035714Y-35716567D01*
X93035714Y-35716567D02*
X92988095Y-35526091D01*
X92988095Y-35526091D02*
X92988095Y-35383234D01*
X92988095Y-35383234D02*
X93035714Y-35192758D01*
X93035714Y-35192758D02*
X93083333Y-35097520D01*
X93083333Y-35097520D02*
X93178571Y-35002282D01*
X93178571Y-35002282D02*
X93321428Y-34954663D01*
X93321428Y-34954663D02*
X93416666Y-34954663D01*
X93416666Y-34954663D02*
X93559523Y-35002282D01*
X93559523Y-35002282D02*
X93607142Y-35049901D01*
X94559523Y-35954663D02*
X93988095Y-35954663D01*
X94273809Y-35954663D02*
X94273809Y-34954663D01*
X94273809Y-34954663D02*
X94178571Y-35097520D01*
X94178571Y-35097520D02*
X94083333Y-35192758D01*
X94083333Y-35192758D02*
X93988095Y-35240377D01*
X95130952Y-35383234D02*
X95035714Y-35335615D01*
X95035714Y-35335615D02*
X94988095Y-35287996D01*
X94988095Y-35287996D02*
X94940476Y-35192758D01*
X94940476Y-35192758D02*
X94940476Y-35145139D01*
X94940476Y-35145139D02*
X94988095Y-35049901D01*
X94988095Y-35049901D02*
X95035714Y-35002282D01*
X95035714Y-35002282D02*
X95130952Y-34954663D01*
X95130952Y-34954663D02*
X95321428Y-34954663D01*
X95321428Y-34954663D02*
X95416666Y-35002282D01*
X95416666Y-35002282D02*
X95464285Y-35049901D01*
X95464285Y-35049901D02*
X95511904Y-35145139D01*
X95511904Y-35145139D02*
X95511904Y-35192758D01*
X95511904Y-35192758D02*
X95464285Y-35287996D01*
X95464285Y-35287996D02*
X95416666Y-35335615D01*
X95416666Y-35335615D02*
X95321428Y-35383234D01*
X95321428Y-35383234D02*
X95130952Y-35383234D01*
X95130952Y-35383234D02*
X95035714Y-35430853D01*
X95035714Y-35430853D02*
X94988095Y-35478472D01*
X94988095Y-35478472D02*
X94940476Y-35573710D01*
X94940476Y-35573710D02*
X94940476Y-35764186D01*
X94940476Y-35764186D02*
X94988095Y-35859424D01*
X94988095Y-35859424D02*
X95035714Y-35907044D01*
X95035714Y-35907044D02*
X95130952Y-35954663D01*
X95130952Y-35954663D02*
X95321428Y-35954663D01*
X95321428Y-35954663D02*
X95416666Y-35907044D01*
X95416666Y-35907044D02*
X95464285Y-35859424D01*
X95464285Y-35859424D02*
X95511904Y-35764186D01*
X95511904Y-35764186D02*
X95511904Y-35573710D01*
X95511904Y-35573710D02*
X95464285Y-35478472D01*
X95464285Y-35478472D02*
X95416666Y-35430853D01*
X95416666Y-35430853D02*
X95321428Y-35383234D01*
X156609424Y-44642857D02*
X156657044Y-44690476D01*
X156657044Y-44690476D02*
X156704663Y-44833333D01*
X156704663Y-44833333D02*
X156704663Y-44928571D01*
X156704663Y-44928571D02*
X156657044Y-45071428D01*
X156657044Y-45071428D02*
X156561805Y-45166666D01*
X156561805Y-45166666D02*
X156466567Y-45214285D01*
X156466567Y-45214285D02*
X156276091Y-45261904D01*
X156276091Y-45261904D02*
X156133234Y-45261904D01*
X156133234Y-45261904D02*
X155942758Y-45214285D01*
X155942758Y-45214285D02*
X155847520Y-45166666D01*
X155847520Y-45166666D02*
X155752282Y-45071428D01*
X155752282Y-45071428D02*
X155704663Y-44928571D01*
X155704663Y-44928571D02*
X155704663Y-44833333D01*
X155704663Y-44833333D02*
X155752282Y-44690476D01*
X155752282Y-44690476D02*
X155799901Y-44642857D01*
X155704663Y-44309523D02*
X155704663Y-43690476D01*
X155704663Y-43690476D02*
X156085615Y-44023809D01*
X156085615Y-44023809D02*
X156085615Y-43880952D01*
X156085615Y-43880952D02*
X156133234Y-43785714D01*
X156133234Y-43785714D02*
X156180853Y-43738095D01*
X156180853Y-43738095D02*
X156276091Y-43690476D01*
X156276091Y-43690476D02*
X156514186Y-43690476D01*
X156514186Y-43690476D02*
X156609424Y-43738095D01*
X156609424Y-43738095D02*
X156657044Y-43785714D01*
X156657044Y-43785714D02*
X156704663Y-43880952D01*
X156704663Y-43880952D02*
X156704663Y-44166666D01*
X156704663Y-44166666D02*
X156657044Y-44261904D01*
X156657044Y-44261904D02*
X156609424Y-44309523D01*
X155704663Y-43357142D02*
X155704663Y-42690476D01*
X155704663Y-42690476D02*
X156704663Y-43119047D01*
X118857142Y-30859424D02*
X118809523Y-30907044D01*
X118809523Y-30907044D02*
X118666666Y-30954663D01*
X118666666Y-30954663D02*
X118571428Y-30954663D01*
X118571428Y-30954663D02*
X118428571Y-30907044D01*
X118428571Y-30907044D02*
X118333333Y-30811805D01*
X118333333Y-30811805D02*
X118285714Y-30716567D01*
X118285714Y-30716567D02*
X118238095Y-30526091D01*
X118238095Y-30526091D02*
X118238095Y-30383234D01*
X118238095Y-30383234D02*
X118285714Y-30192758D01*
X118285714Y-30192758D02*
X118333333Y-30097520D01*
X118333333Y-30097520D02*
X118428571Y-30002282D01*
X118428571Y-30002282D02*
X118571428Y-29954663D01*
X118571428Y-29954663D02*
X118666666Y-29954663D01*
X118666666Y-29954663D02*
X118809523Y-30002282D01*
X118809523Y-30002282D02*
X118857142Y-30049901D01*
X119190476Y-29954663D02*
X119809523Y-29954663D01*
X119809523Y-29954663D02*
X119476190Y-30335615D01*
X119476190Y-30335615D02*
X119619047Y-30335615D01*
X119619047Y-30335615D02*
X119714285Y-30383234D01*
X119714285Y-30383234D02*
X119761904Y-30430853D01*
X119761904Y-30430853D02*
X119809523Y-30526091D01*
X119809523Y-30526091D02*
X119809523Y-30764186D01*
X119809523Y-30764186D02*
X119761904Y-30859424D01*
X119761904Y-30859424D02*
X119714285Y-30907044D01*
X119714285Y-30907044D02*
X119619047Y-30954663D01*
X119619047Y-30954663D02*
X119333333Y-30954663D01*
X119333333Y-30954663D02*
X119238095Y-30907044D01*
X119238095Y-30907044D02*
X119190476Y-30859424D01*
X120666666Y-30287996D02*
X120666666Y-30954663D01*
X120428571Y-29907044D02*
X120190476Y-30621329D01*
X120190476Y-30621329D02*
X120809523Y-30621329D01*
X126357142Y-30859424D02*
X126309523Y-30907044D01*
X126309523Y-30907044D02*
X126166666Y-30954663D01*
X126166666Y-30954663D02*
X126071428Y-30954663D01*
X126071428Y-30954663D02*
X125928571Y-30907044D01*
X125928571Y-30907044D02*
X125833333Y-30811805D01*
X125833333Y-30811805D02*
X125785714Y-30716567D01*
X125785714Y-30716567D02*
X125738095Y-30526091D01*
X125738095Y-30526091D02*
X125738095Y-30383234D01*
X125738095Y-30383234D02*
X125785714Y-30192758D01*
X125785714Y-30192758D02*
X125833333Y-30097520D01*
X125833333Y-30097520D02*
X125928571Y-30002282D01*
X125928571Y-30002282D02*
X126071428Y-29954663D01*
X126071428Y-29954663D02*
X126166666Y-29954663D01*
X126166666Y-29954663D02*
X126309523Y-30002282D01*
X126309523Y-30002282D02*
X126357142Y-30049901D01*
X126690476Y-29954663D02*
X127309523Y-29954663D01*
X127309523Y-29954663D02*
X126976190Y-30335615D01*
X126976190Y-30335615D02*
X127119047Y-30335615D01*
X127119047Y-30335615D02*
X127214285Y-30383234D01*
X127214285Y-30383234D02*
X127261904Y-30430853D01*
X127261904Y-30430853D02*
X127309523Y-30526091D01*
X127309523Y-30526091D02*
X127309523Y-30764186D01*
X127309523Y-30764186D02*
X127261904Y-30859424D01*
X127261904Y-30859424D02*
X127214285Y-30907044D01*
X127214285Y-30907044D02*
X127119047Y-30954663D01*
X127119047Y-30954663D02*
X126833333Y-30954663D01*
X126833333Y-30954663D02*
X126738095Y-30907044D01*
X126738095Y-30907044D02*
X126690476Y-30859424D01*
X127690476Y-30049901D02*
X127738095Y-30002282D01*
X127738095Y-30002282D02*
X127833333Y-29954663D01*
X127833333Y-29954663D02*
X128071428Y-29954663D01*
X128071428Y-29954663D02*
X128166666Y-30002282D01*
X128166666Y-30002282D02*
X128214285Y-30049901D01*
X128214285Y-30049901D02*
X128261904Y-30145139D01*
X128261904Y-30145139D02*
X128261904Y-30240377D01*
X128261904Y-30240377D02*
X128214285Y-30383234D01*
X128214285Y-30383234D02*
X127642857Y-30954663D01*
X127642857Y-30954663D02*
X128261904Y-30954663D01*
X118857142Y-64109424D02*
X118809523Y-64157044D01*
X118809523Y-64157044D02*
X118666666Y-64204663D01*
X118666666Y-64204663D02*
X118571428Y-64204663D01*
X118571428Y-64204663D02*
X118428571Y-64157044D01*
X118428571Y-64157044D02*
X118333333Y-64061805D01*
X118333333Y-64061805D02*
X118285714Y-63966567D01*
X118285714Y-63966567D02*
X118238095Y-63776091D01*
X118238095Y-63776091D02*
X118238095Y-63633234D01*
X118238095Y-63633234D02*
X118285714Y-63442758D01*
X118285714Y-63442758D02*
X118333333Y-63347520D01*
X118333333Y-63347520D02*
X118428571Y-63252282D01*
X118428571Y-63252282D02*
X118571428Y-63204663D01*
X118571428Y-63204663D02*
X118666666Y-63204663D01*
X118666666Y-63204663D02*
X118809523Y-63252282D01*
X118809523Y-63252282D02*
X118857142Y-63299901D01*
X119238095Y-63299901D02*
X119285714Y-63252282D01*
X119285714Y-63252282D02*
X119380952Y-63204663D01*
X119380952Y-63204663D02*
X119619047Y-63204663D01*
X119619047Y-63204663D02*
X119714285Y-63252282D01*
X119714285Y-63252282D02*
X119761904Y-63299901D01*
X119761904Y-63299901D02*
X119809523Y-63395139D01*
X119809523Y-63395139D02*
X119809523Y-63490377D01*
X119809523Y-63490377D02*
X119761904Y-63633234D01*
X119761904Y-63633234D02*
X119190476Y-64204663D01*
X119190476Y-64204663D02*
X119809523Y-64204663D01*
X120666666Y-63204663D02*
X120476190Y-63204663D01*
X120476190Y-63204663D02*
X120380952Y-63252282D01*
X120380952Y-63252282D02*
X120333333Y-63299901D01*
X120333333Y-63299901D02*
X120238095Y-63442758D01*
X120238095Y-63442758D02*
X120190476Y-63633234D01*
X120190476Y-63633234D02*
X120190476Y-64014186D01*
X120190476Y-64014186D02*
X120238095Y-64109424D01*
X120238095Y-64109424D02*
X120285714Y-64157044D01*
X120285714Y-64157044D02*
X120380952Y-64204663D01*
X120380952Y-64204663D02*
X120571428Y-64204663D01*
X120571428Y-64204663D02*
X120666666Y-64157044D01*
X120666666Y-64157044D02*
X120714285Y-64109424D01*
X120714285Y-64109424D02*
X120761904Y-64014186D01*
X120761904Y-64014186D02*
X120761904Y-63776091D01*
X120761904Y-63776091D02*
X120714285Y-63680853D01*
X120714285Y-63680853D02*
X120666666Y-63633234D01*
X120666666Y-63633234D02*
X120571428Y-63585615D01*
X120571428Y-63585615D02*
X120380952Y-63585615D01*
X120380952Y-63585615D02*
X120285714Y-63633234D01*
X120285714Y-63633234D02*
X120238095Y-63680853D01*
X120238095Y-63680853D02*
X120190476Y-63776091D01*
X141357142Y-30859424D02*
X141309523Y-30907044D01*
X141309523Y-30907044D02*
X141166666Y-30954663D01*
X141166666Y-30954663D02*
X141071428Y-30954663D01*
X141071428Y-30954663D02*
X140928571Y-30907044D01*
X140928571Y-30907044D02*
X140833333Y-30811805D01*
X140833333Y-30811805D02*
X140785714Y-30716567D01*
X140785714Y-30716567D02*
X140738095Y-30526091D01*
X140738095Y-30526091D02*
X140738095Y-30383234D01*
X140738095Y-30383234D02*
X140785714Y-30192758D01*
X140785714Y-30192758D02*
X140833333Y-30097520D01*
X140833333Y-30097520D02*
X140928571Y-30002282D01*
X140928571Y-30002282D02*
X141071428Y-29954663D01*
X141071428Y-29954663D02*
X141166666Y-29954663D01*
X141166666Y-29954663D02*
X141309523Y-30002282D01*
X141309523Y-30002282D02*
X141357142Y-30049901D01*
X142214285Y-30287996D02*
X142214285Y-30954663D01*
X141976190Y-29907044D02*
X141738095Y-30621329D01*
X141738095Y-30621329D02*
X142357142Y-30621329D01*
X143261904Y-30954663D02*
X142690476Y-30954663D01*
X142976190Y-30954663D02*
X142976190Y-29954663D01*
X142976190Y-29954663D02*
X142880952Y-30097520D01*
X142880952Y-30097520D02*
X142785714Y-30192758D01*
X142785714Y-30192758D02*
X142690476Y-30240377D01*
X141357142Y-64109424D02*
X141309523Y-64157044D01*
X141309523Y-64157044D02*
X141166666Y-64204663D01*
X141166666Y-64204663D02*
X141071428Y-64204663D01*
X141071428Y-64204663D02*
X140928571Y-64157044D01*
X140928571Y-64157044D02*
X140833333Y-64061805D01*
X140833333Y-64061805D02*
X140785714Y-63966567D01*
X140785714Y-63966567D02*
X140738095Y-63776091D01*
X140738095Y-63776091D02*
X140738095Y-63633234D01*
X140738095Y-63633234D02*
X140785714Y-63442758D01*
X140785714Y-63442758D02*
X140833333Y-63347520D01*
X140833333Y-63347520D02*
X140928571Y-63252282D01*
X140928571Y-63252282D02*
X141071428Y-63204663D01*
X141071428Y-63204663D02*
X141166666Y-63204663D01*
X141166666Y-63204663D02*
X141309523Y-63252282D01*
X141309523Y-63252282D02*
X141357142Y-63299901D01*
X141738095Y-63299901D02*
X141785714Y-63252282D01*
X141785714Y-63252282D02*
X141880952Y-63204663D01*
X141880952Y-63204663D02*
X142119047Y-63204663D01*
X142119047Y-63204663D02*
X142214285Y-63252282D01*
X142214285Y-63252282D02*
X142261904Y-63299901D01*
X142261904Y-63299901D02*
X142309523Y-63395139D01*
X142309523Y-63395139D02*
X142309523Y-63490377D01*
X142309523Y-63490377D02*
X142261904Y-63633234D01*
X142261904Y-63633234D02*
X141690476Y-64204663D01*
X141690476Y-64204663D02*
X142309523Y-64204663D01*
X142880952Y-63633234D02*
X142785714Y-63585615D01*
X142785714Y-63585615D02*
X142738095Y-63537996D01*
X142738095Y-63537996D02*
X142690476Y-63442758D01*
X142690476Y-63442758D02*
X142690476Y-63395139D01*
X142690476Y-63395139D02*
X142738095Y-63299901D01*
X142738095Y-63299901D02*
X142785714Y-63252282D01*
X142785714Y-63252282D02*
X142880952Y-63204663D01*
X142880952Y-63204663D02*
X143071428Y-63204663D01*
X143071428Y-63204663D02*
X143166666Y-63252282D01*
X143166666Y-63252282D02*
X143214285Y-63299901D01*
X143214285Y-63299901D02*
X143261904Y-63395139D01*
X143261904Y-63395139D02*
X143261904Y-63442758D01*
X143261904Y-63442758D02*
X143214285Y-63537996D01*
X143214285Y-63537996D02*
X143166666Y-63585615D01*
X143166666Y-63585615D02*
X143071428Y-63633234D01*
X143071428Y-63633234D02*
X142880952Y-63633234D01*
X142880952Y-63633234D02*
X142785714Y-63680853D01*
X142785714Y-63680853D02*
X142738095Y-63728472D01*
X142738095Y-63728472D02*
X142690476Y-63823710D01*
X142690476Y-63823710D02*
X142690476Y-64014186D01*
X142690476Y-64014186D02*
X142738095Y-64109424D01*
X142738095Y-64109424D02*
X142785714Y-64157044D01*
X142785714Y-64157044D02*
X142880952Y-64204663D01*
X142880952Y-64204663D02*
X143071428Y-64204663D01*
X143071428Y-64204663D02*
X143166666Y-64157044D01*
X143166666Y-64157044D02*
X143214285Y-64109424D01*
X143214285Y-64109424D02*
X143261904Y-64014186D01*
X143261904Y-64014186D02*
X143261904Y-63823710D01*
X143261904Y-63823710D02*
X143214285Y-63728472D01*
X143214285Y-63728472D02*
X143166666Y-63680853D01*
X143166666Y-63680853D02*
X143071428Y-63633234D01*
X154109424Y-50142857D02*
X154157044Y-50190476D01*
X154157044Y-50190476D02*
X154204663Y-50333333D01*
X154204663Y-50333333D02*
X154204663Y-50428571D01*
X154204663Y-50428571D02*
X154157044Y-50571428D01*
X154157044Y-50571428D02*
X154061805Y-50666666D01*
X154061805Y-50666666D02*
X153966567Y-50714285D01*
X153966567Y-50714285D02*
X153776091Y-50761904D01*
X153776091Y-50761904D02*
X153633234Y-50761904D01*
X153633234Y-50761904D02*
X153442758Y-50714285D01*
X153442758Y-50714285D02*
X153347520Y-50666666D01*
X153347520Y-50666666D02*
X153252282Y-50571428D01*
X153252282Y-50571428D02*
X153204663Y-50428571D01*
X153204663Y-50428571D02*
X153204663Y-50333333D01*
X153204663Y-50333333D02*
X153252282Y-50190476D01*
X153252282Y-50190476D02*
X153299901Y-50142857D01*
X153299901Y-49761904D02*
X153252282Y-49714285D01*
X153252282Y-49714285D02*
X153204663Y-49619047D01*
X153204663Y-49619047D02*
X153204663Y-49380952D01*
X153204663Y-49380952D02*
X153252282Y-49285714D01*
X153252282Y-49285714D02*
X153299901Y-49238095D01*
X153299901Y-49238095D02*
X153395139Y-49190476D01*
X153395139Y-49190476D02*
X153490377Y-49190476D01*
X153490377Y-49190476D02*
X153633234Y-49238095D01*
X153633234Y-49238095D02*
X154204663Y-49809523D01*
X154204663Y-49809523D02*
X154204663Y-49190476D01*
X153204663Y-48285714D02*
X153204663Y-48761904D01*
X153204663Y-48761904D02*
X153680853Y-48809523D01*
X153680853Y-48809523D02*
X153633234Y-48761904D01*
X153633234Y-48761904D02*
X153585615Y-48666666D01*
X153585615Y-48666666D02*
X153585615Y-48428571D01*
X153585615Y-48428571D02*
X153633234Y-48333333D01*
X153633234Y-48333333D02*
X153680853Y-48285714D01*
X153680853Y-48285714D02*
X153776091Y-48238095D01*
X153776091Y-48238095D02*
X154014186Y-48238095D01*
X154014186Y-48238095D02*
X154109424Y-48285714D01*
X154109424Y-48285714D02*
X154157044Y-48333333D01*
X154157044Y-48333333D02*
X154204663Y-48428571D01*
X154204663Y-48428571D02*
X154204663Y-48666666D01*
X154204663Y-48666666D02*
X154157044Y-48761904D01*
X154157044Y-48761904D02*
X154109424Y-48809523D01*
X157859424Y-44642857D02*
X157907044Y-44690476D01*
X157907044Y-44690476D02*
X157954663Y-44833333D01*
X157954663Y-44833333D02*
X157954663Y-44928571D01*
X157954663Y-44928571D02*
X157907044Y-45071428D01*
X157907044Y-45071428D02*
X157811805Y-45166666D01*
X157811805Y-45166666D02*
X157716567Y-45214285D01*
X157716567Y-45214285D02*
X157526091Y-45261904D01*
X157526091Y-45261904D02*
X157383234Y-45261904D01*
X157383234Y-45261904D02*
X157192758Y-45214285D01*
X157192758Y-45214285D02*
X157097520Y-45166666D01*
X157097520Y-45166666D02*
X157002282Y-45071428D01*
X157002282Y-45071428D02*
X156954663Y-44928571D01*
X156954663Y-44928571D02*
X156954663Y-44833333D01*
X156954663Y-44833333D02*
X157002282Y-44690476D01*
X157002282Y-44690476D02*
X157049901Y-44642857D01*
X156954663Y-44309523D02*
X156954663Y-43690476D01*
X156954663Y-43690476D02*
X157335615Y-44023809D01*
X157335615Y-44023809D02*
X157335615Y-43880952D01*
X157335615Y-43880952D02*
X157383234Y-43785714D01*
X157383234Y-43785714D02*
X157430853Y-43738095D01*
X157430853Y-43738095D02*
X157526091Y-43690476D01*
X157526091Y-43690476D02*
X157764186Y-43690476D01*
X157764186Y-43690476D02*
X157859424Y-43738095D01*
X157859424Y-43738095D02*
X157907044Y-43785714D01*
X157907044Y-43785714D02*
X157954663Y-43880952D01*
X157954663Y-43880952D02*
X157954663Y-44166666D01*
X157954663Y-44166666D02*
X157907044Y-44261904D01*
X157907044Y-44261904D02*
X157859424Y-44309523D01*
X156954663Y-43357142D02*
X156954663Y-42738095D01*
X156954663Y-42738095D02*
X157335615Y-43071428D01*
X157335615Y-43071428D02*
X157335615Y-42928571D01*
X157335615Y-42928571D02*
X157383234Y-42833333D01*
X157383234Y-42833333D02*
X157430853Y-42785714D01*
X157430853Y-42785714D02*
X157526091Y-42738095D01*
X157526091Y-42738095D02*
X157764186Y-42738095D01*
X157764186Y-42738095D02*
X157859424Y-42785714D01*
X157859424Y-42785714D02*
X157907044Y-42833333D01*
X157907044Y-42833333D02*
X157954663Y-42928571D01*
X157954663Y-42928571D02*
X157954663Y-43214285D01*
X157954663Y-43214285D02*
X157907044Y-43309523D01*
X157907044Y-43309523D02*
X157859424Y-43357142D01*
X148857142Y-64109424D02*
X148809523Y-64157044D01*
X148809523Y-64157044D02*
X148666666Y-64204663D01*
X148666666Y-64204663D02*
X148571428Y-64204663D01*
X148571428Y-64204663D02*
X148428571Y-64157044D01*
X148428571Y-64157044D02*
X148333333Y-64061805D01*
X148333333Y-64061805D02*
X148285714Y-63966567D01*
X148285714Y-63966567D02*
X148238095Y-63776091D01*
X148238095Y-63776091D02*
X148238095Y-63633234D01*
X148238095Y-63633234D02*
X148285714Y-63442758D01*
X148285714Y-63442758D02*
X148333333Y-63347520D01*
X148333333Y-63347520D02*
X148428571Y-63252282D01*
X148428571Y-63252282D02*
X148571428Y-63204663D01*
X148571428Y-63204663D02*
X148666666Y-63204663D01*
X148666666Y-63204663D02*
X148809523Y-63252282D01*
X148809523Y-63252282D02*
X148857142Y-63299901D01*
X149238095Y-63299901D02*
X149285714Y-63252282D01*
X149285714Y-63252282D02*
X149380952Y-63204663D01*
X149380952Y-63204663D02*
X149619047Y-63204663D01*
X149619047Y-63204663D02*
X149714285Y-63252282D01*
X149714285Y-63252282D02*
X149761904Y-63299901D01*
X149761904Y-63299901D02*
X149809523Y-63395139D01*
X149809523Y-63395139D02*
X149809523Y-63490377D01*
X149809523Y-63490377D02*
X149761904Y-63633234D01*
X149761904Y-63633234D02*
X149190476Y-64204663D01*
X149190476Y-64204663D02*
X149809523Y-64204663D01*
X150142857Y-63204663D02*
X150809523Y-63204663D01*
X150809523Y-63204663D02*
X150380952Y-64204663D01*
X155359424Y-50142857D02*
X155407044Y-50190476D01*
X155407044Y-50190476D02*
X155454663Y-50333333D01*
X155454663Y-50333333D02*
X155454663Y-50428571D01*
X155454663Y-50428571D02*
X155407044Y-50571428D01*
X155407044Y-50571428D02*
X155311805Y-50666666D01*
X155311805Y-50666666D02*
X155216567Y-50714285D01*
X155216567Y-50714285D02*
X155026091Y-50761904D01*
X155026091Y-50761904D02*
X154883234Y-50761904D01*
X154883234Y-50761904D02*
X154692758Y-50714285D01*
X154692758Y-50714285D02*
X154597520Y-50666666D01*
X154597520Y-50666666D02*
X154502282Y-50571428D01*
X154502282Y-50571428D02*
X154454663Y-50428571D01*
X154454663Y-50428571D02*
X154454663Y-50333333D01*
X154454663Y-50333333D02*
X154502282Y-50190476D01*
X154502282Y-50190476D02*
X154549901Y-50142857D01*
X154549901Y-49761904D02*
X154502282Y-49714285D01*
X154502282Y-49714285D02*
X154454663Y-49619047D01*
X154454663Y-49619047D02*
X154454663Y-49380952D01*
X154454663Y-49380952D02*
X154502282Y-49285714D01*
X154502282Y-49285714D02*
X154549901Y-49238095D01*
X154549901Y-49238095D02*
X154645139Y-49190476D01*
X154645139Y-49190476D02*
X154740377Y-49190476D01*
X154740377Y-49190476D02*
X154883234Y-49238095D01*
X154883234Y-49238095D02*
X155454663Y-49809523D01*
X155454663Y-49809523D02*
X155454663Y-49190476D01*
X154787996Y-48333333D02*
X155454663Y-48333333D01*
X154407044Y-48571428D02*
X155121329Y-48809523D01*
X155121329Y-48809523D02*
X155121329Y-48190476D01*
X159109424Y-50142857D02*
X159157044Y-50190476D01*
X159157044Y-50190476D02*
X159204663Y-50333333D01*
X159204663Y-50333333D02*
X159204663Y-50428571D01*
X159204663Y-50428571D02*
X159157044Y-50571428D01*
X159157044Y-50571428D02*
X159061805Y-50666666D01*
X159061805Y-50666666D02*
X158966567Y-50714285D01*
X158966567Y-50714285D02*
X158776091Y-50761904D01*
X158776091Y-50761904D02*
X158633234Y-50761904D01*
X158633234Y-50761904D02*
X158442758Y-50714285D01*
X158442758Y-50714285D02*
X158347520Y-50666666D01*
X158347520Y-50666666D02*
X158252282Y-50571428D01*
X158252282Y-50571428D02*
X158204663Y-50428571D01*
X158204663Y-50428571D02*
X158204663Y-50333333D01*
X158204663Y-50333333D02*
X158252282Y-50190476D01*
X158252282Y-50190476D02*
X158299901Y-50142857D01*
X158204663Y-49809523D02*
X158204663Y-49190476D01*
X158204663Y-49190476D02*
X158585615Y-49523809D01*
X158585615Y-49523809D02*
X158585615Y-49380952D01*
X158585615Y-49380952D02*
X158633234Y-49285714D01*
X158633234Y-49285714D02*
X158680853Y-49238095D01*
X158680853Y-49238095D02*
X158776091Y-49190476D01*
X158776091Y-49190476D02*
X159014186Y-49190476D01*
X159014186Y-49190476D02*
X159109424Y-49238095D01*
X159109424Y-49238095D02*
X159157044Y-49285714D01*
X159157044Y-49285714D02*
X159204663Y-49380952D01*
X159204663Y-49380952D02*
X159204663Y-49666666D01*
X159204663Y-49666666D02*
X159157044Y-49761904D01*
X159157044Y-49761904D02*
X159109424Y-49809523D01*
X159204663Y-48238095D02*
X159204663Y-48809523D01*
X159204663Y-48523809D02*
X158204663Y-48523809D01*
X158204663Y-48523809D02*
X158347520Y-48619047D01*
X158347520Y-48619047D02*
X158442758Y-48714285D01*
X158442758Y-48714285D02*
X158490377Y-48809523D01*
X154109424Y-44642857D02*
X154157044Y-44690476D01*
X154157044Y-44690476D02*
X154204663Y-44833333D01*
X154204663Y-44833333D02*
X154204663Y-44928571D01*
X154204663Y-44928571D02*
X154157044Y-45071428D01*
X154157044Y-45071428D02*
X154061805Y-45166666D01*
X154061805Y-45166666D02*
X153966567Y-45214285D01*
X153966567Y-45214285D02*
X153776091Y-45261904D01*
X153776091Y-45261904D02*
X153633234Y-45261904D01*
X153633234Y-45261904D02*
X153442758Y-45214285D01*
X153442758Y-45214285D02*
X153347520Y-45166666D01*
X153347520Y-45166666D02*
X153252282Y-45071428D01*
X153252282Y-45071428D02*
X153204663Y-44928571D01*
X153204663Y-44928571D02*
X153204663Y-44833333D01*
X153204663Y-44833333D02*
X153252282Y-44690476D01*
X153252282Y-44690476D02*
X153299901Y-44642857D01*
X153537996Y-43785714D02*
X154204663Y-43785714D01*
X153157044Y-44023809D02*
X153871329Y-44261904D01*
X153871329Y-44261904D02*
X153871329Y-43642857D01*
X153204663Y-43071428D02*
X153204663Y-42976190D01*
X153204663Y-42976190D02*
X153252282Y-42880952D01*
X153252282Y-42880952D02*
X153299901Y-42833333D01*
X153299901Y-42833333D02*
X153395139Y-42785714D01*
X153395139Y-42785714D02*
X153585615Y-42738095D01*
X153585615Y-42738095D02*
X153823710Y-42738095D01*
X153823710Y-42738095D02*
X154014186Y-42785714D01*
X154014186Y-42785714D02*
X154109424Y-42833333D01*
X154109424Y-42833333D02*
X154157044Y-42880952D01*
X154157044Y-42880952D02*
X154204663Y-42976190D01*
X154204663Y-42976190D02*
X154204663Y-43071428D01*
X154204663Y-43071428D02*
X154157044Y-43166666D01*
X154157044Y-43166666D02*
X154109424Y-43214285D01*
X154109424Y-43214285D02*
X154014186Y-43261904D01*
X154014186Y-43261904D02*
X153823710Y-43309523D01*
X153823710Y-43309523D02*
X153585615Y-43309523D01*
X153585615Y-43309523D02*
X153395139Y-43261904D01*
X153395139Y-43261904D02*
X153299901Y-43214285D01*
X153299901Y-43214285D02*
X153252282Y-43166666D01*
X153252282Y-43166666D02*
X153204663Y-43071428D01*
X133857142Y-64109424D02*
X133809523Y-64157044D01*
X133809523Y-64157044D02*
X133666666Y-64204663D01*
X133666666Y-64204663D02*
X133571428Y-64204663D01*
X133571428Y-64204663D02*
X133428571Y-64157044D01*
X133428571Y-64157044D02*
X133333333Y-64061805D01*
X133333333Y-64061805D02*
X133285714Y-63966567D01*
X133285714Y-63966567D02*
X133238095Y-63776091D01*
X133238095Y-63776091D02*
X133238095Y-63633234D01*
X133238095Y-63633234D02*
X133285714Y-63442758D01*
X133285714Y-63442758D02*
X133333333Y-63347520D01*
X133333333Y-63347520D02*
X133428571Y-63252282D01*
X133428571Y-63252282D02*
X133571428Y-63204663D01*
X133571428Y-63204663D02*
X133666666Y-63204663D01*
X133666666Y-63204663D02*
X133809523Y-63252282D01*
X133809523Y-63252282D02*
X133857142Y-63299901D01*
X134238095Y-63299901D02*
X134285714Y-63252282D01*
X134285714Y-63252282D02*
X134380952Y-63204663D01*
X134380952Y-63204663D02*
X134619047Y-63204663D01*
X134619047Y-63204663D02*
X134714285Y-63252282D01*
X134714285Y-63252282D02*
X134761904Y-63299901D01*
X134761904Y-63299901D02*
X134809523Y-63395139D01*
X134809523Y-63395139D02*
X134809523Y-63490377D01*
X134809523Y-63490377D02*
X134761904Y-63633234D01*
X134761904Y-63633234D02*
X134190476Y-64204663D01*
X134190476Y-64204663D02*
X134809523Y-64204663D01*
X135285714Y-64204663D02*
X135476190Y-64204663D01*
X135476190Y-64204663D02*
X135571428Y-64157044D01*
X135571428Y-64157044D02*
X135619047Y-64109424D01*
X135619047Y-64109424D02*
X135714285Y-63966567D01*
X135714285Y-63966567D02*
X135761904Y-63776091D01*
X135761904Y-63776091D02*
X135761904Y-63395139D01*
X135761904Y-63395139D02*
X135714285Y-63299901D01*
X135714285Y-63299901D02*
X135666666Y-63252282D01*
X135666666Y-63252282D02*
X135571428Y-63204663D01*
X135571428Y-63204663D02*
X135380952Y-63204663D01*
X135380952Y-63204663D02*
X135285714Y-63252282D01*
X135285714Y-63252282D02*
X135238095Y-63299901D01*
X135238095Y-63299901D02*
X135190476Y-63395139D01*
X135190476Y-63395139D02*
X135190476Y-63633234D01*
X135190476Y-63633234D02*
X135238095Y-63728472D01*
X135238095Y-63728472D02*
X135285714Y-63776091D01*
X135285714Y-63776091D02*
X135380952Y-63823710D01*
X135380952Y-63823710D02*
X135571428Y-63823710D01*
X135571428Y-63823710D02*
X135666666Y-63776091D01*
X135666666Y-63776091D02*
X135714285Y-63728472D01*
X135714285Y-63728472D02*
X135761904Y-63633234D01*
X155359424Y-44642857D02*
X155407044Y-44690476D01*
X155407044Y-44690476D02*
X155454663Y-44833333D01*
X155454663Y-44833333D02*
X155454663Y-44928571D01*
X155454663Y-44928571D02*
X155407044Y-45071428D01*
X155407044Y-45071428D02*
X155311805Y-45166666D01*
X155311805Y-45166666D02*
X155216567Y-45214285D01*
X155216567Y-45214285D02*
X155026091Y-45261904D01*
X155026091Y-45261904D02*
X154883234Y-45261904D01*
X154883234Y-45261904D02*
X154692758Y-45214285D01*
X154692758Y-45214285D02*
X154597520Y-45166666D01*
X154597520Y-45166666D02*
X154502282Y-45071428D01*
X154502282Y-45071428D02*
X154454663Y-44928571D01*
X154454663Y-44928571D02*
X154454663Y-44833333D01*
X154454663Y-44833333D02*
X154502282Y-44690476D01*
X154502282Y-44690476D02*
X154549901Y-44642857D01*
X154454663Y-44309523D02*
X154454663Y-43690476D01*
X154454663Y-43690476D02*
X154835615Y-44023809D01*
X154835615Y-44023809D02*
X154835615Y-43880952D01*
X154835615Y-43880952D02*
X154883234Y-43785714D01*
X154883234Y-43785714D02*
X154930853Y-43738095D01*
X154930853Y-43738095D02*
X155026091Y-43690476D01*
X155026091Y-43690476D02*
X155264186Y-43690476D01*
X155264186Y-43690476D02*
X155359424Y-43738095D01*
X155359424Y-43738095D02*
X155407044Y-43785714D01*
X155407044Y-43785714D02*
X155454663Y-43880952D01*
X155454663Y-43880952D02*
X155454663Y-44166666D01*
X155454663Y-44166666D02*
X155407044Y-44261904D01*
X155407044Y-44261904D02*
X155359424Y-44309523D01*
X155454663Y-43214285D02*
X155454663Y-43023809D01*
X155454663Y-43023809D02*
X155407044Y-42928571D01*
X155407044Y-42928571D02*
X155359424Y-42880952D01*
X155359424Y-42880952D02*
X155216567Y-42785714D01*
X155216567Y-42785714D02*
X155026091Y-42738095D01*
X155026091Y-42738095D02*
X154645139Y-42738095D01*
X154645139Y-42738095D02*
X154549901Y-42785714D01*
X154549901Y-42785714D02*
X154502282Y-42833333D01*
X154502282Y-42833333D02*
X154454663Y-42928571D01*
X154454663Y-42928571D02*
X154454663Y-43119047D01*
X154454663Y-43119047D02*
X154502282Y-43214285D01*
X154502282Y-43214285D02*
X154549901Y-43261904D01*
X154549901Y-43261904D02*
X154645139Y-43309523D01*
X154645139Y-43309523D02*
X154883234Y-43309523D01*
X154883234Y-43309523D02*
X154978472Y-43261904D01*
X154978472Y-43261904D02*
X155026091Y-43214285D01*
X155026091Y-43214285D02*
X155073710Y-43119047D01*
X155073710Y-43119047D02*
X155073710Y-42928571D01*
X155073710Y-42928571D02*
X155026091Y-42833333D01*
X155026091Y-42833333D02*
X154978472Y-42785714D01*
X154978472Y-42785714D02*
X154883234Y-42738095D01*
X159109424Y-44642857D02*
X159157044Y-44690476D01*
X159157044Y-44690476D02*
X159204663Y-44833333D01*
X159204663Y-44833333D02*
X159204663Y-44928571D01*
X159204663Y-44928571D02*
X159157044Y-45071428D01*
X159157044Y-45071428D02*
X159061805Y-45166666D01*
X159061805Y-45166666D02*
X158966567Y-45214285D01*
X158966567Y-45214285D02*
X158776091Y-45261904D01*
X158776091Y-45261904D02*
X158633234Y-45261904D01*
X158633234Y-45261904D02*
X158442758Y-45214285D01*
X158442758Y-45214285D02*
X158347520Y-45166666D01*
X158347520Y-45166666D02*
X158252282Y-45071428D01*
X158252282Y-45071428D02*
X158204663Y-44928571D01*
X158204663Y-44928571D02*
X158204663Y-44833333D01*
X158204663Y-44833333D02*
X158252282Y-44690476D01*
X158252282Y-44690476D02*
X158299901Y-44642857D01*
X158204663Y-44309523D02*
X158204663Y-43690476D01*
X158204663Y-43690476D02*
X158585615Y-44023809D01*
X158585615Y-44023809D02*
X158585615Y-43880952D01*
X158585615Y-43880952D02*
X158633234Y-43785714D01*
X158633234Y-43785714D02*
X158680853Y-43738095D01*
X158680853Y-43738095D02*
X158776091Y-43690476D01*
X158776091Y-43690476D02*
X159014186Y-43690476D01*
X159014186Y-43690476D02*
X159109424Y-43738095D01*
X159109424Y-43738095D02*
X159157044Y-43785714D01*
X159157044Y-43785714D02*
X159204663Y-43880952D01*
X159204663Y-43880952D02*
X159204663Y-44166666D01*
X159204663Y-44166666D02*
X159157044Y-44261904D01*
X159157044Y-44261904D02*
X159109424Y-44309523D01*
X158204663Y-42785714D02*
X158204663Y-43261904D01*
X158204663Y-43261904D02*
X158680853Y-43309523D01*
X158680853Y-43309523D02*
X158633234Y-43261904D01*
X158633234Y-43261904D02*
X158585615Y-43166666D01*
X158585615Y-43166666D02*
X158585615Y-42928571D01*
X158585615Y-42928571D02*
X158633234Y-42833333D01*
X158633234Y-42833333D02*
X158680853Y-42785714D01*
X158680853Y-42785714D02*
X158776091Y-42738095D01*
X158776091Y-42738095D02*
X159014186Y-42738095D01*
X159014186Y-42738095D02*
X159109424Y-42785714D01*
X159109424Y-42785714D02*
X159157044Y-42833333D01*
X159157044Y-42833333D02*
X159204663Y-42928571D01*
X159204663Y-42928571D02*
X159204663Y-43166666D01*
X159204663Y-43166666D02*
X159157044Y-43261904D01*
X159157044Y-43261904D02*
X159109424Y-43309523D01*
X148857142Y-30859424D02*
X148809523Y-30907044D01*
X148809523Y-30907044D02*
X148666666Y-30954663D01*
X148666666Y-30954663D02*
X148571428Y-30954663D01*
X148571428Y-30954663D02*
X148428571Y-30907044D01*
X148428571Y-30907044D02*
X148333333Y-30811805D01*
X148333333Y-30811805D02*
X148285714Y-30716567D01*
X148285714Y-30716567D02*
X148238095Y-30526091D01*
X148238095Y-30526091D02*
X148238095Y-30383234D01*
X148238095Y-30383234D02*
X148285714Y-30192758D01*
X148285714Y-30192758D02*
X148333333Y-30097520D01*
X148333333Y-30097520D02*
X148428571Y-30002282D01*
X148428571Y-30002282D02*
X148571428Y-29954663D01*
X148571428Y-29954663D02*
X148666666Y-29954663D01*
X148666666Y-29954663D02*
X148809523Y-30002282D01*
X148809523Y-30002282D02*
X148857142Y-30049901D01*
X149190476Y-29954663D02*
X149809523Y-29954663D01*
X149809523Y-29954663D02*
X149476190Y-30335615D01*
X149476190Y-30335615D02*
X149619047Y-30335615D01*
X149619047Y-30335615D02*
X149714285Y-30383234D01*
X149714285Y-30383234D02*
X149761904Y-30430853D01*
X149761904Y-30430853D02*
X149809523Y-30526091D01*
X149809523Y-30526091D02*
X149809523Y-30764186D01*
X149809523Y-30764186D02*
X149761904Y-30859424D01*
X149761904Y-30859424D02*
X149714285Y-30907044D01*
X149714285Y-30907044D02*
X149619047Y-30954663D01*
X149619047Y-30954663D02*
X149333333Y-30954663D01*
X149333333Y-30954663D02*
X149238095Y-30907044D01*
X149238095Y-30907044D02*
X149190476Y-30859424D01*
X150666666Y-29954663D02*
X150476190Y-29954663D01*
X150476190Y-29954663D02*
X150380952Y-30002282D01*
X150380952Y-30002282D02*
X150333333Y-30049901D01*
X150333333Y-30049901D02*
X150238095Y-30192758D01*
X150238095Y-30192758D02*
X150190476Y-30383234D01*
X150190476Y-30383234D02*
X150190476Y-30764186D01*
X150190476Y-30764186D02*
X150238095Y-30859424D01*
X150238095Y-30859424D02*
X150285714Y-30907044D01*
X150285714Y-30907044D02*
X150380952Y-30954663D01*
X150380952Y-30954663D02*
X150571428Y-30954663D01*
X150571428Y-30954663D02*
X150666666Y-30907044D01*
X150666666Y-30907044D02*
X150714285Y-30859424D01*
X150714285Y-30859424D02*
X150761904Y-30764186D01*
X150761904Y-30764186D02*
X150761904Y-30526091D01*
X150761904Y-30526091D02*
X150714285Y-30430853D01*
X150714285Y-30430853D02*
X150666666Y-30383234D01*
X150666666Y-30383234D02*
X150571428Y-30335615D01*
X150571428Y-30335615D02*
X150380952Y-30335615D01*
X150380952Y-30335615D02*
X150285714Y-30383234D01*
X150285714Y-30383234D02*
X150238095Y-30430853D01*
X150238095Y-30430853D02*
X150190476Y-30526091D01*
X133857142Y-30859424D02*
X133809523Y-30907044D01*
X133809523Y-30907044D02*
X133666666Y-30954663D01*
X133666666Y-30954663D02*
X133571428Y-30954663D01*
X133571428Y-30954663D02*
X133428571Y-30907044D01*
X133428571Y-30907044D02*
X133333333Y-30811805D01*
X133333333Y-30811805D02*
X133285714Y-30716567D01*
X133285714Y-30716567D02*
X133238095Y-30526091D01*
X133238095Y-30526091D02*
X133238095Y-30383234D01*
X133238095Y-30383234D02*
X133285714Y-30192758D01*
X133285714Y-30192758D02*
X133333333Y-30097520D01*
X133333333Y-30097520D02*
X133428571Y-30002282D01*
X133428571Y-30002282D02*
X133571428Y-29954663D01*
X133571428Y-29954663D02*
X133666666Y-29954663D01*
X133666666Y-29954663D02*
X133809523Y-30002282D01*
X133809523Y-30002282D02*
X133857142Y-30049901D01*
X134190476Y-29954663D02*
X134809523Y-29954663D01*
X134809523Y-29954663D02*
X134476190Y-30335615D01*
X134476190Y-30335615D02*
X134619047Y-30335615D01*
X134619047Y-30335615D02*
X134714285Y-30383234D01*
X134714285Y-30383234D02*
X134761904Y-30430853D01*
X134761904Y-30430853D02*
X134809523Y-30526091D01*
X134809523Y-30526091D02*
X134809523Y-30764186D01*
X134809523Y-30764186D02*
X134761904Y-30859424D01*
X134761904Y-30859424D02*
X134714285Y-30907044D01*
X134714285Y-30907044D02*
X134619047Y-30954663D01*
X134619047Y-30954663D02*
X134333333Y-30954663D01*
X134333333Y-30954663D02*
X134238095Y-30907044D01*
X134238095Y-30907044D02*
X134190476Y-30859424D01*
X135380952Y-30383234D02*
X135285714Y-30335615D01*
X135285714Y-30335615D02*
X135238095Y-30287996D01*
X135238095Y-30287996D02*
X135190476Y-30192758D01*
X135190476Y-30192758D02*
X135190476Y-30145139D01*
X135190476Y-30145139D02*
X135238095Y-30049901D01*
X135238095Y-30049901D02*
X135285714Y-30002282D01*
X135285714Y-30002282D02*
X135380952Y-29954663D01*
X135380952Y-29954663D02*
X135571428Y-29954663D01*
X135571428Y-29954663D02*
X135666666Y-30002282D01*
X135666666Y-30002282D02*
X135714285Y-30049901D01*
X135714285Y-30049901D02*
X135761904Y-30145139D01*
X135761904Y-30145139D02*
X135761904Y-30192758D01*
X135761904Y-30192758D02*
X135714285Y-30287996D01*
X135714285Y-30287996D02*
X135666666Y-30335615D01*
X135666666Y-30335615D02*
X135571428Y-30383234D01*
X135571428Y-30383234D02*
X135380952Y-30383234D01*
X135380952Y-30383234D02*
X135285714Y-30430853D01*
X135285714Y-30430853D02*
X135238095Y-30478472D01*
X135238095Y-30478472D02*
X135190476Y-30573710D01*
X135190476Y-30573710D02*
X135190476Y-30764186D01*
X135190476Y-30764186D02*
X135238095Y-30859424D01*
X135238095Y-30859424D02*
X135285714Y-30907044D01*
X135285714Y-30907044D02*
X135380952Y-30954663D01*
X135380952Y-30954663D02*
X135571428Y-30954663D01*
X135571428Y-30954663D02*
X135666666Y-30907044D01*
X135666666Y-30907044D02*
X135714285Y-30859424D01*
X135714285Y-30859424D02*
X135761904Y-30764186D01*
X135761904Y-30764186D02*
X135761904Y-30573710D01*
X135761904Y-30573710D02*
X135714285Y-30478472D01*
X135714285Y-30478472D02*
X135666666Y-30430853D01*
X135666666Y-30430853D02*
X135571428Y-30383234D01*
X126357142Y-64109424D02*
X126309523Y-64157044D01*
X126309523Y-64157044D02*
X126166666Y-64204663D01*
X126166666Y-64204663D02*
X126071428Y-64204663D01*
X126071428Y-64204663D02*
X125928571Y-64157044D01*
X125928571Y-64157044D02*
X125833333Y-64061805D01*
X125833333Y-64061805D02*
X125785714Y-63966567D01*
X125785714Y-63966567D02*
X125738095Y-63776091D01*
X125738095Y-63776091D02*
X125738095Y-63633234D01*
X125738095Y-63633234D02*
X125785714Y-63442758D01*
X125785714Y-63442758D02*
X125833333Y-63347520D01*
X125833333Y-63347520D02*
X125928571Y-63252282D01*
X125928571Y-63252282D02*
X126071428Y-63204663D01*
X126071428Y-63204663D02*
X126166666Y-63204663D01*
X126166666Y-63204663D02*
X126309523Y-63252282D01*
X126309523Y-63252282D02*
X126357142Y-63299901D01*
X126690476Y-63204663D02*
X127309523Y-63204663D01*
X127309523Y-63204663D02*
X126976190Y-63585615D01*
X126976190Y-63585615D02*
X127119047Y-63585615D01*
X127119047Y-63585615D02*
X127214285Y-63633234D01*
X127214285Y-63633234D02*
X127261904Y-63680853D01*
X127261904Y-63680853D02*
X127309523Y-63776091D01*
X127309523Y-63776091D02*
X127309523Y-64014186D01*
X127309523Y-64014186D02*
X127261904Y-64109424D01*
X127261904Y-64109424D02*
X127214285Y-64157044D01*
X127214285Y-64157044D02*
X127119047Y-64204663D01*
X127119047Y-64204663D02*
X126833333Y-64204663D01*
X126833333Y-64204663D02*
X126738095Y-64157044D01*
X126738095Y-64157044D02*
X126690476Y-64109424D01*
X127928571Y-63204663D02*
X128023809Y-63204663D01*
X128023809Y-63204663D02*
X128119047Y-63252282D01*
X128119047Y-63252282D02*
X128166666Y-63299901D01*
X128166666Y-63299901D02*
X128214285Y-63395139D01*
X128214285Y-63395139D02*
X128261904Y-63585615D01*
X128261904Y-63585615D02*
X128261904Y-63823710D01*
X128261904Y-63823710D02*
X128214285Y-64014186D01*
X128214285Y-64014186D02*
X128166666Y-64109424D01*
X128166666Y-64109424D02*
X128119047Y-64157044D01*
X128119047Y-64157044D02*
X128023809Y-64204663D01*
X128023809Y-64204663D02*
X127928571Y-64204663D01*
X127928571Y-64204663D02*
X127833333Y-64157044D01*
X127833333Y-64157044D02*
X127785714Y-64109424D01*
X127785714Y-64109424D02*
X127738095Y-64014186D01*
X127738095Y-64014186D02*
X127690476Y-63823710D01*
X127690476Y-63823710D02*
X127690476Y-63585615D01*
X127690476Y-63585615D02*
X127738095Y-63395139D01*
X127738095Y-63395139D02*
X127785714Y-63299901D01*
X127785714Y-63299901D02*
X127833333Y-63252282D01*
X127833333Y-63252282D02*
X127928571Y-63204663D01*
X156609424Y-50142857D02*
X156657044Y-50190476D01*
X156657044Y-50190476D02*
X156704663Y-50333333D01*
X156704663Y-50333333D02*
X156704663Y-50428571D01*
X156704663Y-50428571D02*
X156657044Y-50571428D01*
X156657044Y-50571428D02*
X156561805Y-50666666D01*
X156561805Y-50666666D02*
X156466567Y-50714285D01*
X156466567Y-50714285D02*
X156276091Y-50761904D01*
X156276091Y-50761904D02*
X156133234Y-50761904D01*
X156133234Y-50761904D02*
X155942758Y-50714285D01*
X155942758Y-50714285D02*
X155847520Y-50666666D01*
X155847520Y-50666666D02*
X155752282Y-50571428D01*
X155752282Y-50571428D02*
X155704663Y-50428571D01*
X155704663Y-50428571D02*
X155704663Y-50333333D01*
X155704663Y-50333333D02*
X155752282Y-50190476D01*
X155752282Y-50190476D02*
X155799901Y-50142857D01*
X155799901Y-49761904D02*
X155752282Y-49714285D01*
X155752282Y-49714285D02*
X155704663Y-49619047D01*
X155704663Y-49619047D02*
X155704663Y-49380952D01*
X155704663Y-49380952D02*
X155752282Y-49285714D01*
X155752282Y-49285714D02*
X155799901Y-49238095D01*
X155799901Y-49238095D02*
X155895139Y-49190476D01*
X155895139Y-49190476D02*
X155990377Y-49190476D01*
X155990377Y-49190476D02*
X156133234Y-49238095D01*
X156133234Y-49238095D02*
X156704663Y-49809523D01*
X156704663Y-49809523D02*
X156704663Y-49190476D01*
X155704663Y-48857142D02*
X155704663Y-48238095D01*
X155704663Y-48238095D02*
X156085615Y-48571428D01*
X156085615Y-48571428D02*
X156085615Y-48428571D01*
X156085615Y-48428571D02*
X156133234Y-48333333D01*
X156133234Y-48333333D02*
X156180853Y-48285714D01*
X156180853Y-48285714D02*
X156276091Y-48238095D01*
X156276091Y-48238095D02*
X156514186Y-48238095D01*
X156514186Y-48238095D02*
X156609424Y-48285714D01*
X156609424Y-48285714D02*
X156657044Y-48333333D01*
X156657044Y-48333333D02*
X156704663Y-48428571D01*
X156704663Y-48428571D02*
X156704663Y-48714285D01*
X156704663Y-48714285D02*
X156657044Y-48809523D01*
X156657044Y-48809523D02*
X156609424Y-48857142D01*
X70454663Y-54511904D02*
X71264186Y-54511904D01*
X71264186Y-54511904D02*
X71359424Y-54464285D01*
X71359424Y-54464285D02*
X71407044Y-54416666D01*
X71407044Y-54416666D02*
X71454663Y-54321428D01*
X71454663Y-54321428D02*
X71454663Y-54130952D01*
X71454663Y-54130952D02*
X71407044Y-54035714D01*
X71407044Y-54035714D02*
X71359424Y-53988095D01*
X71359424Y-53988095D02*
X71264186Y-53940476D01*
X71264186Y-53940476D02*
X70454663Y-53940476D01*
X70787996Y-53035714D02*
X71454663Y-53035714D01*
X70407044Y-53273809D02*
X71121329Y-53511904D01*
X71121329Y-53511904D02*
X71121329Y-52892857D01*
X67435505Y-64208663D02*
X67435505Y-63208663D01*
X67435505Y-63208663D02*
X67673600Y-63208663D01*
X67673600Y-63208663D02*
X67816457Y-63256282D01*
X67816457Y-63256282D02*
X67911695Y-63351520D01*
X67911695Y-63351520D02*
X67959314Y-63446758D01*
X67959314Y-63446758D02*
X68006933Y-63637234D01*
X68006933Y-63637234D02*
X68006933Y-63780091D01*
X68006933Y-63780091D02*
X67959314Y-63970567D01*
X67959314Y-63970567D02*
X67911695Y-64065805D01*
X67911695Y-64065805D02*
X67816457Y-64161044D01*
X67816457Y-64161044D02*
X67673600Y-64208663D01*
X67673600Y-64208663D02*
X67435505Y-64208663D01*
X68578362Y-63637234D02*
X68483124Y-63589615D01*
X68483124Y-63589615D02*
X68435505Y-63541996D01*
X68435505Y-63541996D02*
X68387886Y-63446758D01*
X68387886Y-63446758D02*
X68387886Y-63399139D01*
X68387886Y-63399139D02*
X68435505Y-63303901D01*
X68435505Y-63303901D02*
X68483124Y-63256282D01*
X68483124Y-63256282D02*
X68578362Y-63208663D01*
X68578362Y-63208663D02*
X68768838Y-63208663D01*
X68768838Y-63208663D02*
X68864076Y-63256282D01*
X68864076Y-63256282D02*
X68911695Y-63303901D01*
X68911695Y-63303901D02*
X68959314Y-63399139D01*
X68959314Y-63399139D02*
X68959314Y-63446758D01*
X68959314Y-63446758D02*
X68911695Y-63541996D01*
X68911695Y-63541996D02*
X68864076Y-63589615D01*
X68864076Y-63589615D02*
X68768838Y-63637234D01*
X68768838Y-63637234D02*
X68578362Y-63637234D01*
X68578362Y-63637234D02*
X68483124Y-63684853D01*
X68483124Y-63684853D02*
X68435505Y-63732472D01*
X68435505Y-63732472D02*
X68387886Y-63827710D01*
X68387886Y-63827710D02*
X68387886Y-64018186D01*
X68387886Y-64018186D02*
X68435505Y-64113424D01*
X68435505Y-64113424D02*
X68483124Y-64161044D01*
X68483124Y-64161044D02*
X68578362Y-64208663D01*
X68578362Y-64208663D02*
X68768838Y-64208663D01*
X68768838Y-64208663D02*
X68864076Y-64161044D01*
X68864076Y-64161044D02*
X68911695Y-64113424D01*
X68911695Y-64113424D02*
X68959314Y-64018186D01*
X68959314Y-64018186D02*
X68959314Y-63827710D01*
X68959314Y-63827710D02*
X68911695Y-63732472D01*
X68911695Y-63732472D02*
X68864076Y-63684853D01*
X68864076Y-63684853D02*
X68768838Y-63637234D01*
X61314105Y-60551063D02*
X61314105Y-59551063D01*
X61314105Y-59551063D02*
X61552200Y-59551063D01*
X61552200Y-59551063D02*
X61695057Y-59598682D01*
X61695057Y-59598682D02*
X61790295Y-59693920D01*
X61790295Y-59693920D02*
X61837914Y-59789158D01*
X61837914Y-59789158D02*
X61885533Y-59979634D01*
X61885533Y-59979634D02*
X61885533Y-60122491D01*
X61885533Y-60122491D02*
X61837914Y-60312967D01*
X61837914Y-60312967D02*
X61790295Y-60408205D01*
X61790295Y-60408205D02*
X61695057Y-60503444D01*
X61695057Y-60503444D02*
X61552200Y-60551063D01*
X61552200Y-60551063D02*
X61314105Y-60551063D01*
X62218867Y-59551063D02*
X62885533Y-59551063D01*
X62885533Y-59551063D02*
X62456962Y-60551063D01*
X59320133Y-64208663D02*
X58986800Y-63732472D01*
X58748705Y-64208663D02*
X58748705Y-63208663D01*
X58748705Y-63208663D02*
X59129657Y-63208663D01*
X59129657Y-63208663D02*
X59224895Y-63256282D01*
X59224895Y-63256282D02*
X59272514Y-63303901D01*
X59272514Y-63303901D02*
X59320133Y-63399139D01*
X59320133Y-63399139D02*
X59320133Y-63541996D01*
X59320133Y-63541996D02*
X59272514Y-63637234D01*
X59272514Y-63637234D02*
X59224895Y-63684853D01*
X59224895Y-63684853D02*
X59129657Y-63732472D01*
X59129657Y-63732472D02*
X58748705Y-63732472D01*
X59891562Y-63637234D02*
X59796324Y-63589615D01*
X59796324Y-63589615D02*
X59748705Y-63541996D01*
X59748705Y-63541996D02*
X59701086Y-63446758D01*
X59701086Y-63446758D02*
X59701086Y-63399139D01*
X59701086Y-63399139D02*
X59748705Y-63303901D01*
X59748705Y-63303901D02*
X59796324Y-63256282D01*
X59796324Y-63256282D02*
X59891562Y-63208663D01*
X59891562Y-63208663D02*
X60082038Y-63208663D01*
X60082038Y-63208663D02*
X60177276Y-63256282D01*
X60177276Y-63256282D02*
X60224895Y-63303901D01*
X60224895Y-63303901D02*
X60272514Y-63399139D01*
X60272514Y-63399139D02*
X60272514Y-63446758D01*
X60272514Y-63446758D02*
X60224895Y-63541996D01*
X60224895Y-63541996D02*
X60177276Y-63589615D01*
X60177276Y-63589615D02*
X60082038Y-63637234D01*
X60082038Y-63637234D02*
X59891562Y-63637234D01*
X59891562Y-63637234D02*
X59796324Y-63684853D01*
X59796324Y-63684853D02*
X59748705Y-63732472D01*
X59748705Y-63732472D02*
X59701086Y-63827710D01*
X59701086Y-63827710D02*
X59701086Y-64018186D01*
X59701086Y-64018186D02*
X59748705Y-64113424D01*
X59748705Y-64113424D02*
X59796324Y-64161044D01*
X59796324Y-64161044D02*
X59891562Y-64208663D01*
X59891562Y-64208663D02*
X60082038Y-64208663D01*
X60082038Y-64208663D02*
X60177276Y-64161044D01*
X60177276Y-64161044D02*
X60224895Y-64113424D01*
X60224895Y-64113424D02*
X60272514Y-64018186D01*
X60272514Y-64018186D02*
X60272514Y-63827710D01*
X60272514Y-63827710D02*
X60224895Y-63732472D01*
X60224895Y-63732472D02*
X60177276Y-63684853D01*
X60177276Y-63684853D02*
X60082038Y-63637234D01*
X64127142Y-60551063D02*
X63793809Y-60074872D01*
X63555714Y-60551063D02*
X63555714Y-59551063D01*
X63555714Y-59551063D02*
X63936666Y-59551063D01*
X63936666Y-59551063D02*
X64031904Y-59598682D01*
X64031904Y-59598682D02*
X64079523Y-59646301D01*
X64079523Y-59646301D02*
X64127142Y-59741539D01*
X64127142Y-59741539D02*
X64127142Y-59884396D01*
X64127142Y-59884396D02*
X64079523Y-59979634D01*
X64079523Y-59979634D02*
X64031904Y-60027253D01*
X64031904Y-60027253D02*
X63936666Y-60074872D01*
X63936666Y-60074872D02*
X63555714Y-60074872D01*
X65079523Y-60551063D02*
X64508095Y-60551063D01*
X64793809Y-60551063D02*
X64793809Y-59551063D01*
X64793809Y-59551063D02*
X64698571Y-59693920D01*
X64698571Y-59693920D02*
X64603333Y-59789158D01*
X64603333Y-59789158D02*
X64508095Y-59836777D01*
X65698571Y-59551063D02*
X65793809Y-59551063D01*
X65793809Y-59551063D02*
X65889047Y-59598682D01*
X65889047Y-59598682D02*
X65936666Y-59646301D01*
X65936666Y-59646301D02*
X65984285Y-59741539D01*
X65984285Y-59741539D02*
X66031904Y-59932015D01*
X66031904Y-59932015D02*
X66031904Y-60170110D01*
X66031904Y-60170110D02*
X65984285Y-60360586D01*
X65984285Y-60360586D02*
X65936666Y-60455824D01*
X65936666Y-60455824D02*
X65889047Y-60503444D01*
X65889047Y-60503444D02*
X65793809Y-60551063D01*
X65793809Y-60551063D02*
X65698571Y-60551063D01*
X65698571Y-60551063D02*
X65603333Y-60503444D01*
X65603333Y-60503444D02*
X65555714Y-60455824D01*
X65555714Y-60455824D02*
X65508095Y-60360586D01*
X65508095Y-60360586D02*
X65460476Y-60170110D01*
X65460476Y-60170110D02*
X65460476Y-59932015D01*
X65460476Y-59932015D02*
X65508095Y-59741539D01*
X65508095Y-59741539D02*
X65555714Y-59646301D01*
X65555714Y-59646301D02*
X65603333Y-59598682D01*
X65603333Y-59598682D02*
X65698571Y-59551063D01*
X54916666Y-50704663D02*
X54916666Y-51418948D01*
X54916666Y-51418948D02*
X54869047Y-51561805D01*
X54869047Y-51561805D02*
X54773809Y-51657044D01*
X54773809Y-51657044D02*
X54630952Y-51704663D01*
X54630952Y-51704663D02*
X54535714Y-51704663D01*
X55821428Y-51037996D02*
X55821428Y-51704663D01*
X55583333Y-50657044D02*
X55345238Y-51371329D01*
X55345238Y-51371329D02*
X55964285Y-51371329D01*
X49666666Y-44454663D02*
X49666666Y-45168948D01*
X49666666Y-45168948D02*
X49619047Y-45311805D01*
X49619047Y-45311805D02*
X49523809Y-45407044D01*
X49523809Y-45407044D02*
X49380952Y-45454663D01*
X49380952Y-45454663D02*
X49285714Y-45454663D01*
X50095238Y-44549901D02*
X50142857Y-44502282D01*
X50142857Y-44502282D02*
X50238095Y-44454663D01*
X50238095Y-44454663D02*
X50476190Y-44454663D01*
X50476190Y-44454663D02*
X50571428Y-44502282D01*
X50571428Y-44502282D02*
X50619047Y-44549901D01*
X50619047Y-44549901D02*
X50666666Y-44645139D01*
X50666666Y-44645139D02*
X50666666Y-44740377D01*
X50666666Y-44740377D02*
X50619047Y-44883234D01*
X50619047Y-44883234D02*
X50047619Y-45454663D01*
X50047619Y-45454663D02*
X50666666Y-45454663D01*
X50166666Y-54454663D02*
X50166666Y-55168948D01*
X50166666Y-55168948D02*
X50119047Y-55311805D01*
X50119047Y-55311805D02*
X50023809Y-55407044D01*
X50023809Y-55407044D02*
X49880952Y-55454663D01*
X49880952Y-55454663D02*
X49785714Y-55454663D01*
X51166666Y-55454663D02*
X50595238Y-55454663D01*
X50880952Y-55454663D02*
X50880952Y-54454663D01*
X50880952Y-54454663D02*
X50785714Y-54597520D01*
X50785714Y-54597520D02*
X50690476Y-54692758D01*
X50690476Y-54692758D02*
X50595238Y-54740377D01*
X168166666Y-45704663D02*
X168166666Y-46418948D01*
X168166666Y-46418948D02*
X168119047Y-46561805D01*
X168119047Y-46561805D02*
X168023809Y-46657044D01*
X168023809Y-46657044D02*
X167880952Y-46704663D01*
X167880952Y-46704663D02*
X167785714Y-46704663D01*
X168547619Y-45704663D02*
X169166666Y-45704663D01*
X169166666Y-45704663D02*
X168833333Y-46085615D01*
X168833333Y-46085615D02*
X168976190Y-46085615D01*
X168976190Y-46085615D02*
X169071428Y-46133234D01*
X169071428Y-46133234D02*
X169119047Y-46180853D01*
X169119047Y-46180853D02*
X169166666Y-46276091D01*
X169166666Y-46276091D02*
X169166666Y-46514186D01*
X169166666Y-46514186D02*
X169119047Y-46609424D01*
X169119047Y-46609424D02*
X169071428Y-46657044D01*
X169071428Y-46657044D02*
X168976190Y-46704663D01*
X168976190Y-46704663D02*
X168690476Y-46704663D01*
X168690476Y-46704663D02*
X168595238Y-46657044D01*
X168595238Y-46657044D02*
X168547619Y-46609424D01*
X50833333Y-52954663D02*
X50357143Y-52954663D01*
X50357143Y-52954663D02*
X50357143Y-51954663D01*
X51690476Y-52954663D02*
X51119048Y-52954663D01*
X51404762Y-52954663D02*
X51404762Y-51954663D01*
X51404762Y-51954663D02*
X51309524Y-52097520D01*
X51309524Y-52097520D02*
X51214286Y-52192758D01*
X51214286Y-52192758D02*
X51119048Y-52240377D01*
X168166666Y-59704663D02*
X168166666Y-60418948D01*
X168166666Y-60418948D02*
X168119047Y-60561805D01*
X168119047Y-60561805D02*
X168023809Y-60657044D01*
X168023809Y-60657044D02*
X167880952Y-60704663D01*
X167880952Y-60704663D02*
X167785714Y-60704663D01*
X169071428Y-59704663D02*
X168880952Y-59704663D01*
X168880952Y-59704663D02*
X168785714Y-59752282D01*
X168785714Y-59752282D02*
X168738095Y-59799901D01*
X168738095Y-59799901D02*
X168642857Y-59942758D01*
X168642857Y-59942758D02*
X168595238Y-60133234D01*
X168595238Y-60133234D02*
X168595238Y-60514186D01*
X168595238Y-60514186D02*
X168642857Y-60609424D01*
X168642857Y-60609424D02*
X168690476Y-60657044D01*
X168690476Y-60657044D02*
X168785714Y-60704663D01*
X168785714Y-60704663D02*
X168976190Y-60704663D01*
X168976190Y-60704663D02*
X169071428Y-60657044D01*
X169071428Y-60657044D02*
X169119047Y-60609424D01*
X169119047Y-60609424D02*
X169166666Y-60514186D01*
X169166666Y-60514186D02*
X169166666Y-60276091D01*
X169166666Y-60276091D02*
X169119047Y-60180853D01*
X169119047Y-60180853D02*
X169071428Y-60133234D01*
X169071428Y-60133234D02*
X168976190Y-60085615D01*
X168976190Y-60085615D02*
X168785714Y-60085615D01*
X168785714Y-60085615D02*
X168690476Y-60133234D01*
X168690476Y-60133234D02*
X168642857Y-60180853D01*
X168642857Y-60180853D02*
X168595238Y-60276091D01*
X157859424Y-50142857D02*
X157907044Y-50190476D01*
X157907044Y-50190476D02*
X157954663Y-50333333D01*
X157954663Y-50333333D02*
X157954663Y-50428571D01*
X157954663Y-50428571D02*
X157907044Y-50571428D01*
X157907044Y-50571428D02*
X157811805Y-50666666D01*
X157811805Y-50666666D02*
X157716567Y-50714285D01*
X157716567Y-50714285D02*
X157526091Y-50761904D01*
X157526091Y-50761904D02*
X157383234Y-50761904D01*
X157383234Y-50761904D02*
X157192758Y-50714285D01*
X157192758Y-50714285D02*
X157097520Y-50666666D01*
X157097520Y-50666666D02*
X157002282Y-50571428D01*
X157002282Y-50571428D02*
X156954663Y-50428571D01*
X156954663Y-50428571D02*
X156954663Y-50333333D01*
X156954663Y-50333333D02*
X157002282Y-50190476D01*
X157002282Y-50190476D02*
X157049901Y-50142857D01*
X157049901Y-49761904D02*
X157002282Y-49714285D01*
X157002282Y-49714285D02*
X156954663Y-49619047D01*
X156954663Y-49619047D02*
X156954663Y-49380952D01*
X156954663Y-49380952D02*
X157002282Y-49285714D01*
X157002282Y-49285714D02*
X157049901Y-49238095D01*
X157049901Y-49238095D02*
X157145139Y-49190476D01*
X157145139Y-49190476D02*
X157240377Y-49190476D01*
X157240377Y-49190476D02*
X157383234Y-49238095D01*
X157383234Y-49238095D02*
X157954663Y-49809523D01*
X157954663Y-49809523D02*
X157954663Y-49190476D01*
X157049901Y-48809523D02*
X157002282Y-48761904D01*
X157002282Y-48761904D02*
X156954663Y-48666666D01*
X156954663Y-48666666D02*
X156954663Y-48428571D01*
X156954663Y-48428571D02*
X157002282Y-48333333D01*
X157002282Y-48333333D02*
X157049901Y-48285714D01*
X157049901Y-48285714D02*
X157145139Y-48238095D01*
X157145139Y-48238095D02*
X157240377Y-48238095D01*
X157240377Y-48238095D02*
X157383234Y-48285714D01*
X157383234Y-48285714D02*
X157954663Y-48857142D01*
X157954663Y-48857142D02*
X157954663Y-48238095D01*
X159261905Y-31954663D02*
X159261905Y-30954663D01*
X159261905Y-30954663D02*
X159500000Y-30954663D01*
X159500000Y-30954663D02*
X159642857Y-31002282D01*
X159642857Y-31002282D02*
X159738095Y-31097520D01*
X159738095Y-31097520D02*
X159785714Y-31192758D01*
X159785714Y-31192758D02*
X159833333Y-31383234D01*
X159833333Y-31383234D02*
X159833333Y-31526091D01*
X159833333Y-31526091D02*
X159785714Y-31716567D01*
X159785714Y-31716567D02*
X159738095Y-31811805D01*
X159738095Y-31811805D02*
X159642857Y-31907044D01*
X159642857Y-31907044D02*
X159500000Y-31954663D01*
X159500000Y-31954663D02*
X159261905Y-31954663D01*
X160309524Y-31954663D02*
X160500000Y-31954663D01*
X160500000Y-31954663D02*
X160595238Y-31907044D01*
X160595238Y-31907044D02*
X160642857Y-31859424D01*
X160642857Y-31859424D02*
X160738095Y-31716567D01*
X160738095Y-31716567D02*
X160785714Y-31526091D01*
X160785714Y-31526091D02*
X160785714Y-31145139D01*
X160785714Y-31145139D02*
X160738095Y-31049901D01*
X160738095Y-31049901D02*
X160690476Y-31002282D01*
X160690476Y-31002282D02*
X160595238Y-30954663D01*
X160595238Y-30954663D02*
X160404762Y-30954663D01*
X160404762Y-30954663D02*
X160309524Y-31002282D01*
X160309524Y-31002282D02*
X160261905Y-31049901D01*
X160261905Y-31049901D02*
X160214286Y-31145139D01*
X160214286Y-31145139D02*
X160214286Y-31383234D01*
X160214286Y-31383234D02*
X160261905Y-31478472D01*
X160261905Y-31478472D02*
X160309524Y-31526091D01*
X160309524Y-31526091D02*
X160404762Y-31573710D01*
X160404762Y-31573710D02*
X160595238Y-31573710D01*
X160595238Y-31573710D02*
X160690476Y-31526091D01*
X160690476Y-31526091D02*
X160738095Y-31478472D01*
X160738095Y-31478472D02*
X160785714Y-31383234D01*
X54488095Y-40454663D02*
X54488095Y-41264186D01*
X54488095Y-41264186D02*
X54535714Y-41359424D01*
X54535714Y-41359424D02*
X54583333Y-41407044D01*
X54583333Y-41407044D02*
X54678571Y-41454663D01*
X54678571Y-41454663D02*
X54869047Y-41454663D01*
X54869047Y-41454663D02*
X54964285Y-41407044D01*
X54964285Y-41407044D02*
X55011904Y-41359424D01*
X55011904Y-41359424D02*
X55059523Y-41264186D01*
X55059523Y-41264186D02*
X55059523Y-40454663D01*
X55678571Y-40883234D02*
X55583333Y-40835615D01*
X55583333Y-40835615D02*
X55535714Y-40787996D01*
X55535714Y-40787996D02*
X55488095Y-40692758D01*
X55488095Y-40692758D02*
X55488095Y-40645139D01*
X55488095Y-40645139D02*
X55535714Y-40549901D01*
X55535714Y-40549901D02*
X55583333Y-40502282D01*
X55583333Y-40502282D02*
X55678571Y-40454663D01*
X55678571Y-40454663D02*
X55869047Y-40454663D01*
X55869047Y-40454663D02*
X55964285Y-40502282D01*
X55964285Y-40502282D02*
X56011904Y-40549901D01*
X56011904Y-40549901D02*
X56059523Y-40645139D01*
X56059523Y-40645139D02*
X56059523Y-40692758D01*
X56059523Y-40692758D02*
X56011904Y-40787996D01*
X56011904Y-40787996D02*
X55964285Y-40835615D01*
X55964285Y-40835615D02*
X55869047Y-40883234D01*
X55869047Y-40883234D02*
X55678571Y-40883234D01*
X55678571Y-40883234D02*
X55583333Y-40930853D01*
X55583333Y-40930853D02*
X55535714Y-40978472D01*
X55535714Y-40978472D02*
X55488095Y-41073710D01*
X55488095Y-41073710D02*
X55488095Y-41264186D01*
X55488095Y-41264186D02*
X55535714Y-41359424D01*
X55535714Y-41359424D02*
X55583333Y-41407044D01*
X55583333Y-41407044D02*
X55678571Y-41454663D01*
X55678571Y-41454663D02*
X55869047Y-41454663D01*
X55869047Y-41454663D02*
X55964285Y-41407044D01*
X55964285Y-41407044D02*
X56011904Y-41359424D01*
X56011904Y-41359424D02*
X56059523Y-41264186D01*
X56059523Y-41264186D02*
X56059523Y-41073710D01*
X56059523Y-41073710D02*
X56011904Y-40978472D01*
X56011904Y-40978472D02*
X55964285Y-40930853D01*
X55964285Y-40930853D02*
X55869047Y-40883234D01*
X55607142Y-35359424D02*
X55559523Y-35407044D01*
X55559523Y-35407044D02*
X55416666Y-35454663D01*
X55416666Y-35454663D02*
X55321428Y-35454663D01*
X55321428Y-35454663D02*
X55178571Y-35407044D01*
X55178571Y-35407044D02*
X55083333Y-35311805D01*
X55083333Y-35311805D02*
X55035714Y-35216567D01*
X55035714Y-35216567D02*
X54988095Y-35026091D01*
X54988095Y-35026091D02*
X54988095Y-34883234D01*
X54988095Y-34883234D02*
X55035714Y-34692758D01*
X55035714Y-34692758D02*
X55083333Y-34597520D01*
X55083333Y-34597520D02*
X55178571Y-34502282D01*
X55178571Y-34502282D02*
X55321428Y-34454663D01*
X55321428Y-34454663D02*
X55416666Y-34454663D01*
X55416666Y-34454663D02*
X55559523Y-34502282D01*
X55559523Y-34502282D02*
X55607142Y-34549901D01*
X56464285Y-34787996D02*
X56464285Y-35454663D01*
X56226190Y-34407044D02*
X55988095Y-35121329D01*
X55988095Y-35121329D02*
X56607142Y-35121329D01*
X56940476Y-34549901D02*
X56988095Y-34502282D01*
X56988095Y-34502282D02*
X57083333Y-34454663D01*
X57083333Y-34454663D02*
X57321428Y-34454663D01*
X57321428Y-34454663D02*
X57416666Y-34502282D01*
X57416666Y-34502282D02*
X57464285Y-34549901D01*
X57464285Y-34549901D02*
X57511904Y-34645139D01*
X57511904Y-34645139D02*
X57511904Y-34740377D01*
X57511904Y-34740377D02*
X57464285Y-34883234D01*
X57464285Y-34883234D02*
X56892857Y-35454663D01*
X56892857Y-35454663D02*
X57511904Y-35454663D01*
D13*
G36*
X57441119Y-58965887D02*
G01*
X57598644Y-58980831D01*
X57750321Y-59012230D01*
X57895610Y-59059775D01*
X58033970Y-59123154D01*
X58164859Y-59202059D01*
X58287737Y-59296179D01*
X58402063Y-59405206D01*
X58507294Y-59528830D01*
X58565561Y-59609466D01*
X58593324Y-59651663D01*
X58621192Y-59696300D01*
X58645394Y-59737224D01*
X58658532Y-59761127D01*
X58691757Y-59824869D01*
X58777814Y-59824869D01*
X58894473Y-59832348D01*
X59002356Y-59854953D01*
X59102065Y-59892936D01*
X59194200Y-59946548D01*
X59279365Y-60016041D01*
X59311159Y-60047860D01*
X59379442Y-60132190D01*
X59432956Y-60224270D01*
X59471394Y-60322222D01*
X59494447Y-60424170D01*
X59501810Y-60528235D01*
X59493175Y-60632541D01*
X59468235Y-60735210D01*
X59436600Y-60814351D01*
X59411352Y-60867489D01*
X59432489Y-60911655D01*
X59472457Y-61014868D01*
X59495240Y-61120973D01*
X59500810Y-61229013D01*
X59489141Y-61338028D01*
X59460203Y-61447059D01*
X59448885Y-61477759D01*
X59436409Y-61508011D01*
X59425246Y-61532327D01*
X59417830Y-61545417D01*
X59416008Y-61559161D01*
X59423956Y-61585158D01*
X59435539Y-61611357D01*
X59468095Y-61696277D01*
X59490295Y-61789713D01*
X59501110Y-61885430D01*
X59499511Y-61977193D01*
X59498103Y-61990519D01*
X59477066Y-62094680D01*
X59439868Y-62195021D01*
X59387882Y-62289044D01*
X59322483Y-62374248D01*
X59247938Y-62445770D01*
X59202273Y-62478508D01*
X59145759Y-62511905D01*
X59084691Y-62542728D01*
X59025368Y-62567744D01*
X58984110Y-62581213D01*
X58954783Y-62587033D01*
X58913264Y-62592557D01*
X58864943Y-62597183D01*
X58815209Y-62600306D01*
X58812262Y-62600434D01*
X58693166Y-62605462D01*
X58662799Y-62662619D01*
X58581711Y-62798598D01*
X58488456Y-62925114D01*
X58384419Y-63040950D01*
X58270985Y-63144888D01*
X58149539Y-63235710D01*
X58021466Y-63312196D01*
X57888151Y-63373130D01*
X57831886Y-63393472D01*
X57760104Y-63416036D01*
X57694801Y-63433070D01*
X57631357Y-63445264D01*
X57565153Y-63453309D01*
X57491571Y-63457895D01*
X57405992Y-63459715D01*
X57396790Y-63459761D01*
X57388368Y-63459803D01*
X57312629Y-63459520D01*
X57249971Y-63457851D01*
X57195914Y-63454324D01*
X57145977Y-63448470D01*
X57095682Y-63439817D01*
X57040547Y-63427895D01*
X57005917Y-63419623D01*
X56837348Y-63369907D01*
X56669403Y-63303920D01*
X56503683Y-63222946D01*
X56341790Y-63128270D01*
X56185324Y-63021176D01*
X56035887Y-62902951D01*
X55895080Y-62774879D01*
X55764504Y-62638244D01*
X55645762Y-62494332D01*
X55540453Y-62344427D01*
X55450179Y-62189815D01*
X55433947Y-62158197D01*
X55369901Y-62020734D01*
X55317459Y-61885669D01*
X55275124Y-61748178D01*
X55241400Y-61603433D01*
X55216114Y-61455779D01*
X55212859Y-61424297D01*
X55210038Y-61379469D01*
X55207828Y-61325531D01*
X55206404Y-61266721D01*
X55205938Y-61209604D01*
X55556141Y-61209604D01*
X55563963Y-61381962D01*
X55587159Y-61547683D01*
X55626109Y-61707886D01*
X55681198Y-61863694D01*
X55752806Y-62016225D01*
X55841317Y-62166601D01*
X55922440Y-62283261D01*
X56019900Y-62403462D01*
X56129313Y-62518399D01*
X56248732Y-62626845D01*
X56376209Y-62727573D01*
X56509797Y-62819359D01*
X56647549Y-62900974D01*
X56787517Y-62971194D01*
X56927754Y-63028791D01*
X57066313Y-63072539D01*
X57201246Y-63101211D01*
X57227304Y-63104986D01*
X57274126Y-63109241D01*
X57332576Y-63111501D01*
X57396790Y-63111602D01*
X57432327Y-63110683D01*
X57531364Y-63103645D01*
X57619945Y-63089245D01*
X57704190Y-63065988D01*
X57790221Y-63032376D01*
X57832362Y-63012890D01*
X57950326Y-62946356D01*
X58059441Y-62864796D01*
X58159413Y-62768547D01*
X58249949Y-62657946D01*
X58330755Y-62533328D01*
X58401537Y-62395030D01*
X58430514Y-62327253D01*
X58459303Y-62255849D01*
X58668955Y-62251252D01*
X58736681Y-62249631D01*
X58789408Y-62247949D01*
X58829719Y-62245971D01*
X58860196Y-62243462D01*
X58883423Y-62240186D01*
X58901984Y-62235911D01*
X58918461Y-62230399D01*
X58924493Y-62228021D01*
X58994083Y-62191155D01*
X59053592Y-62142138D01*
X59101137Y-62083194D01*
X59134838Y-62016547D01*
X59150181Y-61961318D01*
X59152570Y-61927876D01*
X59150573Y-61885186D01*
X59144932Y-61840816D01*
X59136389Y-61802337D01*
X59133797Y-61794270D01*
X59110766Y-61744623D01*
X59078646Y-61696592D01*
X59041817Y-61656096D01*
X59016851Y-61636234D01*
X58976699Y-61609639D01*
X58789179Y-61609639D01*
X58601659Y-61609639D01*
X58601659Y-61561283D01*
X58601659Y-61512927D01*
X58786727Y-61512927D01*
X58853059Y-61512655D01*
X58904022Y-61511751D01*
X58941826Y-61510078D01*
X58968678Y-61507504D01*
X58986788Y-61503894D01*
X58996453Y-61500176D01*
X59024759Y-61479943D01*
X59056455Y-61448600D01*
X59087517Y-61410981D01*
X59113920Y-61371917D01*
X59130476Y-61339256D01*
X59144548Y-61288657D01*
X59151033Y-61230748D01*
X59149919Y-61171818D01*
X59141196Y-61118158D01*
X59130893Y-61087843D01*
X59102952Y-61035826D01*
X59069181Y-60989292D01*
X59033136Y-60952719D01*
X59011075Y-60936934D01*
X58998139Y-60929678D01*
X58985711Y-60924236D01*
X58971125Y-60920347D01*
X58951718Y-60917751D01*
X58924824Y-60916186D01*
X58887781Y-60915392D01*
X58837922Y-60915108D01*
X58787716Y-60915073D01*
X58601659Y-60915073D01*
X58601659Y-60866718D01*
X58601659Y-60818362D01*
X58789179Y-60818362D01*
X58976699Y-60818362D01*
X59016063Y-60792288D01*
X59059418Y-60754899D01*
X59099280Y-60703680D01*
X59131567Y-60644909D01*
X59146253Y-60596447D01*
X59152098Y-60539122D01*
X59149224Y-60479196D01*
X59137750Y-60422936D01*
X59126719Y-60393394D01*
X59092663Y-60331716D01*
X59052404Y-60283265D01*
X59003762Y-60244713D01*
X58974410Y-60225940D01*
X58948805Y-60211274D01*
X58924162Y-60200149D01*
X58897697Y-60192001D01*
X58866625Y-60186264D01*
X58828160Y-60182373D01*
X58779518Y-60179763D01*
X58717914Y-60177869D01*
X58668861Y-60176737D01*
X58459115Y-60172152D01*
X58439279Y-60119400D01*
X58426665Y-60088680D01*
X58408710Y-60048535D01*
X58388219Y-60005123D01*
X58375199Y-59978729D01*
X58299170Y-59843923D01*
X58214233Y-59723778D01*
X58120645Y-59618499D01*
X58018665Y-59528294D01*
X57908550Y-59453367D01*
X57790557Y-59393927D01*
X57664943Y-59350179D01*
X57563338Y-59327343D01*
X57493874Y-59319088D01*
X57413217Y-59315822D01*
X57326970Y-59317337D01*
X57240738Y-59323423D01*
X57160125Y-59333871D01*
X57107025Y-59344374D01*
X56963462Y-59386072D01*
X56817515Y-59443251D01*
X56671421Y-59514425D01*
X56527420Y-59598108D01*
X56387750Y-59692816D01*
X56254650Y-59797063D01*
X56130359Y-59909365D01*
X56017116Y-60028237D01*
X55945272Y-60115004D01*
X55838435Y-60265326D01*
X55748766Y-60419378D01*
X55676229Y-60577265D01*
X55620784Y-60739094D01*
X55582395Y-60904972D01*
X55561024Y-61075006D01*
X55556141Y-61209604D01*
X55205938Y-61209604D01*
X55206330Y-61141826D01*
X55207683Y-61086576D01*
X55210375Y-61038809D01*
X55214785Y-60993479D01*
X55221291Y-60945540D01*
X55229645Y-60893661D01*
X55269119Y-60707131D01*
X55323623Y-60527951D01*
X55393657Y-60355020D01*
X55479718Y-60187237D01*
X55582306Y-60023500D01*
X55689402Y-59878403D01*
X55733845Y-59825511D01*
X55788692Y-59765322D01*
X55850441Y-59701295D01*
X55915589Y-59636894D01*
X55980632Y-59575579D01*
X56042068Y-59520812D01*
X56096393Y-59476054D01*
X56097295Y-59475354D01*
X56268787Y-59350538D01*
X56439208Y-59243154D01*
X56608520Y-59153216D01*
X56776684Y-59080739D01*
X56943663Y-59025737D01*
X57109419Y-58988225D01*
X57273914Y-58968217D01*
X57437110Y-58965726D01*
X57441119Y-58965887D01*
G37*
G36*
X57909693Y-60952793D02*
G01*
X57937784Y-60978123D01*
X57959846Y-61004342D01*
X57959846Y-61215554D01*
X57959846Y-61426766D01*
X57929953Y-61456659D01*
X57902736Y-61478480D01*
X57874224Y-61487443D01*
X57842098Y-61486799D01*
X57828711Y-61481766D01*
X57803120Y-61469093D01*
X57768082Y-61450380D01*
X57726355Y-61427228D01*
X57680697Y-61401235D01*
X57633863Y-61374003D01*
X57588612Y-61347130D01*
X57547700Y-61322217D01*
X57513885Y-61300863D01*
X57489923Y-61284668D01*
X57479743Y-61276543D01*
X57462930Y-61248533D01*
X57457392Y-61213782D01*
X57463121Y-61179033D01*
X57479894Y-61151247D01*
X57495155Y-61139375D01*
X57522919Y-61120936D01*
X57560191Y-61097664D01*
X57603974Y-61071294D01*
X57651272Y-61043560D01*
X57699087Y-61016198D01*
X57744424Y-60990942D01*
X57784286Y-60969527D01*
X57815677Y-60953688D01*
X57835599Y-60945159D01*
X57836216Y-60944963D01*
X57875067Y-60940482D01*
X57909693Y-60952793D01*
G37*
G36*
X57084241Y-61476914D02*
G01*
X57135034Y-61482529D01*
X57150984Y-61485695D01*
X57221742Y-61508778D01*
X57292955Y-61543639D01*
X57358100Y-61586690D01*
X57399027Y-61622168D01*
X57454224Y-61686457D01*
X57499851Y-61758687D01*
X57534862Y-61835785D01*
X57558211Y-61914678D01*
X57568855Y-61992293D01*
X57565748Y-62065557D01*
X57559864Y-62095196D01*
X57531722Y-62172508D01*
X57489666Y-62241587D01*
X57435792Y-62301027D01*
X57372194Y-62349420D01*
X57300969Y-62385357D01*
X57224209Y-62407430D01*
X57144011Y-62414232D01*
X57091639Y-62409890D01*
X57022151Y-62392157D01*
X56948691Y-62360540D01*
X56874200Y-62317322D01*
X56801620Y-62264783D01*
X56733894Y-62205208D01*
X56673964Y-62140877D01*
X56624773Y-62074075D01*
X56598417Y-62027297D01*
X56572262Y-61965150D01*
X56558375Y-61908555D01*
X56555743Y-61851536D01*
X56560647Y-61804243D01*
X56580881Y-61723985D01*
X56615138Y-61654308D01*
X56663325Y-61595310D01*
X56725347Y-61547090D01*
X56801112Y-61509745D01*
X56860849Y-61490502D01*
X56907036Y-61481908D01*
X56963895Y-61476708D01*
X57025079Y-61475009D01*
X57084241Y-61476914D01*
G37*
G36*
X57246485Y-60025440D02*
G01*
X57321424Y-60052446D01*
X57334367Y-60058619D01*
X57406808Y-60103407D01*
X57467739Y-60159864D01*
X57515639Y-60226081D01*
X57548983Y-60300153D01*
X57560062Y-60341130D01*
X57568434Y-60386339D01*
X57571406Y-60422758D01*
X57568973Y-60458331D01*
X57561131Y-60501005D01*
X57559988Y-60506247D01*
X57530394Y-60604698D01*
X57487596Y-60693265D01*
X57432524Y-60770851D01*
X57366111Y-60836362D01*
X57289288Y-60888703D01*
X57202987Y-60926778D01*
X57201884Y-60927149D01*
X57123642Y-60945931D01*
X57036985Y-60953971D01*
X56947410Y-60951280D01*
X56860413Y-60937871D01*
X56816890Y-60926317D01*
X56762890Y-60903240D01*
X56708175Y-60869058D01*
X56659338Y-60828379D01*
X56630099Y-60795805D01*
X56595771Y-60738159D01*
X56571876Y-60671851D01*
X56559083Y-60601426D01*
X56558058Y-60531428D01*
X56569473Y-60466401D01*
X56578029Y-60441927D01*
X56617042Y-60366275D01*
X56670341Y-60291131D01*
X56734834Y-60219707D01*
X56807433Y-60155215D01*
X56885046Y-60100866D01*
X56930559Y-60075550D01*
X57015681Y-60039146D01*
X57095471Y-60018712D01*
X57171786Y-60014169D01*
X57246485Y-60025440D01*
G37*
D14*
X53337221Y-34240000D02*
X53662779Y-34240000D01*
X53337221Y-35260000D02*
X53662779Y-35260000D01*
X73912779Y-58740000D02*
X73587221Y-58740000D01*
X73912779Y-59760000D02*
X73587221Y-59760000D01*
X77162779Y-58740000D02*
X76837221Y-58740000D01*
X77162779Y-59760000D02*
X76837221Y-59760000D01*
X78262779Y-47490000D02*
X77937221Y-47490000D01*
X78262779Y-48510000D02*
X77937221Y-48510000D01*
D15*
X80130000Y-39990000D02*
X95130000Y-39990000D01*
X80130000Y-54990000D02*
X80130000Y-39990000D01*
X95130000Y-39990000D02*
X95130000Y-54990000D01*
X95130000Y-54990000D02*
X80130000Y-54990000D01*
D14*
X73726221Y-41805607D02*
X74051779Y-41805607D01*
X73726221Y-42825607D02*
X74051779Y-42825607D01*
X74051779Y-40055607D02*
X73726221Y-40055607D01*
X74051779Y-41075607D02*
X73726221Y-41075607D01*
X74226221Y-36055607D02*
X74551779Y-36055607D01*
X74226221Y-37075607D02*
X74551779Y-37075607D01*
X74397578Y-37855607D02*
X73880422Y-37855607D01*
X74397578Y-39275607D02*
X73880422Y-39275607D01*
X75929000Y-45451859D02*
X75929000Y-42679355D01*
X79349000Y-45451859D02*
X79349000Y-42679355D01*
X72029000Y-44415607D02*
X72029000Y-46215607D01*
X75249000Y-46215607D02*
X75249000Y-43765607D01*
X77254000Y-39665607D02*
X77254000Y-39365607D01*
X78024000Y-39665607D02*
X78024000Y-39365607D01*
D15*
X58725000Y-47775000D02*
X58725000Y-48850000D01*
X58725000Y-47775000D02*
X59800000Y-47775000D01*
X58725000Y-58125000D02*
X58725000Y-57050000D01*
X58725000Y-58125000D02*
X59725000Y-58125000D01*
X59725000Y-58125000D02*
X59725000Y-59150000D01*
X69075000Y-47775000D02*
X68000000Y-47775000D01*
X69075000Y-47775000D02*
X69075000Y-48850000D01*
X69075000Y-58125000D02*
X68000000Y-58125000D01*
X69075000Y-58125000D02*
X69075000Y-57050000D01*
X58575000Y-37475000D02*
X59225000Y-37475000D01*
X58575000Y-43225000D02*
X58575000Y-37475000D01*
X58575000Y-43225000D02*
X59150000Y-43225000D01*
X59150000Y-43225000D02*
X59150000Y-44825000D01*
X69225000Y-37475000D02*
X68575000Y-37475000D01*
X69225000Y-43225000D02*
X68575000Y-43225000D01*
X69225000Y-43225000D02*
X69225000Y-37475000D01*
D14*
X81850000Y-39610000D02*
X84300000Y-39610000D01*
X83650000Y-36390000D02*
X81850000Y-36390000D01*
X87090000Y-36420000D02*
X87090000Y-39080000D01*
X92230000Y-36420000D02*
X87090000Y-36420000D01*
X92230000Y-36420000D02*
X92230000Y-39080000D01*
X92230000Y-39080000D02*
X87090000Y-39080000D01*
X93500000Y-36420000D02*
X94830000Y-36420000D01*
X94830000Y-36420000D02*
X94830000Y-37750000D01*
X52240000Y-50087221D02*
X52240000Y-50412779D01*
X53260000Y-50087221D02*
X53260000Y-50412779D01*
X87162779Y-57490000D02*
X86837221Y-57490000D01*
X87162779Y-58510000D02*
X86837221Y-58510000D01*
X90662779Y-57490000D02*
X90337221Y-57490000D01*
X90662779Y-58510000D02*
X90337221Y-58510000D01*
X111850000Y-42600000D02*
X111850000Y-49500000D01*
X115150000Y-42600000D02*
X111850000Y-42600000D01*
X115150000Y-42600000D02*
X115150000Y-49500000D01*
X109022369Y-52215000D02*
X105977631Y-52215000D01*
X109022369Y-58785000D02*
X105977631Y-58785000D01*
X99850000Y-51400000D02*
X99850000Y-44500000D01*
X99850000Y-51400000D02*
X103150000Y-51400000D01*
X103150000Y-51400000D02*
X103150000Y-44500000D01*
X109022369Y-35215000D02*
X105977631Y-35215000D01*
X109022369Y-41785000D02*
X105977631Y-41785000D01*
X97977631Y-52215000D02*
X101022369Y-52215000D01*
X97977631Y-58785000D02*
X101022369Y-58785000D01*
X103850000Y-42600000D02*
X103850000Y-49500000D01*
X107150000Y-42600000D02*
X103850000Y-42600000D01*
X107150000Y-42600000D02*
X107150000Y-49500000D01*
X95850000Y-42600000D02*
X95850000Y-49500000D01*
X99150000Y-42600000D02*
X95850000Y-42600000D01*
X99150000Y-42600000D02*
X99150000Y-49500000D01*
X107850000Y-51400000D02*
X107850000Y-44500000D01*
X107850000Y-51400000D02*
X111150000Y-51400000D01*
X111150000Y-51400000D02*
X111150000Y-44500000D01*
X101022369Y-35215000D02*
X97977631Y-35215000D01*
X101022369Y-41785000D02*
X97977631Y-41785000D01*
X131215000Y-44522369D02*
X131215000Y-41477631D01*
X137785000Y-44522369D02*
X137785000Y-41477631D01*
X116215000Y-33477631D02*
X116215000Y-36522369D01*
X122785000Y-33477631D02*
X122785000Y-36522369D01*
X123715000Y-33477631D02*
X123715000Y-36522369D01*
X130285000Y-33477631D02*
X130285000Y-36522369D01*
X116215000Y-60522369D02*
X116215000Y-57477631D01*
X122785000Y-60522369D02*
X122785000Y-57477631D01*
X138715000Y-33477631D02*
X138715000Y-36522369D01*
X145285000Y-33477631D02*
X145285000Y-36522369D01*
X138715000Y-60522369D02*
X138715000Y-57477631D01*
X145285000Y-60522369D02*
X145285000Y-57477631D01*
X116215000Y-49477631D02*
X116215000Y-52522369D01*
X122785000Y-49477631D02*
X122785000Y-52522369D01*
X138715000Y-44522369D02*
X138715000Y-41477631D01*
X145285000Y-44522369D02*
X145285000Y-41477631D01*
X146215000Y-60522369D02*
X146215000Y-57477631D01*
X152785000Y-60522369D02*
X152785000Y-57477631D01*
X123715000Y-49477631D02*
X123715000Y-52522369D01*
X130285000Y-49477631D02*
X130285000Y-52522369D01*
X146215000Y-49477631D02*
X146215000Y-52522369D01*
X152785000Y-49477631D02*
X152785000Y-52522369D01*
X116215000Y-44522369D02*
X116215000Y-41477631D01*
X122785000Y-44522369D02*
X122785000Y-41477631D01*
X131215000Y-60522369D02*
X131215000Y-57477631D01*
X137785000Y-60522369D02*
X137785000Y-57477631D01*
X123715000Y-44522369D02*
X123715000Y-41477631D01*
X130285000Y-44522369D02*
X130285000Y-41477631D01*
X146215000Y-44522369D02*
X146215000Y-41477631D01*
X152785000Y-44522369D02*
X152785000Y-41477631D01*
X146215000Y-33477631D02*
X146215000Y-36522369D01*
X152785000Y-33477631D02*
X152785000Y-36522369D01*
X131215000Y-33477631D02*
X131215000Y-36522369D01*
X137785000Y-33477631D02*
X137785000Y-36522369D01*
X123715000Y-60522369D02*
X123715000Y-57477631D01*
X130285000Y-60522369D02*
X130285000Y-57477631D01*
X131215000Y-49477631D02*
X131215000Y-52522369D01*
X137785000Y-49477631D02*
X137785000Y-52522369D01*
X72090000Y-51840000D02*
X73350000Y-51840000D01*
X72090000Y-57850000D02*
X72090000Y-51840000D01*
X78910000Y-51840000D02*
X77650000Y-51840000D01*
X78910000Y-55600000D02*
X78910000Y-51840000D01*
X65765000Y-61265000D02*
X65765000Y-63550000D01*
X67235000Y-61265000D02*
X65765000Y-61265000D01*
X67235000Y-63550000D02*
X67235000Y-61265000D01*
X62265000Y-61265000D02*
X62265000Y-63550000D01*
X63735000Y-61265000D02*
X62265000Y-61265000D01*
X63735000Y-63550000D02*
X63735000Y-61265000D01*
X60740000Y-62912779D02*
X60740000Y-62587221D01*
X61760000Y-62912779D02*
X61760000Y-62587221D01*
X64240000Y-62912779D02*
X64240000Y-62587221D01*
X65260000Y-62912779D02*
X65260000Y-62587221D01*
X53970000Y-54930000D02*
X53970000Y-52330000D01*
X56630000Y-52330000D02*
X53970000Y-52330000D01*
X56630000Y-54930000D02*
X53970000Y-54930000D01*
X56630000Y-54930000D02*
X56630000Y-52330000D01*
X56630000Y-56200000D02*
X56630000Y-57530000D01*
X56630000Y-57530000D02*
X55300000Y-57530000D01*
D15*
X43050000Y-58850000D02*
X43500000Y-58850000D01*
X43500000Y-50850000D02*
X43500000Y-51150000D01*
X43500000Y-51150000D02*
X43050000Y-51150000D01*
X43500000Y-58850000D02*
X43500000Y-59150000D01*
X43500000Y-59150000D02*
X43650000Y-59150000D01*
X43650000Y-50850000D02*
X43500000Y-50850000D01*
X46050000Y-59150000D02*
X47450000Y-59150000D01*
X47450000Y-50850000D02*
X46050000Y-50850000D01*
X49200000Y-53200000D02*
X49200000Y-52200000D01*
X49200000Y-56800000D02*
X49200000Y-57800000D01*
X49625000Y-53200000D02*
X49200000Y-53200000D01*
X49625000Y-53925000D02*
X49625000Y-53200000D01*
D14*
X50490000Y-50412779D02*
X50490000Y-50087221D01*
X51510000Y-50412779D02*
X51510000Y-50087221D01*
X138715000Y-49477631D02*
X138715000Y-52522369D01*
X145285000Y-49477631D02*
X145285000Y-52522369D01*
D16*
X49541134Y-60278828D02*
X49578800Y-60282820D01*
X49632441Y-60286263D01*
X49697345Y-60288821D01*
X49736785Y-60289741D01*
X49935424Y-60293250D01*
X49701702Y-60718700D01*
X49508727Y-60718700D01*
X49438677Y-60719498D01*
X49375433Y-60721692D01*
X49324396Y-60724988D01*
X49290963Y-60729087D01*
X49283176Y-60731086D01*
X49259632Y-60737897D01*
X49250600Y-60736580D01*
X49256501Y-60723918D01*
X49272995Y-60692456D01*
X49298265Y-60645554D01*
X49330495Y-60586574D01*
X49367869Y-60518878D01*
X49380382Y-60496348D01*
X49429800Y-60408990D01*
X49468552Y-60343860D01*
X49497048Y-60300325D01*
X49515696Y-60277755D01*
X49524156Y-60274621D01*
X49541134Y-60278828D01*
G36*
X49541134Y-60278828D02*
G01*
X49578800Y-60282820D01*
X49632441Y-60286263D01*
X49697345Y-60288821D01*
X49736785Y-60289741D01*
X49935424Y-60293250D01*
X49701702Y-60718700D01*
X49508727Y-60718700D01*
X49438677Y-60719498D01*
X49375433Y-60721692D01*
X49324396Y-60724988D01*
X49290963Y-60729087D01*
X49283176Y-60731086D01*
X49259632Y-60737897D01*
X49250600Y-60736580D01*
X49256501Y-60723918D01*
X49272995Y-60692456D01*
X49298265Y-60645554D01*
X49330495Y-60586574D01*
X49367869Y-60518878D01*
X49380382Y-60496348D01*
X49429800Y-60408990D01*
X49468552Y-60343860D01*
X49497048Y-60300325D01*
X49515696Y-60277755D01*
X49524156Y-60274621D01*
X49541134Y-60278828D01*
G37*
X50197685Y-59409993D02*
X50268494Y-59410745D01*
X50329800Y-59411741D01*
X50377375Y-59412885D01*
X50406995Y-59414080D01*
X50414897Y-59414964D01*
X50410097Y-59426550D01*
X50394805Y-59456909D01*
X50370832Y-59502595D01*
X50339991Y-59560158D01*
X50304092Y-59626152D01*
X50300075Y-59633482D01*
X50182004Y-59848750D01*
X49957582Y-59855100D01*
X49885281Y-59857070D01*
X49822665Y-59858630D01*
X49773777Y-59859692D01*
X49742657Y-59860167D01*
X49733180Y-59860027D01*
X49739060Y-59849037D01*
X49755463Y-59819183D01*
X49780550Y-59773790D01*
X49812483Y-59716183D01*
X49849424Y-59649686D01*
X49858461Y-59633437D01*
X49983723Y-59408271D01*
X50197685Y-59409993D01*
G36*
X50197685Y-59409993D02*
G01*
X50268494Y-59410745D01*
X50329800Y-59411741D01*
X50377375Y-59412885D01*
X50406995Y-59414080D01*
X50414897Y-59414964D01*
X50410097Y-59426550D01*
X50394805Y-59456909D01*
X50370832Y-59502595D01*
X50339991Y-59560158D01*
X50304092Y-59626152D01*
X50300075Y-59633482D01*
X50182004Y-59848750D01*
X49957582Y-59855100D01*
X49885281Y-59857070D01*
X49822665Y-59858630D01*
X49773777Y-59859692D01*
X49742657Y-59860167D01*
X49733180Y-59860027D01*
X49739060Y-59849037D01*
X49755463Y-59819183D01*
X49780550Y-59773790D01*
X49812483Y-59716183D01*
X49849424Y-59649686D01*
X49858461Y-59633437D01*
X49983723Y-59408271D01*
X50197685Y-59409993D01*
G37*
X52865375Y-59966610D02*
X52942890Y-59968675D01*
X53161730Y-59975750D01*
X52927250Y-60492400D01*
X52679600Y-60486484D01*
X52579688Y-60483416D01*
X52501405Y-60479060D01*
X52440988Y-60472667D01*
X52394670Y-60463490D01*
X52358687Y-60450778D01*
X52329274Y-60433783D01*
X52302667Y-60411756D01*
X52302316Y-60411427D01*
X52266961Y-60363068D01*
X52253896Y-60307996D01*
X52261837Y-60248964D01*
X52289505Y-60188722D01*
X52335617Y-60130022D01*
X52398891Y-60075617D01*
X52478047Y-60028257D01*
X52481600Y-60026512D01*
X52531909Y-60004161D01*
X52581625Y-59987516D01*
X52635288Y-59976007D01*
X52697440Y-59969067D01*
X52772622Y-59966124D01*
X52865375Y-59966610D01*
G36*
X52865375Y-59966610D02*
G01*
X52942890Y-59968675D01*
X53161730Y-59975750D01*
X52927250Y-60492400D01*
X52679600Y-60486484D01*
X52579688Y-60483416D01*
X52501405Y-60479060D01*
X52440988Y-60472667D01*
X52394670Y-60463490D01*
X52358687Y-60450778D01*
X52329274Y-60433783D01*
X52302667Y-60411756D01*
X52302316Y-60411427D01*
X52266961Y-60363068D01*
X52253896Y-60307996D01*
X52261837Y-60248964D01*
X52289505Y-60188722D01*
X52335617Y-60130022D01*
X52398891Y-60075617D01*
X52478047Y-60028257D01*
X52481600Y-60026512D01*
X52531909Y-60004161D01*
X52581625Y-59987516D01*
X52635288Y-59976007D01*
X52697440Y-59969067D01*
X52772622Y-59966124D01*
X52865375Y-59966610D01*
G37*
X51520344Y-58999846D02*
X51548641Y-59022967D01*
X51587594Y-59055920D01*
X51633420Y-59095386D01*
X51682337Y-59138049D01*
X51730561Y-59180591D01*
X51774308Y-59219696D01*
X51809795Y-59252047D01*
X51833240Y-59274325D01*
X51840920Y-59283094D01*
X51834821Y-59294982D01*
X51817274Y-59327428D01*
X51789184Y-59378799D01*
X51751453Y-59447456D01*
X51704985Y-59531766D01*
X51650682Y-59630091D01*
X51589448Y-59740795D01*
X51522186Y-59862244D01*
X51449799Y-59992800D01*
X51373191Y-60130829D01*
X51321770Y-60223400D01*
X50803100Y-61156850D01*
X50553900Y-61160294D01*
X50458604Y-61161067D01*
X50387362Y-61160372D01*
X50338867Y-61158153D01*
X50311813Y-61154356D01*
X50304700Y-61149806D01*
X50310673Y-61137430D01*
X50327907Y-61104699D01*
X50355372Y-61053486D01*
X50392040Y-60985662D01*
X50436883Y-60903103D01*
X50488870Y-60807680D01*
X50546974Y-60701267D01*
X50610165Y-60585737D01*
X50677415Y-60462963D01*
X50747694Y-60334819D01*
X50819975Y-60203177D01*
X50893227Y-60069911D01*
X50966422Y-59936894D01*
X51038532Y-59805998D01*
X51108527Y-59679098D01*
X51175378Y-59558066D01*
X51238057Y-59444776D01*
X51295535Y-59341101D01*
X51346783Y-59248913D01*
X51390772Y-59170086D01*
X51426473Y-59106493D01*
X51444841Y-59074050D01*
X51469560Y-59033379D01*
X51490609Y-59003752D01*
X51504364Y-58990119D01*
X51506487Y-58989872D01*
X51520344Y-58999846D01*
G36*
X51520344Y-58999846D02*
G01*
X51548641Y-59022967D01*
X51587594Y-59055920D01*
X51633420Y-59095386D01*
X51682337Y-59138049D01*
X51730561Y-59180591D01*
X51774308Y-59219696D01*
X51809795Y-59252047D01*
X51833240Y-59274325D01*
X51840920Y-59283094D01*
X51834821Y-59294982D01*
X51817274Y-59327428D01*
X51789184Y-59378799D01*
X51751453Y-59447456D01*
X51704985Y-59531766D01*
X51650682Y-59630091D01*
X51589448Y-59740795D01*
X51522186Y-59862244D01*
X51449799Y-59992800D01*
X51373191Y-60130829D01*
X51321770Y-60223400D01*
X50803100Y-61156850D01*
X50553900Y-61160294D01*
X50458604Y-61161067D01*
X50387362Y-61160372D01*
X50338867Y-61158153D01*
X50311813Y-61154356D01*
X50304700Y-61149806D01*
X50310673Y-61137430D01*
X50327907Y-61104699D01*
X50355372Y-61053486D01*
X50392040Y-60985662D01*
X50436883Y-60903103D01*
X50488870Y-60807680D01*
X50546974Y-60701267D01*
X50610165Y-60585737D01*
X50677415Y-60462963D01*
X50747694Y-60334819D01*
X50819975Y-60203177D01*
X50893227Y-60069911D01*
X50966422Y-59936894D01*
X51038532Y-59805998D01*
X51108527Y-59679098D01*
X51175378Y-59558066D01*
X51238057Y-59444776D01*
X51295535Y-59341101D01*
X51346783Y-59248913D01*
X51390772Y-59170086D01*
X51426473Y-59106493D01*
X51444841Y-59074050D01*
X51469560Y-59033379D01*
X51490609Y-59003752D01*
X51504364Y-58990119D01*
X51506487Y-58989872D01*
X51520344Y-58999846D01*
G37*
X54812967Y-61198125D02*
X54808107Y-61225366D01*
X54795322Y-61268283D01*
X54776971Y-61319330D01*
X54768327Y-61341000D01*
X54681397Y-61522014D01*
X54570373Y-61701865D01*
X54436549Y-61878710D01*
X54281221Y-62050704D01*
X54242506Y-62089466D01*
X54035139Y-62275591D01*
X53811033Y-62443196D01*
X53571502Y-62591630D01*
X53317862Y-62720239D01*
X53051427Y-62828369D01*
X52773514Y-62915367D01*
X52485436Y-62980581D01*
X52427893Y-62990753D01*
X52375330Y-62998644D01*
X52310325Y-63006900D01*
X52237107Y-63015150D01*
X52159907Y-63023019D01*
X52082953Y-63030135D01*
X52010476Y-63036126D01*
X51946706Y-63040617D01*
X51895872Y-63043237D01*
X51862205Y-63043612D01*
X51850062Y-63041702D01*
X51843387Y-63029967D01*
X51825536Y-62998001D01*
X51797616Y-62947805D01*
X51760734Y-62881380D01*
X51715998Y-62800728D01*
X51664514Y-62707849D01*
X51607390Y-62604745D01*
X51545733Y-62493417D01*
X51480650Y-62375867D01*
X51413249Y-62254094D01*
X51344637Y-62130102D01*
X51275920Y-62005889D01*
X51208207Y-61883459D01*
X51142604Y-61764812D01*
X51080219Y-61651949D01*
X51022159Y-61546872D01*
X50969531Y-61451582D01*
X50923442Y-61368079D01*
X50885000Y-61298365D01*
X50855311Y-61244441D01*
X50835484Y-61208309D01*
X50826625Y-61191970D01*
X50826524Y-61191775D01*
X50811806Y-61163201D01*
X52812503Y-61163200D01*
X54813200Y-61163200D01*
X54812967Y-61198125D01*
G36*
X54812967Y-61198125D02*
G01*
X54808107Y-61225366D01*
X54795322Y-61268283D01*
X54776971Y-61319330D01*
X54768327Y-61341000D01*
X54681397Y-61522014D01*
X54570373Y-61701865D01*
X54436549Y-61878710D01*
X54281221Y-62050704D01*
X54242506Y-62089466D01*
X54035139Y-62275591D01*
X53811033Y-62443196D01*
X53571502Y-62591630D01*
X53317862Y-62720239D01*
X53051427Y-62828369D01*
X52773514Y-62915367D01*
X52485436Y-62980581D01*
X52427893Y-62990753D01*
X52375330Y-62998644D01*
X52310325Y-63006900D01*
X52237107Y-63015150D01*
X52159907Y-63023019D01*
X52082953Y-63030135D01*
X52010476Y-63036126D01*
X51946706Y-63040617D01*
X51895872Y-63043237D01*
X51862205Y-63043612D01*
X51850062Y-63041702D01*
X51843387Y-63029967D01*
X51825536Y-62998001D01*
X51797616Y-62947805D01*
X51760734Y-62881380D01*
X51715998Y-62800728D01*
X51664514Y-62707849D01*
X51607390Y-62604745D01*
X51545733Y-62493417D01*
X51480650Y-62375867D01*
X51413249Y-62254094D01*
X51344637Y-62130102D01*
X51275920Y-62005889D01*
X51208207Y-61883459D01*
X51142604Y-61764812D01*
X51080219Y-61651949D01*
X51022159Y-61546872D01*
X50969531Y-61451582D01*
X50923442Y-61368079D01*
X50885000Y-61298365D01*
X50855311Y-61244441D01*
X50835484Y-61208309D01*
X50826625Y-61191970D01*
X50826524Y-61191775D01*
X50811806Y-61163201D01*
X52812503Y-61163200D01*
X54813200Y-61163200D01*
X54812967Y-61198125D01*
G37*
X49997084Y-61166033D02*
X50091133Y-61166678D01*
X50170076Y-61167643D01*
X50231465Y-61168902D01*
X50272853Y-61170434D01*
X50291794Y-61172212D01*
X50292684Y-61172607D01*
X50300060Y-61185045D01*
X50318637Y-61217881D01*
X50347387Y-61269252D01*
X50385283Y-61337292D01*
X50431296Y-61420137D01*
X50484399Y-61515924D01*
X50543564Y-61622788D01*
X50607763Y-61738865D01*
X50675968Y-61862291D01*
X50747152Y-61991201D01*
X50820286Y-62123732D01*
X50894343Y-62258018D01*
X50968295Y-62392197D01*
X51041114Y-62524403D01*
X51111773Y-62652772D01*
X51179242Y-62775441D01*
X51242496Y-62890545D01*
X51300505Y-62996219D01*
X51352242Y-63090600D01*
X51396680Y-63171824D01*
X51432789Y-63238025D01*
X51459543Y-63287341D01*
X51475914Y-63317906D01*
X51480859Y-63327644D01*
X51480698Y-63332206D01*
X51475068Y-63336023D01*
X51461950Y-63339159D01*
X51439327Y-63341681D01*
X51405182Y-63343653D01*
X51357497Y-63345141D01*
X51294256Y-63346209D01*
X51213441Y-63346924D01*
X51113034Y-63347351D01*
X50991019Y-63347554D01*
X50864281Y-63347600D01*
X50240045Y-63347600D01*
X50211658Y-63319025D01*
X50195418Y-63297745D01*
X50171214Y-63259995D01*
X50141678Y-63210546D01*
X50109442Y-63154169D01*
X50077139Y-63095635D01*
X50047401Y-63039714D01*
X50022860Y-62991178D01*
X50006149Y-62954796D01*
X49999900Y-62935340D01*
X49999899Y-62935241D01*
X50003002Y-62927960D01*
X50014588Y-62922719D01*
X50038075Y-62919199D01*
X50076879Y-62917084D01*
X50134419Y-62916057D01*
X50209450Y-62915800D01*
X50279188Y-62915350D01*
X50339096Y-62914102D01*
X50384989Y-62912215D01*
X50412681Y-62909845D01*
X50419000Y-62907929D01*
X50413164Y-62894852D01*
X50396914Y-62863110D01*
X50372132Y-62816259D01*
X50340702Y-62757859D01*
X50304508Y-62691466D01*
X50301525Y-62686027D01*
X50184050Y-62471997D01*
X49974150Y-62471649D01*
X49890419Y-62470987D01*
X49828557Y-62469133D01*
X49785052Y-62465807D01*
X49756389Y-62460727D01*
X49739055Y-62453614D01*
X49737805Y-62452777D01*
X49721939Y-62434963D01*
X49698240Y-62400139D01*
X49669200Y-62352871D01*
X49637310Y-62297723D01*
X49605061Y-62239259D01*
X49574944Y-62182044D01*
X49549451Y-62130643D01*
X49531072Y-62089621D01*
X49522299Y-62063540D01*
X49522205Y-62057734D01*
X49529342Y-62050683D01*
X49546762Y-62045636D01*
X49577863Y-62042298D01*
X49626043Y-62040376D01*
X49694701Y-62039574D01*
X49732801Y-62039500D01*
X49801431Y-62038940D01*
X49860123Y-62037390D01*
X49904646Y-62035050D01*
X49930767Y-62032117D01*
X49935873Y-62029975D01*
X49929775Y-62016398D01*
X49913122Y-61984317D01*
X49887855Y-61937342D01*
X49855917Y-61879081D01*
X49819249Y-61813145D01*
X49817992Y-61810900D01*
X49700637Y-61601350D01*
X49482381Y-61595000D01*
X49399498Y-61592188D01*
X49338432Y-61589011D01*
X49295599Y-61585066D01*
X49267416Y-61579952D01*
X49250299Y-61573267D01*
X49243743Y-61568228D01*
X49230972Y-61550638D01*
X49208554Y-61514905D01*
X49178981Y-61465198D01*
X49144747Y-61405685D01*
X49118376Y-61358678D01*
X49013391Y-61169550D01*
X49648767Y-61166257D01*
X49773454Y-61165798D01*
X49890375Y-61165732D01*
X49997084Y-61166033D01*
G36*
X49997084Y-61166033D02*
G01*
X50091133Y-61166678D01*
X50170076Y-61167643D01*
X50231465Y-61168902D01*
X50272853Y-61170434D01*
X50291794Y-61172212D01*
X50292684Y-61172607D01*
X50300060Y-61185045D01*
X50318637Y-61217881D01*
X50347387Y-61269252D01*
X50385283Y-61337292D01*
X50431296Y-61420137D01*
X50484399Y-61515924D01*
X50543564Y-61622788D01*
X50607763Y-61738865D01*
X50675968Y-61862291D01*
X50747152Y-61991201D01*
X50820286Y-62123732D01*
X50894343Y-62258018D01*
X50968295Y-62392197D01*
X51041114Y-62524403D01*
X51111773Y-62652772D01*
X51179242Y-62775441D01*
X51242496Y-62890545D01*
X51300505Y-62996219D01*
X51352242Y-63090600D01*
X51396680Y-63171824D01*
X51432789Y-63238025D01*
X51459543Y-63287341D01*
X51475914Y-63317906D01*
X51480859Y-63327644D01*
X51480698Y-63332206D01*
X51475068Y-63336023D01*
X51461950Y-63339159D01*
X51439327Y-63341681D01*
X51405182Y-63343653D01*
X51357497Y-63345141D01*
X51294256Y-63346209D01*
X51213441Y-63346924D01*
X51113034Y-63347351D01*
X50991019Y-63347554D01*
X50864281Y-63347600D01*
X50240045Y-63347600D01*
X50211658Y-63319025D01*
X50195418Y-63297745D01*
X50171214Y-63259995D01*
X50141678Y-63210546D01*
X50109442Y-63154169D01*
X50077139Y-63095635D01*
X50047401Y-63039714D01*
X50022860Y-62991178D01*
X50006149Y-62954796D01*
X49999900Y-62935340D01*
X49999899Y-62935241D01*
X50003002Y-62927960D01*
X50014588Y-62922719D01*
X50038075Y-62919199D01*
X50076879Y-62917084D01*
X50134419Y-62916057D01*
X50209450Y-62915800D01*
X50279188Y-62915350D01*
X50339096Y-62914102D01*
X50384989Y-62912215D01*
X50412681Y-62909845D01*
X50419000Y-62907929D01*
X50413164Y-62894852D01*
X50396914Y-62863110D01*
X50372132Y-62816259D01*
X50340702Y-62757859D01*
X50304508Y-62691466D01*
X50301525Y-62686027D01*
X50184050Y-62471997D01*
X49974150Y-62471649D01*
X49890419Y-62470987D01*
X49828557Y-62469133D01*
X49785052Y-62465807D01*
X49756389Y-62460727D01*
X49739055Y-62453614D01*
X49737805Y-62452777D01*
X49721939Y-62434963D01*
X49698240Y-62400139D01*
X49669200Y-62352871D01*
X49637310Y-62297723D01*
X49605061Y-62239259D01*
X49574944Y-62182044D01*
X49549451Y-62130643D01*
X49531072Y-62089621D01*
X49522299Y-62063540D01*
X49522205Y-62057734D01*
X49529342Y-62050683D01*
X49546762Y-62045636D01*
X49577863Y-62042298D01*
X49626043Y-62040376D01*
X49694701Y-62039574D01*
X49732801Y-62039500D01*
X49801431Y-62038940D01*
X49860123Y-62037390D01*
X49904646Y-62035050D01*
X49930767Y-62032117D01*
X49935873Y-62029975D01*
X49929775Y-62016398D01*
X49913122Y-61984317D01*
X49887855Y-61937342D01*
X49855917Y-61879081D01*
X49819249Y-61813145D01*
X49817992Y-61810900D01*
X49700637Y-61601350D01*
X49482381Y-61595000D01*
X49399498Y-61592188D01*
X49338432Y-61589011D01*
X49295599Y-61585066D01*
X49267416Y-61579952D01*
X49250299Y-61573267D01*
X49243743Y-61568228D01*
X49230972Y-61550638D01*
X49208554Y-61514905D01*
X49178981Y-61465198D01*
X49144747Y-61405685D01*
X49118376Y-61358678D01*
X49013391Y-61169550D01*
X49648767Y-61166257D01*
X49773454Y-61165798D01*
X49890375Y-61165732D01*
X49997084Y-61166033D01*
G37*
D14*
X155600000Y-32350000D02*
X155600000Y-35650000D01*
X155600000Y-32350000D02*
X162500000Y-32350000D01*
X155600000Y-35650000D02*
X162500000Y-35650000D01*
X54550000Y-40160000D02*
X55950000Y-40160000D01*
X55950000Y-37840000D02*
X54050000Y-37840000D01*
X55087221Y-35990000D02*
X55412779Y-35990000D01*
X55087221Y-37010000D02*
X55412779Y-37010000D01*
%LPC*%
D17*
X52712500Y-34750000D03*
X54287500Y-34750000D03*
D18*
X74537500Y-59250000D03*
X72962500Y-59250000D03*
X77787500Y-59250000D03*
X76212500Y-59250000D03*
X78887500Y-48000000D03*
X77312500Y-48000000D03*
D19*
X81795000Y-53325000D03*
X87630000Y-49295000D03*
X81795000Y-41655000D03*
X87630000Y-45685000D03*
X93465000Y-53325000D03*
X93465000Y-41655000D03*
D17*
X73101500Y-42315607D03*
X74676500Y-42315607D03*
D18*
X74676500Y-40565607D03*
X73101500Y-40565607D03*
D17*
X73601500Y-36565607D03*
X75176500Y-36565607D03*
D20*
X75076500Y-38565607D03*
X73201500Y-38565607D03*
D21*
X77639000Y-46203107D03*
X77639000Y-41928107D03*
D22*
X74589000Y-44215607D03*
X73639000Y-44215607D03*
X72689000Y-44215607D03*
X72689000Y-46415607D03*
X74589000Y-46415607D03*
D23*
X77639000Y-37867107D03*
D24*
X77639000Y-40218107D03*
D25*
X60150000Y-58650000D03*
X60650000Y-58650000D03*
X61150000Y-58650000D03*
X61650000Y-58650000D03*
X62150000Y-58650000D03*
X62650000Y-58650000D03*
X63150000Y-58650000D03*
X63650000Y-58650000D03*
X64150000Y-58650000D03*
X64650000Y-58650000D03*
X65150000Y-58650000D03*
X65650000Y-58650000D03*
X66150000Y-58650000D03*
X66650000Y-58650000D03*
X67150000Y-58650000D03*
X67650000Y-58650000D03*
D26*
X69600000Y-56700000D03*
X69600000Y-56200000D03*
X69600000Y-55700000D03*
X69600000Y-55200000D03*
X69600000Y-54700000D03*
X69600000Y-54200000D03*
X69600000Y-53700000D03*
X69600000Y-53200000D03*
X69600000Y-52700000D03*
X69600000Y-52200000D03*
X69600000Y-51700000D03*
X69600000Y-51200000D03*
X69600000Y-50700000D03*
X69600000Y-50200000D03*
X69600000Y-49700000D03*
X69600000Y-49200000D03*
D25*
X67650000Y-47250000D03*
X67150000Y-47250000D03*
X66650000Y-47250000D03*
X66150000Y-47250000D03*
X65650000Y-47250000D03*
X65150000Y-47250000D03*
X64650000Y-47250000D03*
X64150000Y-47250000D03*
X63650000Y-47250000D03*
X63150000Y-47250000D03*
X62650000Y-47250000D03*
X62150000Y-47250000D03*
X61650000Y-47250000D03*
X61150000Y-47250000D03*
X60650000Y-47250000D03*
X60150000Y-47250000D03*
D26*
X58200000Y-49200000D03*
X58200000Y-49700000D03*
X58200000Y-50200000D03*
X58200000Y-50700000D03*
X58200000Y-51200000D03*
X58200000Y-51700000D03*
X58200000Y-52200000D03*
X58200000Y-52700000D03*
X58200000Y-53200000D03*
X58200000Y-53700000D03*
X58200000Y-54200000D03*
X58200000Y-54700000D03*
X58200000Y-55200000D03*
X58200000Y-55700000D03*
X58200000Y-56200000D03*
X58200000Y-56700000D03*
D27*
X59675000Y-43950000D03*
X60325000Y-43950000D03*
X60975000Y-43950000D03*
X61625000Y-43950000D03*
X62275000Y-43950000D03*
X62925000Y-43950000D03*
X63575000Y-43950000D03*
X64225000Y-43950000D03*
X64875000Y-43950000D03*
X65525000Y-43950000D03*
X66175000Y-43950000D03*
X66825000Y-43950000D03*
X67475000Y-43950000D03*
X68125000Y-43950000D03*
X68125000Y-36750000D03*
X67475000Y-36750000D03*
X66825000Y-36750000D03*
X66175000Y-36750000D03*
X65525000Y-36750000D03*
X64875000Y-36750000D03*
X64225000Y-36750000D03*
X63575000Y-36750000D03*
X62925000Y-36750000D03*
X62275000Y-36750000D03*
X61625000Y-36750000D03*
X60975000Y-36750000D03*
X60325000Y-36750000D03*
X59675000Y-36750000D03*
D28*
X83850000Y-38950000D03*
X83850000Y-38000000D03*
X83850000Y-37050000D03*
X81650000Y-37050000D03*
X81650000Y-38000000D03*
X81650000Y-38950000D03*
D29*
X93500000Y-37750000D03*
D30*
X90960000Y-37750000D03*
X88420000Y-37750000D03*
D31*
X52750000Y-49462500D03*
X52750000Y-51037500D03*
D18*
X87787500Y-58000000D03*
X86212500Y-58000000D03*
X91287500Y-58000000D03*
X89712500Y-58000000D03*
D32*
X113500000Y-44500000D03*
X113500000Y-49500000D03*
D33*
X110125000Y-55500000D03*
X104875000Y-55500000D03*
D32*
X101500000Y-49500000D03*
X101500000Y-44500000D03*
D33*
X110125000Y-38500000D03*
X104875000Y-38500000D03*
D34*
X96875000Y-55500000D03*
X102125000Y-55500000D03*
D32*
X105500000Y-44500000D03*
X105500000Y-49500000D03*
X97500000Y-44500000D03*
X97500000Y-49500000D03*
X109500000Y-49500000D03*
X109500000Y-44500000D03*
D33*
X102125000Y-38500000D03*
X96875000Y-38500000D03*
D35*
X134500000Y-45625000D03*
X134500000Y-40375000D03*
D36*
X119500000Y-32375000D03*
X119500000Y-37625000D03*
X127000000Y-32375000D03*
X127000000Y-37625000D03*
D35*
X119500000Y-61625000D03*
X119500000Y-56375000D03*
D36*
X142000000Y-32375000D03*
X142000000Y-37625000D03*
D35*
X142000000Y-61625000D03*
X142000000Y-56375000D03*
D36*
X119500000Y-48375000D03*
X119500000Y-53625000D03*
D35*
X142000000Y-45625000D03*
X142000000Y-40375000D03*
X149500000Y-61625000D03*
X149500000Y-56375000D03*
D36*
X127000000Y-48375000D03*
X127000000Y-53625000D03*
X149500000Y-48375000D03*
X149500000Y-53625000D03*
D35*
X119500000Y-45625000D03*
X119500000Y-40375000D03*
X134500000Y-61625000D03*
X134500000Y-56375000D03*
X127000000Y-45625000D03*
X127000000Y-40375000D03*
X149500000Y-45625000D03*
X149500000Y-40375000D03*
D36*
X149500000Y-32375000D03*
X149500000Y-37625000D03*
X134500000Y-32375000D03*
X134500000Y-37625000D03*
D35*
X127000000Y-61625000D03*
X127000000Y-56375000D03*
D36*
X134500000Y-48375000D03*
X134500000Y-53625000D03*
D37*
X73200000Y-56900000D03*
X75500000Y-56900000D03*
D38*
X75500000Y-50600000D03*
D37*
X77800000Y-56900000D03*
D31*
X66500000Y-61962500D03*
X66500000Y-63537500D03*
X63000000Y-61962500D03*
X63000000Y-63537500D03*
D39*
X61250000Y-63537500D03*
X61250000Y-61962500D03*
X64750000Y-63537500D03*
X64750000Y-61962500D03*
D29*
X55300000Y-56200000D03*
D30*
X55300000Y-53660000D03*
D40*
X50050000Y-35440000D03*
X50050000Y-42560000D03*
D41*
X51500000Y-39000000D03*
D42*
X46250000Y-34720000D03*
X46250000Y-43280000D03*
D43*
X47600000Y-52500000D03*
X47600000Y-57500000D03*
D44*
X48700000Y-53700000D03*
X48700000Y-54350000D03*
X48700000Y-55000000D03*
X48700000Y-55650000D03*
X48700000Y-56300000D03*
D45*
X44850000Y-51125000D03*
D46*
X48650000Y-51275000D03*
X48650000Y-58725000D03*
D45*
X44850000Y-58875000D03*
D40*
X168500000Y-43560000D03*
X168500000Y-36440000D03*
D41*
X167050000Y-40000000D03*
D42*
X172300000Y-44280000D03*
X172300000Y-35720000D03*
D39*
X51000000Y-51037500D03*
X51000000Y-49462500D03*
D40*
X168500000Y-57560000D03*
X168500000Y-50440000D03*
D41*
X167050000Y-54000000D03*
D42*
X172300000Y-58280000D03*
X172300000Y-49720000D03*
D36*
X142000000Y-48375000D03*
X142000000Y-53625000D03*
D47*
X157500000Y-34000000D03*
X162500000Y-34000000D03*
D48*
X54300000Y-38350000D03*
X54300000Y-39000000D03*
X54300000Y-39650000D03*
X56200000Y-39650000D03*
X56200000Y-38350000D03*
D17*
X54462500Y-36500000D03*
X56037500Y-36500000D03*
D49*
X160750000Y-41550000D03*
D50*
X160750000Y-47000000D03*
X160750000Y-52450000D03*
%LPD*%
M02*
